<svg xmlns="http://www.w3.org/2000/svg" xmlns:xlink="http://www.w3.org/1999/xlink" width="1213.492" height="158.633" viewBox="0 0 1213.492 158.633">
  <defs>
    <linearGradient id="linear-gradient" x1="0.399" y1="1" x2="-0.519" y2="0.5" gradientUnits="objectBoundingBox">
      <stop offset="0" stop-color="#5abfa3"/>
      <stop offset="1" stop-color="#324359"/>
    </linearGradient>
  </defs>
  <g id="mail_full" transform="translate(1187 -821.233)">
    <g id="logo" transform="translate(-1187 821.233)">
      <g id="Grupo_11" data-name="Grupo 11" transform="translate(0 0)">
        <path id="Trazado_10" data-name="Trazado 10" d="M3.3-34.391H20.681V-32.6H5.4v11.193H16.95v1.786H5.4V-8.431H20.681v1.786H3.3ZM25.245-8.233,42.313-32.6H25.682v-1.786H44.814v1.627L27.746-8.392H45.33v1.746H25.245ZM50.887-34.391H68.273V-32.6H52.991v11.193H64.542v1.786H52.991V-8.431H68.273v1.786H50.887ZM85.539-6.645a16.949,16.949,0,0,1-7.72-1.707,12.6,12.6,0,0,1-5.279-4.862A13.926,13.926,0,0,1,70.654-20.5,14.911,14.911,0,0,1,72.54-28.04a13.326,13.326,0,0,1,5.16-5.12,14.859,14.859,0,0,1,7.363-1.826,14.859,14.859,0,0,1,7.363,1.826,13.326,13.326,0,0,1,5.16,5.12A14.911,14.911,0,0,1,99.471-20.5,13.058,13.058,0,0,1,97.348-13a12.113,12.113,0,0,1-5.815,4.565h8.216v1.786ZM85.063-8.55A13.7,13.7,0,0,0,91.314-9.96a10.814,10.814,0,0,0,4.446-4.108,12.106,12.106,0,0,0,1.647-6.43,13.163,13.163,0,0,0-1.627-6.629,11.3,11.3,0,0,0-4.446-4.406,12.808,12.808,0,0,0-6.272-1.548,12.808,12.808,0,0,0-6.271,1.548,11.3,11.3,0,0,0-4.446,4.406A13.163,13.163,0,0,0,72.718-20.5a12.3,12.3,0,0,0,1.627,6.47A10.552,10.552,0,0,0,78.771-9.94,13.955,13.955,0,0,0,85.063-8.55Zm30.326,2.5q-5.279,0-7.978-2.64t-2.7-7.442V-34.391h2.1v18.576q0,4.009,2.3,5.954a9.41,9.41,0,0,0,6.272,1.945A9.49,9.49,0,0,0,121.68-9.86Q124-11.805,124-15.814V-34.391h2.1v18.259q0,4.8-2.719,7.442T115.388-6.05Zm16.87-28.341h2.1V-6.645h-2.1Zm8.494,0h17.386V-32.6H142.856v11.193h11.551v1.786H142.856V-8.431h15.282v1.786H140.752Zm22.744,0h2.1V-8.431h15.282v1.786H163.5ZM16.872,2.4h9.444L41.458,40.338H31.634l-3.039-7.815h-14l-3.039,7.815H1.675Zm9.335,22.741L21.594,12.387,16.926,25.142ZM45.257,2.4h9.607V32.252h16.5v8.087H45.257ZM91.5,41.153a21.583,21.583,0,0,1-10.394-2.5,18.738,18.738,0,0,1-7.327-6.974A19.6,19.6,0,0,1,71.092,21.4a19.742,19.742,0,0,1,2.687-10.312,18.679,18.679,0,0,1,7.327-7,22.77,22.77,0,0,1,20.733,0,18.489,18.489,0,0,1,7.3,7A19.9,19.9,0,0,1,111.8,21.4a19.754,19.754,0,0,1-2.659,10.285,18.546,18.546,0,0,1-7.3,6.974A21.47,21.47,0,0,1,91.5,41.153Zm0-9.01a10.813,10.813,0,0,0,5.265-1.3,9.688,9.688,0,0,0,3.8-3.745,11.189,11.189,0,0,0,1.411-5.7,11.212,11.212,0,0,0-1.384-5.672,9.744,9.744,0,0,0-3.772-3.745A10.746,10.746,0,0,0,91.5,10.65a10.855,10.855,0,0,0-5.373,1.33,9.744,9.744,0,0,0-3.772,3.745A11.212,11.212,0,0,0,80.97,21.4a11.363,11.363,0,0,0,1.384,5.7,9.458,9.458,0,0,0,3.8,3.745A11.08,11.08,0,0,0,91.5,32.143ZM115.6,2.4h9.5l13.948,22.578V2.4h9.607V40.338h-9.444l-14-22.632V40.338H115.6Zm36.852,31.425,17.259-23.338H152.883V2.4H181.7V8.968L164.552,32.252H182.9v8.087H152.449Zm51.669,7.327a21.583,21.583,0,0,1-10.393-2.5,18.738,18.738,0,0,1-7.327-6.974A19.6,19.6,0,0,1,183.711,21.4,19.742,19.742,0,0,1,186.4,11.085a18.679,18.679,0,0,1,7.327-7,22.77,22.77,0,0,1,20.733,0,18.489,18.489,0,0,1,7.3,7A19.9,19.9,0,0,1,224.416,21.4a19.754,19.754,0,0,1-2.659,10.285,18.546,18.546,0,0,1-7.3,6.974A21.47,21.47,0,0,1,204.118,41.153Zm0-9.01a10.814,10.814,0,0,0,5.265-1.3,9.688,9.688,0,0,0,3.8-3.745,11.189,11.189,0,0,0,1.411-5.7,11.212,11.212,0,0,0-1.384-5.672,9.744,9.744,0,0,0-3.772-3.745,10.746,10.746,0,0,0-5.319-1.33,10.855,10.855,0,0,0-5.373,1.33,9.744,9.744,0,0,0-3.772,3.745,11.212,11.212,0,0,0-1.384,5.672,11.363,11.363,0,0,0,1.384,5.7,9.458,9.458,0,0,0,3.8,3.745A11.08,11.08,0,0,0,204.118,32.143Z" transform="translate(120.6 61.718)" fill="#324359"/>
        <path id="Trazado_18" data-name="Trazado 18" d="M-3438.19,138.993h0l-56.474-32.6-.087-65.06,56.386-32.454,56.474,32.6.086,65.06-18.029,10.377-38.452-64.562-19.376,32.463h26.711l6.109,10.266h-51.077c14.162-23.708,25.341-42.389,33.224-55.528h8.748l37.239,62.476,3.553-2.045-.07-51.954-45.15-26.067L-3483.4,47.882l.07,51.954,45.15,26.067,23.6-13.583,5.8,9.746-29.408,16.927Z" transform="translate(3494.75 -8.875)" fill="#5abfa3"/>
      </g>
    </g>
    <path id="Trazado_19" data-name="Trazado 19" d="M175.22,35.914,170.5,18.857h1.822L176.6,34.769l-.818-.467h2.266l-.888.467,3.481-15.164h1.682l-3.832,16.309Zm10.257,0-4.206-16.309H183l3.879,15.164-.865-.467h2.313l-.888.467L191.3,18.857h1.776l-4.323,17.057Zm15.094.4a6.665,6.665,0,0,1-2.792-.549,6.1,6.1,0,0,1-2.033-1.472,6.611,6.611,0,0,1-1.694-4.4v-.327a6.5,6.5,0,0,1,.444-2.348,6.407,6.407,0,0,1,1.285-2.068,6.309,6.309,0,0,1,2.044-1.46,7.2,7.2,0,0,1,5.514,0,6.309,6.309,0,0,1,2.044,1.46,6.244,6.244,0,0,1,1.273,2.068,6.66,6.66,0,0,1,.432,2.348v.327a6.728,6.728,0,0,1-.421,2.337,6.339,6.339,0,0,1-1.25,2.068,6.067,6.067,0,0,1-2.044,1.472A6.746,6.746,0,0,1,200.571,36.311Zm0-1.565a4.689,4.689,0,0,0,2.605-.689,4.528,4.528,0,0,0,1.624-1.822,5.9,5.9,0,0,0-.012-5.047,4.422,4.422,0,0,0-1.647-1.8,5.248,5.248,0,0,0-5.117,0,4.422,4.422,0,0,0-1.647,1.8,5.9,5.9,0,0,0-.012,5.047,4.528,4.528,0,0,0,1.624,1.822A4.645,4.645,0,0,0,200.571,34.746Zm9.51,1.168V23.554h1.4v5.164h-.14a5.771,5.771,0,0,1,1.192-4.007,4.849,4.849,0,0,1,3.738-1.3h.4V25h-.724a4.175,4.175,0,0,0-3.061,1.04,4.105,4.105,0,0,0-1.051,3.049v6.823Zm13.739.4a5.91,5.91,0,0,1-2.465-.5,5.7,5.7,0,0,1-1.916-1.4,6.417,6.417,0,0,1-1.238-2.056,6.983,6.983,0,0,1-.432-2.465v-.327a7.021,7.021,0,0,1,.421-2.418,6.47,6.47,0,0,1,1.2-2.056,5.663,5.663,0,0,1,4.381-1.951,5.481,5.481,0,0,1,2.757.678,5.071,5.071,0,0,1,1.916,1.951,6.568,6.568,0,0,1,.771,3.119l-.771-1.449V18.857H230.2V35.914h-1.4V30.423h.561a6.785,6.785,0,0,1-.806,3.259,4.989,4.989,0,0,1-1.986,1.974A5.741,5.741,0,0,1,223.82,36.311Zm.234-1.542a4.636,4.636,0,0,0,2.278-.561,4.056,4.056,0,0,0,1.6-1.6,4.806,4.806,0,0,0,.584-2.395V29.091a4.454,4.454,0,0,0-.584-2.3,4.147,4.147,0,0,0-1.6-1.554,4.684,4.684,0,0,0-2.3-.561,4.271,4.271,0,0,0-2.395.666,4.379,4.379,0,0,0-1.565,1.811,6.338,6.338,0,0,0,.012,5.187,4.272,4.272,0,0,0,1.589,1.787A4.4,4.4,0,0,0,224.053,34.769Zm11.8-5.094V28.11h3.972a4.269,4.269,0,0,0,2.243-.526,3.276,3.276,0,0,0,1.285-1.4,4.451,4.451,0,0,0,.421-1.951,4.506,4.506,0,0,0-.421-1.974,3.205,3.205,0,0,0-1.285-1.39,4.347,4.347,0,0,0-2.243-.514h-3.972V18.787h3.668a7.527,7.527,0,0,1,3.4.678,4.6,4.6,0,0,1,2.009,1.869,5.509,5.509,0,0,1,.666,2.734V24.4a5.527,5.527,0,0,1-.666,2.722A4.576,4.576,0,0,1,242.921,29a7.527,7.527,0,0,1-3.4.678Zm-1.308,6.239V18.787h1.776V35.914Zm13.786,0V23.554h1.4v5.164h-.14a5.771,5.771,0,0,1,1.192-4.007,4.849,4.849,0,0,1,3.738-1.3h.4V25h-.724a4.175,4.175,0,0,0-3.061,1.04,4.105,4.105,0,0,0-1.051,3.049v6.823Zm13.832.4a6.426,6.426,0,0,1-2.757-.549,5.348,5.348,0,0,1-1.916-1.472,6.249,6.249,0,0,1-1.11-2.068,7.778,7.778,0,0,1-.362-2.36v-.327a7.7,7.7,0,0,1,.362-2.337,6.119,6.119,0,0,1,1.11-2.056,5.49,5.49,0,0,1,1.881-1.46,6.018,6.018,0,0,1,2.652-.549,5.71,5.71,0,0,1,3.236.865,5.534,5.534,0,0,1,1.951,2.208,6.5,6.5,0,0,1,.654,2.886V30H256.812V28.648h9.837l-.444.678a5.727,5.727,0,0,0-.479-2.418,3.784,3.784,0,0,0-1.4-1.636,4.161,4.161,0,0,0-2.3-.6,4.066,4.066,0,0,0-2.407.678,4.151,4.151,0,0,0-1.437,1.8A6.429,6.429,0,0,0,257.7,29.7a6.625,6.625,0,0,0,.479,2.559,4.034,4.034,0,0,0,1.472,1.834,5.007,5.007,0,0,0,5.129-.058,3,3,0,0,0,1.238-1.741h1.636a4.621,4.621,0,0,1-.981,2.138,4.952,4.952,0,0,1-1.893,1.39A6.589,6.589,0,0,1,262.162,36.311Zm12.384-.047a5.7,5.7,0,0,1-3.668-1.04,3.47,3.47,0,0,1-1.308-2.792H271.2a2.37,2.37,0,0,0,.806,1.612,3.612,3.612,0,0,0,2.535.724,3.824,3.824,0,0,0,2.488-.689,2.1,2.1,0,0,0,.829-1.671A1.648,1.648,0,0,0,277.174,31a4.136,4.136,0,0,0-2-.643l-1.4-.14a5.074,5.074,0,0,1-2.722-1.04,2.872,2.872,0,0,1-1.04-2.348,3.3,3.3,0,0,1,.561-1.916,3.685,3.685,0,0,1,1.577-1.273,5.814,5.814,0,0,1,2.395-.456,5.264,5.264,0,0,1,3.236.935,3.186,3.186,0,0,1,1.273,2.664H277.42a1.951,1.951,0,0,0-.748-1.5,3.235,3.235,0,0,0-2.126-.608,3.183,3.183,0,0,0-2.161.631,1.983,1.983,0,0,0-.713,1.542,1.668,1.668,0,0,0,.537,1.273,2.843,2.843,0,0,0,1.682.619l1.4.14a6.255,6.255,0,0,1,3.049,1.075,2.885,2.885,0,0,1,1.18,2.477,3.339,3.339,0,0,1-.619,1.974,4.064,4.064,0,0,1-1.741,1.367A6.483,6.483,0,0,1,274.546,36.265Zm11.776,0a5.7,5.7,0,0,1-3.668-1.04,3.47,3.47,0,0,1-1.308-2.792h1.636a2.37,2.37,0,0,0,.806,1.612,3.612,3.612,0,0,0,2.535.724,3.824,3.824,0,0,0,2.488-.689,2.1,2.1,0,0,0,.829-1.671A1.648,1.648,0,0,0,288.951,31a4.136,4.136,0,0,0-2-.643l-1.4-.14a5.074,5.074,0,0,1-2.722-1.04,2.872,2.872,0,0,1-1.04-2.348,3.3,3.3,0,0,1,.561-1.916,3.685,3.685,0,0,1,1.577-1.273,5.814,5.814,0,0,1,2.395-.456,5.264,5.264,0,0,1,3.236.935,3.186,3.186,0,0,1,1.273,2.664H289.2a1.951,1.951,0,0,0-.748-1.5,3.235,3.235,0,0,0-2.126-.608,3.183,3.183,0,0,0-2.161.631,1.983,1.983,0,0,0-.713,1.542,1.668,1.668,0,0,0,.537,1.273,2.843,2.843,0,0,0,1.682.619l1.4.14a6.255,6.255,0,0,1,3.049,1.075,2.885,2.885,0,0,1,1.18,2.477,3.339,3.339,0,0,1-.619,1.974,4.064,4.064,0,0,1-1.741,1.367A6.483,6.483,0,0,1,286.322,36.265Zm36.006-.35-4.72-17.057h1.823l4.276,15.912-.818-.467h2.266l-.888.467,3.481-15.164h1.682L325.6,35.914Zm10.257,0L328.38,19.605h1.729l3.879,15.164-.865-.467h2.313l-.888.467L338.4,18.857h1.776l-4.323,17.057Zm15.094.4a6.665,6.665,0,0,1-2.792-.549,6.1,6.1,0,0,1-2.033-1.472,6.611,6.611,0,0,1-1.694-4.4v-.327a6.5,6.5,0,0,1,.444-2.348,6.406,6.406,0,0,1,1.285-2.068,6.309,6.309,0,0,1,2.044-1.46,7.2,7.2,0,0,1,5.514,0,6.309,6.309,0,0,1,2.044,1.46,6.244,6.244,0,0,1,1.273,2.068,6.66,6.66,0,0,1,.432,2.348v.327a6.728,6.728,0,0,1-.421,2.337,6.339,6.339,0,0,1-1.25,2.068,6.067,6.067,0,0,1-2.044,1.472A6.746,6.746,0,0,1,347.679,36.311Zm0-1.565a4.689,4.689,0,0,0,2.605-.689,4.528,4.528,0,0,0,1.624-1.822,5.9,5.9,0,0,0-.012-5.047,4.422,4.422,0,0,0-1.647-1.8,5.248,5.248,0,0,0-5.117,0,4.423,4.423,0,0,0-1.647,1.8,5.9,5.9,0,0,0-.012,5.047,4.528,4.528,0,0,0,1.624,1.822A4.645,4.645,0,0,0,347.679,34.746Zm15.047,1.565a6.665,6.665,0,0,1-2.792-.549A6.1,6.1,0,0,1,357.9,34.29a6.611,6.611,0,0,1-1.694-4.4v-.327a6.5,6.5,0,0,1,.444-2.348,6.407,6.407,0,0,1,1.285-2.068,6.309,6.309,0,0,1,2.044-1.46,7.2,7.2,0,0,1,5.514,0,6.309,6.309,0,0,1,2.044,1.46,6.245,6.245,0,0,1,1.273,2.068,6.66,6.66,0,0,1,.432,2.348v.327a6.728,6.728,0,0,1-.421,2.337,6.34,6.34,0,0,1-1.25,2.068,6.067,6.067,0,0,1-2.044,1.472A6.746,6.746,0,0,1,362.727,36.311Zm0-1.565a4.689,4.689,0,0,0,2.605-.689,4.528,4.528,0,0,0,1.624-1.822,5.9,5.9,0,0,0-.012-5.047,4.422,4.422,0,0,0-1.647-1.8,5.248,5.248,0,0,0-5.117,0,4.422,4.422,0,0,0-1.647,1.8,5.9,5.9,0,0,0-.012,5.047,4.528,4.528,0,0,0,1.624,1.822A4.645,4.645,0,0,0,362.727,34.746ZM379.9,36.311a8.725,8.725,0,0,1-3.914-.806,7.5,7.5,0,0,1-2.64-2.115,8.777,8.777,0,0,1-1.484-2.839,10.176,10.176,0,0,1-.467-2.979v-.444a10.537,10.537,0,0,1,.479-3.119,8.385,8.385,0,0,1,1.5-2.816,7.36,7.36,0,0,1,2.605-2.021,9.716,9.716,0,0,1,7.559.012,6.428,6.428,0,0,1,2.558,2.161,7.057,7.057,0,0,1,1.168,3.283h-1.8a5.024,5.024,0,0,0-.981-2.535,4.941,4.941,0,0,0-2.021-1.53,6.977,6.977,0,0,0-2.722-.514,6.646,6.646,0,0,0-2.839.572,5.648,5.648,0,0,0-2.044,1.589,7.149,7.149,0,0,0-1.238,2.337,9.221,9.221,0,0,0-.421,2.816A9.112,9.112,0,0,0,373.6,30.1a7.031,7.031,0,0,0,1.25,2.348,5.906,5.906,0,0,0,2.1,1.636,6.827,6.827,0,0,0,2.944.6,6.4,6.4,0,0,0,3.925-1.18,5.091,5.091,0,0,0,1.963-3.4h1.8a7.508,7.508,0,0,1-1.215,3.166,6.679,6.679,0,0,1-2.582,2.231A8.563,8.563,0,0,1,379.9,36.311Zm15.842,0a6.665,6.665,0,0,1-2.792-.549,6.1,6.1,0,0,1-2.033-1.472,6.611,6.611,0,0,1-1.694-4.4v-.327a6.5,6.5,0,0,1,.444-2.348,6.406,6.406,0,0,1,1.285-2.068A6.308,6.308,0,0,1,393,23.682a7.2,7.2,0,0,1,5.514,0,6.308,6.308,0,0,1,2.044,1.46,6.244,6.244,0,0,1,1.273,2.068,6.661,6.661,0,0,1,.432,2.348v.327a6.727,6.727,0,0,1-.421,2.337,6.338,6.338,0,0,1-1.25,2.068,6.067,6.067,0,0,1-2.044,1.472A6.746,6.746,0,0,1,395.742,36.311Zm0-1.565a4.689,4.689,0,0,0,2.605-.689,4.528,4.528,0,0,0,1.624-1.822,5.9,5.9,0,0,0-.012-5.047,4.422,4.422,0,0,0-1.647-1.8,5.248,5.248,0,0,0-5.117,0,4.423,4.423,0,0,0-1.647,1.8,5.9,5.9,0,0,0-.012,5.047,4.528,4.528,0,0,0,1.624,1.822A4.645,4.645,0,0,0,395.742,34.746Zm9.51,1.168V23.531h1.4v5.21h-.28a8.156,8.156,0,0,1,.479-2.944,4.143,4.143,0,0,1,1.437-1.928,4.057,4.057,0,0,1,2.43-.689h.07a4.108,4.108,0,0,1,2.43.678,4,4,0,0,1,1.425,1.916,8.416,8.416,0,0,1,.467,2.967h-.561a8.155,8.155,0,0,1,.479-2.944,3.868,3.868,0,0,1,3.89-2.617h.07a4.163,4.163,0,0,1,2.442.678,4.041,4.041,0,0,1,1.449,1.916,8.23,8.23,0,0,1,.479,2.967v7.173h-1.752v-7.57a3.938,3.938,0,0,0-.794-2.594,2.806,2.806,0,0,0-2.29-.958,3.13,3.13,0,0,0-2.442.993,3.834,3.834,0,0,0-.9,2.675v7.454H413.43v-7.57a3.938,3.938,0,0,0-.794-2.594,2.805,2.805,0,0,0-2.29-.958,3.13,3.13,0,0,0-2.442.993,3.834,3.834,0,0,0-.9,2.675v7.454Zm21.893,0V23.531h1.4v5.21h-.28a8.156,8.156,0,0,1,.479-2.944,4.143,4.143,0,0,1,1.437-1.928,4.057,4.057,0,0,1,2.43-.689h.07a4.108,4.108,0,0,1,2.43.678,4,4,0,0,1,1.425,1.916,8.416,8.416,0,0,1,.467,2.967h-.561a8.155,8.155,0,0,1,.479-2.944,3.868,3.868,0,0,1,3.89-2.617h.07a4.163,4.163,0,0,1,2.442.678,4.041,4.041,0,0,1,1.449,1.916,8.229,8.229,0,0,1,.479,2.967v7.173H443.5v-7.57a3.938,3.938,0,0,0-.794-2.594,2.806,2.806,0,0,0-2.29-.958,3.13,3.13,0,0,0-2.442.993,3.834,3.834,0,0,0-.9,2.675v7.454h-1.752v-7.57a3.938,3.938,0,0,0-.794-2.594,2.805,2.805,0,0,0-2.29-.958,3.13,3.13,0,0,0-2.442.993,3.834,3.834,0,0,0-.9,2.675v7.454Zm27.057.4a6.426,6.426,0,0,1-2.757-.549,5.348,5.348,0,0,1-1.916-1.472,6.249,6.249,0,0,1-1.11-2.068,7.779,7.779,0,0,1-.362-2.36v-.327a7.7,7.7,0,0,1,.362-2.337,6.12,6.12,0,0,1,1.11-2.056,5.49,5.49,0,0,1,1.881-1.46,6.018,6.018,0,0,1,2.652-.549A5.71,5.71,0,0,1,457.3,24a5.535,5.535,0,0,1,1.951,2.208,6.5,6.5,0,0,1,.654,2.886V30H448.852V28.648h9.837l-.444.678a5.727,5.727,0,0,0-.479-2.418,3.784,3.784,0,0,0-1.4-1.636,4.161,4.161,0,0,0-2.3-.6,4.066,4.066,0,0,0-2.407.678,4.151,4.151,0,0,0-1.437,1.8,6.429,6.429,0,0,0-.479,2.547,6.625,6.625,0,0,0,.479,2.559,4.034,4.034,0,0,0,1.472,1.834,5.008,5.008,0,0,0,5.129-.058,3,3,0,0,0,1.238-1.741h1.636a4.621,4.621,0,0,1-.981,2.138,4.952,4.952,0,0,1-1.893,1.39A6.589,6.589,0,0,1,454.2,36.311Zm8.482-.4V23.554h1.4v5.164h-.14a5.771,5.771,0,0,1,1.192-4.007,4.848,4.848,0,0,1,3.738-1.3h.4V25h-.724a4.175,4.175,0,0,0-3.061,1.04,4.105,4.105,0,0,0-1.051,3.049v6.823Zm13.879.4a6.288,6.288,0,0,1-2.722-.549,5.478,5.478,0,0,1-1.928-1.5,6.642,6.642,0,0,1-1.157-2.091,7.206,7.206,0,0,1-.386-2.313v-.327a7.171,7.171,0,0,1,.386-2.325,6.393,6.393,0,0,1,1.157-2.056,5.6,5.6,0,0,1,1.928-1.472,6.172,6.172,0,0,1,2.675-.549,6.428,6.428,0,0,1,2.745.561,4.95,4.95,0,0,1,1.951,1.589,4.873,4.873,0,0,1,.888,2.43h-1.682a3.477,3.477,0,0,0-1.2-2.138,4,4,0,0,0-2.7-.853,4.216,4.216,0,0,0-2.442.666,4.111,4.111,0,0,0-1.46,1.8,6.256,6.256,0,0,0-.491,2.512,6.364,6.364,0,0,0,.491,2.512,4,4,0,0,0,3.949,2.535,4.574,4.574,0,0,0,2-.409,3.672,3.672,0,0,0,1.379-1.11,3.1,3.1,0,0,0,.619-1.542h1.682a4.458,4.458,0,0,1-.876,2.442,5.227,5.227,0,0,1-2.021,1.612A6.55,6.55,0,0,1,476.563,36.311Zm13.482,0a6.426,6.426,0,0,1-2.757-.549,5.348,5.348,0,0,1-1.916-1.472,6.249,6.249,0,0,1-1.11-2.068,7.779,7.779,0,0,1-.362-2.36v-.327a7.7,7.7,0,0,1,.362-2.337,6.12,6.12,0,0,1,1.11-2.056,5.49,5.49,0,0,1,1.881-1.46,6.018,6.018,0,0,1,2.652-.549,5.71,5.71,0,0,1,3.236.865,5.535,5.535,0,0,1,1.951,2.208,6.5,6.5,0,0,1,.654,2.886V30H484.694V28.648h9.837l-.444.678a5.727,5.727,0,0,0-.479-2.418,3.784,3.784,0,0,0-1.4-1.636,4.161,4.161,0,0,0-2.3-.6,4.066,4.066,0,0,0-2.407.678,4.151,4.151,0,0,0-1.437,1.8,6.429,6.429,0,0,0-.479,2.547,6.625,6.625,0,0,0,.479,2.559,4.034,4.034,0,0,0,1.472,1.834,5.008,5.008,0,0,0,5.129-.058,3,3,0,0,0,1.238-1.741h1.636a4.621,4.621,0,0,1-.981,2.138,4.952,4.952,0,0,1-1.893,1.39A6.589,6.589,0,0,1,490.045,36.311Z" transform="translate(-800.583 854.661)" fill="#5abfa3"/>
    <path id="Trazado_20" data-name="Trazado 20" d="M3.461,5.859V4.223h4.65a7.573,7.573,0,0,0,3.026-.561,6.316,6.316,0,0,0,2.185-1.53A6.426,6.426,0,0,0,14.653-.1,8.037,8.037,0,0,0,15.1-2.786a7.991,7.991,0,0,0-.456-2.734A6.452,6.452,0,0,0,13.3-7.74a5.888,5.888,0,0,0-2.185-1.472,8.11,8.11,0,0,0-3-.514H3.461v-1.636H7.924a10.285,10.285,0,0,1,3.972.7,7.947,7.947,0,0,1,2.8,1.9,7.793,7.793,0,0,1,1.659,2.7A8.921,8.921,0,0,1,16.9-3.02v.444A8.856,8.856,0,0,1,16.359.438,8.222,8.222,0,0,1,14.723,3.16a7.914,7.914,0,0,1-2.792,1.963,10,10,0,0,1-4.007.736Zm-1.308,0v-17.22H3.928V5.859Zm22.758.3a6.426,6.426,0,0,1-2.757-.549,5.348,5.348,0,0,1-1.916-1.472,6.249,6.249,0,0,1-1.11-2.068,7.778,7.778,0,0,1-.362-2.36V-.613a7.7,7.7,0,0,1,.362-2.337,6.119,6.119,0,0,1,1.11-2.056,5.49,5.49,0,0,1,1.881-1.46,6.018,6.018,0,0,1,2.652-.549,5.71,5.71,0,0,1,3.236.865,5.534,5.534,0,0,1,1.951,2.208,6.5,6.5,0,0,1,.654,2.886v.911H19.56V-1.5H29.4l-.444.678a5.727,5.727,0,0,0-.479-2.418,3.784,3.784,0,0,0-1.4-1.636,4.161,4.161,0,0,0-2.3-.6,4.066,4.066,0,0,0-2.407.678A4.151,4.151,0,0,0,20.926-3,6.429,6.429,0,0,0,20.447-.45a6.625,6.625,0,0,0,.479,2.559A4.034,4.034,0,0,0,22.4,3.943a4.36,4.36,0,0,0,2.512.678,4.321,4.321,0,0,0,2.617-.736,3,3,0,0,0,1.238-1.741H30.4a4.621,4.621,0,0,1-.981,2.138,4.952,4.952,0,0,1-1.893,1.39A6.589,6.589,0,0,1,24.91,6.163Zm12.384-.047a5.7,5.7,0,0,1-3.668-1.04,3.47,3.47,0,0,1-1.308-2.792h1.636A2.37,2.37,0,0,0,34.759,3.9a3.612,3.612,0,0,0,2.535.724,3.824,3.824,0,0,0,2.488-.689,2.1,2.1,0,0,0,.829-1.671A1.648,1.648,0,0,0,39.923.847a4.136,4.136,0,0,0-2-.643l-1.4-.14A5.075,5.075,0,0,1,33.8-.976a2.872,2.872,0,0,1-1.04-2.348,3.3,3.3,0,0,1,.561-1.916A3.685,3.685,0,0,1,34.9-6.513a5.814,5.814,0,0,1,2.395-.456,5.263,5.263,0,0,1,3.236.935A3.186,3.186,0,0,1,41.8-3.371H40.168a1.951,1.951,0,0,0-.748-1.5,3.235,3.235,0,0,0-2.126-.608,3.183,3.183,0,0,0-2.161.631A1.983,1.983,0,0,0,34.42-3.3a1.668,1.668,0,0,0,.537,1.273,2.843,2.843,0,0,0,1.682.619l1.4.14A6.256,6.256,0,0,1,41.091-.193a2.885,2.885,0,0,1,1.18,2.477,3.339,3.339,0,0,1-.619,1.974,4.064,4.064,0,0,1-1.741,1.367A6.483,6.483,0,0,1,37.294,6.116Zm15.4-.35V2.05h-.28V-2.342a2.89,2.89,0,0,0-.724-2.115,3.027,3.027,0,0,0-2.243-.736q-.7,0-1.414.023t-1.355.058q-.643.035-1.133.082V-6.572l1.051-.093q.537-.047,1.11-.058t1.11-.012a8.277,8.277,0,0,1,3.049.467,3.215,3.215,0,0,1,1.694,1.46,5.525,5.525,0,0,1,.537,2.629V5.765Zm-4.182.327A5.428,5.428,0,0,1,46.2,5.625,3.524,3.524,0,0,1,44.642,4.27a4.009,4.009,0,0,1-.549-2.15,3.724,3.724,0,0,1,.572-2.1A3.587,3.587,0,0,1,46.325-1.3a6.79,6.79,0,0,1,2.629-.456h3.622V-.427H48.836a3.236,3.236,0,0,0-2.255.713A2.4,2.4,0,0,0,45.8,2.144,2.3,2.3,0,0,0,46.617,4a3.335,3.335,0,0,0,2.22.689A4.455,4.455,0,0,0,50.5,4.375,2.951,2.951,0,0,0,51.827,3.3a3.807,3.807,0,0,0,.584-2.091l.514.724a5.037,5.037,0,0,1-.654,2.3,3.583,3.583,0,0,1-1.519,1.39A5.061,5.061,0,0,1,48.509,6.092Zm9.37-.327V-6.595h1.4v5.164h-.14a5.771,5.771,0,0,1,1.192-4.007,4.849,4.849,0,0,1,3.738-1.3h.4v1.589h-.724a4.174,4.174,0,0,0-3.061,1.04,4.105,4.105,0,0,0-1.051,3.049V5.765Zm8.832,0V-6.595h1.4v5.164h-.14a5.771,5.771,0,0,1,1.192-4.007,4.849,4.849,0,0,1,3.738-1.3h.4v1.589h-.724a4.174,4.174,0,0,0-3.061,1.04,4.105,4.105,0,0,0-1.051,3.049V5.765Zm14.206.4a6.665,6.665,0,0,1-2.792-.549,6.1,6.1,0,0,1-2.033-1.472A6.509,6.509,0,0,1,74.83,2.074,6.566,6.566,0,0,1,74.4-.263V-.59a6.5,6.5,0,0,1,.444-2.348,6.406,6.406,0,0,1,1.285-2.068,6.309,6.309,0,0,1,2.044-1.46,6.545,6.545,0,0,1,2.745-.549,6.6,6.6,0,0,1,2.769.549,6.309,6.309,0,0,1,2.044,1.46A6.244,6.244,0,0,1,87-2.938,6.66,6.66,0,0,1,87.436-.59v.327a6.727,6.727,0,0,1-.421,2.337,6.339,6.339,0,0,1-1.25,2.068,6.067,6.067,0,0,1-2.044,1.472A6.746,6.746,0,0,1,80.917,6.163Zm0-1.565a4.689,4.689,0,0,0,2.605-.689,4.528,4.528,0,0,0,1.624-1.822,5.585,5.585,0,0,0,.561-2.512,5.542,5.542,0,0,0-.572-2.535,4.422,4.422,0,0,0-1.647-1.8,4.783,4.783,0,0,0-2.57-.666,4.738,4.738,0,0,0-2.547.666,4.422,4.422,0,0,0-1.647,1.8,5.542,5.542,0,0,0-.572,2.535,5.585,5.585,0,0,0,.561,2.512,4.528,4.528,0,0,0,1.624,1.822A4.645,4.645,0,0,0,80.917,4.6Zm9.627,1.168V-11.291H92.3V5.765Zm-1.8-15.631v-1.425H92.3v1.425ZM96.362,5.765V-11.291h1.752V5.765Zm-1.8-15.631v-1.425h3.552v1.425ZM109.586,5.765V2.05h-.28V-2.342a2.89,2.89,0,0,0-.724-2.115,3.027,3.027,0,0,0-2.243-.736q-.7,0-1.414.023t-1.355.058q-.643.035-1.133.082V-6.572l1.051-.093q.537-.047,1.11-.058t1.11-.012a8.277,8.277,0,0,1,3.049.467,3.215,3.215,0,0,1,1.694,1.46,5.525,5.525,0,0,1,.537,2.629V5.765Zm-4.182.327a5.428,5.428,0,0,1-2.313-.467,3.524,3.524,0,0,1-1.554-1.355,4.009,4.009,0,0,1-.549-2.15,3.724,3.724,0,0,1,.572-2.1,3.587,3.587,0,0,1,1.659-1.32,6.79,6.79,0,0,1,2.629-.456h3.622V-.427h-3.738a3.236,3.236,0,0,0-2.255.713,2.4,2.4,0,0,0-.783,1.858A2.3,2.3,0,0,0,103.511,4a3.335,3.335,0,0,0,2.22.689,4.455,4.455,0,0,0,1.659-.315A2.951,2.951,0,0,0,108.722,3.3a3.807,3.807,0,0,0,.584-2.091l.514.724a5.037,5.037,0,0,1-.654,2.3,3.583,3.583,0,0,1-1.519,1.39A5.061,5.061,0,0,1,105.4,6.092Zm14.44.07a5.91,5.91,0,0,1-2.465-.5,5.7,5.7,0,0,1-1.916-1.4A6.418,6.418,0,0,1,114.224,2.2a6.983,6.983,0,0,1-.432-2.465V-.59a7.021,7.021,0,0,1,.421-2.418,6.47,6.47,0,0,1,1.2-2.056,5.727,5.727,0,0,1,1.893-1.425,5.741,5.741,0,0,1,2.488-.526,5.481,5.481,0,0,1,2.757.678,5.071,5.071,0,0,1,1.916,1.951,6.568,6.568,0,0,1,.771,3.119l-.771-1.449v-8.575h1.752V5.765h-1.4V.274h.561a6.786,6.786,0,0,1-.806,3.259,4.989,4.989,0,0,1-1.986,1.974A5.741,5.741,0,0,1,119.844,6.163Zm.234-1.542a4.636,4.636,0,0,0,2.278-.561,4.056,4.056,0,0,0,1.6-1.6A4.806,4.806,0,0,0,124.54.064V-1.057a4.454,4.454,0,0,0-.584-2.3,4.147,4.147,0,0,0-1.6-1.554,4.684,4.684,0,0,0-2.3-.561,4.271,4.271,0,0,0-2.395.666A4.379,4.379,0,0,0,116.094-3a5.868,5.868,0,0,0-.549,2.57,5.875,5.875,0,0,0,.561,2.617,4.272,4.272,0,0,0,1.589,1.787A4.4,4.4,0,0,0,120.077,4.62Zm15.631,1.542a6.665,6.665,0,0,1-2.792-.549,6.1,6.1,0,0,1-2.033-1.472,6.51,6.51,0,0,1-1.262-2.068,6.565,6.565,0,0,1-.432-2.337V-.59a6.5,6.5,0,0,1,.444-2.348,6.406,6.406,0,0,1,1.285-2.068,6.309,6.309,0,0,1,2.044-1.46,6.545,6.545,0,0,1,2.745-.549,6.6,6.6,0,0,1,2.769.549,6.309,6.309,0,0,1,2.044,1.46A6.244,6.244,0,0,1,141.8-2.938a6.66,6.66,0,0,1,.432,2.348v.327a6.727,6.727,0,0,1-.421,2.337,6.34,6.34,0,0,1-1.25,2.068,6.067,6.067,0,0,1-2.044,1.472A6.746,6.746,0,0,1,135.709,6.163Zm0-1.565a4.689,4.689,0,0,0,2.605-.689,4.528,4.528,0,0,0,1.624-1.822A5.585,5.585,0,0,0,140.5-.427a5.542,5.542,0,0,0-.572-2.535,4.422,4.422,0,0,0-1.647-1.8,4.783,4.783,0,0,0-2.57-.666,4.738,4.738,0,0,0-2.547.666,4.422,4.422,0,0,0-1.647,1.8,5.542,5.542,0,0,0-.572,2.535,5.585,5.585,0,0,0,.561,2.512,4.528,4.528,0,0,0,1.624,1.822A4.645,4.645,0,0,0,135.709,4.6Zm9.51,1.168V-6.595h1.4v5.164h-.14a5.771,5.771,0,0,1,1.192-4.007,4.849,4.849,0,0,1,3.738-1.3h.4v1.589h-.724a4.174,4.174,0,0,0-3.061,1.04,4.105,4.105,0,0,0-1.051,3.049V5.765Zm14.089,0V-11.291h1.776V5.765Zm1.308-7.874V-3.721l7.547-.023v1.612Zm0-7.594v-1.589h7.991V-9.7ZM171.2,5.765V-6.595h1.4v5.164h-.14a5.771,5.771,0,0,1,1.192-4.007,4.849,4.849,0,0,1,3.738-1.3h.4v1.589h-.724A4.174,4.174,0,0,0,174-4.107a4.105,4.105,0,0,0-1.051,3.049V5.765Zm14.206.4a6.665,6.665,0,0,1-2.792-.549,6.1,6.1,0,0,1-2.033-1.472,6.509,6.509,0,0,1-1.262-2.068,6.565,6.565,0,0,1-.432-2.337V-.59a6.5,6.5,0,0,1,.444-2.348,6.406,6.406,0,0,1,1.285-2.068,6.309,6.309,0,0,1,2.044-1.46,6.545,6.545,0,0,1,2.745-.549,6.6,6.6,0,0,1,2.769.549,6.309,6.309,0,0,1,2.044,1.46,6.244,6.244,0,0,1,1.273,2.068,6.66,6.66,0,0,1,.432,2.348v.327a6.727,6.727,0,0,1-.421,2.337,6.34,6.34,0,0,1-1.25,2.068,6.067,6.067,0,0,1-2.044,1.472A6.746,6.746,0,0,1,185.407,6.163Zm0-1.565a4.689,4.689,0,0,0,2.605-.689,4.528,4.528,0,0,0,1.624-1.822A5.585,5.585,0,0,0,190.2-.427a5.542,5.542,0,0,0-.572-2.535,4.422,4.422,0,0,0-1.647-1.8,4.783,4.783,0,0,0-2.57-.666,4.738,4.738,0,0,0-2.547.666,4.422,4.422,0,0,0-1.647,1.8,5.542,5.542,0,0,0-.572,2.535,5.585,5.585,0,0,0,.561,2.512,4.528,4.528,0,0,0,1.624,1.822A4.645,4.645,0,0,0,185.407,4.6Zm9.51,1.168V-6.595h1.4v5.187h-.28a7.724,7.724,0,0,1,.514-2.967,4.114,4.114,0,0,1,1.542-1.916,4.62,4.62,0,0,1,2.594-.678h.07a4.151,4.151,0,0,1,3.481,1.46,6.5,6.5,0,0,1,1.145,4.1V5.765h-1.729V-1.782a3.718,3.718,0,0,0-.888-2.594,3.17,3.17,0,0,0-2.477-.981,3.509,3.509,0,0,0-2.629,1.016,3.664,3.664,0,0,0-.993,2.675v7.43Zm18.739.14a5.965,5.965,0,0,1-2.22-.374,2.85,2.85,0,0,1-1.449-1.273,4.871,4.871,0,0,1-.514-2.418V-10.5h1.682V2.1a2.2,2.2,0,0,0,.584,1.647,2.271,2.271,0,0,0,1.659.572h2.22V5.906Zm-6.4-11.169V-6.595h8.365v1.332ZM223.469,6.163a6.426,6.426,0,0,1-2.757-.549A5.348,5.348,0,0,1,218.8,4.141a6.248,6.248,0,0,1-1.11-2.068,7.778,7.778,0,0,1-.362-2.36V-.613a7.7,7.7,0,0,1,.362-2.337,6.119,6.119,0,0,1,1.11-2.056,5.49,5.49,0,0,1,1.881-1.46,6.018,6.018,0,0,1,2.652-.549,5.71,5.71,0,0,1,3.236.865,5.534,5.534,0,0,1,1.951,2.208,6.5,6.5,0,0,1,.654,2.886v.911H218.119V-1.5h9.837l-.444.678a5.727,5.727,0,0,0-.479-2.418,3.784,3.784,0,0,0-1.4-1.636,4.161,4.161,0,0,0-2.3-.6,4.066,4.066,0,0,0-2.407.678A4.151,4.151,0,0,0,219.485-3a6.429,6.429,0,0,0-.479,2.547,6.625,6.625,0,0,0,.479,2.559,4.034,4.034,0,0,0,1.472,1.834,4.36,4.36,0,0,0,2.512.678,4.321,4.321,0,0,0,2.617-.736,3,3,0,0,0,1.238-1.741h1.636a4.621,4.621,0,0,1-.981,2.138,4.952,4.952,0,0,1-1.893,1.39A6.589,6.589,0,0,1,223.469,6.163Zm8.482-.4V-6.595h1.4v5.187h-.28a7.724,7.724,0,0,1,.514-2.967,4.114,4.114,0,0,1,1.542-1.916,4.62,4.62,0,0,1,2.594-.678h.07a4.151,4.151,0,0,1,3.481,1.46,6.5,6.5,0,0,1,1.145,4.1V5.765h-1.729V-1.782a3.718,3.718,0,0,0-.888-2.594,3.17,3.17,0,0,0-2.477-.981A3.509,3.509,0,0,0,234.7-4.34a3.664,3.664,0,0,0-.993,2.675v7.43Zm19.323.4a5.91,5.91,0,0,1-2.465-.5,5.7,5.7,0,0,1-1.916-1.4A6.417,6.417,0,0,1,245.655,2.2a6.983,6.983,0,0,1-.432-2.465V-.59a7.021,7.021,0,0,1,.421-2.418,6.47,6.47,0,0,1,1.2-2.056,5.727,5.727,0,0,1,1.893-1.425,5.741,5.741,0,0,1,2.488-.526,5.48,5.48,0,0,1,2.757.678A5.071,5.071,0,0,1,255.9-4.387a6.568,6.568,0,0,1,.771,3.119L255.9-2.716v-8.575h1.752V5.765h-1.4V.274h.561a6.785,6.785,0,0,1-.806,3.259,4.988,4.988,0,0,1-1.986,1.974A5.741,5.741,0,0,1,251.274,6.163Zm.234-1.542a4.636,4.636,0,0,0,2.278-.561,4.056,4.056,0,0,0,1.6-1.6A4.806,4.806,0,0,0,255.97.064V-1.057a4.454,4.454,0,0,0-.584-2.3,4.147,4.147,0,0,0-1.6-1.554,4.684,4.684,0,0,0-2.3-.561,4.271,4.271,0,0,0-2.395.666A4.379,4.379,0,0,0,247.524-3a5.868,5.868,0,0,0-.549,2.57,5.875,5.875,0,0,0,.561,2.617,4.271,4.271,0,0,0,1.589,1.787A4.4,4.4,0,0,0,251.508,4.62ZM2.152,35.914V18.857H3.928V35.914Zm1.355,0V34.3h8.528v1.612Zm0-7.874V26.451h7.734V28.04Zm0-7.57V18.857h8.271V20.47Zm15.4,15.795a5.7,5.7,0,0,1-3.668-1.04,3.47,3.47,0,0,1-1.308-2.792h1.636a2.37,2.37,0,0,0,.806,1.612,3.612,3.612,0,0,0,2.535.724,3.824,3.824,0,0,0,2.488-.689,2.1,2.1,0,0,0,.829-1.671A1.648,1.648,0,0,0,21.534,31a4.136,4.136,0,0,0-2-.643l-1.4-.14a5.075,5.075,0,0,1-2.722-1.04,2.872,2.872,0,0,1-1.04-2.348,3.3,3.3,0,0,1,.561-1.916,3.685,3.685,0,0,1,1.577-1.273,5.814,5.814,0,0,1,2.395-.456,5.263,5.263,0,0,1,3.236.935,3.186,3.186,0,0,1,1.273,2.664H21.779a1.951,1.951,0,0,0-.748-1.5,3.235,3.235,0,0,0-2.126-.608,3.183,3.183,0,0,0-2.161.631,1.983,1.983,0,0,0-.713,1.542,1.668,1.668,0,0,0,.537,1.273,2.843,2.843,0,0,0,1.682.619l1.4.14A6.256,6.256,0,0,1,22.7,29.956a2.885,2.885,0,0,1,1.18,2.477,3.339,3.339,0,0,1-.619,1.974,4.064,4.064,0,0,1-1.741,1.367A6.483,6.483,0,0,1,18.905,36.265Zm7.874,4.323V23.554h1.4v5.3l-.421.047a7.183,7.183,0,0,1,.806-3.154A4.823,4.823,0,0,1,30.506,23.8a6.016,6.016,0,0,1,5.21-.14,5.727,5.727,0,0,1,1.893,1.425A6.3,6.3,0,0,1,38.8,27.14a7.2,7.2,0,0,1,.409,2.418v.327a7.021,7.021,0,0,1-.421,2.418,6.47,6.47,0,0,1-1.2,2.056A5.663,5.663,0,0,1,33.2,36.311a5.565,5.565,0,0,1-2.7-.666,5.09,5.09,0,0,1-1.986-1.974,6.845,6.845,0,0,1-.829-3.224l.841,1.752v8.388Zm6.192-5.818a4.256,4.256,0,0,0,2.407-.666,4.314,4.314,0,0,0,1.542-1.822,6,6,0,0,0,.537-2.559,5.848,5.848,0,0,0-.549-2.582,4.426,4.426,0,0,0-1.554-1.8,4.214,4.214,0,0,0-2.383-.666,4.7,4.7,0,0,0-2.29.561,4.158,4.158,0,0,0-1.624,1.577,4.651,4.651,0,0,0-.6,2.395v1.145a4.386,4.386,0,0,0,.6,2.3,4.209,4.209,0,0,0,1.624,1.554A4.7,4.7,0,0,0,32.971,34.769Zm14.37,1.542a6.426,6.426,0,0,1-2.757-.549,5.348,5.348,0,0,1-1.916-1.472,6.249,6.249,0,0,1-1.11-2.068,7.778,7.778,0,0,1-.362-2.36v-.327a7.7,7.7,0,0,1,.362-2.337,6.119,6.119,0,0,1,1.11-2.056,5.49,5.49,0,0,1,1.881-1.46,6.018,6.018,0,0,1,2.652-.549A5.71,5.71,0,0,1,50.437,24a5.534,5.534,0,0,1,1.951,2.208,6.5,6.5,0,0,1,.654,2.886V30H41.99V28.648h9.837l-.444.678a5.727,5.727,0,0,0-.479-2.418,3.784,3.784,0,0,0-1.4-1.636,4.161,4.161,0,0,0-2.3-.6,4.066,4.066,0,0,0-2.407.678,4.151,4.151,0,0,0-1.437,1.8,6.429,6.429,0,0,0-.479,2.547,6.625,6.625,0,0,0,.479,2.559,4.034,4.034,0,0,0,1.472,1.834,5.008,5.008,0,0,0,5.129-.058A3,3,0,0,0,51.2,32.293h1.636a4.621,4.621,0,0,1-.981,2.138,4.952,4.952,0,0,1-1.893,1.39A6.589,6.589,0,0,1,47.341,36.311Zm13.692,0a6.288,6.288,0,0,1-2.722-.549,5.477,5.477,0,0,1-1.928-1.5,6.641,6.641,0,0,1-1.157-2.091,7.206,7.206,0,0,1-.386-2.313v-.327a7.171,7.171,0,0,1,.386-2.325,6.392,6.392,0,0,1,1.157-2.056,5.6,5.6,0,0,1,1.928-1.472,6.171,6.171,0,0,1,2.675-.549,6.428,6.428,0,0,1,2.745.561,4.95,4.95,0,0,1,1.951,1.589,4.872,4.872,0,0,1,.888,2.43H64.888a3.477,3.477,0,0,0-1.2-2.138,4,4,0,0,0-2.7-.853,4.216,4.216,0,0,0-2.442.666,4.111,4.111,0,0,0-1.46,1.8,6.256,6.256,0,0,0-.491,2.512,6.365,6.365,0,0,0,.491,2.512,4,4,0,0,0,3.949,2.535,4.574,4.574,0,0,0,2-.409,3.673,3.673,0,0,0,1.379-1.11,3.1,3.1,0,0,0,.619-1.542h1.682a4.458,4.458,0,0,1-.876,2.442,5.227,5.227,0,0,1-2.021,1.612A6.55,6.55,0,0,1,61.033,36.311Zm8.972-.4V23.554h1.729v12.36ZM68.019,24.956v-1.4h3.715v1.4Zm2.36-3.692a1.232,1.232,0,0,1-.946-.339,1.311,1.311,0,0,1,0-1.706,1.232,1.232,0,0,1,.946-.339,1.193,1.193,0,0,1,.935.339,1.349,1.349,0,0,1,0,1.706A1.193,1.193,0,0,1,70.379,21.264Zm12.9,14.65V32.2H83V27.806a2.89,2.89,0,0,0-.724-2.115,3.027,3.027,0,0,0-2.243-.736q-.7,0-1.414.023t-1.355.058q-.643.035-1.133.082V23.577l1.051-.093q.537-.047,1.11-.058t1.11-.012a8.277,8.277,0,0,1,3.049.467,3.215,3.215,0,0,1,1.694,1.46,5.525,5.525,0,0,1,.537,2.629v7.944Zm-4.182.327a5.428,5.428,0,0,1-2.313-.467,3.524,3.524,0,0,1-1.554-1.355,4.009,4.009,0,0,1-.549-2.15,3.724,3.724,0,0,1,.572-2.1,3.587,3.587,0,0,1,1.659-1.32,6.79,6.79,0,0,1,2.629-.456H83.16v1.332H79.422a3.236,3.236,0,0,0-2.255.713,2.4,2.4,0,0,0-.783,1.858A2.3,2.3,0,0,0,77.2,34.15a3.335,3.335,0,0,0,2.22.689,4.455,4.455,0,0,0,1.659-.315,2.951,2.951,0,0,0,1.332-1.075A3.807,3.807,0,0,0,83,31.358l.514.724a5.037,5.037,0,0,1-.654,2.3,3.583,3.583,0,0,1-1.519,1.39A5.061,5.061,0,0,1,79.095,36.241Zm9.486-.327V18.857h1.752V35.914Zm-1.8-15.631V18.857h3.552v1.425Zm8.155,15.631V23.554h1.729v12.36ZM92.95,24.956v-1.4h3.715v1.4Zm2.36-3.692a1.232,1.232,0,0,1-.946-.339,1.311,1.311,0,0,1,0-1.706,1.232,1.232,0,0,1,.946-.339,1.193,1.193,0,0,1,.935.339,1.349,1.349,0,0,1,0,1.706A1.193,1.193,0,0,1,95.31,21.264Zm9.276,15a5.7,5.7,0,0,1-3.668-1.04,3.47,3.47,0,0,1-1.308-2.792h1.636a2.37,2.37,0,0,0,.806,1.612,3.612,3.612,0,0,0,2.535.724,3.824,3.824,0,0,0,2.488-.689,2.1,2.1,0,0,0,.829-1.671A1.648,1.648,0,0,0,107.215,31a4.136,4.136,0,0,0-2-.643l-1.4-.14a5.075,5.075,0,0,1-2.722-1.04,2.872,2.872,0,0,1-1.04-2.348,3.3,3.3,0,0,1,.561-1.916,3.685,3.685,0,0,1,1.577-1.273,5.814,5.814,0,0,1,2.395-.456,5.263,5.263,0,0,1,3.236.935,3.186,3.186,0,0,1,1.273,2.664H107.46a1.951,1.951,0,0,0-.748-1.5,3.235,3.235,0,0,0-2.126-.608,3.183,3.183,0,0,0-2.161.631,1.983,1.983,0,0,0-.713,1.542,1.668,1.668,0,0,0,.537,1.273,2.843,2.843,0,0,0,1.682.619l1.4.14a6.256,6.256,0,0,1,3.049,1.075,2.885,2.885,0,0,1,1.18,2.477,3.339,3.339,0,0,1-.619,1.974,4.064,4.064,0,0,1-1.741,1.367A6.483,6.483,0,0,1,104.586,36.265Zm12.36-.21a5.965,5.965,0,0,1-2.22-.374,2.85,2.85,0,0,1-1.449-1.273,4.871,4.871,0,0,1-.514-2.418V19.652h1.682V32.246a2.2,2.2,0,0,0,.584,1.647,2.271,2.271,0,0,0,1.659.572h2.22v1.589Zm-6.4-11.169V23.554h8.365v1.332ZM129.19,35.914V32.2h-.28V27.806a2.89,2.89,0,0,0-.724-2.115,3.027,3.027,0,0,0-2.243-.736q-.7,0-1.414.023t-1.355.058q-.643.035-1.133.082V23.577l1.051-.093q.537-.047,1.11-.058t1.11-.012a8.277,8.277,0,0,1,3.049.467,3.215,3.215,0,0,1,1.694,1.46,5.525,5.525,0,0,1,.537,2.629v7.944Zm-4.182.327a5.428,5.428,0,0,1-2.313-.467,3.524,3.524,0,0,1-1.554-1.355,4.009,4.009,0,0,1-.549-2.15,3.724,3.724,0,0,1,.572-2.1,3.587,3.587,0,0,1,1.659-1.32,6.79,6.79,0,0,1,2.629-.456h3.622v1.332h-3.738a3.236,3.236,0,0,0-2.255.713,2.4,2.4,0,0,0-.783,1.858,2.3,2.3,0,0,0,.818,1.858,3.335,3.335,0,0,0,2.22.689,4.455,4.455,0,0,0,1.659-.315,2.951,2.951,0,0,0,1.332-1.075,3.807,3.807,0,0,0,.584-2.091l.514.724a5.037,5.037,0,0,1-.654,2.3,3.583,3.583,0,0,1-1.519,1.39A5.061,5.061,0,0,1,125.008,36.241Zm19.393.07a6.426,6.426,0,0,1-2.757-.549,5.348,5.348,0,0,1-1.916-1.472,6.249,6.249,0,0,1-1.11-2.068,7.778,7.778,0,0,1-.362-2.36v-.327a7.7,7.7,0,0,1,.362-2.337,6.119,6.119,0,0,1,1.11-2.056,5.49,5.49,0,0,1,1.881-1.46,6.018,6.018,0,0,1,2.652-.549A5.71,5.71,0,0,1,147.5,24a5.534,5.534,0,0,1,1.951,2.208,6.5,6.5,0,0,1,.654,2.886V30H139.05V28.648h9.837l-.444.678a5.727,5.727,0,0,0-.479-2.418,3.784,3.784,0,0,0-1.4-1.636,4.161,4.161,0,0,0-2.3-.6,4.066,4.066,0,0,0-2.407.678,4.151,4.151,0,0,0-1.437,1.8,6.429,6.429,0,0,0-.479,2.547,6.625,6.625,0,0,0,.479,2.559,4.034,4.034,0,0,0,1.472,1.834,5.008,5.008,0,0,0,5.129-.058,3,3,0,0,0,1.238-1.741h1.636a4.621,4.621,0,0,1-.981,2.138,4.952,4.952,0,0,1-1.893,1.39A6.589,6.589,0,0,1,144.4,36.311Zm8.482-.4V23.554h1.4v5.187H154a7.724,7.724,0,0,1,.514-2.967,4.114,4.114,0,0,1,1.542-1.916,4.62,4.62,0,0,1,2.594-.678h.07a4.151,4.151,0,0,1,3.481,1.46,6.5,6.5,0,0,1,1.145,4.1v7.173h-1.729V28.367a3.718,3.718,0,0,0-.888-2.594,3.17,3.17,0,0,0-2.477-.981,3.508,3.508,0,0,0-2.629,1.016,3.664,3.664,0,0,0-.993,2.675v7.43Zm156.548,0-7.22-7.664a23.059,23.059,0,0,1-1.6-1.916,5.961,5.961,0,0,1-.853-1.577,5.108,5.108,0,0,1-.257-1.647,4.918,4.918,0,0,1,.549-2.43A3.441,3.441,0,0,1,301.79,19.2a8.024,8.024,0,0,1,3.084-.5q.818,0,1.752.07t1.752.164V20.47q-.514-.047-1.227-.105t-1.4-.093q-.689-.035-1.2-.035a3.66,3.66,0,0,0-2.594.748,2.858,2.858,0,0,0-.771,2.15,4,4,0,0,0,.514,2.021,11.534,11.534,0,0,0,1.612,2.068l8.178,8.692Zm-6,.4a6.7,6.7,0,0,1-2.991-.643,5.092,5.092,0,0,1-2.056-1.776,4.582,4.582,0,0,1-.748-2.582v-.28a4.923,4.923,0,0,1,.946-2.979,7.123,7.123,0,0,1,2.348-2.068l.888,1.238A4.547,4.547,0,0,0,300,28.846a4.188,4.188,0,0,0-.689,2.325,3.363,3.363,0,0,0,.572,2,3.644,3.644,0,0,0,1.507,1.227,4.9,4.9,0,0,0,2.033.421,4.537,4.537,0,0,0,2.967-.993,6.1,6.1,0,0,0,1.846-2.9,14.955,14.955,0,0,0,.631-4.661h1.565a17.982,17.982,0,0,1-.444,4.171,9.537,9.537,0,0,1-1.332,3.166,6.112,6.112,0,0,1-2.208,2.009A6.354,6.354,0,0,1,303.425,36.311Zm2.547-9.79v-1.4h5.911v1.4ZM7.62,66.46A8.511,8.511,0,0,1,4,65.771a5.064,5.064,0,0,1-2.231-1.916,5.153,5.153,0,0,1-.759-2.769H2.783a3.685,3.685,0,0,0,.479,1.834A3.449,3.449,0,0,0,4.8,64.3a6.392,6.392,0,0,0,2.816.526,6.67,6.67,0,0,0,2.675-.467A3.551,3.551,0,0,0,11.884,63.1a3.147,3.147,0,0,0,.526-1.776,2.612,2.612,0,0,0-.97-2.068,5.063,5.063,0,0,0-2.909-.993l-1.963-.187a5.752,5.752,0,0,1-3.493-1.367,4.015,4.015,0,0,1-1.3-3.119,4.791,4.791,0,0,1,.7-2.594,4.884,4.884,0,0,1,2-1.776A6.858,6.858,0,0,1,7.6,48.562a6.96,6.96,0,0,1,3.166.666,4.822,4.822,0,0,1,2.021,1.834,5.166,5.166,0,0,1,.7,2.71H11.709a3.777,3.777,0,0,0-.421-1.752A3.155,3.155,0,0,0,9.956,50.7a4.865,4.865,0,0,0-2.36-.5,4.919,4.919,0,0,0-2.278.467A3.122,3.122,0,0,0,3.987,51.9a3.382,3.382,0,0,0-.432,1.682,2.6,2.6,0,0,0,.818,1.939,3.67,3.67,0,0,0,2.36.911l1.963.187a7.952,7.952,0,0,1,2.956.759A4.75,4.75,0,0,1,13.531,59a4.129,4.129,0,0,1,.654,2.325,4.577,4.577,0,0,1-.806,2.664A5.3,5.3,0,0,1,11.1,65.806,8.519,8.519,0,0,1,7.62,66.46Zm15.374,0a6.665,6.665,0,0,1-2.792-.549,6.1,6.1,0,0,1-2.033-1.472,6.611,6.611,0,0,1-1.694-4.4v-.327a6.5,6.5,0,0,1,.444-2.348A6.406,6.406,0,0,1,18.2,55.292a6.309,6.309,0,0,1,2.044-1.46,6.545,6.545,0,0,1,2.745-.549,6.6,6.6,0,0,1,2.769.549,6.309,6.309,0,0,1,2.044,1.46,6.244,6.244,0,0,1,1.273,2.068,6.66,6.66,0,0,1,.432,2.348v.327a6.727,6.727,0,0,1-.421,2.337,6.339,6.339,0,0,1-1.25,2.068A6.067,6.067,0,0,1,25.8,65.911,6.746,6.746,0,0,1,22.994,66.46Zm0-1.565a4.689,4.689,0,0,0,2.605-.689,4.528,4.528,0,0,0,1.624-1.822,5.9,5.9,0,0,0-.012-5.047,4.422,4.422,0,0,0-1.647-1.8,4.783,4.783,0,0,0-2.57-.666,4.738,4.738,0,0,0-2.547.666,4.422,4.422,0,0,0-1.647,1.8,5.9,5.9,0,0,0-.012,5.047,4.528,4.528,0,0,0,1.624,1.822A4.645,4.645,0,0,0,22.994,64.895Zm9.627,1.168V49.006h1.752V66.063Zm-1.8-15.631V49.006h3.552v1.425ZM42.6,66.414a4.112,4.112,0,0,1-3.388-1.437,6.187,6.187,0,0,1-1.168-4.007v-7.29h1.729v7.64a3.679,3.679,0,0,0,.853,2.559A3.029,3.029,0,0,0,43,64.825a3.317,3.317,0,0,0,2.535-1,3.759,3.759,0,0,0,.946-2.687V53.679h1.752V66.063h-1.4V60.9h.28a7.959,7.959,0,0,1-.491,2.956,4.017,4.017,0,0,1-1.472,1.893,4.316,4.316,0,0,1-2.477.666Zm14.837.047a6.288,6.288,0,0,1-2.722-.549,5.477,5.477,0,0,1-1.928-1.5,6.641,6.641,0,0,1-1.157-2.091,7.206,7.206,0,0,1-.386-2.313v-.327a7.171,7.171,0,0,1,.386-2.325A6.392,6.392,0,0,1,52.785,55.3a5.6,5.6,0,0,1,1.928-1.472,6.171,6.171,0,0,1,2.675-.549,6.428,6.428,0,0,1,2.745.561,4.95,4.95,0,0,1,1.951,1.589,4.872,4.872,0,0,1,.888,2.43H61.29a3.477,3.477,0,0,0-1.2-2.138,4,4,0,0,0-2.7-.853,4.217,4.217,0,0,0-2.442.666,4.111,4.111,0,0,0-1.46,1.8A6.256,6.256,0,0,0,53,59.848a6.365,6.365,0,0,0,.491,2.512,4,4,0,0,0,3.949,2.535,4.574,4.574,0,0,0,2-.409,3.673,3.673,0,0,0,1.379-1.11,3.1,3.1,0,0,0,.619-1.542h1.682a4.458,4.458,0,0,1-.876,2.442,5.226,5.226,0,0,1-2.021,1.612A6.55,6.55,0,0,1,57.435,66.46Zm8.972-.4V53.7h1.729v12.36ZM64.421,55.1V53.7h3.715v1.4Zm2.36-3.692a1.232,1.232,0,0,1-.946-.339,1.311,1.311,0,0,1,0-1.706,1.232,1.232,0,0,1,.946-.339,1.193,1.193,0,0,1,.935.339,1.349,1.349,0,0,1,0,1.706A1.193,1.193,0,0,1,66.781,51.413ZM77.693,66.46a6.665,6.665,0,0,1-2.792-.549,6.1,6.1,0,0,1-2.033-1.472,6.611,6.611,0,0,1-1.694-4.4v-.327a6.5,6.5,0,0,1,.444-2.348A6.407,6.407,0,0,1,72.9,55.292a6.309,6.309,0,0,1,2.044-1.46,7.2,7.2,0,0,1,5.514,0,6.309,6.309,0,0,1,2.044,1.46,6.244,6.244,0,0,1,1.273,2.068,6.66,6.66,0,0,1,.432,2.348v.327a6.727,6.727,0,0,1-.421,2.337,6.339,6.339,0,0,1-1.25,2.068A6.067,6.067,0,0,1,80.5,65.911,6.746,6.746,0,0,1,77.693,66.46Zm0-1.565a4.689,4.689,0,0,0,2.605-.689,4.528,4.528,0,0,0,1.624-1.822,5.9,5.9,0,0,0-.012-5.047,4.422,4.422,0,0,0-1.647-1.8,5.248,5.248,0,0,0-5.117,0,4.422,4.422,0,0,0-1.647,1.8,5.9,5.9,0,0,0-.012,5.047,4.528,4.528,0,0,0,1.624,1.822A4.645,4.645,0,0,0,77.693,64.895Zm9.51,1.168V53.7h1.4V58.89h-.28a7.724,7.724,0,0,1,.514-2.967,4.114,4.114,0,0,1,1.542-1.916,4.62,4.62,0,0,1,2.594-.678h.07a4.151,4.151,0,0,1,3.481,1.46,6.5,6.5,0,0,1,1.145,4.1v7.173H95.941V58.516a3.718,3.718,0,0,0-.888-2.594,3.17,3.17,0,0,0-2.477-.981,3.509,3.509,0,0,0-2.629,1.016,3.664,3.664,0,0,0-.993,2.675v7.43Zm19.417.4a6.426,6.426,0,0,1-2.757-.549,5.348,5.348,0,0,1-1.916-1.472,6.249,6.249,0,0,1-1.11-2.068,7.778,7.778,0,0,1-.362-2.36v-.327a7.7,7.7,0,0,1,.362-2.337,6.119,6.119,0,0,1,1.11-2.056,5.49,5.49,0,0,1,1.881-1.46,6.018,6.018,0,0,1,2.652-.549,5.71,5.71,0,0,1,3.236.865,5.534,5.534,0,0,1,1.951,2.208,6.5,6.5,0,0,1,.654,2.886v.911H101.268V58.8h9.837l-.444.678a5.727,5.727,0,0,0-.479-2.418,3.784,3.784,0,0,0-1.4-1.636,4.161,4.161,0,0,0-2.3-.6,4.066,4.066,0,0,0-2.407.678,4.151,4.151,0,0,0-1.437,1.8,6.429,6.429,0,0,0-.479,2.547,6.625,6.625,0,0,0,.479,2.559,4.034,4.034,0,0,0,1.472,1.834,5.008,5.008,0,0,0,5.129-.058,3,3,0,0,0,1.238-1.741h1.636a4.621,4.621,0,0,1-.981,2.138,4.952,4.952,0,0,1-1.893,1.39A6.589,6.589,0,0,1,106.619,66.46ZM119,66.414a5.7,5.7,0,0,1-3.668-1.04,3.47,3.47,0,0,1-1.308-2.792h1.636a2.37,2.37,0,0,0,.806,1.612,3.612,3.612,0,0,0,2.535.724,3.824,3.824,0,0,0,2.488-.689,2.1,2.1,0,0,0,.829-1.671,1.648,1.648,0,0,0-.689-1.414,4.136,4.136,0,0,0-2-.643l-1.4-.14a5.074,5.074,0,0,1-2.722-1.04,2.872,2.872,0,0,1-1.04-2.348,3.3,3.3,0,0,1,.561-1.916,3.685,3.685,0,0,1,1.577-1.273A5.814,5.814,0,0,1,119,53.329a5.263,5.263,0,0,1,3.236.935,3.186,3.186,0,0,1,1.273,2.664h-1.636a1.951,1.951,0,0,0-.748-1.5A3.235,3.235,0,0,0,119,54.824a3.183,3.183,0,0,0-2.161.631A1.983,1.983,0,0,0,116.129,57a1.668,1.668,0,0,0,.537,1.273,2.843,2.843,0,0,0,1.682.619l1.4.14A6.256,6.256,0,0,1,122.8,60.1a2.885,2.885,0,0,1,1.18,2.477,3.339,3.339,0,0,1-.619,1.974,4.064,4.064,0,0,1-1.741,1.367A6.483,6.483,0,0,1,119,66.414Zm15.959-.35-4.72-17.057h1.822l4.276,15.912-.818-.467h2.266l-.888.467,3.481-15.164h1.682l-3.832,16.309Zm10.257,0-4.206-16.309h1.729l3.879,15.164-.865-.467h2.313l-.888.467,3.855-15.912h1.776L148.49,66.063Zm14.72.4a6.426,6.426,0,0,1-2.757-.549,5.348,5.348,0,0,1-1.916-1.472,6.248,6.248,0,0,1-1.11-2.068,7.778,7.778,0,0,1-.362-2.36v-.327a7.7,7.7,0,0,1,.362-2.337,6.119,6.119,0,0,1,1.11-2.056,5.49,5.49,0,0,1,1.881-1.46,6.018,6.018,0,0,1,2.652-.549,5.71,5.71,0,0,1,3.236.865,5.534,5.534,0,0,1,1.951,2.208,6.5,6.5,0,0,1,.654,2.886v.911H154.588V58.8h9.837l-.444.678a5.727,5.727,0,0,0-.479-2.418,3.784,3.784,0,0,0-1.4-1.636,4.161,4.161,0,0,0-2.3-.6,4.066,4.066,0,0,0-2.407.678,4.151,4.151,0,0,0-1.437,1.8,6.429,6.429,0,0,0-.479,2.547,6.625,6.625,0,0,0,.479,2.559,4.034,4.034,0,0,0,1.472,1.834,5.008,5.008,0,0,0,5.129-.058,3,3,0,0,0,1.238-1.741h1.636a4.621,4.621,0,0,1-.981,2.138,4.952,4.952,0,0,1-1.893,1.39A6.589,6.589,0,0,1,159.939,66.46Zm14.86,0a5.524,5.524,0,0,1-2.862-.724,5.026,5.026,0,0,1-1.916-2.033,6.78,6.78,0,0,1-.736-3.014h.537v5.374h-1.4V49.006h1.752v8.528L169.5,59.1a6.858,6.858,0,0,1,.759-3.166,4.928,4.928,0,0,1,1.916-1.974,5.5,5.5,0,0,1,2.745-.678A5.635,5.635,0,0,1,179.25,55.2a6.166,6.166,0,0,1,1.192,2.044,7.271,7.271,0,0,1,.409,2.442v.327a7.021,7.021,0,0,1-.421,2.418,6.612,6.612,0,0,1-1.2,2.068,5.623,5.623,0,0,1-1.9,1.437A5.875,5.875,0,0,1,174.8,66.46Zm-.187-1.542a4.2,4.2,0,0,0,2.407-.678,4.409,4.409,0,0,0,1.542-1.822,5.976,5.976,0,0,0,.537-2.57,5.848,5.848,0,0,0-.549-2.582,4.212,4.212,0,0,0-3.937-2.442,4.7,4.7,0,0,0-2.29.561,4.158,4.158,0,0,0-1.624,1.577,4.651,4.651,0,0,0-.6,2.395V60.5a4.386,4.386,0,0,0,.6,2.3,4.209,4.209,0,0,0,1.624,1.554A4.7,4.7,0,0,0,174.612,64.918Zm12.571,1.145,6.285-17.057h3.178l6.5,17.057h-1.822l-6.052-15.935.958.491h-2.453l1-.491-5.818,15.935Zm3.365-5.421.584-1.612h7.921l.607,1.612ZM209.964,66.2a5.965,5.965,0,0,1-2.22-.374,2.85,2.85,0,0,1-1.449-1.273,4.87,4.87,0,0,1-.514-2.418V49.8h1.682V62.395a2.2,2.2,0,0,0,.584,1.647,2.271,2.271,0,0,0,1.659.572h2.22V66.2Zm-6.4-11.169V53.7h8.365v1.332Zm11.169,11.028V53.7h1.4v5.164h-.14a5.771,5.771,0,0,1,1.192-4.007,4.849,4.849,0,0,1,3.738-1.3h.4v1.589H220.6a4.175,4.175,0,0,0-3.061,1.04,4.105,4.105,0,0,0-1.051,3.049v6.823Zm16.309,0V62.348h-.28V57.955a2.89,2.89,0,0,0-.724-2.115,3.027,3.027,0,0,0-2.243-.736q-.7,0-1.414.023t-1.355.058q-.643.035-1.133.082V53.726l1.051-.093q.537-.047,1.11-.058t1.11-.012a8.277,8.277,0,0,1,3.049.467,3.215,3.215,0,0,1,1.694,1.46,5.525,5.525,0,0,1,.537,2.629v7.944Zm-4.182.327a5.428,5.428,0,0,1-2.313-.467,3.524,3.524,0,0,1-1.554-1.355,4.009,4.009,0,0,1-.549-2.15,3.724,3.724,0,0,1,.572-2.1A3.587,3.587,0,0,1,224.673,59a6.79,6.79,0,0,1,2.629-.456h3.622v1.332h-3.738a3.236,3.236,0,0,0-2.255.713,2.4,2.4,0,0,0-.783,1.858,2.3,2.3,0,0,0,.818,1.858,3.335,3.335,0,0,0,2.22.689,4.455,4.455,0,0,0,1.659-.315,2.951,2.951,0,0,0,1.332-1.075,3.807,3.807,0,0,0,.584-2.091l.514.724a5.037,5.037,0,0,1-.654,2.3,3.583,3.583,0,0,1-1.519,1.39A5.061,5.061,0,0,1,226.857,66.39Zm14.58.07a6.288,6.288,0,0,1-2.722-.549,5.477,5.477,0,0,1-1.928-1.5,6.641,6.641,0,0,1-1.157-2.091,7.206,7.206,0,0,1-.386-2.313v-.327a7.171,7.171,0,0,1,.386-2.325,6.392,6.392,0,0,1,1.157-2.056,5.6,5.6,0,0,1,1.928-1.472,6.171,6.171,0,0,1,2.675-.549,6.428,6.428,0,0,1,2.745.561,4.95,4.95,0,0,1,1.951,1.589,4.872,4.872,0,0,1,.888,2.43h-1.682a3.477,3.477,0,0,0-1.2-2.138,4,4,0,0,0-2.7-.853,4.216,4.216,0,0,0-2.442.666,4.111,4.111,0,0,0-1.46,1.8A6.257,6.257,0,0,0,237,59.848a6.365,6.365,0,0,0,.491,2.512,4,4,0,0,0,3.949,2.535,4.574,4.574,0,0,0,2-.409,3.673,3.673,0,0,0,1.379-1.11,3.1,3.1,0,0,0,.619-1.542h1.682a4.458,4.458,0,0,1-.876,2.442,5.226,5.226,0,0,1-2.021,1.612A6.55,6.55,0,0,1,241.437,66.46Zm12.8-.257a5.965,5.965,0,0,1-2.22-.374,2.85,2.85,0,0,1-1.449-1.273,4.871,4.871,0,0,1-.514-2.418V49.8h1.682V62.395a2.2,2.2,0,0,0,.584,1.647,2.271,2.271,0,0,0,1.659.572h2.22V66.2Zm-6.4-11.169V53.7H256.2v1.332Zm11.823,11.028V53.7h1.729v12.36ZM257.676,55.1V53.7h3.715v1.4Zm2.36-3.692a1.232,1.232,0,0,1-.946-.339,1.311,1.311,0,0,1,0-1.706,1.232,1.232,0,0,1,.946-.339,1.193,1.193,0,0,1,.935.339,1.349,1.349,0,0,1,0,1.706A1.193,1.193,0,0,1,260.036,51.413Zm8.131,14.65L263.821,53.7h1.8l4.3,12.36Zm.467,0V64.638h2.22v1.425Zm.958,0,3.762-12.36h1.729l-3.832,12.36Zm15.468,0V62.348h-.28V57.955a2.89,2.89,0,0,0-.724-2.115,3.027,3.027,0,0,0-2.243-.736q-.7,0-1.414.023t-1.355.058q-.643.035-1.133.082V53.726l1.051-.093q.537-.047,1.11-.058t1.11-.012a8.277,8.277,0,0,1,3.049.467,3.215,3.215,0,0,1,1.694,1.46,5.525,5.525,0,0,1,.537,2.629v7.944Zm-4.182.327a5.428,5.428,0,0,1-2.313-.467,3.524,3.524,0,0,1-1.554-1.355,4.009,4.009,0,0,1-.549-2.15,3.724,3.724,0,0,1,.572-2.1A3.587,3.587,0,0,1,278.693,59a6.789,6.789,0,0,1,2.629-.456h3.622v1.332H281.2a3.236,3.236,0,0,0-2.255.713,2.4,2.4,0,0,0-.783,1.858,2.3,2.3,0,0,0,.818,1.858,3.335,3.335,0,0,0,2.22.689,4.455,4.455,0,0,0,1.659-.315A2.951,2.951,0,0,0,284.2,63.6a3.807,3.807,0,0,0,.584-2.091l.514.724a5.038,5.038,0,0,1-.654,2.3,3.583,3.583,0,0,1-1.519,1.39A5.061,5.061,0,0,1,280.878,66.39Zm13.272.023a5.7,5.7,0,0,1-3.668-1.04,3.47,3.47,0,0,1-1.308-2.792h1.636a2.37,2.37,0,0,0,.806,1.612,3.612,3.612,0,0,0,2.535.724,3.824,3.824,0,0,0,2.488-.689,2.1,2.1,0,0,0,.829-1.671,1.648,1.648,0,0,0-.689-1.414,4.136,4.136,0,0,0-2-.643l-1.4-.14a5.074,5.074,0,0,1-2.722-1.04,2.872,2.872,0,0,1-1.04-2.348,3.3,3.3,0,0,1,.561-1.916,3.685,3.685,0,0,1,1.577-1.273,5.814,5.814,0,0,1,2.395-.456,5.263,5.263,0,0,1,3.236.935,3.185,3.185,0,0,1,1.273,2.664h-1.636a1.951,1.951,0,0,0-.748-1.5,3.235,3.235,0,0,0-2.126-.607,3.183,3.183,0,0,0-2.161.631A1.983,1.983,0,0,0,291.275,57a1.668,1.668,0,0,0,.537,1.273,2.843,2.843,0,0,0,1.682.619l1.4.14a6.255,6.255,0,0,1,3.049,1.075,2.885,2.885,0,0,1,1.18,2.477,3.339,3.339,0,0,1-.619,1.974,4.064,4.064,0,0,1-1.741,1.367A6.483,6.483,0,0,1,294.149,66.414Zm11.636,4.463V69.311h1.589a4.376,4.376,0,0,0,1.4-.2,2.119,2.119,0,0,0,.981-.689,4.223,4.223,0,0,0,.678-1.355L314.594,53.7H316.3l-4.346,13.856a5.206,5.206,0,0,1-1.028,1.928,3.77,3.77,0,0,1-1.565,1.063,6.134,6.134,0,0,1-2.08.327Zm4.019-5.117V64.287h2.22v1.472Zm-.21,0L305.108,53.7h1.8l4.323,12.057Zm14.44.3V49.006h1.776V66.063Zm1.308-7.874V56.577l7.547-.023v1.612Zm0-7.594V49.006h7.991V50.6Zm14.884,15.818a4.112,4.112,0,0,1-3.388-1.437,6.187,6.187,0,0,1-1.168-4.007v-7.29H337.4v7.64a3.679,3.679,0,0,0,.853,2.559,3.029,3.029,0,0,0,2.372.946,3.317,3.317,0,0,0,2.535-1,3.759,3.759,0,0,0,.946-2.687V53.679h1.752V66.063h-1.4V60.9h.28a7.959,7.959,0,0,1-.491,2.956,4.017,4.017,0,0,1-1.472,1.893,4.316,4.316,0,0,1-2.477.666Zm9.627-.35V53.7h1.4V58.89h-.28a7.724,7.724,0,0,1,.514-2.967,4.114,4.114,0,0,1,1.542-1.916,4.62,4.62,0,0,1,2.594-.678h.07a4.151,4.151,0,0,1,3.481,1.46,6.5,6.5,0,0,1,1.145,4.1v7.173h-1.729V58.516a3.718,3.718,0,0,0-.888-2.594,3.17,3.17,0,0,0-2.477-.981,3.509,3.509,0,0,0-2.629,1.016,3.664,3.664,0,0,0-.993,2.675v7.43Zm19.463.4a6.288,6.288,0,0,1-2.722-.549,5.477,5.477,0,0,1-1.928-1.5,6.641,6.641,0,0,1-1.157-2.091,7.206,7.206,0,0,1-.386-2.313v-.327a7.171,7.171,0,0,1,.386-2.325,6.392,6.392,0,0,1,1.157-2.056,5.6,5.6,0,0,1,1.928-1.472,6.171,6.171,0,0,1,2.675-.549,6.428,6.428,0,0,1,2.745.561,4.95,4.95,0,0,1,1.951,1.589,4.872,4.872,0,0,1,.888,2.43h-1.682a3.477,3.477,0,0,0-1.2-2.138,4,4,0,0,0-2.7-.853,4.217,4.217,0,0,0-2.442.666,4.111,4.111,0,0,0-1.46,1.8,6.257,6.257,0,0,0-.491,2.512,6.365,6.365,0,0,0,.491,2.512,4,4,0,0,0,3.949,2.535,4.575,4.575,0,0,0,2-.409,3.672,3.672,0,0,0,1.379-1.11,3.1,3.1,0,0,0,.619-1.542h1.682a4.458,4.458,0,0,1-.876,2.442,5.226,5.226,0,0,1-2.021,1.612A6.55,6.55,0,0,1,369.316,66.46Zm8.972-.4V53.7h1.729v12.36ZM376.3,55.1V53.7h3.715v1.4Zm2.36-3.692a1.232,1.232,0,0,1-.946-.339,1.311,1.311,0,0,1,0-1.706,1.232,1.232,0,0,1,.946-.339,1.193,1.193,0,0,1,.935.339,1.349,1.349,0,0,1,0,1.706A1.193,1.193,0,0,1,378.662,51.413ZM389.574,66.46a6.665,6.665,0,0,1-2.792-.549,6.1,6.1,0,0,1-2.033-1.472,6.611,6.611,0,0,1-1.694-4.4v-.327a6.5,6.5,0,0,1,.444-2.348,6.407,6.407,0,0,1,1.285-2.068,6.309,6.309,0,0,1,2.044-1.46,7.2,7.2,0,0,1,5.514,0,6.309,6.309,0,0,1,2.044,1.46,6.244,6.244,0,0,1,1.273,2.068,6.659,6.659,0,0,1,.432,2.348v.327a6.727,6.727,0,0,1-.421,2.337,6.34,6.34,0,0,1-1.25,2.068,6.067,6.067,0,0,1-2.044,1.472A6.746,6.746,0,0,1,389.574,66.46Zm0-1.565a4.689,4.689,0,0,0,2.605-.689,4.528,4.528,0,0,0,1.624-1.822,5.9,5.9,0,0,0-.012-5.047,4.423,4.423,0,0,0-1.647-1.8,5.248,5.248,0,0,0-5.117,0,4.422,4.422,0,0,0-1.647,1.8,5.9,5.9,0,0,0-.012,5.047,4.528,4.528,0,0,0,1.624,1.822A4.645,4.645,0,0,0,389.574,64.895Zm9.51,1.168V53.7h1.4V58.89h-.28a7.725,7.725,0,0,1,.514-2.967,4.114,4.114,0,0,1,1.542-1.916,4.62,4.62,0,0,1,2.594-.678h.07a4.151,4.151,0,0,1,3.481,1.46,6.5,6.5,0,0,1,1.145,4.1v7.173h-1.729V58.516a3.718,3.718,0,0,0-.888-2.594,3.17,3.17,0,0,0-2.477-.981,3.509,3.509,0,0,0-2.629,1.016,3.664,3.664,0,0,0-.993,2.675v7.43Zm21.777,0V62.348h-.28V57.955a2.889,2.889,0,0,0-.724-2.115,3.027,3.027,0,0,0-2.243-.736q-.7,0-1.414.023t-1.355.058q-.643.035-1.133.082V53.726l1.051-.093q.537-.047,1.11-.058t1.11-.012a8.277,8.277,0,0,1,3.049.467,3.215,3.215,0,0,1,1.694,1.46,5.525,5.525,0,0,1,.537,2.629v7.944Zm-4.182.327a5.428,5.428,0,0,1-2.313-.467,3.524,3.524,0,0,1-1.554-1.355,4.009,4.009,0,0,1-.549-2.15,3.724,3.724,0,0,1,.572-2.1A3.587,3.587,0,0,1,414.493,59a6.789,6.789,0,0,1,2.629-.456h3.622v1.332H417a3.236,3.236,0,0,0-2.255.713,2.4,2.4,0,0,0-.783,1.858,2.3,2.3,0,0,0,.818,1.858,3.335,3.335,0,0,0,2.22.689,4.455,4.455,0,0,0,1.659-.315A2.951,2.951,0,0,0,420,63.6a3.807,3.807,0,0,0,.584-2.091l.514.724a5.038,5.038,0,0,1-.654,2.3,3.583,3.583,0,0,1-1.519,1.39A5.061,5.061,0,0,1,416.677,66.39Zm9.486-.327V49.006h1.752V66.063Zm-1.8-15.631V49.006h3.552v1.425ZM437.029,66.46a6.426,6.426,0,0,1-2.757-.549,5.348,5.348,0,0,1-1.916-1.472,6.249,6.249,0,0,1-1.11-2.068,7.779,7.779,0,0,1-.362-2.36v-.327a7.7,7.7,0,0,1,.362-2.337,6.12,6.12,0,0,1,1.11-2.056,5.49,5.49,0,0,1,1.881-1.46,6.018,6.018,0,0,1,2.652-.549,5.71,5.71,0,0,1,3.236.865,5.535,5.535,0,0,1,1.951,2.208,6.5,6.5,0,0,1,.654,2.886v.911H431.678V58.8h9.837l-.444.678a5.727,5.727,0,0,0-.479-2.418,3.784,3.784,0,0,0-1.4-1.636,4.161,4.161,0,0,0-2.3-.6,4.066,4.066,0,0,0-2.407.678,4.151,4.151,0,0,0-1.437,1.8,6.429,6.429,0,0,0-.479,2.547,6.625,6.625,0,0,0,.479,2.559,4.034,4.034,0,0,0,1.472,1.834,5.008,5.008,0,0,0,5.129-.058,3,3,0,0,0,1.238-1.741h1.636a4.622,4.622,0,0,1-.981,2.138,4.952,4.952,0,0,1-1.893,1.39A6.589,6.589,0,0,1,437.029,66.46Zm12.384-.047a5.7,5.7,0,0,1-3.668-1.04,3.47,3.47,0,0,1-1.308-2.792h1.636a2.37,2.37,0,0,0,.806,1.612,3.612,3.612,0,0,0,2.535.724,3.824,3.824,0,0,0,2.488-.689,2.1,2.1,0,0,0,.829-1.671,1.647,1.647,0,0,0-.689-1.414,4.136,4.136,0,0,0-2-.643l-1.4-.14a5.075,5.075,0,0,1-2.722-1.04,2.872,2.872,0,0,1-1.04-2.348,3.3,3.3,0,0,1,.561-1.916,3.685,3.685,0,0,1,1.577-1.273,5.814,5.814,0,0,1,2.395-.456,5.263,5.263,0,0,1,3.236.935,3.186,3.186,0,0,1,1.273,2.664h-1.636a1.951,1.951,0,0,0-.748-1.5,3.235,3.235,0,0,0-2.126-.607,3.183,3.183,0,0,0-2.161.631A1.983,1.983,0,0,0,446.538,57a1.668,1.668,0,0,0,.537,1.273,2.843,2.843,0,0,0,1.682.619l1.4.14a6.255,6.255,0,0,1,3.049,1.075,2.885,2.885,0,0,1,1.18,2.477,3.339,3.339,0,0,1-.619,1.974,4.064,4.064,0,0,1-1.741,1.367A6.483,6.483,0,0,1,449.412,66.414Z" transform="translate(-800.583 854.661)" fill="#324359"/>
    <path id="mail_sep" d="M0,0H1213.492V4.873H0Z" transform="translate(-1187 974.992)" fill="url(#linear-gradient)"/>
    <path id="i_wa" d="M14.144-10.021q.591-.735.788-.735a6.908,6.908,0,0,1,1.478.667,6.562,6.562,0,0,1,1.357.8.646.646,0,0,1,.03.227,3.2,3.2,0,0,1-.258,1.152,2.032,2.032,0,0,1-1.076.993,3.59,3.59,0,0,1-1.546.4,8.187,8.187,0,0,1-2.88-.94A8.651,8.651,0,0,1,9.46-9.24a19.974,19.974,0,0,1-2.244-2.8A5.3,5.3,0,0,1,6.14-14.986v-.121a3.35,3.35,0,0,1,1.122-2.4,1.147,1.147,0,0,1,.788-.334,2.412,2.412,0,0,1,.273.023,2.456,2.456,0,0,0,.288.023.622.622,0,0,1,.4.1,1.1,1.1,0,0,1,.235.417q.121.3.5,1.334a8.861,8.861,0,0,1,.379,1.137,1.538,1.538,0,0,1-.523.872q-.523.553-.523.7A.434.434,0,0,0,9.156-13,6.825,6.825,0,0,0,10.7-10.923a9.666,9.666,0,0,0,2.289,1.531.673.673,0,0,0,.334.106Q13.553-9.286,14.144-10.021Zm-2.289,7.3a9.264,9.264,0,0,0,3.691-.758,9.6,9.6,0,0,0,3.039-2.031A9.6,9.6,0,0,0,20.617-8.55a9.264,9.264,0,0,0,.758-3.691,9.264,9.264,0,0,0-.758-3.691,9.6,9.6,0,0,0-2.031-3.039A9.6,9.6,0,0,0,15.546-21a9.264,9.264,0,0,0-3.691-.758A9.264,9.264,0,0,0,8.163-21a9.6,9.6,0,0,0-3.039,2.031,9.6,9.6,0,0,0-2.031,3.039,9.264,9.264,0,0,0-.758,3.691A9.261,9.261,0,0,0,4.154-6.663l-1.2,3.532L6.625-4.3A9.322,9.322,0,0,0,11.855-2.722ZM7.421-22.762a11.107,11.107,0,0,1,4.434-.91,11.107,11.107,0,0,1,4.434.91,11.544,11.544,0,0,1,3.646,2.441,11.544,11.544,0,0,1,2.441,3.646,11.107,11.107,0,0,1,.91,4.434,11.107,11.107,0,0,1-.91,4.434,11.544,11.544,0,0,1-2.441,3.646,11.544,11.544,0,0,1-3.646,2.441,11.107,11.107,0,0,1-4.434.91A11.255,11.255,0,0,1,6.321-2.236L0-.205l2.062-6.14a11.157,11.157,0,0,1-1.637-5.9,11.107,11.107,0,0,1,.91-4.434,11.544,11.544,0,0,1,2.441-3.646A11.544,11.544,0,0,1,7.421-22.762Z" transform="translate(-259.619 859.371)" fill="#5abfa3"/>
    <path id="i_in" d="M5.291,15.994V31.017h-5V15.994Zm.318-4.639a2.4,2.4,0,0,1-.766,1.849,2.857,2.857,0,0,1-2.054.743h-.03a2.736,2.736,0,0,1-2-.743A2.484,2.484,0,0,1,0,11.356,2.442,2.442,0,0,1,.781,9.5,2.853,2.853,0,0,1,2.82,8.763,2.773,2.773,0,0,1,4.836,9.5,2.528,2.528,0,0,1,5.609,11.356ZM23.285,22.407v8.611H18.3V22.983a4.385,4.385,0,0,0-.614-2.494,2.156,2.156,0,0,0-1.918-.9,2.455,2.455,0,0,0-1.6.523,3.224,3.224,0,0,0-.963,1.3,3.665,3.665,0,0,0-.167,1.228v8.383H8.05q.03-6.049.03-9.808t-.015-4.487l-.015-.728h4.987v2.183h-.03a6.6,6.6,0,0,1,.622-.849,6.464,6.464,0,0,1,.857-.788,3.938,3.938,0,0,1,1.319-.659,6.009,6.009,0,0,1,1.736-.235,5.384,5.384,0,0,1,4.169,1.721A7.218,7.218,0,0,1,23.285,22.407Z" transform="translate(-259.619 868.366)" fill="#5abfa3"/>
    <path id="i_web" d="M21.345,52.354V57.2a4.374,4.374,0,0,1-4.366,4.366H4.366A4.205,4.205,0,0,1,1.281,60.29,4.205,4.205,0,0,1,0,57.2V44.592a4.205,4.205,0,0,1,1.281-3.085,4.205,4.205,0,0,1,3.085-1.281H15.038a.467.467,0,0,1,.485.485v.97a.467.467,0,0,1-.485.485H4.366a2.336,2.336,0,0,0-1.713.712,2.336,2.336,0,0,0-.712,1.713V57.2a2.336,2.336,0,0,0,.712,1.713,2.336,2.336,0,0,0,1.713.712H16.979A2.433,2.433,0,0,0,19.4,57.2V52.354a.467.467,0,0,1,.485-.485h.97a.467.467,0,0,1,.485.485Zm5.821-13.1v7.762a.965.965,0,0,1-1.652.682l-2.668-2.668-9.884,9.884a.477.477,0,0,1-.7,0l-1.728-1.728a.477.477,0,0,1,0-.7l9.884-9.884-2.668-2.668a.97.97,0,0,1,.682-1.652H26.2a.984.984,0,0,1,.97.97Z" transform="translate(-261.43 877.636)" fill="#5abfa3"/>
    <path id="mail_web" d="M10.856,3.249V-.956h-.317V-5.929a3.271,3.271,0,0,0-.82-2.394,3.427,3.427,0,0,0-2.539-.833q-.794,0-1.6.026t-1.534.066q-.727.04-1.283.093v-1.746l1.19-.106q.608-.053,1.256-.066T6.465-10.9a9.37,9.37,0,0,1,3.452.529A3.639,3.639,0,0,1,11.835-8.72a6.254,6.254,0,0,1,.608,2.976V3.249Zm-4.735.37A6.145,6.145,0,0,1,3.5,3.091,3.989,3.989,0,0,1,1.744,1.556,4.538,4.538,0,0,1,1.122-.877,4.216,4.216,0,0,1,1.77-3.258,4.061,4.061,0,0,1,3.648-4.752a7.686,7.686,0,0,1,2.976-.516h4.1V-3.76H6.492a3.664,3.664,0,0,0-2.553.807,2.711,2.711,0,0,0-.886,2.1,2.608,2.608,0,0,0,.926,2.1,3.775,3.775,0,0,0,2.513.78A5.043,5.043,0,0,0,8.37,1.675,3.341,3.341,0,0,0,9.877.459a4.309,4.309,0,0,0,.661-2.367l.582.82a5.7,5.7,0,0,1-.741,2.605A4.056,4.056,0,0,1,8.661,3.091,5.73,5.73,0,0,1,6.121,3.62Zm10.739-.37V-16.06h1.984V3.249Zm-2.037-17.7V-16.06h4.021v1.614ZM29.583,3.7a7.545,7.545,0,0,1-3.161-.622,6.9,6.9,0,0,1-2.3-1.666A7.369,7.369,0,0,1,22.693-.93,7.433,7.433,0,0,1,22.2-3.575v-.37a7.364,7.364,0,0,1,.5-2.658,7.252,7.252,0,0,1,1.455-2.341A7.142,7.142,0,0,1,26.475-10.6a7.41,7.41,0,0,1,3.108-.622,7.477,7.477,0,0,1,3.134.622,7.142,7.142,0,0,1,2.314,1.653A7.069,7.069,0,0,1,36.474-6.6a7.54,7.54,0,0,1,.489,2.658v.37A7.616,7.616,0,0,1,36.487-.93a7.176,7.176,0,0,1-1.415,2.341,6.868,6.868,0,0,1-2.314,1.666A7.637,7.637,0,0,1,29.583,3.7Zm0-1.772a5.308,5.308,0,0,0,2.949-.78A5.126,5.126,0,0,0,34.371-.917a6.323,6.323,0,0,0,.635-2.843,6.274,6.274,0,0,0-.648-2.87,5.006,5.006,0,0,0-1.865-2.037,5.415,5.415,0,0,0-2.91-.754,5.364,5.364,0,0,0-2.883.754A5.006,5.006,0,0,0,24.835-6.63a6.274,6.274,0,0,0-.648,2.87,6.323,6.323,0,0,0,.635,2.843A5.126,5.126,0,0,0,26.66,1.146,5.258,5.258,0,0,0,29.583,1.927ZM40.349,3.249V-10.743h1.587v5.872h-.317A8.744,8.744,0,0,1,42.2-8.231,4.657,4.657,0,0,1,43.946-10.4a5.23,5.23,0,0,1,2.936-.767h.079A4.7,4.7,0,0,1,50.9-9.513a7.361,7.361,0,0,1,1.3,4.642v8.12H50.242V-5.294a4.209,4.209,0,0,0-1.005-2.936,3.588,3.588,0,0,0-2.8-1.111,3.972,3.972,0,0,0-2.976,1.151,4.148,4.148,0,0,0-1.124,3.029V3.249Zm15.156,0V.948l8.12-10.131-.079.45-.37-.582.291.159H55.426v-1.587h9.866v2.3l-8.147,10.1.079-.4.4.582-.291-.185h8.359V3.249Zm19.309.45a7.545,7.545,0,0,1-3.161-.622,6.9,6.9,0,0,1-2.3-1.666A7.369,7.369,0,0,1,67.924-.93a7.433,7.433,0,0,1-.489-2.645v-.37a7.364,7.364,0,0,1,.5-2.658,7.253,7.253,0,0,1,1.455-2.341A7.142,7.142,0,0,1,71.706-10.6a7.41,7.41,0,0,1,3.108-.622,7.477,7.477,0,0,1,3.134.622,7.142,7.142,0,0,1,2.314,1.653A7.069,7.069,0,0,1,81.7-6.6a7.54,7.54,0,0,1,.489,2.658v.37A7.616,7.616,0,0,1,81.718-.93,7.176,7.176,0,0,1,80.3,1.411a6.868,6.868,0,0,1-2.314,1.666A7.637,7.637,0,0,1,74.814,3.7Zm0-1.772a5.308,5.308,0,0,0,2.949-.78A5.126,5.126,0,0,0,79.6-.917a6.323,6.323,0,0,0,.635-2.843,6.274,6.274,0,0,0-.648-2.87,5.006,5.006,0,0,0-1.865-2.037,5.415,5.415,0,0,0-2.91-.754,5.364,5.364,0,0,0-2.883.754A5.006,5.006,0,0,0,70.067-6.63a6.274,6.274,0,0,0-.648,2.87,6.322,6.322,0,0,0,.635,2.843,5.126,5.126,0,0,0,1.838,2.063A5.258,5.258,0,0,0,74.814,1.927ZM84.76,3.249V.631h2.486V3.249Zm11.876.45a6.69,6.69,0,0,1-2.791-.569,6.452,6.452,0,0,1-2.169-1.587,7.265,7.265,0,0,1-1.4-2.328,7.906,7.906,0,0,1-.489-2.791v-.37a7.949,7.949,0,0,1,.476-2.738,7.324,7.324,0,0,1,1.362-2.328,6.483,6.483,0,0,1,2.143-1.614,6.5,6.5,0,0,1,2.817-.6,6.2,6.2,0,0,1,3.121.767,5.741,5.741,0,0,1,2.169,2.209,7.435,7.435,0,0,1,.873,3.531l-.873-1.64V-16.06h1.984V3.249h-1.587V-2.967h.635a7.682,7.682,0,0,1-.913,3.69,5.647,5.647,0,0,1-2.248,2.235A6.5,6.5,0,0,1,96.637,3.7ZM96.9,1.953a5.248,5.248,0,0,0,2.579-.635,4.592,4.592,0,0,0,1.812-1.812,5.441,5.441,0,0,0,.661-2.711v-1.27a5.043,5.043,0,0,0-.661-2.605A4.694,4.694,0,0,0,99.48-8.839a5.3,5.3,0,0,0-2.605-.635,4.835,4.835,0,0,0-2.711.754,4.958,4.958,0,0,0-1.772,2.05,6.643,6.643,0,0,0-.622,2.91A6.651,6.651,0,0,0,92.4-.8a4.836,4.836,0,0,0,1.8,2.024A4.984,4.984,0,0,0,96.9,1.953ZM114.174,3.7a7.275,7.275,0,0,1-3.121-.622,6.054,6.054,0,0,1-2.169-1.666A7.074,7.074,0,0,1,107.627-.93a8.805,8.805,0,0,1-.41-2.672v-.37a8.72,8.72,0,0,1,.41-2.645,6.927,6.927,0,0,1,1.256-2.328,6.215,6.215,0,0,1,2.129-1.653,6.812,6.812,0,0,1,3-.622,6.464,6.464,0,0,1,3.663.979,6.265,6.265,0,0,1,2.209,2.5,7.363,7.363,0,0,1,.741,3.267v1.032H108.116V-4.977h11.136l-.5.767a6.483,6.483,0,0,0-.542-2.738A4.284,4.284,0,0,0,116.62-8.8a4.711,4.711,0,0,0-2.605-.675,4.6,4.6,0,0,0-2.724.767,4.7,4.7,0,0,0-1.627,2.037,7.278,7.278,0,0,0-.542,2.883,7.5,7.5,0,0,0,.542,2.9,4.567,4.567,0,0,0,1.666,2.076,4.936,4.936,0,0,0,2.843.767,4.892,4.892,0,0,0,2.963-.833,3.4,3.4,0,0,0,1.4-1.971h1.852a5.232,5.232,0,0,1-1.111,2.42,5.606,5.606,0,0,1-2.143,1.574A7.459,7.459,0,0,1,114.174,3.7Zm12.617-.45-4.92-13.993h2.037l4.867,13.993Zm.529,0V1.636h2.513V3.249Zm1.084,0,4.259-13.993h1.957L130.282,3.249Z" transform="translate(-220.344 933.604)" fill="#324359"/>
    <path id="mail_in" d="M8.167,3.7a7.275,7.275,0,0,1-3.121-.622A6.054,6.054,0,0,1,2.876,1.411,7.074,7.074,0,0,1,1.62-.93,8.805,8.805,0,0,1,1.21-3.6v-.37a8.72,8.72,0,0,1,.41-2.645A6.927,6.927,0,0,1,2.876-8.945,6.215,6.215,0,0,1,5.006-10.6a6.812,6.812,0,0,1,3-.622,6.464,6.464,0,0,1,3.663.979,6.265,6.265,0,0,1,2.209,2.5,7.363,7.363,0,0,1,.741,3.267v1.032H2.109V-4.977H13.245l-.5.767A6.483,6.483,0,0,0,12.2-6.948,4.284,4.284,0,0,0,10.613-8.8a4.711,4.711,0,0,0-2.605-.675,4.6,4.6,0,0,0-2.724.767A4.7,4.7,0,0,0,3.657-6.67a7.278,7.278,0,0,0-.542,2.883,7.5,7.5,0,0,0,.542,2.9A4.567,4.567,0,0,0,5.323,1.186a4.936,4.936,0,0,0,2.843.767,4.892,4.892,0,0,0,2.963-.833,3.4,3.4,0,0,0,1.4-1.971h1.852a5.232,5.232,0,0,1-1.111,2.42,5.606,5.606,0,0,1-2.143,1.574A7.459,7.459,0,0,1,8.167,3.7Zm8.57-.45V.948l8.12-10.131-.079.45-.37-.582.291.159H16.657v-1.587h9.866v2.3l-8.147,10.1.079-.4.4.582-.291-.185H26.92V3.249Zm18.886.45A7.275,7.275,0,0,1,32.5,3.077a6.054,6.054,0,0,1-2.169-1.666A7.074,7.074,0,0,1,29.076-.93a8.805,8.805,0,0,1-.41-2.672v-.37a8.72,8.72,0,0,1,.41-2.645,6.927,6.927,0,0,1,1.256-2.328A6.215,6.215,0,0,1,32.462-10.6a6.812,6.812,0,0,1,3-.622,6.464,6.464,0,0,1,3.663.979,6.265,6.265,0,0,1,2.209,2.5,7.363,7.363,0,0,1,.741,3.267v1.032H29.565V-4.977H40.7l-.5.767a6.483,6.483,0,0,0-.542-2.738A4.284,4.284,0,0,0,38.069-8.8a4.711,4.711,0,0,0-2.605-.675,4.6,4.6,0,0,0-2.724.767A4.7,4.7,0,0,0,31.113-6.67a7.278,7.278,0,0,0-.542,2.883,7.5,7.5,0,0,0,.542,2.9,4.567,4.567,0,0,0,1.666,2.076,4.936,4.936,0,0,0,2.843.767,4.892,4.892,0,0,0,2.963-.833,3.4,3.4,0,0,0,1.4-1.971h1.852a5.232,5.232,0,0,1-1.111,2.42,5.606,5.606,0,0,1-2.143,1.574A7.459,7.459,0,0,1,35.623,3.7ZM56.2,8.539v-9.5l.846-1.984A7.8,7.8,0,0,1,56.175.683a5.645,5.645,0,0,1-2.182,2.248,6.17,6.17,0,0,1-3.082.767,6.56,6.56,0,0,1-2.791-.582A6.253,6.253,0,0,1,45.978,1.5,7.656,7.656,0,0,1,44.6-.851a7.939,7.939,0,0,1-.489-2.777V-4a7.8,7.8,0,0,1,.476-2.738,7.265,7.265,0,0,1,1.375-2.3,6.469,6.469,0,0,1,2.156-1.6,6.69,6.69,0,0,1,2.843-.582,6.228,6.228,0,0,1,3.267.833A5.826,5.826,0,0,1,56.4-8.1a7.558,7.558,0,0,1,.833,3.412L56.6-4.845v-5.9h1.587V8.539ZM51.229,1.9a5.163,5.163,0,0,0,2.579-.648A4.708,4.708,0,0,0,55.62-.56a5.367,5.367,0,0,0,.661-2.7v-1.3a5.043,5.043,0,0,0-.661-2.605,4.6,4.6,0,0,0-1.812-1.746,5.338,5.338,0,0,0-2.579-.622,4.883,4.883,0,0,0-2.738.754,4.958,4.958,0,0,0-1.772,2.05,6.643,6.643,0,0,0-.622,2.91,6.588,6.588,0,0,0,.635,2.936,4.926,4.926,0,0,0,1.8,2.037A4.916,4.916,0,0,0,51.229,1.9ZM67.5,3.646a4.656,4.656,0,0,1-3.835-1.627,7,7,0,0,1-1.323-4.536V-10.77H64.3V-2.12a4.165,4.165,0,0,0,.965,2.9,3.429,3.429,0,0,0,2.685,1.071A3.755,3.755,0,0,0,70.816.71a4.256,4.256,0,0,0,1.071-3.042V-10.77h1.984V3.249H72.284V-2.6H72.6A9.01,9.01,0,0,1,72.046.75a4.548,4.548,0,0,1-1.666,2.143,4.886,4.886,0,0,1-2.8.754Zm11.638-.4V-10.743h1.957V3.249ZM76.886-9.156v-1.587h4.206v1.587Zm2.672-4.179a1.4,1.4,0,0,1-1.071-.384,1.362,1.362,0,0,1-.357-.965,1.362,1.362,0,0,1,.357-.965,1.4,1.4,0,0,1,1.071-.384,1.351,1.351,0,0,1,1.058.384,1.392,1.392,0,0,1,.344.965,1.392,1.392,0,0,1-.344.965A1.351,1.351,0,0,1,79.558-13.336ZM91.487,3.7a7.275,7.275,0,0,1-3.121-.622A6.054,6.054,0,0,1,86.2,1.411,7.074,7.074,0,0,1,84.941-.93a8.805,8.805,0,0,1-.41-2.672v-.37a8.72,8.72,0,0,1,.41-2.645A6.927,6.927,0,0,1,86.2-8.945,6.215,6.215,0,0,1,88.326-10.6a6.812,6.812,0,0,1,3-.622,6.464,6.464,0,0,1,3.663.979,6.265,6.265,0,0,1,2.209,2.5,7.363,7.363,0,0,1,.741,3.267v1.032H85.43V-4.977H96.566l-.5.767a6.483,6.483,0,0,0-.542-2.738A4.284,4.284,0,0,0,93.934-8.8a4.711,4.711,0,0,0-2.605-.675,4.6,4.6,0,0,0-2.724.767A4.7,4.7,0,0,0,86.977-6.67a7.278,7.278,0,0,0-.542,2.883,7.5,7.5,0,0,0,.542,2.9,4.567,4.567,0,0,0,1.666,2.076,4.936,4.936,0,0,0,2.843.767A4.892,4.892,0,0,0,94.45,1.12a3.4,3.4,0,0,0,1.4-1.971H97.7a5.232,5.232,0,0,1-1.111,2.42A5.606,5.606,0,0,1,94.45,3.143,7.459,7.459,0,0,1,91.487,3.7Zm9.734-.45V-16.06h1.984V3.249Zm-2.037-17.7V-16.06h4.021v1.614Zm7.909,11.189V-4.951h9.284v1.693Zm21.69,6.507V-.956h-.317V-5.929a3.271,3.271,0,0,0-.82-2.394,3.427,3.427,0,0,0-2.539-.833q-.794,0-1.6.026t-1.534.066q-.727.04-1.283.093v-1.746l1.19-.106q.608-.053,1.256-.066t1.256-.013a9.37,9.37,0,0,1,3.452.529,3.639,3.639,0,0,1,1.918,1.653,6.254,6.254,0,0,1,.608,2.976V3.249Zm-4.735.37a6.145,6.145,0,0,1-2.619-.529,3.989,3.989,0,0,1-1.759-1.534,4.539,4.539,0,0,1-.622-2.433,4.216,4.216,0,0,1,.648-2.381,4.061,4.061,0,0,1,1.878-1.494,7.686,7.686,0,0,1,2.976-.516h4.1V-3.76h-4.232a3.664,3.664,0,0,0-2.553.807,2.711,2.711,0,0,0-.886,2.1,2.608,2.608,0,0,0,.926,2.1,3.775,3.775,0,0,0,2.513.78,5.043,5.043,0,0,0,1.878-.357A3.341,3.341,0,0,0,127.8.459a4.309,4.309,0,0,0,.661-2.367l.582.82a5.7,5.7,0,0,1-.741,2.605,4.056,4.056,0,0,1-1.719,1.574A5.73,5.73,0,0,1,124.048,3.62Zm10.739-.37V-16.06h1.984V3.249Zm-2.037-17.7V-16.06h4.021v1.614ZM147.51,3.7a7.545,7.545,0,0,1-3.161-.622,6.9,6.9,0,0,1-2.3-1.666A7.369,7.369,0,0,1,140.62-.93a7.433,7.433,0,0,1-.489-2.645v-.37a7.364,7.364,0,0,1,.5-2.658,7.253,7.253,0,0,1,1.455-2.341A7.142,7.142,0,0,1,144.4-10.6a7.41,7.41,0,0,1,3.108-.622,7.477,7.477,0,0,1,3.134.622,7.142,7.142,0,0,1,2.314,1.653A7.068,7.068,0,0,1,154.4-6.6a7.539,7.539,0,0,1,.489,2.658v.37a7.616,7.616,0,0,1-.476,2.645A7.176,7.176,0,0,1,153,1.411a6.868,6.868,0,0,1-2.314,1.666A7.637,7.637,0,0,1,147.51,3.7Zm0-1.772a5.308,5.308,0,0,0,2.949-.78A5.126,5.126,0,0,0,152.3-.917a6.322,6.322,0,0,0,.635-2.843,6.274,6.274,0,0,0-.648-2.87,5.006,5.006,0,0,0-1.865-2.037,5.415,5.415,0,0,0-2.91-.754,5.364,5.364,0,0,0-2.883.754,5.006,5.006,0,0,0-1.865,2.037,6.274,6.274,0,0,0-.648,2.87,6.323,6.323,0,0,0,.635,2.843,5.126,5.126,0,0,0,1.838,2.063A5.258,5.258,0,0,0,147.51,1.927Zm10.766,1.323V-10.743h1.587v5.872h-.317a8.744,8.744,0,0,1,.582-3.359,4.657,4.657,0,0,1,1.746-2.169,5.23,5.23,0,0,1,2.936-.767h.079a4.7,4.7,0,0,1,3.941,1.653,7.361,7.361,0,0,1,1.3,4.642v8.12h-1.957V-5.294a4.209,4.209,0,0,0-1.005-2.936,3.588,3.588,0,0,0-2.8-1.111,3.972,3.972,0,0,0-2.976,1.151,4.148,4.148,0,0,0-1.124,3.029V3.249Zm15.156,0V.948l8.12-10.131-.079.45-.37-.582.291.159h-8.041v-1.587h9.866v2.3l-8.147,10.1.079-.4.4.582-.291-.185h8.359V3.249Zm19.309.45a7.545,7.545,0,0,1-3.161-.622,6.9,6.9,0,0,1-2.3-1.666A7.369,7.369,0,0,1,185.851-.93a7.433,7.433,0,0,1-.489-2.645v-.37a7.364,7.364,0,0,1,.5-2.658,7.252,7.252,0,0,1,1.455-2.341,7.142,7.142,0,0,1,2.314-1.653,7.41,7.41,0,0,1,3.108-.622,7.477,7.477,0,0,1,3.134.622,7.142,7.142,0,0,1,2.314,1.653A7.068,7.068,0,0,1,199.632-6.6a7.539,7.539,0,0,1,.489,2.658v.37a7.615,7.615,0,0,1-.476,2.645,7.176,7.176,0,0,1-1.415,2.341,6.868,6.868,0,0,1-2.314,1.666A7.637,7.637,0,0,1,192.742,3.7Zm0-1.772a5.308,5.308,0,0,0,2.949-.78,5.126,5.126,0,0,0,1.838-2.063,6.322,6.322,0,0,0,.635-2.843,6.274,6.274,0,0,0-.648-2.87,5.006,5.006,0,0,0-1.865-2.037,5.415,5.415,0,0,0-2.91-.754,5.364,5.364,0,0,0-2.883.754,5.006,5.006,0,0,0-1.865,2.037,6.274,6.274,0,0,0-.648,2.87,6.322,6.322,0,0,0,.635,2.843,5.126,5.126,0,0,0,1.838,2.063A5.258,5.258,0,0,0,192.742,1.927Z" transform="translate(-220.432 893.677)" fill="#324359"/>
    <path id="mail_wa" d="M6.592,8.268a22.709,22.709,0,0,1-2.5-3.5A16.607,16.607,0,0,1,2.4.584a20.229,20.229,0,0,1-.6-5.092A19.545,19.545,0,0,1,2.412-9.56a16.612,16.612,0,0,1,1.693-4.126,19.938,19.938,0,0,1,2.486-3.386H8.866a23.369,23.369,0,0,0-2.777,3.69A16.418,16.418,0,0,0,4.343-9.309a17.842,17.842,0,0,0-.608,4.8A18.626,18.626,0,0,0,4.33.346a16.361,16.361,0,0,0,1.746,4.14A25.1,25.1,0,0,0,8.866,8.268ZM15.638.518V-11.835h1.746V.518Zm-4.973-5.37V-6.439H22.356v1.587ZM31.905,3.9a7.052,7.052,0,0,1-3.677-.886A5.907,5.907,0,0,1,25.98.677a6.593,6.593,0,0,1-.767-3.121h1.931A4.8,4.8,0,0,0,27.713-.09a4.214,4.214,0,0,0,1.627,1.64,5.069,5.069,0,0,0,2.566.608,5.16,5.16,0,0,0,2.566-.6A4.1,4.1,0,0,0,36.1-.077a4.871,4.871,0,0,0,.569-2.367A4.986,4.986,0,0,0,36.111-4.8a4.139,4.139,0,0,0-1.627-1.68A5.055,5.055,0,0,0,31.905-7.1a6.348,6.348,0,0,0-2.09.357A4.443,4.443,0,0,0,28.1-5.7H26.271l1.005-10.157h9.6v1.719H28.361l.555-.688-.794,7.935-.608-.132a6.1,6.1,0,0,1,1.931-1.3,6.393,6.393,0,0,1,2.539-.476,6.915,6.915,0,0,1,3.65.9A5.979,5.979,0,0,1,37.87-5.579,6.242,6.242,0,0,1,38.624-2.6v.344A6.157,6.157,0,0,1,37.857.716a5.96,5.96,0,0,1-2.262,2.3A7.124,7.124,0,0,1,31.905,3.9ZM47.458-16.358a7.275,7.275,0,0,1,3.28.675,5.67,5.67,0,0,1,2.182,1.891,8.556,8.556,0,0,1,1.23,2.9,15.926,15.926,0,0,1,.4,3.663v1.111q0,4.708-2.2,7.208t-6.56,2.5q-.9,0-1.614-.053t-1.534-.159V1.655q.82.132,1.587.185t1.666.053A7.318,7.318,0,0,0,49.892.928a5.437,5.437,0,0,0,2.182-2.791,12.788,12.788,0,0,0,.674-4.417V-8.158l.529-1.561a7.331,7.331,0,0,1-.78,3.412,5.143,5.143,0,0,1-2.129,2.143,6.707,6.707,0,0,1-3.227.741,6.738,6.738,0,0,1-3.492-.846,5.476,5.476,0,0,1-2.156-2.3,7.173,7.173,0,0,1-.727-3.253,7.184,7.184,0,0,1,.754-3.306,5.685,5.685,0,0,1,2.235-2.354A7.194,7.194,0,0,1,47.458-16.358Zm0,1.746a5.137,5.137,0,0,0-2.658.635,4.01,4.01,0,0,0-1.6,1.719,5.477,5.477,0,0,0-.529,2.433,5.509,5.509,0,0,0,.516,2.42,3.907,3.907,0,0,0,1.561,1.693,4.966,4.966,0,0,0,2.579.622,5.65,5.65,0,0,0,2.632-.582A4.211,4.211,0,0,0,51.7-7.325a4.945,4.945,0,0,0,.622-2.526,5.239,5.239,0,0,0-.529-2.328,4.235,4.235,0,0,0-1.614-1.759A5.074,5.074,0,0,0,47.458-14.612ZM63.779,3.9a7.253,7.253,0,0,1-3.584-.82A5.589,5.589,0,0,1,57.959.862a6.288,6.288,0,0,1-.767-3.068h1.931A4.18,4.18,0,0,0,60.366.981a4.762,4.762,0,0,0,3.412,1.177,5.35,5.35,0,0,0,2.447-.529A3.812,3.812,0,0,0,67.839.121a4.446,4.446,0,0,0,.569-2.275,4.277,4.277,0,0,0-1.243-3.2,4.6,4.6,0,0,0-3.359-1.217,4.718,4.718,0,0,0-1.455.2,5.111,5.111,0,0,0-1.084.489L60.181-7.735l7.7-5.978-.212-.423H57.959v-1.719H69.519V-13L62.694-7.682l-1.3.026a6.257,6.257,0,0,1,1.084-.357,6.062,6.062,0,0,1,1.4-.145,7.116,7.116,0,0,1,3.478.794,5.616,5.616,0,0,1,2.209,2.116,5.7,5.7,0,0,1,.767,2.91v.37A5.74,5.74,0,0,1,69.571.915,5.718,5.718,0,0,1,67.35,3.084,7.177,7.177,0,0,1,63.779,3.9Zm10.4,4.364a22.71,22.71,0,0,0,2.5-3.5A16.607,16.607,0,0,0,78.366.584a20.229,20.229,0,0,0,.6-5.092,19.545,19.545,0,0,0-.608-5.052,16.612,16.612,0,0,0-1.693-4.126,19.938,19.938,0,0,0-2.486-3.386H71.9a23.368,23.368,0,0,1,2.777,3.69,16.418,16.418,0,0,1,1.746,4.073,17.843,17.843,0,0,1,.608,4.8,18.626,18.626,0,0,1-.6,4.854,16.361,16.361,0,0,1-1.746,4.14A25.1,25.1,0,0,1,71.9,8.268ZM94.33-16.384a7.93,7.93,0,0,1,3.571.727,6.006,6.006,0,0,1,2.328,2.01A8.821,8.821,0,0,1,101.5-10.7a15.147,15.147,0,0,1,.4,3.518v1.217q0,4.655-2.341,7.115t-6.811,2.46q-1.005,0-1.8-.053T89.277,3.4V.756Q90.15.835,90.984.9t1.891.066a6.907,6.907,0,0,0,3.65-.833,4.549,4.549,0,0,0,1.918-2.42,11.511,11.511,0,0,0,.569-3.862V-7.629L99.752-9.4a7,7,0,0,1-.807,3.425A4.97,4.97,0,0,1,96.8-3.939a7.038,7.038,0,0,1-3.161.675,7,7,0,0,1-3.492-.82,5.353,5.353,0,0,1-2.2-2.275,7.306,7.306,0,0,1-.741-3.359,7.137,7.137,0,0,1,.82-3.465,5.725,5.725,0,0,1,2.42-2.354A8.2,8.2,0,0,1,94.33-16.384Zm.026,2.672a4.616,4.616,0,0,0-2.275.516,3.376,3.376,0,0,0-1.389,1.4,4.364,4.364,0,0,0-.463,2.05,4.532,4.532,0,0,0,.45,2.076A3.271,3.271,0,0,0,92.015-6.28a4.365,4.365,0,0,0,2.182.5,5.446,5.446,0,0,0,2.248-.45,3.54,3.54,0,0,0,1.574-1.336,4.011,4.011,0,0,0,.569-2.209,4.374,4.374,0,0,0-.45-1.984,3.333,3.333,0,0,0-1.389-1.428A4.836,4.836,0,0,0,94.356-13.713ZM106.788,3.454l7.7-16.4-.212-.291H104.116v-2.619h13.516v2.963L110.068,3.454Zm-2.672-13.6v-5.713h2.592v5.713Zm27.245-6.242a7.93,7.93,0,0,1,3.571.727,6.006,6.006,0,0,1,2.328,2.01,8.821,8.821,0,0,1,1.27,2.949,15.148,15.148,0,0,1,.4,3.518v1.217q0,4.655-2.341,7.115t-6.811,2.46q-1.005,0-1.8-.053T126.309,3.4V.756q.873.079,1.706.145t1.891.066a6.907,6.907,0,0,0,3.65-.833,4.549,4.549,0,0,0,1.918-2.42,11.511,11.511,0,0,0,.569-3.862V-7.629l.741-1.772a7,7,0,0,1-.807,3.425,4.97,4.97,0,0,1-2.143,2.037,7.038,7.038,0,0,1-3.161.675,7,7,0,0,1-3.492-.82,5.353,5.353,0,0,1-2.2-2.275,7.306,7.306,0,0,1-.741-3.359,7.137,7.137,0,0,1,.82-3.465,5.725,5.725,0,0,1,2.42-2.354A8.2,8.2,0,0,1,131.361-16.384Zm.026,2.672a4.616,4.616,0,0,0-2.275.516,3.376,3.376,0,0,0-1.389,1.4,4.365,4.365,0,0,0-.463,2.05,4.532,4.532,0,0,0,.45,2.076,3.271,3.271,0,0,0,1.336,1.389,4.365,4.365,0,0,0,2.182.5,5.446,5.446,0,0,0,2.248-.45,3.54,3.54,0,0,0,1.574-1.336,4.012,4.012,0,0,0,.569-2.209,4.373,4.373,0,0,0-.45-1.984,3.333,3.333,0,0,0-1.389-1.428A4.836,4.836,0,0,0,131.387-13.713ZM145.168,3.454V-14.057l1.164.9h-5.29v-2.7h7.248V3.454Zm13.807.476a7.59,7.59,0,0,1-3.822-.9A6.125,6.125,0,0,1,152.76.637a6.576,6.576,0,0,1-.82-3.214h3.042a3.832,3.832,0,0,0,.5,1.971,3.653,3.653,0,0,0,1.4,1.362,4.268,4.268,0,0,0,2.116.5,4.344,4.344,0,0,0,2.129-.5,3.549,3.549,0,0,0,1.415-1.4,4.1,4.1,0,0,0,.5-2.037,4.192,4.192,0,0,0-.489-2.037,3.729,3.729,0,0,0-1.4-1.442A4.142,4.142,0,0,0,159-6.7a5.18,5.18,0,0,0-1.878.357,3.6,3.6,0,0,0-1.455.965h-2.91l.979-10.475H164.4v2.672h-9.1l.979-.952-.688,7.089-.794-.238a5.789,5.789,0,0,1,1.878-1.362,6.236,6.236,0,0,1,2.645-.516,7.041,7.041,0,0,1,3.69.9A6.2,6.2,0,0,1,165.3-5.923a6.292,6.292,0,0,1,.794,3.082V-2.5a6.278,6.278,0,0,1-.82,3.108A6.339,6.339,0,0,1,162.864,3,7.6,7.6,0,0,1,158.976,3.93Zm22.695,0a8.569,8.569,0,0,1-3.756-.754,6.745,6.745,0,0,1-2.526-2.05,8.664,8.664,0,0,1-1.415-3,14.114,14.114,0,0,1-.45-3.611V-6.941a12.755,12.755,0,0,1,.86-4.788,7.451,7.451,0,0,1,2.672-3.412,7.86,7.86,0,0,1,4.616-1.27,7.784,7.784,0,0,1,4.616,1.27,7.6,7.6,0,0,1,2.658,3.412,12.584,12.584,0,0,1,.873,4.788v1.455a14.116,14.116,0,0,1-.45,3.611,8.664,8.664,0,0,1-1.415,3,6.77,6.77,0,0,1-2.513,2.05A8.549,8.549,0,0,1,181.671,3.93Zm0-2.883A4.269,4.269,0,0,0,185.44-.686q1.2-1.733,1.2-5.489,0-3.941-1.23-5.647a4.308,4.308,0,0,0-3.743-1.706,4.308,4.308,0,0,0-3.743,1.706q-1.23,1.706-1.23,5.594,0,3.782,1.217,5.528A4.264,4.264,0,0,0,181.671,1.047Zm17.8,2.91a9.343,9.343,0,0,1-3.8-.727,6.018,6.018,0,0,1-2.579-2.05,5.3,5.3,0,0,1-.926-3.121,4.93,4.93,0,0,1,.436-2.1,4.982,4.982,0,0,1,1.2-1.627,5.448,5.448,0,0,1,1.772-1.058v-.291a4.791,4.791,0,0,1-1.428-.886,4.181,4.181,0,0,1-1.005-1.362,4.27,4.27,0,0,1-.37-1.825,4.529,4.529,0,0,1,.913-2.883,5.711,5.711,0,0,1,2.434-1.772,8.931,8.931,0,0,1,3.346-.608,8.978,8.978,0,0,1,3.386.608,5.626,5.626,0,0,1,2.407,1.772,4.574,4.574,0,0,1,.9,2.883,4.406,4.406,0,0,1-.357,1.825,4.023,4.023,0,0,1-.992,1.362,4.7,4.7,0,0,1-1.455.886v.291a5.39,5.39,0,0,1,1.8,1.058,4.983,4.983,0,0,1,1.2,1.627,4.931,4.931,0,0,1,.436,2.1,5.3,5.3,0,0,1-.926,3.121,6.018,6.018,0,0,1-2.579,2.05A9.414,9.414,0,0,1,199.472,3.957Zm0-2.645A5.73,5.73,0,0,0,201.747.9a3.3,3.3,0,0,0,1.481-1.2,3.306,3.306,0,0,0,.529-1.878,3.24,3.24,0,0,0-.516-1.852,3.36,3.36,0,0,0-1.468-1.19,5.646,5.646,0,0,0-2.3-.423,5.573,5.573,0,0,0-2.275.423,3.272,3.272,0,0,0-1.455,1.19,3.3,3.3,0,0,0-.5,1.852,3.436,3.436,0,0,0,.5,1.878A3.132,3.132,0,0,0,197.2.9,5.73,5.73,0,0,0,199.472,1.311Zm0-9.364a4.459,4.459,0,0,0,2.645-.7,2.473,2.473,0,0,0,.979-2.156,2.426,2.426,0,0,0-.992-2.143,4.536,4.536,0,0,0-2.632-.688,4.471,4.471,0,0,0-2.632.7,2.433,2.433,0,0,0-.992,2.129,2.461,2.461,0,0,0,.992,2.156A4.471,4.471,0,0,0,199.472-8.052ZM211.19,3.454l7.7-16.4-.212-.291H208.519v-2.619h13.516v2.963L214.47,3.454Zm-2.672-13.6v-5.713h2.592v5.713ZM232.113,3.93a8.569,8.569,0,0,1-3.756-.754,6.745,6.745,0,0,1-2.526-2.05,8.664,8.664,0,0,1-1.415-3,14.114,14.114,0,0,1-.45-3.611V-6.941a12.755,12.755,0,0,1,.86-4.788,7.451,7.451,0,0,1,2.672-3.412,7.86,7.86,0,0,1,4.616-1.27,7.784,7.784,0,0,1,4.616,1.27,7.6,7.6,0,0,1,2.658,3.412,12.584,12.584,0,0,1,.873,4.788v1.455a14.114,14.114,0,0,1-.45,3.611,8.664,8.664,0,0,1-1.415,3,6.77,6.77,0,0,1-2.513,2.05A8.549,8.549,0,0,1,232.113,3.93Zm0-2.883a4.269,4.269,0,0,0,3.769-1.733q1.2-1.733,1.2-5.489,0-3.941-1.23-5.647a4.308,4.308,0,0,0-3.743-1.706,4.308,4.308,0,0,0-3.743,1.706q-1.23,1.706-1.23,5.594,0,3.782,1.217,5.528A4.264,4.264,0,0,0,232.113,1.047Z" transform="translate(-221.026 851.264)" fill="#324359"/>
  </g>
</svg>
