<svg xmlns="http://www.w3.org/2000/svg" width="25.714" height="24.576" viewBox="0 0 25.714 24.576">
  <path id="i_in" d="M5.843,16.749v16.59H.318V16.749Zm.352-5.123a2.65,2.65,0,0,1-.845,2.042,3.155,3.155,0,0,1-2.268.82H3.047a3.021,3.021,0,0,1-2.21-.82A2.744,2.744,0,0,1,0,11.626,2.7,2.7,0,0,1,.862,9.575a3.151,3.151,0,0,1,2.252-.812,3.062,3.062,0,0,1,2.227.812A2.792,2.792,0,0,1,6.194,11.626Zm19.52,12.2v9.509H20.206V24.467a4.843,4.843,0,0,0-.678-2.754,2.381,2.381,0,0,0-2.118-1,2.711,2.711,0,0,0-1.766.578,3.56,3.56,0,0,0-1.063,1.431,4.047,4.047,0,0,0-.184,1.356v9.258H8.89q.033-6.68.033-10.831t-.017-4.955l-.017-.8H14.4V19.16h-.033a7.286,7.286,0,0,1,.686-.937A7.138,7.138,0,0,1,16,17.352a4.349,4.349,0,0,1,1.456-.728,6.636,6.636,0,0,1,1.917-.259,5.946,5.946,0,0,1,4.6,1.9A7.971,7.971,0,0,1,25.714,23.83Z" transform="translate(0 -8.763)" fill="#5abfa3"/>
</svg>
