<svg xmlns="http://www.w3.org/2000/svg" width="25.714" height="25.915" viewBox="0 0 25.714 25.915">
  <path id="i_wa" d="M15.619-8.6q.653-.812.871-.812a7.629,7.629,0,0,1,1.632.737,7.247,7.247,0,0,1,1.5.887.714.714,0,0,1,.033.251,3.528,3.528,0,0,1-.285,1.272,2.244,2.244,0,0,1-1.189,1.1,3.965,3.965,0,0,1-1.708.444,9.041,9.041,0,0,1-3.181-1.038,9.554,9.554,0,0,1-2.846-1.975,22.058,22.058,0,0,1-2.478-3.1A5.858,5.858,0,0,1,6.78-14.079v-.134a3.7,3.7,0,0,1,1.239-2.645,1.267,1.267,0,0,1,.871-.368,2.664,2.664,0,0,1,.3.025,2.712,2.712,0,0,0,.318.025.687.687,0,0,1,.444.109,1.211,1.211,0,0,1,.259.46q.134.335.552,1.473a9.785,9.785,0,0,1,.419,1.256,1.7,1.7,0,0,1-.578.963q-.578.611-.578.778a.479.479,0,0,0,.084.251,7.538,7.538,0,0,0,1.708,2.294A10.675,10.675,0,0,0,14.347-7.9a.743.743,0,0,0,.368.117Q14.967-7.785,15.619-8.6ZM13.092-.536a10.231,10.231,0,0,0,4.076-.837,10.6,10.6,0,0,0,3.357-2.243,10.6,10.6,0,0,0,2.243-3.357,10.231,10.231,0,0,0,.837-4.076,10.231,10.231,0,0,0-.837-4.076,10.6,10.6,0,0,0-2.243-3.357,10.6,10.6,0,0,0-3.357-2.243,10.231,10.231,0,0,0-4.076-.837,10.231,10.231,0,0,0-4.076.837,10.6,10.6,0,0,0-3.357,2.243,10.6,10.6,0,0,0-2.243,3.357,10.231,10.231,0,0,0-.837,4.076A10.227,10.227,0,0,0,4.587-4.888L3.265-.988,7.316-2.277A10.294,10.294,0,0,0,13.092-.536Zm-4.9-22.132a12.266,12.266,0,0,1,4.9-1,12.266,12.266,0,0,1,4.9,1,12.749,12.749,0,0,1,4.026,2.7,12.749,12.749,0,0,1,2.7,4.026,12.266,12.266,0,0,1,1,4.9,12.266,12.266,0,0,1-1,4.9,12.749,12.749,0,0,1-2.7,4.026,12.749,12.749,0,0,1-4.026,2.7,12.266,12.266,0,0,1-4.9,1A12.429,12.429,0,0,1,6.981,0L0,2.243l2.277-6.78A12.321,12.321,0,0,1,.469-11.049a12.266,12.266,0,0,1,1-4.9,12.749,12.749,0,0,1,2.7-4.026A12.749,12.749,0,0,1,8.195-22.667Z" transform="translate(0 23.672)" fill="#5abfa3"/>
</svg>
