<svg xmlns="http://www.w3.org/2000/svg" width="30" height="25.714" viewBox="0 0 30 25.714">
  <path id="i_web" d="M23.571,53.821v5.357A4.83,4.83,0,0,1,18.75,64H4.821a4.644,4.644,0,0,1-3.407-1.415A4.644,4.644,0,0,1,0,59.179V45.25a4.644,4.644,0,0,1,1.415-3.407,4.644,4.644,0,0,1,3.407-1.415H16.607a.516.516,0,0,1,.536.536v1.071a.516.516,0,0,1-.536.536H4.821a2.579,2.579,0,0,0-1.892.787,2.579,2.579,0,0,0-.787,1.892V59.179A2.579,2.579,0,0,0,2.93,61.07a2.579,2.579,0,0,0,1.892.787H18.75a2.686,2.686,0,0,0,2.679-2.679V53.821a.516.516,0,0,1,.536-.536h1.071a.516.516,0,0,1,.536.536ZM30,39.357v8.571a1.065,1.065,0,0,1-1.825.753l-2.946-2.946L14.314,56.651a.527.527,0,0,1-.77,0l-1.908-1.908a.527.527,0,0,1,0-.77L22.55,43.057,19.6,40.11a1.071,1.071,0,0,1,.753-1.825h8.571A1.086,1.086,0,0,1,30,39.357Z" transform="translate(0 -38.286)" fill="#5abfa3"/>
</svg>
