<svg xmlns="http://www.w3.org/2000/svg" xmlns:xlink="http://www.w3.org/1999/xlink" width="562.913" height="147.858" viewBox="0 0 562.913 147.858">
  <defs>
    <linearGradient id="linear-gradient" x1="-132.824" y1="86.401" x2="-132.804" y2="86.401" gradientUnits="objectBoundingBox">
      <stop offset="0" stop-color="#c2000c"/>
      <stop offset="0.166" stop-color="#c2000c"/>
      <stop offset="0.821" stop-color="#300407"/>
      <stop offset="1" stop-color="#300407"/>
    </linearGradient>
    <linearGradient id="linear-gradient-2" x1="-193.427" y1="98.871" x2="-193.399" y2="98.871" gradientUnits="objectBoundingBox">
      <stop offset="0" stop-color="#c2000c"/>
      <stop offset="0.102" stop-color="#c2000c"/>
      <stop offset="0.821" stop-color="#300407"/>
      <stop offset="1" stop-color="#300407"/>
    </linearGradient>
    <linearGradient id="linear-gradient-3" x1="-196.223" y1="96.428" x2="-196.195" y2="96.428" xlink:href="#linear-gradient-2"/>
    <linearGradient id="linear-gradient-4" x1="-131.869" y1="88.64" x2="-131.849" y2="88.64" gradientUnits="objectBoundingBox">
      <stop offset="0" stop-color="#c2000c"/>
      <stop offset="0.312" stop-color="#c2000c"/>
      <stop offset="1" stop-color="#300407"/>
    </linearGradient>
  </defs>
  <g id="logo" transform="translate(-170.517 -1483.249)">
    <g id="Grupo_1" data-name="Grupo 1" transform="translate(170.517 1483.249)">
      <path id="Trazado_5" data-name="Trazado 5" d="M438.835,261.272H413.459l-52.341-96.64a6.462,6.462,0,0,0-11.379.029l-.711,1.34,50.853,95.271H374.052L343.491,201.6a6.7,6.7,0,0,0-11.946.046l-36,71.682h14.618L337.2,216.577l23.171,44.695H341.562a6.6,6.6,0,0,0-5.915,3.663L319.579,297.18H192.992l22.819-23.985H271.9l5.946-11.923H227.156l18.193-19.119a6.638,6.638,0,0,0-.035-9.189L226.7,213.7h50.406a6.672,6.672,0,0,0,6.7-6.723V172.9a6.592,6.592,0,0,0-6.7-6.9l-98.385-.111a6.128,6.128,0,0,0-4.383,10.359l24.388,25.528H177.24a6.772,6.772,0,0,0-6.723,6.727v57.968a6.759,6.759,0,0,0,6.751,6.723l22.684.1L174.2,299.148a5.833,5.833,0,0,0,4.216,9.959h144.5a6.076,6.076,0,0,0,5.44-3.357l16.386-32.555h21.891l16.672,32.3a6.666,6.666,0,0,0,5.928,3.612h38.449a6.711,6.711,0,0,0,5.926-9.852l-13.828-26.061h19.053ZM192.663,177.927H271.88v23.85H215.358Zm40.42,59.816-22.39,23.529H182.441V213.7H210.12M419.468,297.18h-26.3l-12.941-23.985H406.2Z" transform="translate(-170.517 -161.249)" fill="#c2000b"/>
      <path id="Trazado_6" data-name="Trazado 6" d="M181.869,246.251l11.993-12.042,15.859-.1-13.315,13.995Z" transform="translate(-164.427 -122.164)" fill="url(#linear-gradient)"/>
      <path id="Trazado_7" data-name="Trazado 7" d="M304.485,246.387,298.138,234.1l13.63.012,6.395,11.852Z" transform="translate(-102.058 -122.168)" fill="url(#linear-gradient-2)"/>
      <path id="Trazado_8" data-name="Trazado 8" d="M330.889,246.611l-7.005-12.617,13.63.179,6.311,11.893Z" transform="translate(-88.248 -122.226)" fill="url(#linear-gradient-3)"/>
      <path id="Trazado_9" data-name="Trazado 9" d="M209.905,209.651l-13.612-14.262h16.582l11.635,12.231Z" transform="translate(-156.69 -142.935)" fill="url(#linear-gradient-4)"/>
    </g>
    <path id="Trazado_10" data-name="Trazado 10" d="M3.675-34.251H25.137v2.205H6.272v13.818H20.531v2.2H6.272V-2.205H25.137V0H3.675ZM30.772-1.96l21.07-30.086H31.311v-2.205H54.929v2.009L33.859-2.156H55.566V0H30.772ZM62.426-34.251H83.888v2.205H65.023v13.818H79.282v2.2H65.023V-2.205H83.888V0H62.426ZM105.2,0a20.923,20.923,0,0,1-9.531-2.107,15.552,15.552,0,0,1-6.517-6A17.191,17.191,0,0,1,86.828-17.1a18.408,18.408,0,0,1,2.327-9.31,16.451,16.451,0,0,1,6.37-6.321,18.343,18.343,0,0,1,9.09-2.254,18.343,18.343,0,0,1,9.09,2.254,16.451,16.451,0,0,1,6.37,6.321A18.408,18.408,0,0,1,122.4-17.1a16.12,16.12,0,0,1-2.621,9.261A14.953,14.953,0,0,1,112.6-2.205h10.143V0Zm-.588-2.352a16.916,16.916,0,0,0,7.717-1.74,13.35,13.35,0,0,0,5.488-5.071,14.944,14.944,0,0,0,2.034-7.938,16.249,16.249,0,0,0-2.009-8.183,13.945,13.945,0,0,0-5.488-5.439,15.812,15.812,0,0,0-7.742-1.911,15.812,15.812,0,0,0-7.742,1.911,13.945,13.945,0,0,0-5.488,5.439A16.249,16.249,0,0,0,89.376-17.1a15.184,15.184,0,0,0,2.009,7.987,13.026,13.026,0,0,0,5.464,5.047A17.228,17.228,0,0,0,104.615-2.352ZM142.051.735q-6.517,0-9.849-3.259t-3.332-9.188v-22.54h2.6v22.932q0,4.949,2.842,7.35a11.616,11.616,0,0,0,7.742,2.4,11.716,11.716,0,0,0,7.767-2.4q2.866-2.4,2.866-7.35V-34.251h2.6v22.54q0,5.929-3.356,9.188T142.051.735Zm20.825-34.986h2.6V0h-2.6Zm10.486,0h21.462v2.205H175.959v13.818h14.259v2.2H175.959V-2.205h18.865V0H173.362Zm28.077,0h2.6V-2.205H222.9V0H201.439Zm-181,45.418H32.093L50.786,58H38.659l-3.752-9.648H17.621L13.869,58H1.675ZM31.959,39.24,26.264,23.495,20.5,39.24ZM55.476,11.167H67.335v36.85H87.7V58H55.476ZM112.56,59.005A26.643,26.643,0,0,1,99.73,55.923a23.132,23.132,0,0,1-9.045-8.61,24.2,24.2,0,0,1-3.316-12.7,24.371,24.371,0,0,1,3.316-12.73,23.059,23.059,0,0,1,9.045-8.643,28.109,28.109,0,0,1,25.594,0,22.824,22.824,0,0,1,9.011,8.643,24.564,24.564,0,0,1,3.283,12.73,24.385,24.385,0,0,1-3.283,12.7,22.9,22.9,0,0,1-9.011,8.61A26.5,26.5,0,0,1,112.56,59.005Zm0-11.122a13.349,13.349,0,0,0,6.5-1.608,11.96,11.96,0,0,0,4.69-4.623,13.812,13.812,0,0,0,1.742-7.035,13.841,13.841,0,0,0-1.708-7,12.029,12.029,0,0,0-4.657-4.623,13.265,13.265,0,0,0-6.566-1.641,13.4,13.4,0,0,0-6.633,1.641,12.029,12.029,0,0,0-4.657,4.623,13.841,13.841,0,0,0-1.708,7,14.027,14.027,0,0,0,1.708,7.035,11.675,11.675,0,0,0,4.69,4.623A13.678,13.678,0,0,0,112.56,47.883Zm29.748-36.716h11.725l17.219,27.872V11.167h11.859V58H171.453L154.167,30.061V58H142.308ZM187.8,49.96l21.306-28.81h-20.77V11.167h35.577v8.107L202.742,48.017h22.646V58H187.8Zm63.784,9.045a26.643,26.643,0,0,1-12.831-3.082,23.132,23.132,0,0,1-9.045-8.61,24.2,24.2,0,0,1-3.316-12.7,24.371,24.371,0,0,1,3.316-12.73,23.059,23.059,0,0,1,9.045-8.643,28.109,28.109,0,0,1,25.594,0,22.824,22.824,0,0,1,9.012,8.643,24.564,24.564,0,0,1,3.283,12.73,24.386,24.386,0,0,1-3.283,12.7,22.894,22.894,0,0,1-9.012,8.61A26.5,26.5,0,0,1,251.585,59.005Zm0-11.122a13.349,13.349,0,0,0,6.5-1.608,11.96,11.96,0,0,0,4.69-4.623,13.812,13.812,0,0,0,1.742-7.035,13.841,13.841,0,0,0-1.708-7,12.029,12.029,0,0,0-4.656-4.623,13.266,13.266,0,0,0-6.566-1.641,13.4,13.4,0,0,0-6.633,1.641,12.029,12.029,0,0,0-4.657,4.623,13.841,13.841,0,0,0-1.708,7,14.027,14.027,0,0,0,1.708,7.035,11.675,11.675,0,0,0,4.69,4.623A13.678,13.678,0,0,0,251.585,47.883Z" transform="translate(456.787 1571.635)"/>
  </g>
</svg>
