<svg xmlns="http://www.w3.org/2000/svg" width="524.78" height="197.914" viewBox="0 0 524.78 197.914">
  <g id="logo" transform="translate(-1085 -94.17)">
    <g id="Grupo_11" data-name="Grupo 11" transform="translate(1085 94.17)">
      <path id="Trazado_10" data-name="Trazado 10" d="M4.139-34.08H30.583v2.717H7.339v17.026H24.908v2.717H7.339V5.4H30.583V8.121H4.139ZM37.526,5.706l25.961-37.07H38.19V-34.08h29.1v2.475L41.33,5.465H68.076V8.121H37.526Zm39-39.787h26.444v2.717H79.728v17.026H97.3v2.717H79.728V5.4h23.244V8.121H76.528Zm52.707,42.2a25.779,25.779,0,0,1-11.743-2.6,19.162,19.162,0,0,1-8.03-7.4,21.182,21.182,0,0,1-2.868-11.079,22.681,22.681,0,0,1,2.868-11.471,20.27,20.27,0,0,1,7.849-7.788,22.6,22.6,0,0,1,11.2-2.777,22.6,22.6,0,0,1,11.2,2.777,20.27,20.27,0,0,1,7.849,7.788,22.681,22.681,0,0,1,2.868,11.471A19.862,19.862,0,0,1,147.2-1.539,18.424,18.424,0,0,1,138.352,5.4h12.5V8.121Zm-.724-2.9A20.843,20.843,0,0,0,138.02,3.08a16.449,16.449,0,0,0,6.762-6.249,18.413,18.413,0,0,0,2.506-9.781,20.021,20.021,0,0,0-2.475-10.083,17.182,17.182,0,0,0-6.762-6.7,19.482,19.482,0,0,0-9.539-2.355,19.482,19.482,0,0,0-9.539,2.355,17.182,17.182,0,0,0-6.762,6.7,20.021,20.021,0,0,0-2.475,10.083,18.708,18.708,0,0,0,2.475,9.841,16.05,16.05,0,0,0,6.732,6.219A21.227,21.227,0,0,0,128.511,5.223Zm46.126,3.8q-8.03,0-12.135-4.015T158.4-6.308V-34.08h3.2V-5.825q0,6.1,3.5,9.056t9.539,2.958q6.037,0,9.569-2.958t3.532-9.056V-34.08h3.2V-6.308q0,7.305-4.136,11.32T174.637,9.027ZM200.3-34.08h3.2v42.2h-3.2Zm12.92,0H239.66v2.717H216.416v17.026h17.569v2.717H216.416V5.4H239.66V8.121H213.216Zm34.595,0h3.2V5.4h23.244V8.121H247.81ZM24.79,21.881H39.154l23.032,57.7H47.244L42.621,67.7h-21.3L16.7,79.585H1.675Zm14.2,34.59-7.017-19.4-7.1,19.4Zm28.976-34.59H82.577v45.4h25.1v12.3H67.965ZM138.3,80.823a32.828,32.828,0,0,1-15.809-3.8,28.5,28.5,0,0,1-11.145-10.608,29.811,29.811,0,0,1-4.086-15.644,30.029,30.029,0,0,1,4.086-15.685A28.411,28.411,0,0,1,122.491,24.44a34.633,34.633,0,0,1,31.535,0,28.122,28.122,0,0,1,11.1,10.649,30.266,30.266,0,0,1,4.045,15.685,30.046,30.046,0,0,1-4.045,15.644,28.209,28.209,0,0,1-11.1,10.608A32.656,32.656,0,0,1,138.3,80.823Zm0-13.7a16.448,16.448,0,0,0,8.008-1.981,14.736,14.736,0,0,0,5.779-5.7,17.019,17.019,0,0,0,2.146-8.668,17.053,17.053,0,0,0-2.105-8.627,14.821,14.821,0,0,0-5.737-5.7,16.345,16.345,0,0,0-8.09-2.023,16.511,16.511,0,0,0-8.173,2.023,14.821,14.821,0,0,0-5.737,5.7,17.053,17.053,0,0,0-2.105,8.627,17.283,17.283,0,0,0,2.105,8.668,14.385,14.385,0,0,0,5.779,5.7A16.853,16.853,0,0,0,138.3,67.119Zm36.653-45.239H189.4l21.216,34.342V21.881h14.612v57.7H210.864l-21.3-34.424V79.585H174.953Zm56.053,47.8,26.252-35.5H231.667v-12.3H275.5v9.989L249.416,67.285h27.9v12.3H231.007ZM309.6,80.823a32.828,32.828,0,0,1-15.809-3.8,28.5,28.5,0,0,1-11.145-10.608,29.811,29.811,0,0,1-4.086-15.644,30.029,30.029,0,0,1,4.086-15.685A28.411,28.411,0,0,1,293.788,24.44a34.633,34.633,0,0,1,31.535,0,28.122,28.122,0,0,1,11.1,10.649,30.266,30.266,0,0,1,4.045,15.685,30.046,30.046,0,0,1-4.045,15.644,28.209,28.209,0,0,1-11.1,10.608A32.656,32.656,0,0,1,309.6,80.823Zm0-13.7a16.448,16.448,0,0,0,8.008-1.981,14.736,14.736,0,0,0,5.779-5.7,17.018,17.018,0,0,0,2.146-8.668,17.053,17.053,0,0,0-2.105-8.627,14.821,14.821,0,0,0-5.737-5.7,16.345,16.345,0,0,0-8.09-2.023,16.511,16.511,0,0,0-8.173,2.023,14.821,14.821,0,0,0-5.737,5.7,17.054,17.054,0,0,0-2.105,8.627,17.284,17.284,0,0,0,2.105,8.668,14.385,14.385,0,0,0,5.779,5.7A16.853,16.853,0,0,0,309.6,67.119Z" transform="translate(184.309 75.646)" fill="#324359"/>
      <path id="Trazado_18" data-name="Trazado 18" d="M-3408.72,206.789h0l-85.9-49.593-.132-98.958,85.765-49.363,85.9,49.593.132,98.958-27.423,15.784-58.486-98.2-29.472,49.378h40.628l9.293,15.615H-3466.1c21.542-36.06,38.544-64.476,50.535-84.46h13.306l56.642,95.028,5.4-3.111-.106-79.024L-3409,28.786l-68.489,39.42.106,79.024,68.674,39.649,35.9-20.66,8.823,14.824-44.731,25.746Z" transform="translate(3494.75 -8.875)" fill="#5abfa3"/>
    </g>
  </g>
</svg>
