<svg xmlns="http://www.w3.org/2000/svg" width="165.44" height="20.46" viewBox="0 0 165.44 20.46">
  <path id="mail_in" d="M7,.374A6.051,6.051,0,0,1,4.4-.143,5.035,5.035,0,0,1,2.6-1.529,5.883,5.883,0,0,1,1.551-3.476,7.324,7.324,0,0,1,1.21-5.7v-.308a7.253,7.253,0,0,1,.341-2.2A5.761,5.761,0,0,1,2.6-10.142a5.169,5.169,0,0,1,1.771-1.375,5.666,5.666,0,0,1,2.5-.517,5.376,5.376,0,0,1,3.047.814,5.211,5.211,0,0,1,1.837,2.079,6.124,6.124,0,0,1,.616,2.717v.858H1.958V-6.842H11.22L10.8-6.2a5.392,5.392,0,0,0-.451-2.277,3.563,3.563,0,0,0-1.32-1.54,3.918,3.918,0,0,0-2.167-.561A3.828,3.828,0,0,0,4.6-9.944,3.908,3.908,0,0,0,3.245-8.25a6.053,6.053,0,0,0-.451,2.4,6.238,6.238,0,0,0,.451,2.409A3.8,3.8,0,0,0,4.631-1.716,4.105,4.105,0,0,0,7-1.078,4.069,4.069,0,0,0,9.46-1.771,2.825,2.825,0,0,0,10.626-3.41h1.54A4.351,4.351,0,0,1,11.242-1.4,4.663,4.663,0,0,1,9.46-.088,6.2,6.2,0,0,1,7,.374ZM14.124,0V-1.914l6.754-8.426-.066.374L20.5-10.45l.242.132H14.058v-1.32h8.206v1.914l-6.776,8.4.066-.33.33.484-.242-.154h6.952V0ZM29.832.374a6.051,6.051,0,0,1-2.6-.517,5.035,5.035,0,0,1-1.8-1.386,5.883,5.883,0,0,1-1.045-1.947A7.324,7.324,0,0,1,24.046-5.7v-.308a7.253,7.253,0,0,1,.341-2.2,5.761,5.761,0,0,1,1.045-1.936A5.169,5.169,0,0,1,27.2-11.517a5.666,5.666,0,0,1,2.5-.517,5.376,5.376,0,0,1,3.047.814,5.211,5.211,0,0,1,1.837,2.079A6.124,6.124,0,0,1,35.2-6.424v.858H24.794V-6.842h9.262l-.418.638a5.392,5.392,0,0,0-.451-2.277,3.563,3.563,0,0,0-1.32-1.54,3.918,3.918,0,0,0-2.167-.561,3.828,3.828,0,0,0-2.266.638A3.908,3.908,0,0,0,26.081-8.25a6.053,6.053,0,0,0-.451,2.4,6.238,6.238,0,0,0,.451,2.409,3.8,3.8,0,0,0,1.386,1.727,4.105,4.105,0,0,0,2.365.638A4.069,4.069,0,0,0,32.3-1.771,2.825,2.825,0,0,0,33.462-3.41H35A4.351,4.351,0,0,1,34.078-1.4,4.663,4.663,0,0,1,32.3-.088,6.2,6.2,0,0,1,29.832.374ZM46.948,4.4V-3.5l.7-1.65a6.485,6.485,0,0,1-.726,3.014,4.7,4.7,0,0,1-1.815,1.87,5.132,5.132,0,0,1-2.563.638A5.456,5.456,0,0,1,40.227-.11a5.2,5.2,0,0,1-1.782-1.342A6.368,6.368,0,0,1,37.3-3.41a6.6,6.6,0,0,1-.407-2.31v-.308a6.491,6.491,0,0,1,.4-2.277,6.042,6.042,0,0,1,1.144-1.914,5.38,5.38,0,0,1,1.793-1.331,5.564,5.564,0,0,1,2.365-.484,5.18,5.18,0,0,1,2.717.693,4.846,4.846,0,0,1,1.8,1.9A6.286,6.286,0,0,1,47.806-6.6l-.528-.132v-4.906H48.6V4.4ZM42.812-1.122a4.294,4.294,0,0,0,2.145-.539,3.916,3.916,0,0,0,1.507-1.507,4.464,4.464,0,0,0,.55-2.244V-6.49a4.194,4.194,0,0,0-.55-2.167,3.826,3.826,0,0,0-1.507-1.452,4.439,4.439,0,0,0-2.145-.517A4.061,4.061,0,0,0,40.535-10a4.124,4.124,0,0,0-1.474,1.705,5.526,5.526,0,0,0-.517,2.42,5.48,5.48,0,0,0,.528,2.442,4.1,4.1,0,0,0,1.5,1.694A4.089,4.089,0,0,0,42.812-1.122ZM56.342.33a3.872,3.872,0,0,1-3.19-1.353,5.826,5.826,0,0,1-1.1-3.773V-11.66H53.68v7.194a3.464,3.464,0,0,0,.8,2.409,2.852,2.852,0,0,0,2.233.891A3.123,3.123,0,0,0,59.1-2.112a3.54,3.54,0,0,0,.891-2.53V-11.66h1.65V0h-1.32V-4.862h.264a7.494,7.494,0,0,1-.462,2.783A3.782,3.782,0,0,1,58.74-.3,4.064,4.064,0,0,1,56.408.33ZM66.022,0V-11.638H67.65V0Zm-1.87-10.318v-1.32h3.5v1.32Zm2.222-3.476a1.16,1.16,0,0,1-.891-.319,1.132,1.132,0,0,1-.3-.8,1.132,1.132,0,0,1,.3-.8,1.16,1.16,0,0,1,.891-.319,1.123,1.123,0,0,1,.88.319,1.158,1.158,0,0,1,.286.8,1.158,1.158,0,0,1-.286.8A1.123,1.123,0,0,1,66.374-13.794ZM76.3.374a6.051,6.051,0,0,1-2.6-.517,5.035,5.035,0,0,1-1.8-1.386,5.883,5.883,0,0,1-1.045-1.947A7.324,7.324,0,0,1,70.51-5.7v-.308a7.253,7.253,0,0,1,.341-2.2A5.761,5.761,0,0,1,71.9-10.142a5.169,5.169,0,0,1,1.771-1.375,5.666,5.666,0,0,1,2.5-.517,5.376,5.376,0,0,1,3.047.814,5.211,5.211,0,0,1,1.837,2.079,6.124,6.124,0,0,1,.616,2.717v.858H71.258V-6.842H80.52L80.1-6.2a5.392,5.392,0,0,0-.451-2.277,3.563,3.563,0,0,0-1.32-1.54,3.918,3.918,0,0,0-2.167-.561,3.828,3.828,0,0,0-2.266.638A3.908,3.908,0,0,0,72.545-8.25a6.053,6.053,0,0,0-.451,2.4,6.238,6.238,0,0,0,.451,2.409,3.8,3.8,0,0,0,1.386,1.727,4.105,4.105,0,0,0,2.365.638,4.069,4.069,0,0,0,2.464-.693A2.825,2.825,0,0,0,79.926-3.41h1.54A4.351,4.351,0,0,1,80.542-1.4,4.663,4.663,0,0,1,78.76-.088,6.2,6.2,0,0,1,76.3.374ZM84.392,0V-16.06h1.65V0ZM82.7-14.718V-16.06h3.344v1.342Zm6.578,9.306V-6.82H97v1.408ZM107.316,0V-3.5h-.264V-7.634a2.721,2.721,0,0,0-.682-1.991,2.85,2.85,0,0,0-2.112-.693q-.66,0-1.331.022t-1.276.055q-.605.033-1.067.077v-1.452l.99-.088q.506-.044,1.045-.055t1.045-.011a7.793,7.793,0,0,1,2.871.44,3.027,3.027,0,0,1,1.595,1.375,5.2,5.2,0,0,1,.506,2.475V0Zm-3.938.308a5.111,5.111,0,0,1-2.178-.44,3.318,3.318,0,0,1-1.463-1.276,3.775,3.775,0,0,1-.517-2.024,3.506,3.506,0,0,1,.539-1.98,3.378,3.378,0,0,1,1.562-1.243,6.393,6.393,0,0,1,2.475-.429h3.41V-5.83h-3.52a3.047,3.047,0,0,0-2.123.671,2.255,2.255,0,0,0-.737,1.749,2.169,2.169,0,0,0,.77,1.749,3.14,3.14,0,0,0,2.09.649,4.2,4.2,0,0,0,1.562-.3A2.779,2.779,0,0,0,106.5-2.321a3.584,3.584,0,0,0,.55-1.969l.484.682a4.743,4.743,0,0,1-.616,2.167,3.374,3.374,0,0,1-1.43,1.309A4.765,4.765,0,0,1,103.378.308ZM112.31,0V-16.06h1.65V0Zm-1.694-14.718V-16.06h3.344v1.342ZM122.892.374a6.276,6.276,0,0,1-2.629-.517,5.74,5.74,0,0,1-1.914-1.386,6.129,6.129,0,0,1-1.188-1.947,6.182,6.182,0,0,1-.407-2.2v-.308a6.125,6.125,0,0,1,.418-2.211,6.032,6.032,0,0,1,1.21-1.947,5.94,5.94,0,0,1,1.925-1.375,6.163,6.163,0,0,1,2.585-.517,6.219,6.219,0,0,1,2.607.517,5.94,5.94,0,0,1,1.925,1.375,5.879,5.879,0,0,1,1.2,1.947,6.271,6.271,0,0,1,.407,2.211v.308a6.334,6.334,0,0,1-.4,2.2,5.969,5.969,0,0,1-1.177,1.947,5.712,5.712,0,0,1-1.925,1.386A6.352,6.352,0,0,1,122.892.374Zm0-1.474a4.415,4.415,0,0,0,2.453-.649,4.263,4.263,0,0,0,1.529-1.716A5.259,5.259,0,0,0,127.4-5.83a5.218,5.218,0,0,0-.539-2.387,4.164,4.164,0,0,0-1.551-1.694,4.5,4.5,0,0,0-2.42-.627,4.461,4.461,0,0,0-2.4.627,4.164,4.164,0,0,0-1.551,1.694A5.218,5.218,0,0,0,118.4-5.83a5.259,5.259,0,0,0,.528,2.365,4.263,4.263,0,0,0,1.529,1.716A4.373,4.373,0,0,0,122.892-1.1ZM131.846,0V-11.638h1.32v4.884H132.9a7.273,7.273,0,0,1,.484-2.794,3.873,3.873,0,0,1,1.452-1.8,4.35,4.35,0,0,1,2.442-.638h.066a3.908,3.908,0,0,1,3.278,1.375A6.123,6.123,0,0,1,141.7-6.754V0h-1.628V-7.106a3.5,3.5,0,0,0-.836-2.442,2.985,2.985,0,0,0-2.332-.924,3.3,3.3,0,0,0-2.475.957A3.45,3.45,0,0,0,133.5-7V0Zm12.606,0V-1.914l6.754-8.426-.066.374-.308-.484.242.132h-6.688v-1.32h8.206v1.914l-6.776,8.4.066-.33.33.484-.242-.154h6.952V0Zm16.06.374a6.276,6.276,0,0,1-2.629-.517,5.74,5.74,0,0,1-1.914-1.386,6.129,6.129,0,0,1-1.188-1.947,6.182,6.182,0,0,1-.407-2.2v-.308a6.125,6.125,0,0,1,.418-2.211A6.032,6.032,0,0,1,156-10.142a5.94,5.94,0,0,1,1.925-1.375,6.163,6.163,0,0,1,2.585-.517,6.219,6.219,0,0,1,2.607.517,5.94,5.94,0,0,1,1.925,1.375,5.879,5.879,0,0,1,1.2,1.947,6.271,6.271,0,0,1,.407,2.211v.308a6.334,6.334,0,0,1-.4,2.2,5.969,5.969,0,0,1-1.177,1.947,5.712,5.712,0,0,1-1.925,1.386A6.352,6.352,0,0,1,160.512.374Zm0-1.474a4.415,4.415,0,0,0,2.453-.649,4.263,4.263,0,0,0,1.529-1.716,5.259,5.259,0,0,0,.528-2.365,5.218,5.218,0,0,0-.539-2.387,4.164,4.164,0,0,0-1.551-1.694,4.5,4.5,0,0,0-2.42-.627,4.461,4.461,0,0,0-2.4.627,4.164,4.164,0,0,0-1.551,1.694,5.218,5.218,0,0,0-.539,2.387,5.259,5.259,0,0,0,.528,2.365,4.263,4.263,0,0,0,1.529,1.716A4.373,4.373,0,0,0,160.512-1.1Z" transform="translate(-1.21 16.06)" fill="#324359"/>
</svg>
