<svg xmlns="http://www.w3.org/2000/svg" width="423.48" height="70.78" viewBox="0 0 423.48 70.78">
  <g id="mail_title" transform="translate(811.881 -732.488)">
    <path id="Trazado_19" data-name="Trazado 19" d="M3.4.08v-1.4H7.38A6.482,6.482,0,0,0,9.97-1.8a5.406,5.406,0,0,0,1.87-1.31,5.5,5.5,0,0,0,1.14-1.91,6.88,6.88,0,0,0,.38-2.3,6.84,6.84,0,0,0-.39-2.34,5.523,5.523,0,0,0-1.15-1.9,5.04,5.04,0,0,0-1.87-1.26,6.942,6.942,0,0,0-2.57-.44H3.4v-1.4H7.22a8.8,8.8,0,0,1,3.4.6,6.8,6.8,0,0,1,2.4,1.63,6.671,6.671,0,0,1,1.42,2.31,7.636,7.636,0,0,1,.46,2.6v.38a7.581,7.581,0,0,1-.46,2.58,7.038,7.038,0,0,1-1.4,2.33A6.774,6.774,0,0,1,10.65-.55,8.561,8.561,0,0,1,7.22.08ZM2.28.08V-14.66H3.8V.08ZM21.76.34A5.5,5.5,0,0,1,19.4-.13a4.578,4.578,0,0,1-1.64-1.26,5.349,5.349,0,0,1-.95-1.77,6.658,6.658,0,0,1-.31-2.02v-.28a6.593,6.593,0,0,1,.31-2,5.238,5.238,0,0,1,.95-1.76,4.7,4.7,0,0,1,1.61-1.25,5.151,5.151,0,0,1,2.27-.47,4.888,4.888,0,0,1,2.77.74,4.737,4.737,0,0,1,1.67,1.89,5.567,5.567,0,0,1,.56,2.47v.78H17.18V-6.22H25.6l-.38.58a4.9,4.9,0,0,0-.41-2.07,3.239,3.239,0,0,0-1.2-1.4,3.562,3.562,0,0,0-1.97-.51,3.48,3.48,0,0,0-2.06.58A3.553,3.553,0,0,0,18.35-7.5a5.5,5.5,0,0,0-.41,2.18,5.671,5.671,0,0,0,.41,2.19,3.453,3.453,0,0,0,1.26,1.57,3.732,3.732,0,0,0,2.15.58A3.7,3.7,0,0,0,24-1.61,2.568,2.568,0,0,0,25.06-3.1h1.4a3.956,3.956,0,0,1-.84,1.83A4.239,4.239,0,0,1,24-.08,5.64,5.64,0,0,1,21.76.34ZM32.36.3a4.88,4.88,0,0,1-3.14-.89A2.97,2.97,0,0,1,28.1-2.98h1.4a2.029,2.029,0,0,0,.69,1.38,3.092,3.092,0,0,0,2.17.62,3.273,3.273,0,0,0,2.13-.59A1.8,1.8,0,0,0,35.2-3a1.41,1.41,0,0,0-.59-1.21,3.54,3.54,0,0,0-1.71-.55l-1.2-.12a4.344,4.344,0,0,1-2.33-.89,2.458,2.458,0,0,1-.89-2.01,2.829,2.829,0,0,1,.48-1.64,3.154,3.154,0,0,1,1.35-1.09,4.977,4.977,0,0,1,2.05-.39,4.505,4.505,0,0,1,2.77.8,2.727,2.727,0,0,1,1.09,2.28h-1.4a1.67,1.67,0,0,0-.64-1.28,2.769,2.769,0,0,0-1.82-.52,2.725,2.725,0,0,0-1.85.54,1.7,1.7,0,0,0-.61,1.32,1.428,1.428,0,0,0,.46,1.09,2.433,2.433,0,0,0,1.44.53l1.2.12a5.355,5.355,0,0,1,2.61.92,2.469,2.469,0,0,1,1.01,2.12,2.858,2.858,0,0,1-.53,1.69A3.479,3.479,0,0,1,34.6-.12,5.549,5.549,0,0,1,32.36.3ZM45.54,0V-3.18H45.3V-6.94a2.473,2.473,0,0,0-.62-1.81,2.591,2.591,0,0,0-1.92-.63q-.6,0-1.21.02t-1.16.05q-.55.03-.97.07v-1.32l.9-.08q.46-.04.95-.05t.95-.01a7.085,7.085,0,0,1,2.61.4,2.752,2.752,0,0,1,1.45,1.25,4.729,4.729,0,0,1,.46,2.25V0ZM41.96.28a4.647,4.647,0,0,1-1.98-.4,3.016,3.016,0,0,1-1.33-1.16,3.432,3.432,0,0,1-.47-1.84,3.187,3.187,0,0,1,.49-1.8,3.071,3.071,0,0,1,1.42-1.13,5.812,5.812,0,0,1,2.25-.39h3.1V-5.3h-3.2a2.77,2.77,0,0,0-1.93.61,2.05,2.05,0,0,0-.67,1.59,1.972,1.972,0,0,0,.7,1.59,2.854,2.854,0,0,0,1.9.59,3.813,3.813,0,0,0,1.42-.27,2.526,2.526,0,0,0,1.14-.92,3.258,3.258,0,0,0,.5-1.79l.44.62a4.312,4.312,0,0,1-.56,1.97,3.067,3.067,0,0,1-1.3,1.19A4.332,4.332,0,0,1,41.96.28ZM49.98,0V-10.58h1.2v4.42h-.12a4.94,4.94,0,0,1,1.02-3.43,4.15,4.15,0,0,1,3.2-1.11h.34v1.36H55a3.573,3.573,0,0,0-2.62.89,3.514,3.514,0,0,0-.9,2.61V0Zm7.56,0V-10.58h1.2v4.42h-.12a4.94,4.94,0,0,1,1.02-3.43,4.15,4.15,0,0,1,3.2-1.11h.34v1.36h-.62a3.573,3.573,0,0,0-2.62.89,3.514,3.514,0,0,0-.9,2.61V0ZM69.7.34a5.705,5.705,0,0,1-2.39-.47,5.218,5.218,0,0,1-1.74-1.26,5.572,5.572,0,0,1-1.08-1.77,5.62,5.62,0,0,1-.37-2v-.28a5.568,5.568,0,0,1,.38-2.01,5.484,5.484,0,0,1,1.1-1.77,5.4,5.4,0,0,1,1.75-1.25,5.6,5.6,0,0,1,2.35-.47,5.654,5.654,0,0,1,2.37.47,5.4,5.4,0,0,1,1.75,1.25,5.345,5.345,0,0,1,1.09,1.77,5.7,5.7,0,0,1,.37,2.01v.28a5.758,5.758,0,0,1-.36,2,5.426,5.426,0,0,1-1.07,1.77A5.193,5.193,0,0,1,72.1-.13,5.774,5.774,0,0,1,69.7.34ZM69.7-1a4.014,4.014,0,0,0,2.23-.59,3.876,3.876,0,0,0,1.39-1.56A4.781,4.781,0,0,0,73.8-5.3a4.744,4.744,0,0,0-.49-2.17A3.785,3.785,0,0,0,71.9-9.01a4.094,4.094,0,0,0-2.2-.57,4.056,4.056,0,0,0-2.18.57,3.785,3.785,0,0,0-1.41,1.54,4.744,4.744,0,0,0-.49,2.17,4.781,4.781,0,0,0,.48,2.15,3.876,3.876,0,0,0,1.39,1.56A3.976,3.976,0,0,0,69.7-1Zm8.24,1V-14.6h1.5V0ZM76.4-13.38V-14.6h3.04v1.22ZM82.92,0V-14.6h1.5V0ZM81.38-13.38V-14.6h3.04v1.22ZM94.24,0V-3.18H94V-6.94a2.473,2.473,0,0,0-.62-1.81,2.591,2.591,0,0,0-1.92-.63q-.6,0-1.21.02t-1.16.05q-.55.03-.97.07v-1.32l.9-.08q.46-.04.95-.05t.95-.01a7.085,7.085,0,0,1,2.61.4,2.752,2.752,0,0,1,1.45,1.25,4.729,4.729,0,0,1,.46,2.25V0ZM90.66.28a4.647,4.647,0,0,1-1.98-.4,3.016,3.016,0,0,1-1.33-1.16,3.432,3.432,0,0,1-.47-1.84,3.187,3.187,0,0,1,.49-1.8,3.071,3.071,0,0,1,1.42-1.13,5.812,5.812,0,0,1,2.25-.39h3.1V-5.3h-3.2a2.77,2.77,0,0,0-1.93.61,2.05,2.05,0,0,0-.67,1.59,1.972,1.972,0,0,0,.7,1.59,2.854,2.854,0,0,0,1.9.59,3.813,3.813,0,0,0,1.42-.27,2.526,2.526,0,0,0,1.14-.92A3.258,3.258,0,0,0,94-3.9l.44.62a4.312,4.312,0,0,1-.56,1.97,3.067,3.067,0,0,1-1.3,1.19A4.332,4.332,0,0,1,90.66.28Zm12.36.06a5.059,5.059,0,0,1-2.11-.43,4.879,4.879,0,0,1-1.64-1.2,5.493,5.493,0,0,1-1.06-1.76,5.978,5.978,0,0,1-.37-2.11v-.28a6.01,6.01,0,0,1,.36-2.07,5.538,5.538,0,0,1,1.03-1.76,4.9,4.9,0,0,1,1.62-1.22,4.914,4.914,0,0,1,2.13-.45,4.691,4.691,0,0,1,2.36.58,4.341,4.341,0,0,1,1.64,1.67,5.622,5.622,0,0,1,.66,2.67l-.66-1.24V-14.6h1.5V0h-1.2V-4.7h.48a5.808,5.808,0,0,1-.69,2.79,4.27,4.27,0,0,1-1.7,1.69A4.914,4.914,0,0,1,103.02.34Zm.2-1.32a3.968,3.968,0,0,0,1.95-.48,3.472,3.472,0,0,0,1.37-1.37,4.114,4.114,0,0,0,.5-2.05v-.96a3.813,3.813,0,0,0-.5-1.97,3.55,3.55,0,0,0-1.37-1.33,4.009,4.009,0,0,0-1.97-.48,3.656,3.656,0,0,0-2.05.57A3.749,3.749,0,0,0,99.81-7.5a5.023,5.023,0,0,0-.47,2.2,5.029,5.029,0,0,0,.48,2.24,3.656,3.656,0,0,0,1.36,1.53A3.768,3.768,0,0,0,103.22-.98ZM116.6.34a5.705,5.705,0,0,1-2.39-.47,5.218,5.218,0,0,1-1.74-1.26,5.572,5.572,0,0,1-1.08-1.77,5.62,5.62,0,0,1-.37-2v-.28a5.568,5.568,0,0,1,.38-2.01,5.484,5.484,0,0,1,1.1-1.77,5.4,5.4,0,0,1,1.75-1.25,5.6,5.6,0,0,1,2.35-.47,5.654,5.654,0,0,1,2.37.47,5.4,5.4,0,0,1,1.75,1.25,5.345,5.345,0,0,1,1.09,1.77,5.7,5.7,0,0,1,.37,2.01v.28a5.758,5.758,0,0,1-.36,2,5.426,5.426,0,0,1-1.07,1.77A5.193,5.193,0,0,1,119-.13,5.774,5.774,0,0,1,116.6.34Zm0-1.34a4.014,4.014,0,0,0,2.23-.59,3.876,3.876,0,0,0,1.39-1.56,4.781,4.781,0,0,0,.48-2.15,4.744,4.744,0,0,0-.49-2.17,3.785,3.785,0,0,0-1.41-1.54,4.094,4.094,0,0,0-2.2-.57,4.056,4.056,0,0,0-2.18.57,3.785,3.785,0,0,0-1.41,1.54,4.744,4.744,0,0,0-.49,2.17A4.781,4.781,0,0,0,113-3.15a3.876,3.876,0,0,0,1.39,1.56A3.976,3.976,0,0,0,116.6-1Zm8.14,1V-10.58h1.2v4.42h-.12a4.94,4.94,0,0,1,1.02-3.43,4.15,4.15,0,0,1,3.2-1.11h.34v1.36h-.62a3.573,3.573,0,0,0-2.62.89,3.514,3.514,0,0,0-.9,2.61V0ZM136.8,0V-14.6h1.52V0Zm1.12-6.74V-8.12l6.46-.02v1.38Zm0-6.5V-14.6h6.84v1.36ZM146.98,0V-10.58h1.2v4.42h-.12a4.94,4.94,0,0,1,1.02-3.43,4.15,4.15,0,0,1,3.2-1.11h.34v1.36H152a3.573,3.573,0,0,0-2.62.89,3.514,3.514,0,0,0-.9,2.61V0Zm12.16.34a5.705,5.705,0,0,1-2.39-.47,5.218,5.218,0,0,1-1.74-1.26,5.571,5.571,0,0,1-1.08-1.77,5.62,5.62,0,0,1-.37-2v-.28a5.568,5.568,0,0,1,.38-2.01,5.484,5.484,0,0,1,1.1-1.77,5.4,5.4,0,0,1,1.75-1.25,5.6,5.6,0,0,1,2.35-.47,5.654,5.654,0,0,1,2.37.47,5.4,5.4,0,0,1,1.75,1.25,5.344,5.344,0,0,1,1.09,1.77,5.7,5.7,0,0,1,.37,2.01v.28a5.758,5.758,0,0,1-.36,2,5.426,5.426,0,0,1-1.07,1.77,5.193,5.193,0,0,1-1.75,1.26A5.774,5.774,0,0,1,159.14.34Zm0-1.34a4.014,4.014,0,0,0,2.23-.59,3.876,3.876,0,0,0,1.39-1.56,4.781,4.781,0,0,0,.48-2.15,4.744,4.744,0,0,0-.49-2.17,3.785,3.785,0,0,0-1.41-1.54,4.094,4.094,0,0,0-2.2-.57,4.056,4.056,0,0,0-2.18.57,3.785,3.785,0,0,0-1.41,1.54,4.744,4.744,0,0,0-.49,2.17,4.781,4.781,0,0,0,.48,2.15,3.876,3.876,0,0,0,1.39,1.56A3.976,3.976,0,0,0,159.14-1Zm8.14,1V-10.58h1.2v4.44h-.24a6.612,6.612,0,0,1,.44-2.54A3.521,3.521,0,0,1,170-10.32a3.955,3.955,0,0,1,2.22-.58h.06a3.553,3.553,0,0,1,2.98,1.25,5.566,5.566,0,0,1,.98,3.51V0h-1.48V-6.46A3.182,3.182,0,0,0,174-8.68a2.713,2.713,0,0,0-2.12-.84,3,3,0,0,0-2.25.87,3.137,3.137,0,0,0-.85,2.29V0Zm16.04.12a5.106,5.106,0,0,1-1.9-.32,2.439,2.439,0,0,1-1.24-1.09,4.169,4.169,0,0,1-.44-2.07V-13.92h1.44V-3.14a1.886,1.886,0,0,0,.5,1.41,1.944,1.944,0,0,0,1.42.49H185V.12Zm-5.48-9.56v-1.14H185v1.14ZM191.72.34a5.5,5.5,0,0,1-2.36-.47,4.578,4.578,0,0,1-1.64-1.26,5.349,5.349,0,0,1-.95-1.77,6.658,6.658,0,0,1-.31-2.02v-.28a6.594,6.594,0,0,1,.31-2,5.238,5.238,0,0,1,.95-1.76,4.7,4.7,0,0,1,1.61-1.25,5.151,5.151,0,0,1,2.27-.47,4.888,4.888,0,0,1,2.77.74,4.737,4.737,0,0,1,1.67,1.89,5.567,5.567,0,0,1,.56,2.47v.78h-9.46V-6.22h8.42l-.38.58a4.9,4.9,0,0,0-.41-2.07,3.239,3.239,0,0,0-1.2-1.4,3.562,3.562,0,0,0-1.97-.51,3.48,3.48,0,0,0-2.06.58,3.553,3.553,0,0,0-1.23,1.54,5.5,5.5,0,0,0-.41,2.18,5.671,5.671,0,0,0,.41,2.19,3.453,3.453,0,0,0,1.26,1.57,3.732,3.732,0,0,0,2.15.58,3.7,3.7,0,0,0,2.24-.63,2.568,2.568,0,0,0,1.06-1.49h1.4a3.956,3.956,0,0,1-.84,1.83,4.239,4.239,0,0,1-1.62,1.19A5.64,5.64,0,0,1,191.72.34ZM198.98,0V-10.58h1.2v4.44h-.24a6.612,6.612,0,0,1,.44-2.54,3.521,3.521,0,0,1,1.32-1.64,3.955,3.955,0,0,1,2.22-.58h.06a3.553,3.553,0,0,1,2.98,1.25,5.566,5.566,0,0,1,.98,3.51V0h-1.48V-6.46a3.182,3.182,0,0,0-.76-2.22,2.713,2.713,0,0,0-2.12-.84,3,3,0,0,0-2.25.87,3.137,3.137,0,0,0-.85,2.29V0Zm16.54.34a5.059,5.059,0,0,1-2.11-.43,4.879,4.879,0,0,1-1.64-1.2,5.493,5.493,0,0,1-1.06-1.76,5.978,5.978,0,0,1-.37-2.11v-.28a6.01,6.01,0,0,1,.36-2.07,5.538,5.538,0,0,1,1.03-1.76,4.9,4.9,0,0,1,1.62-1.22,4.914,4.914,0,0,1,2.13-.45,4.691,4.691,0,0,1,2.36.58,4.341,4.341,0,0,1,1.64,1.67,5.622,5.622,0,0,1,.66,2.67l-.66-1.24V-14.6h1.5V0h-1.2V-4.7h.48a5.808,5.808,0,0,1-.69,2.79,4.27,4.27,0,0,1-1.7,1.69A4.914,4.914,0,0,1,215.52.34Zm.2-1.32a3.968,3.968,0,0,0,1.95-.48,3.472,3.472,0,0,0,1.37-1.37,4.114,4.114,0,0,0,.5-2.05v-.96a3.813,3.813,0,0,0-.5-1.97,3.549,3.549,0,0,0-1.37-1.33,4.009,4.009,0,0,0-1.97-.48,3.656,3.656,0,0,0-2.05.57,3.749,3.749,0,0,0-1.34,1.55,5.023,5.023,0,0,0-.47,2.2,5.029,5.029,0,0,0,.48,2.24,3.656,3.656,0,0,0,1.36,1.53A3.768,3.768,0,0,0,215.72-.98ZM2.28,26V11.4H3.8V26Zm1.16,0V24.62h7.3V26Zm0-6.74V17.9h6.62v1.36Zm0-6.48V11.4h7.08v1.38ZM16.62,26.3a4.88,4.88,0,0,1-3.14-.89,2.97,2.97,0,0,1-1.12-2.39h1.4a2.029,2.029,0,0,0,.69,1.38,3.092,3.092,0,0,0,2.17.62,3.273,3.273,0,0,0,2.13-.59A1.8,1.8,0,0,0,19.46,23a1.41,1.41,0,0,0-.59-1.21,3.54,3.54,0,0,0-1.71-.55l-1.2-.12a4.344,4.344,0,0,1-2.33-.89,2.458,2.458,0,0,1-.89-2.01,2.829,2.829,0,0,1,.48-1.64,3.154,3.154,0,0,1,1.35-1.09,4.977,4.977,0,0,1,2.05-.39,4.505,4.505,0,0,1,2.77.8,2.727,2.727,0,0,1,1.09,2.28h-1.4a1.67,1.67,0,0,0-.64-1.28,2.769,2.769,0,0,0-1.82-.52,2.725,2.725,0,0,0-1.85.54,1.7,1.7,0,0,0-.61,1.32,1.428,1.428,0,0,0,.46,1.09,2.433,2.433,0,0,0,1.44.53l1.2.12a5.355,5.355,0,0,1,2.61.92,2.469,2.469,0,0,1,1.01,2.12,2.858,2.858,0,0,1-.53,1.69,3.479,3.479,0,0,1-1.49,1.17A5.549,5.549,0,0,1,16.62,26.3ZM23.36,30V15.42h1.2v4.54L24.2,20a6.149,6.149,0,0,1,.69-2.7,4.128,4.128,0,0,1,1.66-1.67,5.149,5.149,0,0,1,4.46-.12,4.9,4.9,0,0,1,1.62,1.22,5.392,5.392,0,0,1,1.02,1.76A6.164,6.164,0,0,1,34,20.56v.28a6.01,6.01,0,0,1-.36,2.07,5.538,5.538,0,0,1-1.03,1.76,4.847,4.847,0,0,1-3.75,1.67,4.763,4.763,0,0,1-2.31-.57,4.357,4.357,0,0,1-1.7-1.69,5.859,5.859,0,0,1-.71-2.76l.72,1.5V30Zm5.3-4.98a3.643,3.643,0,0,0,2.06-.57,3.692,3.692,0,0,0,1.32-1.56,5.134,5.134,0,0,0,.46-2.19,5.006,5.006,0,0,0-.47-2.21,3.788,3.788,0,0,0-1.33-1.54,3.607,3.607,0,0,0-2.04-.57,4.025,4.025,0,0,0-1.96.48,3.559,3.559,0,0,0-1.39,1.35,3.981,3.981,0,0,0-.51,2.05v.98a3.754,3.754,0,0,0,.51,1.97,3.6,3.6,0,0,0,1.39,1.33A4.025,4.025,0,0,0,28.66,25.02Zm12.3,1.32a5.5,5.5,0,0,1-2.36-.47,4.578,4.578,0,0,1-1.64-1.26,5.349,5.349,0,0,1-.95-1.77,6.658,6.658,0,0,1-.31-2.02v-.28a6.593,6.593,0,0,1,.31-2,5.238,5.238,0,0,1,.95-1.76,4.7,4.7,0,0,1,1.61-1.25,5.151,5.151,0,0,1,2.27-.47,4.888,4.888,0,0,1,2.77.74,4.737,4.737,0,0,1,1.67,1.89,5.567,5.567,0,0,1,.56,2.47v.78H36.38V19.78H44.8l-.38.58a4.9,4.9,0,0,0-.41-2.07,3.239,3.239,0,0,0-1.2-1.4,3.562,3.562,0,0,0-1.97-.51,3.48,3.48,0,0,0-2.06.58,3.553,3.553,0,0,0-1.23,1.54,5.5,5.5,0,0,0-.41,2.18,5.671,5.671,0,0,0,.41,2.19,3.453,3.453,0,0,0,1.26,1.57,4.286,4.286,0,0,0,4.39-.05,2.568,2.568,0,0,0,1.06-1.49h1.4a3.956,3.956,0,0,1-.84,1.83,4.239,4.239,0,0,1-1.62,1.19A5.64,5.64,0,0,1,40.96,26.34Zm11.72,0a5.383,5.383,0,0,1-2.33-.47,4.688,4.688,0,0,1-1.65-1.28,5.685,5.685,0,0,1-.99-1.79,6.168,6.168,0,0,1-.33-1.98v-.28a6.138,6.138,0,0,1,.33-1.99,5.471,5.471,0,0,1,.99-1.76,4.8,4.8,0,0,1,1.65-1.26,5.283,5.283,0,0,1,2.29-.47,5.5,5.5,0,0,1,2.35.48,4.237,4.237,0,0,1,1.67,1.36,4.17,4.17,0,0,1,.76,2.08H55.98a2.977,2.977,0,0,0-1.03-1.83,3.428,3.428,0,0,0-2.31-.73,3.609,3.609,0,0,0-2.09.57,3.519,3.519,0,0,0-1.25,1.54,5.355,5.355,0,0,0-.42,2.15,5.448,5.448,0,0,0,.42,2.15A3.427,3.427,0,0,0,52.68,25a3.916,3.916,0,0,0,1.71-.35,3.144,3.144,0,0,0,1.18-.95,2.655,2.655,0,0,0,.53-1.32h1.44a3.816,3.816,0,0,1-.75,2.09,4.474,4.474,0,0,1-1.73,1.38A5.607,5.607,0,0,1,52.68,26.34ZM60.36,26V15.42h1.48V26Zm-1.7-9.38v-1.2h3.18v1.2Zm2.02-3.16a1.054,1.054,0,0,1-.81-.29,1.122,1.122,0,0,1,0-1.46,1.054,1.054,0,0,1,.81-.29,1.021,1.021,0,0,1,.8.29,1.155,1.155,0,0,1,0,1.46A1.021,1.021,0,0,1,60.68,13.46ZM71.72,26V22.82h-.24V19.06a2.473,2.473,0,0,0-.62-1.81,2.591,2.591,0,0,0-1.92-.63q-.6,0-1.21.02t-1.16.05q-.55.03-.97.07V15.44l.9-.08q.46-.04.95-.05t.95-.01a7.085,7.085,0,0,1,2.61.4,2.752,2.752,0,0,1,1.45,1.25,4.729,4.729,0,0,1,.46,2.25V26Zm-3.58.28a4.646,4.646,0,0,1-1.98-.4,3.016,3.016,0,0,1-1.33-1.16,3.432,3.432,0,0,1-.47-1.84,3.187,3.187,0,0,1,.49-1.8,3.071,3.071,0,0,1,1.42-1.13,5.812,5.812,0,0,1,2.25-.39h3.1V20.7h-3.2a2.77,2.77,0,0,0-1.93.61,2.05,2.05,0,0,0-.67,1.59,1.972,1.972,0,0,0,.7,1.59,2.854,2.854,0,0,0,1.9.59,3.813,3.813,0,0,0,1.42-.27,2.526,2.526,0,0,0,1.14-.92,3.258,3.258,0,0,0,.5-1.79l.44.62a4.312,4.312,0,0,1-.56,1.97,3.067,3.067,0,0,1-1.3,1.19A4.332,4.332,0,0,1,68.14,26.28ZM76.26,26V11.4h1.5V26ZM74.72,12.62V11.4h3.04v1.22ZM81.7,26V15.42h1.48V26ZM80,16.62v-1.2h3.18v1.2Zm2.02-3.16a1.054,1.054,0,0,1-.81-.29,1.122,1.122,0,0,1,0-1.46,1.054,1.054,0,0,1,.81-.29,1.021,1.021,0,0,1,.8.29,1.155,1.155,0,0,1,0,1.46A1.021,1.021,0,0,1,82.02,13.46ZM89.96,26.3a4.88,4.88,0,0,1-3.14-.89,2.97,2.97,0,0,1-1.12-2.39h1.4a2.029,2.029,0,0,0,.69,1.38,3.092,3.092,0,0,0,2.17.62,3.273,3.273,0,0,0,2.13-.59A1.8,1.8,0,0,0,92.8,23a1.41,1.41,0,0,0-.59-1.21,3.54,3.54,0,0,0-1.71-.55l-1.2-.12a4.344,4.344,0,0,1-2.33-.89,2.458,2.458,0,0,1-.89-2.01,2.829,2.829,0,0,1,.48-1.64,3.154,3.154,0,0,1,1.35-1.09,4.977,4.977,0,0,1,2.05-.39,4.505,4.505,0,0,1,2.77.8,2.727,2.727,0,0,1,1.09,2.28h-1.4a1.67,1.67,0,0,0-.64-1.28,2.769,2.769,0,0,0-1.82-.52,2.725,2.725,0,0,0-1.85.54,1.7,1.7,0,0,0-.61,1.32,1.428,1.428,0,0,0,.46,1.09,2.433,2.433,0,0,0,1.44.53l1.2.12a5.355,5.355,0,0,1,2.61.92,2.469,2.469,0,0,1,1.01,2.12,2.858,2.858,0,0,1-.53,1.69,3.479,3.479,0,0,1-1.49,1.17A5.549,5.549,0,0,1,89.96,26.3Zm10.58-.18a5.106,5.106,0,0,1-1.9-.32,2.439,2.439,0,0,1-1.24-1.09,4.169,4.169,0,0,1-.44-2.07V12.08H98.4V22.86a1.886,1.886,0,0,0,.5,1.41,1.944,1.944,0,0,0,1.42.49h1.9v1.36Zm-5.48-9.56V15.42h7.16v1.14ZM111.02,26V22.82h-.24V19.06a2.473,2.473,0,0,0-.62-1.81,2.591,2.591,0,0,0-1.92-.63q-.6,0-1.21.02t-1.16.05q-.55.03-.97.07V15.44l.9-.08q.46-.04.95-.05t.95-.01a7.085,7.085,0,0,1,2.61.4,2.752,2.752,0,0,1,1.45,1.25,4.729,4.729,0,0,1,.46,2.25V26Zm-3.58.28a4.647,4.647,0,0,1-1.98-.4,3.016,3.016,0,0,1-1.33-1.16,3.432,3.432,0,0,1-.47-1.84,3.187,3.187,0,0,1,.49-1.8,3.071,3.071,0,0,1,1.42-1.13,5.812,5.812,0,0,1,2.25-.39h3.1V20.7h-3.2a2.77,2.77,0,0,0-1.93.61,2.05,2.05,0,0,0-.67,1.59,1.972,1.972,0,0,0,.7,1.59,2.854,2.854,0,0,0,1.9.59,3.813,3.813,0,0,0,1.42-.27,2.526,2.526,0,0,0,1.14-.92,3.258,3.258,0,0,0,.5-1.79l.44.62a4.312,4.312,0,0,1-.56,1.97,3.067,3.067,0,0,1-1.3,1.19A4.332,4.332,0,0,1,107.44,26.28Zm16.6.06a5.5,5.5,0,0,1-2.36-.47,4.578,4.578,0,0,1-1.64-1.26,5.349,5.349,0,0,1-.95-1.77,6.658,6.658,0,0,1-.31-2.02v-.28a6.593,6.593,0,0,1,.31-2,5.238,5.238,0,0,1,.95-1.76,4.7,4.7,0,0,1,1.61-1.25,5.151,5.151,0,0,1,2.27-.47,4.888,4.888,0,0,1,2.77.74,4.737,4.737,0,0,1,1.67,1.89,5.567,5.567,0,0,1,.56,2.47v.78h-9.46V19.78h8.42l-.38.58a4.9,4.9,0,0,0-.41-2.07,3.239,3.239,0,0,0-1.2-1.4,3.562,3.562,0,0,0-1.97-.51,3.48,3.48,0,0,0-2.06.58,3.553,3.553,0,0,0-1.23,1.54,5.5,5.5,0,0,0-.41,2.18,5.671,5.671,0,0,0,.41,2.19,3.453,3.453,0,0,0,1.26,1.57,4.286,4.286,0,0,0,4.39-.05,2.568,2.568,0,0,0,1.06-1.49h1.4a3.956,3.956,0,0,1-.84,1.83,4.239,4.239,0,0,1-1.62,1.19A5.64,5.64,0,0,1,124.04,26.34ZM131.3,26V15.42h1.2v4.44h-.24a6.612,6.612,0,0,1,.44-2.54,3.521,3.521,0,0,1,1.32-1.64,3.955,3.955,0,0,1,2.22-.58h.06a3.553,3.553,0,0,1,2.98,1.25,5.566,5.566,0,0,1,.98,3.51V26h-1.48V19.54a3.182,3.182,0,0,0-.76-2.22,2.713,2.713,0,0,0-2.12-.84,3,3,0,0,0-2.25.87,3.137,3.137,0,0,0-.85,2.29V26Zm134,0-6.18-6.56a19.73,19.73,0,0,1-1.37-1.64,5.1,5.1,0,0,1-.73-1.35,4.372,4.372,0,0,1-.22-1.41,4.21,4.21,0,0,1,.47-2.08,2.945,2.945,0,0,1,1.49-1.27,6.869,6.869,0,0,1,2.64-.43q.7,0,1.5.06t1.5.14v1.32q-.44-.04-1.05-.09t-1.2-.08q-.59-.03-1.03-.03a3.133,3.133,0,0,0-2.22.64,2.446,2.446,0,0,0-.66,1.84,3.424,3.424,0,0,0,.44,1.73,9.873,9.873,0,0,0,1.38,1.77l7,7.44Zm-5.14.34a5.735,5.735,0,0,1-2.56-.55,4.359,4.359,0,0,1-1.76-1.52,3.922,3.922,0,0,1-.64-2.21v-.24a4.213,4.213,0,0,1,.81-2.55,6.1,6.1,0,0,1,2.01-1.77l.76,1.06a3.892,3.892,0,0,0-1.55,1.39,3.585,3.585,0,0,0-.59,1.99,2.878,2.878,0,0,0,.49,1.71,3.119,3.119,0,0,0,1.29,1.05,4.191,4.191,0,0,0,1.74.36,3.883,3.883,0,0,0,2.54-.85,5.226,5.226,0,0,0,1.58-2.48,12.8,12.8,0,0,0,.54-3.99h1.34a15.393,15.393,0,0,1-.38,3.57,8.163,8.163,0,0,1-1.14,2.71,5.231,5.231,0,0,1-1.89,1.72A5.439,5.439,0,0,1,260.16,26.34Zm2.18-8.38v-1.2h5.06v1.2ZM6.96,52.34a7.285,7.285,0,0,1-3.1-.59,4.335,4.335,0,0,1-1.91-1.64,4.411,4.411,0,0,1-.65-2.37H2.82a3.154,3.154,0,0,0,.41,1.57,2.952,2.952,0,0,0,1.32,1.18,5.472,5.472,0,0,0,2.41.45,5.709,5.709,0,0,0,2.29-.4,3.039,3.039,0,0,0,1.36-1.08,2.694,2.694,0,0,0,.45-1.52,2.235,2.235,0,0,0-.83-1.77,4.334,4.334,0,0,0-2.49-.85l-1.68-.16a4.923,4.923,0,0,1-2.99-1.17,3.437,3.437,0,0,1-1.11-2.67,4.1,4.1,0,0,1,.6-2.22,4.181,4.181,0,0,1,1.71-1.52,5.87,5.87,0,0,1,2.67-.56,5.957,5.957,0,0,1,2.71.57,4.128,4.128,0,0,1,1.73,1.57,4.422,4.422,0,0,1,.6,2.32H10.46a3.233,3.233,0,0,0-.36-1.5,2.7,2.7,0,0,0-1.14-1.13,4.164,4.164,0,0,0-2.02-.43,4.211,4.211,0,0,0-1.95.4,2.672,2.672,0,0,0-1.14,1.06,2.9,2.9,0,0,0-.37,1.44,2.226,2.226,0,0,0,.7,1.66,3.142,3.142,0,0,0,2.02.78l1.68.16a6.807,6.807,0,0,1,2.53.65,4.066,4.066,0,0,1,1.61,1.38,3.534,3.534,0,0,1,.56,1.99,3.918,3.918,0,0,1-.69,2.28,4.539,4.539,0,0,1-1.95,1.56A7.292,7.292,0,0,1,6.96,52.34Zm13.16,0a5.705,5.705,0,0,1-2.39-.47,5.218,5.218,0,0,1-1.74-1.26,5.659,5.659,0,0,1-1.45-3.77v-.28a5.568,5.568,0,0,1,.38-2.01,5.484,5.484,0,0,1,1.1-1.77,5.4,5.4,0,0,1,1.75-1.25,5.6,5.6,0,0,1,2.35-.47,5.654,5.654,0,0,1,2.37.47,5.4,5.4,0,0,1,1.75,1.25,5.345,5.345,0,0,1,1.09,1.77,5.7,5.7,0,0,1,.37,2.01v.28a5.758,5.758,0,0,1-.36,2,5.426,5.426,0,0,1-1.07,1.77,5.193,5.193,0,0,1-1.75,1.26A5.774,5.774,0,0,1,20.12,52.34Zm0-1.34a4.014,4.014,0,0,0,2.23-.59,3.876,3.876,0,0,0,1.39-1.56,5.053,5.053,0,0,0-.01-4.32,3.785,3.785,0,0,0-1.41-1.54,4.094,4.094,0,0,0-2.2-.57,4.056,4.056,0,0,0-2.18.57,3.785,3.785,0,0,0-1.41,1.54,5.053,5.053,0,0,0-.01,4.32,3.876,3.876,0,0,0,1.39,1.56A3.976,3.976,0,0,0,20.12,51Zm8.24,1V37.4h1.5V52ZM26.82,38.62V37.4h3.04v1.22ZM36.9,52.3A3.52,3.52,0,0,1,34,51.07a5.3,5.3,0,0,1-1-3.43V41.4h1.48v6.54a3.149,3.149,0,0,0,.73,2.19,2.593,2.593,0,0,0,2.03.81,2.839,2.839,0,0,0,2.17-.86,3.218,3.218,0,0,0,.81-2.3V41.4h1.5V52h-1.2V47.58h.24a6.813,6.813,0,0,1-.42,2.53,3.439,3.439,0,0,1-1.26,1.62,3.7,3.7,0,0,1-2.12.57Zm12.7.04a5.383,5.383,0,0,1-2.33-.47,4.688,4.688,0,0,1-1.65-1.28,5.685,5.685,0,0,1-.99-1.79,6.168,6.168,0,0,1-.33-1.98v-.28a6.138,6.138,0,0,1,.33-1.99,5.471,5.471,0,0,1,.99-1.76,4.8,4.8,0,0,1,1.65-1.26,5.282,5.282,0,0,1,2.29-.47,5.5,5.5,0,0,1,2.35.48,4.237,4.237,0,0,1,1.67,1.36,4.17,4.17,0,0,1,.76,2.08H52.9a2.977,2.977,0,0,0-1.03-1.83,3.428,3.428,0,0,0-2.31-.73,3.609,3.609,0,0,0-2.09.57,3.519,3.519,0,0,0-1.25,1.54,5.355,5.355,0,0,0-.42,2.15,5.448,5.448,0,0,0,.42,2.15A3.427,3.427,0,0,0,49.6,51a3.916,3.916,0,0,0,1.71-.35,3.144,3.144,0,0,0,1.18-.95,2.655,2.655,0,0,0,.53-1.32h1.44a3.816,3.816,0,0,1-.75,2.09,4.474,4.474,0,0,1-1.73,1.38A5.606,5.606,0,0,1,49.6,52.34ZM57.28,52V41.42h1.48V52Zm-1.7-9.38v-1.2h3.18v1.2Zm2.02-3.16a1.054,1.054,0,0,1-.81-.29,1.122,1.122,0,0,1,0-1.46,1.054,1.054,0,0,1,.81-.29,1.021,1.021,0,0,1,.8.29,1.155,1.155,0,0,1,0,1.46A1.021,1.021,0,0,1,57.6,39.46Zm9.34,12.88a5.705,5.705,0,0,1-2.39-.47,5.218,5.218,0,0,1-1.74-1.26,5.659,5.659,0,0,1-1.45-3.77v-.28a5.568,5.568,0,0,1,.38-2.01,5.484,5.484,0,0,1,1.1-1.77,5.4,5.4,0,0,1,1.75-1.25,6.16,6.16,0,0,1,4.72,0,5.4,5.4,0,0,1,1.75,1.25,5.344,5.344,0,0,1,1.09,1.77,5.7,5.7,0,0,1,.37,2.01v.28a5.758,5.758,0,0,1-.36,2,5.426,5.426,0,0,1-1.07,1.77,5.193,5.193,0,0,1-1.75,1.26A5.774,5.774,0,0,1,66.94,52.34Zm0-1.34a4.014,4.014,0,0,0,2.23-.59,3.876,3.876,0,0,0,1.39-1.56,5.053,5.053,0,0,0-.01-4.32,3.785,3.785,0,0,0-1.41-1.54,4.492,4.492,0,0,0-4.38,0,3.785,3.785,0,0,0-1.41,1.54,5.053,5.053,0,0,0-.01,4.32,3.876,3.876,0,0,0,1.39,1.56A3.976,3.976,0,0,0,66.94,51Zm8.14,1V41.42h1.2v4.44h-.24a6.612,6.612,0,0,1,.44-2.54,3.521,3.521,0,0,1,1.32-1.64,3.955,3.955,0,0,1,2.22-.58h.06a3.553,3.553,0,0,1,2.98,1.25,5.566,5.566,0,0,1,.98,3.51V52H82.56V45.54a3.182,3.182,0,0,0-.76-2.22,2.713,2.713,0,0,0-2.12-.84,3,3,0,0,0-2.25.87,3.137,3.137,0,0,0-.85,2.29V52Zm16.62.34a5.5,5.5,0,0,1-2.36-.47,4.578,4.578,0,0,1-1.64-1.26,5.349,5.349,0,0,1-.95-1.77,6.658,6.658,0,0,1-.31-2.02v-.28a6.593,6.593,0,0,1,.31-2,5.238,5.238,0,0,1,.95-1.76,4.7,4.7,0,0,1,1.61-1.25,5.151,5.151,0,0,1,2.27-.47,4.888,4.888,0,0,1,2.77.74,4.737,4.737,0,0,1,1.67,1.89,5.567,5.567,0,0,1,.56,2.47v.78H87.12V45.78h8.42l-.38.58a4.9,4.9,0,0,0-.41-2.07,3.239,3.239,0,0,0-1.2-1.4,3.562,3.562,0,0,0-1.97-.51,3.48,3.48,0,0,0-2.06.58,3.553,3.553,0,0,0-1.23,1.54,5.5,5.5,0,0,0-.41,2.18,5.671,5.671,0,0,0,.41,2.19,3.453,3.453,0,0,0,1.26,1.57,4.286,4.286,0,0,0,4.39-.05A2.568,2.568,0,0,0,95,48.9h1.4a3.956,3.956,0,0,1-.84,1.83,4.239,4.239,0,0,1-1.62,1.19A5.64,5.64,0,0,1,91.7,52.34Zm10.6-.04a4.88,4.88,0,0,1-3.14-.89,2.97,2.97,0,0,1-1.12-2.39h1.4a2.029,2.029,0,0,0,.69,1.38,3.092,3.092,0,0,0,2.17.62,3.273,3.273,0,0,0,2.13-.59,1.8,1.8,0,0,0,.71-1.43,1.41,1.41,0,0,0-.59-1.21,3.54,3.54,0,0,0-1.71-.55l-1.2-.12a4.344,4.344,0,0,1-2.33-.89,2.458,2.458,0,0,1-.89-2.01,2.829,2.829,0,0,1,.48-1.64,3.154,3.154,0,0,1,1.35-1.09,4.977,4.977,0,0,1,2.05-.39,4.505,4.505,0,0,1,2.77.8,2.727,2.727,0,0,1,1.09,2.28h-1.4a1.67,1.67,0,0,0-.64-1.28,2.769,2.769,0,0,0-1.82-.52,2.725,2.725,0,0,0-1.85.54,1.7,1.7,0,0,0-.61,1.32,1.428,1.428,0,0,0,.46,1.09,2.433,2.433,0,0,0,1.44.53l1.2.12a5.355,5.355,0,0,1,2.61.92,2.469,2.469,0,0,1,1.01,2.12,2.858,2.858,0,0,1-.53,1.69,3.479,3.479,0,0,1-1.49,1.17A5.549,5.549,0,0,1,102.3,52.3Zm13.66-.3-4.04-14.6h1.56l3.66,13.62-.7-.4h1.94l-.76.4,2.98-12.98h1.44L118.76,52Zm8.78,0-3.6-13.96h1.48l3.32,12.98-.74-.4h1.98l-.76.4,3.3-13.62h1.52L127.54,52Zm12.6.34a5.5,5.5,0,0,1-2.36-.47,4.577,4.577,0,0,1-1.64-1.26,5.349,5.349,0,0,1-.95-1.77,6.658,6.658,0,0,1-.31-2.02v-.28a6.593,6.593,0,0,1,.31-2,5.238,5.238,0,0,1,.95-1.76,4.7,4.7,0,0,1,1.61-1.25,5.151,5.151,0,0,1,2.27-.47,4.888,4.888,0,0,1,2.77.74,4.737,4.737,0,0,1,1.67,1.89,5.567,5.567,0,0,1,.56,2.47v.78h-9.46V45.78h8.42l-.38.58a4.9,4.9,0,0,0-.41-2.07,3.239,3.239,0,0,0-1.2-1.4,3.562,3.562,0,0,0-1.97-.51,3.48,3.48,0,0,0-2.06.58,3.553,3.553,0,0,0-1.23,1.54,5.5,5.5,0,0,0-.41,2.18,5.671,5.671,0,0,0,.41,2.19,3.453,3.453,0,0,0,1.26,1.57,4.286,4.286,0,0,0,4.39-.05,2.568,2.568,0,0,0,1.06-1.49h1.4a3.956,3.956,0,0,1-.84,1.83,4.239,4.239,0,0,1-1.62,1.19A5.64,5.64,0,0,1,137.34,52.34Zm12.72,0a4.729,4.729,0,0,1-2.45-.62,4.3,4.3,0,0,1-1.64-1.74,5.8,5.8,0,0,1-.63-2.58h.46V52h-1.2V37.4h1.5v7.3l-.58,1.34a5.87,5.87,0,0,1,.65-2.71,4.218,4.218,0,0,1,1.64-1.69,4.706,4.706,0,0,1,2.35-.58,4.823,4.823,0,0,1,3.71,1.64,5.278,5.278,0,0,1,1.02,1.75,6.224,6.224,0,0,1,.35,2.09v.28a6.01,6.01,0,0,1-.36,2.07,5.66,5.66,0,0,1-1.03,1.77,4.813,4.813,0,0,1-1.63,1.23A5.029,5.029,0,0,1,150.06,52.34Zm-.16-1.32a3.6,3.6,0,0,0,2.06-.58,3.774,3.774,0,0,0,1.32-1.56,5.115,5.115,0,0,0,.46-2.2,5.006,5.006,0,0,0-.47-2.21,3.605,3.605,0,0,0-3.37-2.09,4.025,4.025,0,0,0-1.96.48,3.559,3.559,0,0,0-1.39,1.35,3.981,3.981,0,0,0-.51,2.05v.98a3.755,3.755,0,0,0,.51,1.97,3.6,3.6,0,0,0,1.39,1.33A4.025,4.025,0,0,0,149.9,51.02Zm10.76.98,5.38-14.6h2.72L174.32,52h-1.56l-5.18-13.64.82.42h-2.1l.86-.42L162.18,52Zm2.88-4.64.5-1.38h6.78l.52,1.38Zm16.62,4.76a5.106,5.106,0,0,1-1.9-.32,2.439,2.439,0,0,1-1.24-1.09,4.169,4.169,0,0,1-.44-2.07V38.08h1.44V48.86a1.886,1.886,0,0,0,.5,1.41,1.944,1.944,0,0,0,1.42.49h1.9v1.36Zm-5.48-9.56V41.42h7.16v1.14ZM184.24,52V41.42h1.2v4.42h-.12a4.94,4.94,0,0,1,1.02-3.43,4.15,4.15,0,0,1,3.2-1.11h.34v1.36h-.62a3.573,3.573,0,0,0-2.62.89,3.514,3.514,0,0,0-.9,2.61V52Zm13.96,0V48.82h-.24V45.06a2.473,2.473,0,0,0-.62-1.81,2.591,2.591,0,0,0-1.92-.63q-.6,0-1.21.02t-1.16.05q-.55.03-.97.07V41.44l.9-.08q.46-.04.95-.05t.95-.01a7.085,7.085,0,0,1,2.61.4,2.752,2.752,0,0,1,1.45,1.25,4.729,4.729,0,0,1,.46,2.25V52Zm-3.58.28a4.646,4.646,0,0,1-1.98-.4,3.017,3.017,0,0,1-1.33-1.16,3.432,3.432,0,0,1-.47-1.84,3.188,3.188,0,0,1,.49-1.8,3.071,3.071,0,0,1,1.42-1.13,5.812,5.812,0,0,1,2.25-.39h3.1V46.7h-3.2a2.77,2.77,0,0,0-1.93.61,2.05,2.05,0,0,0-.67,1.59,1.972,1.972,0,0,0,.7,1.59,2.854,2.854,0,0,0,1.9.59,3.813,3.813,0,0,0,1.42-.27,2.526,2.526,0,0,0,1.14-.92,3.258,3.258,0,0,0,.5-1.79l.44.62a4.312,4.312,0,0,1-.56,1.97,3.067,3.067,0,0,1-1.3,1.19A4.332,4.332,0,0,1,194.62,52.28Zm12.48.06a5.382,5.382,0,0,1-2.33-.47,4.688,4.688,0,0,1-1.65-1.28,5.685,5.685,0,0,1-.99-1.79,6.168,6.168,0,0,1-.33-1.98v-.28a6.138,6.138,0,0,1,.33-1.99,5.471,5.471,0,0,1,.99-1.76,4.8,4.8,0,0,1,1.65-1.26,5.282,5.282,0,0,1,2.29-.47,5.5,5.5,0,0,1,2.35.48,4.237,4.237,0,0,1,1.67,1.36,4.17,4.17,0,0,1,.76,2.08H210.4a2.977,2.977,0,0,0-1.03-1.83,3.428,3.428,0,0,0-2.31-.73,3.609,3.609,0,0,0-2.09.57,3.519,3.519,0,0,0-1.25,1.54,5.355,5.355,0,0,0-.42,2.15,5.448,5.448,0,0,0,.42,2.15A3.427,3.427,0,0,0,207.1,51a3.916,3.916,0,0,0,1.71-.35,3.144,3.144,0,0,0,1.18-.95,2.655,2.655,0,0,0,.53-1.32h1.44a3.816,3.816,0,0,1-.75,2.09,4.474,4.474,0,0,1-1.73,1.38A5.607,5.607,0,0,1,207.1,52.34Zm10.96-.22a5.106,5.106,0,0,1-1.9-.32,2.439,2.439,0,0,1-1.24-1.09,4.169,4.169,0,0,1-.44-2.07V38.08h1.44V48.86a1.886,1.886,0,0,0,.5,1.41,1.944,1.944,0,0,0,1.42.49h1.9v1.36Zm-5.48-9.56V41.42h7.16v1.14ZM222.7,52V41.42h1.48V52ZM221,42.62v-1.2h3.18v1.2Zm2.02-3.16a1.055,1.055,0,0,1-.81-.29,1.122,1.122,0,0,1,0-1.46,1.055,1.055,0,0,1,.81-.29,1.021,1.021,0,0,1,.8.29,1.155,1.155,0,0,1,0,1.46A1.021,1.021,0,0,1,223.02,39.46ZM229.98,52l-3.72-10.58h1.54L231.48,52Zm.4,0V50.78h1.9V52Zm.82,0,3.22-10.58h1.48L232.62,52Zm13.24,0V48.82h-.24V45.06a2.473,2.473,0,0,0-.62-1.81,2.591,2.591,0,0,0-1.92-.63q-.6,0-1.21.02t-1.16.05q-.55.03-.97.07V41.44l.9-.08q.46-.04.95-.05t.95-.01a7.085,7.085,0,0,1,2.61.4,2.752,2.752,0,0,1,1.45,1.25,4.729,4.729,0,0,1,.46,2.25V52Zm-3.58.28a4.646,4.646,0,0,1-1.98-.4,3.017,3.017,0,0,1-1.33-1.16,3.432,3.432,0,0,1-.47-1.84,3.188,3.188,0,0,1,.49-1.8,3.071,3.071,0,0,1,1.42-1.13,5.812,5.812,0,0,1,2.25-.39h3.1V46.7h-3.2a2.77,2.77,0,0,0-1.93.61,2.05,2.05,0,0,0-.67,1.59,1.972,1.972,0,0,0,.7,1.59,2.855,2.855,0,0,0,1.9.59,3.813,3.813,0,0,0,1.42-.27,2.526,2.526,0,0,0,1.14-.92,3.258,3.258,0,0,0,.5-1.79l.44.62a4.312,4.312,0,0,1-.56,1.97,3.067,3.067,0,0,1-1.3,1.19A4.332,4.332,0,0,1,240.86,52.28Zm11.36.02a4.88,4.88,0,0,1-3.14-.89,2.97,2.97,0,0,1-1.12-2.39h1.4a2.029,2.029,0,0,0,.69,1.38,3.092,3.092,0,0,0,2.17.62,3.273,3.273,0,0,0,2.13-.59,1.8,1.8,0,0,0,.71-1.43,1.41,1.41,0,0,0-.59-1.21,3.54,3.54,0,0,0-1.71-.55l-1.2-.12a4.344,4.344,0,0,1-2.33-.89,2.458,2.458,0,0,1-.89-2.01,2.829,2.829,0,0,1,.48-1.64,3.154,3.154,0,0,1,1.35-1.09,4.977,4.977,0,0,1,2.05-.39,4.505,4.505,0,0,1,2.77.8,2.727,2.727,0,0,1,1.09,2.28h-1.4a1.67,1.67,0,0,0-.64-1.28,2.769,2.769,0,0,0-1.82-.52,2.725,2.725,0,0,0-1.85.54,1.7,1.7,0,0,0-.61,1.32,1.428,1.428,0,0,0,.46,1.09,2.433,2.433,0,0,0,1.44.53l1.2.12a5.355,5.355,0,0,1,2.61.92,2.469,2.469,0,0,1,1.01,2.12,2.858,2.858,0,0,1-.53,1.69,3.479,3.479,0,0,1-1.49,1.17A5.549,5.549,0,0,1,252.22,52.3Zm9.96,3.82V54.78h1.36a3.746,3.746,0,0,0,1.2-.17,1.814,1.814,0,0,0,.84-.59,3.615,3.615,0,0,0,.58-1.16l3.56-11.44h1.46l-3.72,11.86a4.456,4.456,0,0,1-.88,1.65,3.227,3.227,0,0,1-1.34.91,5.25,5.25,0,0,1-1.78.28Zm3.44-4.38V50.48h1.9v1.26Zm-.18,0L261.6,41.42h1.54l3.7,10.32ZM277.8,52V37.4h1.52V52Zm1.12-6.74V43.88l6.46-.02v1.38Zm0-6.5V37.4h6.84v1.36ZM291.66,52.3a3.52,3.52,0,0,1-2.9-1.23,5.3,5.3,0,0,1-1-3.43V41.4h1.48v6.54a3.149,3.149,0,0,0,.73,2.19,2.593,2.593,0,0,0,2.03.81,2.839,2.839,0,0,0,2.17-.86,3.218,3.218,0,0,0,.81-2.3V41.4h1.5V52h-1.2V47.58h.24a6.813,6.813,0,0,1-.42,2.53,3.439,3.439,0,0,1-1.26,1.62,3.694,3.694,0,0,1-2.12.57Zm8.24-.3V41.42h1.2v4.44h-.24a6.612,6.612,0,0,1,.44-2.54,3.521,3.521,0,0,1,1.32-1.64,3.955,3.955,0,0,1,2.22-.58h.06a3.553,3.553,0,0,1,2.98,1.25,5.566,5.566,0,0,1,.98,3.51V52h-1.48V45.54a3.182,3.182,0,0,0-.76-2.22,2.713,2.713,0,0,0-2.12-.84,3,3,0,0,0-2.25.87,3.137,3.137,0,0,0-.85,2.29V52Zm16.66.34a5.382,5.382,0,0,1-2.33-.47,4.688,4.688,0,0,1-1.65-1.28,5.685,5.685,0,0,1-.99-1.79,6.168,6.168,0,0,1-.33-1.98v-.28a6.138,6.138,0,0,1,.33-1.99,5.471,5.471,0,0,1,.99-1.76,4.8,4.8,0,0,1,1.65-1.26,5.283,5.283,0,0,1,2.29-.47,5.5,5.5,0,0,1,2.35.48,4.237,4.237,0,0,1,1.67,1.36,4.171,4.171,0,0,1,.76,2.08h-1.44a2.977,2.977,0,0,0-1.03-1.83,3.428,3.428,0,0,0-2.31-.73,3.609,3.609,0,0,0-2.09.57,3.519,3.519,0,0,0-1.25,1.54,5.355,5.355,0,0,0-.42,2.15,5.448,5.448,0,0,0,.42,2.15A3.427,3.427,0,0,0,316.56,51a3.916,3.916,0,0,0,1.71-.35,3.144,3.144,0,0,0,1.18-.95,2.655,2.655,0,0,0,.53-1.32h1.44a3.816,3.816,0,0,1-.75,2.09,4.474,4.474,0,0,1-1.73,1.38A5.607,5.607,0,0,1,316.56,52.34Zm7.68-.34V41.42h1.48V52Zm-1.7-9.38v-1.2h3.18v1.2Zm2.02-3.16a1.054,1.054,0,0,1-.81-.29,1.122,1.122,0,0,1,0-1.46,1.054,1.054,0,0,1,.81-.29,1.021,1.021,0,0,1,.8.29,1.155,1.155,0,0,1,0,1.46A1.021,1.021,0,0,1,324.56,39.46Zm9.34,12.88a5.705,5.705,0,0,1-2.39-.47,5.219,5.219,0,0,1-1.74-1.26,5.659,5.659,0,0,1-1.45-3.77v-.28a5.568,5.568,0,0,1,.38-2.01,5.483,5.483,0,0,1,1.1-1.77,5.4,5.4,0,0,1,1.75-1.25,6.16,6.16,0,0,1,4.72,0,5.4,5.4,0,0,1,1.75,1.25,5.345,5.345,0,0,1,1.09,1.77,5.7,5.7,0,0,1,.37,2.01v.28a5.758,5.758,0,0,1-.36,2,5.426,5.426,0,0,1-1.07,1.77,5.193,5.193,0,0,1-1.75,1.26A5.774,5.774,0,0,1,333.9,52.34Zm0-1.34a4.014,4.014,0,0,0,2.23-.59,3.875,3.875,0,0,0,1.39-1.56,5.053,5.053,0,0,0-.01-4.32,3.786,3.786,0,0,0-1.41-1.54,4.492,4.492,0,0,0-4.38,0,3.785,3.785,0,0,0-1.41,1.54,5.053,5.053,0,0,0-.01,4.32,3.876,3.876,0,0,0,1.39,1.56A3.976,3.976,0,0,0,333.9,51Zm8.14,1V41.42h1.2v4.44H343a6.612,6.612,0,0,1,.44-2.54,3.521,3.521,0,0,1,1.32-1.64,3.955,3.955,0,0,1,2.22-.58h.06a3.553,3.553,0,0,1,2.98,1.25,5.566,5.566,0,0,1,.98,3.51V52h-1.48V45.54a3.182,3.182,0,0,0-.76-2.22,2.713,2.713,0,0,0-2.12-.84,3,3,0,0,0-2.25.87,3.137,3.137,0,0,0-.85,2.29V52Zm18.64,0V48.82h-.24V45.06a2.474,2.474,0,0,0-.62-1.81,2.591,2.591,0,0,0-1.92-.63q-.6,0-1.21.02t-1.16.05q-.55.03-.97.07V41.44l.9-.08q.46-.04.95-.05t.95-.01a7.085,7.085,0,0,1,2.61.4,2.752,2.752,0,0,1,1.45,1.25,4.729,4.729,0,0,1,.46,2.25V52Zm-3.58.28a4.646,4.646,0,0,1-1.98-.4,3.016,3.016,0,0,1-1.33-1.16,3.432,3.432,0,0,1-.47-1.84,3.187,3.187,0,0,1,.49-1.8,3.071,3.071,0,0,1,1.42-1.13,5.812,5.812,0,0,1,2.25-.39h3.1V46.7h-3.2a2.77,2.77,0,0,0-1.93.61,2.05,2.05,0,0,0-.67,1.59,1.972,1.972,0,0,0,.7,1.59,2.855,2.855,0,0,0,1.9.59,3.813,3.813,0,0,0,1.42-.27,2.526,2.526,0,0,0,1.14-.92,3.258,3.258,0,0,0,.5-1.79l.44.62a4.312,4.312,0,0,1-.56,1.97,3.067,3.067,0,0,1-1.3,1.19A4.332,4.332,0,0,1,357.1,52.28Zm8.12-.28V37.4h1.5V52Zm-1.54-13.38V37.4h3.04v1.22Zm10.84,13.72a5.5,5.5,0,0,1-2.36-.47,4.578,4.578,0,0,1-1.64-1.26,5.349,5.349,0,0,1-.95-1.77,6.658,6.658,0,0,1-.31-2.02v-.28a6.593,6.593,0,0,1,.31-2,5.238,5.238,0,0,1,.95-1.76,4.7,4.7,0,0,1,1.61-1.25,5.151,5.151,0,0,1,2.27-.47,4.888,4.888,0,0,1,2.77.74,4.737,4.737,0,0,1,1.67,1.89,5.567,5.567,0,0,1,.56,2.47v.78h-9.46V45.78h8.42l-.38.58a4.9,4.9,0,0,0-.41-2.07,3.239,3.239,0,0,0-1.2-1.4,3.562,3.562,0,0,0-1.97-.51,3.48,3.48,0,0,0-2.06.58,3.553,3.553,0,0,0-1.23,1.54,5.5,5.5,0,0,0-.41,2.18,5.67,5.67,0,0,0,.41,2.19,3.453,3.453,0,0,0,1.26,1.57,4.286,4.286,0,0,0,4.39-.05,2.568,2.568,0,0,0,1.06-1.49h1.4a3.956,3.956,0,0,1-.84,1.83,4.239,4.239,0,0,1-1.62,1.19A5.64,5.64,0,0,1,374.52,52.34Zm10.6-.04a4.879,4.879,0,0,1-3.14-.89,2.97,2.97,0,0,1-1.12-2.39h1.4a2.029,2.029,0,0,0,.69,1.38,3.092,3.092,0,0,0,2.17.62,3.273,3.273,0,0,0,2.13-.59,1.8,1.8,0,0,0,.71-1.43,1.41,1.41,0,0,0-.59-1.21,3.54,3.54,0,0,0-1.71-.55l-1.2-.12a4.344,4.344,0,0,1-2.33-.89,2.458,2.458,0,0,1-.89-2.01,2.829,2.829,0,0,1,.48-1.64,3.154,3.154,0,0,1,1.35-1.09,4.977,4.977,0,0,1,2.05-.39,4.505,4.505,0,0,1,2.77.8,2.727,2.727,0,0,1,1.09,2.28h-1.4a1.67,1.67,0,0,0-.64-1.28,2.769,2.769,0,0,0-1.82-.52,2.725,2.725,0,0,0-1.85.54,1.7,1.7,0,0,0-.61,1.32,1.427,1.427,0,0,0,.46,1.09,2.433,2.433,0,0,0,1.44.53l1.2.12a5.355,5.355,0,0,1,2.61.92,2.469,2.469,0,0,1,1.01,2.12,2.858,2.858,0,0,1-.53,1.69,3.479,3.479,0,0,1-1.49,1.17A5.549,5.549,0,0,1,385.12,52.3Z" transform="translate(-813.181 747.148)" fill="#324359"/>
    <path id="Trazado_20" data-name="Trazado 20" d="M150.42,26l-4.04-14.6h1.56l3.66,13.62-.7-.4h1.94l-.76.4,2.98-12.98h1.44L153.22,26Zm8.78,0-3.6-13.96h1.48l3.32,12.98-.74-.4h1.98l-.76.4,3.3-13.62h1.52L162,26Zm12.92.34a5.705,5.705,0,0,1-2.39-.47,5.218,5.218,0,0,1-1.74-1.26,5.659,5.659,0,0,1-1.45-3.77v-.28a5.568,5.568,0,0,1,.38-2.01,5.484,5.484,0,0,1,1.1-1.77,5.4,5.4,0,0,1,1.75-1.25,6.16,6.16,0,0,1,4.72,0,5.4,5.4,0,0,1,1.75,1.25,5.345,5.345,0,0,1,1.09,1.77,5.7,5.7,0,0,1,.37,2.01v.28a5.758,5.758,0,0,1-.36,2,5.426,5.426,0,0,1-1.07,1.77,5.193,5.193,0,0,1-1.75,1.26A5.774,5.774,0,0,1,172.12,26.34Zm0-1.34a4.014,4.014,0,0,0,2.23-.59,3.876,3.876,0,0,0,1.39-1.56,5.053,5.053,0,0,0-.01-4.32,3.785,3.785,0,0,0-1.41-1.54,4.492,4.492,0,0,0-4.38,0,3.785,3.785,0,0,0-1.41,1.54,5.053,5.053,0,0,0-.01,4.32,3.876,3.876,0,0,0,1.39,1.56A3.976,3.976,0,0,0,172.12,25Zm8.14,1V15.42h1.2v4.42h-.12a4.94,4.94,0,0,1,1.02-3.43,4.15,4.15,0,0,1,3.2-1.11h.34v1.36h-.62a3.573,3.573,0,0,0-2.62.89,3.514,3.514,0,0,0-.9,2.61V26Zm11.76.34a5.059,5.059,0,0,1-2.11-.43,4.879,4.879,0,0,1-1.64-1.2,5.493,5.493,0,0,1-1.06-1.76,5.978,5.978,0,0,1-.37-2.11v-.28a6.01,6.01,0,0,1,.36-2.07,5.538,5.538,0,0,1,1.03-1.76,4.847,4.847,0,0,1,3.75-1.67,4.691,4.691,0,0,1,2.36.58,4.341,4.341,0,0,1,1.64,1.67,5.622,5.622,0,0,1,.66,2.67l-.66-1.24V11.4h1.5V26h-1.2V21.3h.48a5.808,5.808,0,0,1-.69,2.79,4.27,4.27,0,0,1-1.7,1.69A4.914,4.914,0,0,1,192.02,26.34Zm.2-1.32a3.968,3.968,0,0,0,1.95-.48,3.472,3.472,0,0,0,1.37-1.37,4.114,4.114,0,0,0,.5-2.05v-.96a3.813,3.813,0,0,0-.5-1.97,3.549,3.549,0,0,0-1.37-1.33,4.009,4.009,0,0,0-1.97-.48,3.656,3.656,0,0,0-2.05.57,3.749,3.749,0,0,0-1.34,1.55,5.425,5.425,0,0,0,.01,4.44,3.656,3.656,0,0,0,1.36,1.53A3.768,3.768,0,0,0,192.22,25.02Zm10.1-4.36V19.32h3.4a3.654,3.654,0,0,0,1.92-.45,2.8,2.8,0,0,0,1.1-1.2A3.809,3.809,0,0,0,209.1,16a3.856,3.856,0,0,0-.36-1.69,2.744,2.744,0,0,0-1.1-1.19,3.721,3.721,0,0,0-1.92-.44h-3.4V11.34h3.14a6.443,6.443,0,0,1,2.91.58,3.934,3.934,0,0,1,1.72,1.6,4.715,4.715,0,0,1,.57,2.34v.28a4.73,4.73,0,0,1-.57,2.33,3.917,3.917,0,0,1-1.72,1.61,6.443,6.443,0,0,1-2.91.58ZM201.2,26V11.34h1.52V26ZM213,26V15.42h1.2v4.42h-.12a4.94,4.94,0,0,1,1.02-3.43,4.15,4.15,0,0,1,3.2-1.11h.34v1.36h-.62a3.573,3.573,0,0,0-2.62.89,3.514,3.514,0,0,0-.9,2.61V26Zm11.84.34a5.5,5.5,0,0,1-2.36-.47,4.578,4.578,0,0,1-1.64-1.26,5.349,5.349,0,0,1-.95-1.77,6.658,6.658,0,0,1-.31-2.02v-.28a6.594,6.594,0,0,1,.31-2,5.238,5.238,0,0,1,.95-1.76,4.7,4.7,0,0,1,1.61-1.25,5.151,5.151,0,0,1,2.27-.47,4.888,4.888,0,0,1,2.77.74,4.737,4.737,0,0,1,1.67,1.89,5.567,5.567,0,0,1,.56,2.47v.78h-9.46V19.78h8.42l-.38.58a4.9,4.9,0,0,0-.41-2.07,3.239,3.239,0,0,0-1.2-1.4,3.562,3.562,0,0,0-1.97-.51,3.48,3.48,0,0,0-2.06.58,3.553,3.553,0,0,0-1.23,1.54,5.5,5.5,0,0,0-.41,2.18,5.671,5.671,0,0,0,.41,2.19,3.453,3.453,0,0,0,1.26,1.57,4.286,4.286,0,0,0,4.39-.05,2.568,2.568,0,0,0,1.06-1.49h1.4a3.956,3.956,0,0,1-.84,1.83,4.239,4.239,0,0,1-1.62,1.19A5.64,5.64,0,0,1,224.84,26.34Zm10.6-.04a4.88,4.88,0,0,1-3.14-.89,2.97,2.97,0,0,1-1.12-2.39h1.4a2.029,2.029,0,0,0,.69,1.38,3.092,3.092,0,0,0,2.17.62,3.273,3.273,0,0,0,2.13-.59,1.8,1.8,0,0,0,.71-1.43,1.41,1.41,0,0,0-.59-1.21,3.54,3.54,0,0,0-1.71-.55l-1.2-.12a4.344,4.344,0,0,1-2.33-.89,2.458,2.458,0,0,1-.89-2.01,2.829,2.829,0,0,1,.48-1.64,3.154,3.154,0,0,1,1.35-1.09,4.977,4.977,0,0,1,2.05-.39,4.505,4.505,0,0,1,2.77.8,2.727,2.727,0,0,1,1.09,2.28h-1.4a1.67,1.67,0,0,0-.64-1.28,2.769,2.769,0,0,0-1.82-.52,2.725,2.725,0,0,0-1.85.54,1.7,1.7,0,0,0-.61,1.32,1.428,1.428,0,0,0,.46,1.09,2.433,2.433,0,0,0,1.44.53l1.2.12a5.355,5.355,0,0,1,2.61.92,2.469,2.469,0,0,1,1.01,2.12,2.858,2.858,0,0,1-.53,1.69,3.479,3.479,0,0,1-1.49,1.17A5.549,5.549,0,0,1,235.44,26.3Zm10.08,0a4.88,4.88,0,0,1-3.14-.89,2.97,2.97,0,0,1-1.12-2.39h1.4a2.029,2.029,0,0,0,.69,1.38,3.092,3.092,0,0,0,2.17.62,3.273,3.273,0,0,0,2.13-.59,1.8,1.8,0,0,0,.71-1.43,1.41,1.41,0,0,0-.59-1.21,3.54,3.54,0,0,0-1.71-.55l-1.2-.12a4.344,4.344,0,0,1-2.33-.89,2.458,2.458,0,0,1-.89-2.01,2.829,2.829,0,0,1,.48-1.64,3.154,3.154,0,0,1,1.35-1.09,4.977,4.977,0,0,1,2.05-.39,4.505,4.505,0,0,1,2.77.8,2.727,2.727,0,0,1,1.09,2.28h-1.4a1.67,1.67,0,0,0-.64-1.28,2.769,2.769,0,0,0-1.82-.52,2.725,2.725,0,0,0-1.85.54,1.7,1.7,0,0,0-.61,1.32,1.428,1.428,0,0,0,.46,1.09,2.433,2.433,0,0,0,1.44.53l1.2.12a5.355,5.355,0,0,1,2.61.92,2.469,2.469,0,0,1,1.01,2.12,2.858,2.858,0,0,1-.53,1.69,3.479,3.479,0,0,1-1.49,1.17A5.549,5.549,0,0,1,245.52,26.3Zm30.82-.3L272.3,11.4h1.56l3.66,13.62-.7-.4h1.94l-.76.4,2.98-12.98h1.44L279.14,26Zm8.78,0-3.6-13.96H283l3.32,12.98-.74-.4h1.98l-.76.4,3.3-13.62h1.52L287.92,26Zm12.92.34a5.705,5.705,0,0,1-2.39-.47,5.219,5.219,0,0,1-1.74-1.26,5.659,5.659,0,0,1-1.45-3.77v-.28a5.568,5.568,0,0,1,.38-2.01,5.483,5.483,0,0,1,1.1-1.77,5.4,5.4,0,0,1,1.75-1.25,6.16,6.16,0,0,1,4.72,0,5.4,5.4,0,0,1,1.75,1.25,5.345,5.345,0,0,1,1.09,1.77,5.7,5.7,0,0,1,.37,2.01v.28a5.758,5.758,0,0,1-.36,2,5.426,5.426,0,0,1-1.07,1.77,5.193,5.193,0,0,1-1.75,1.26A5.774,5.774,0,0,1,298.04,26.34Zm0-1.34a4.014,4.014,0,0,0,2.23-.59,3.876,3.876,0,0,0,1.39-1.56,5.053,5.053,0,0,0-.01-4.32,3.786,3.786,0,0,0-1.41-1.54,4.492,4.492,0,0,0-4.38,0,3.785,3.785,0,0,0-1.41,1.54,5.053,5.053,0,0,0-.01,4.32,3.876,3.876,0,0,0,1.39,1.56A3.976,3.976,0,0,0,298.04,25Zm12.88,1.34a5.705,5.705,0,0,1-2.39-.47,5.219,5.219,0,0,1-1.74-1.26,5.659,5.659,0,0,1-1.45-3.77v-.28a5.568,5.568,0,0,1,.38-2.01,5.483,5.483,0,0,1,1.1-1.77,5.4,5.4,0,0,1,1.75-1.25,6.16,6.16,0,0,1,4.72,0,5.4,5.4,0,0,1,1.75,1.25,5.345,5.345,0,0,1,1.09,1.77,5.7,5.7,0,0,1,.37,2.01v.28a5.758,5.758,0,0,1-.36,2,5.426,5.426,0,0,1-1.07,1.77,5.193,5.193,0,0,1-1.75,1.26A5.774,5.774,0,0,1,310.92,26.34Zm0-1.34a4.014,4.014,0,0,0,2.23-.59,3.876,3.876,0,0,0,1.39-1.56,5.053,5.053,0,0,0-.01-4.32,3.786,3.786,0,0,0-1.41-1.54,4.492,4.492,0,0,0-4.38,0,3.785,3.785,0,0,0-1.41,1.54,5.053,5.053,0,0,0-.01,4.32,3.876,3.876,0,0,0,1.39,1.56A3.976,3.976,0,0,0,310.92,25Zm14.7,1.34a7.468,7.468,0,0,1-3.35-.69,6.424,6.424,0,0,1-2.26-1.81,7.512,7.512,0,0,1-1.27-2.43,8.711,8.711,0,0,1-.4-2.55v-.38a9.019,9.019,0,0,1,.41-2.67,7.178,7.178,0,0,1,1.28-2.41,6.3,6.3,0,0,1,2.23-1.73,8.316,8.316,0,0,1,6.47.01,5.5,5.5,0,0,1,2.19,1.85,6.041,6.041,0,0,1,1,2.81h-1.54a4.3,4.3,0,0,0-.84-2.17,4.229,4.229,0,0,0-1.73-1.31,5.972,5.972,0,0,0-2.33-.44,5.689,5.689,0,0,0-2.43.49,4.835,4.835,0,0,0-1.75,1.36,6.12,6.12,0,0,0-1.06,2,7.894,7.894,0,0,0-.36,2.41,7.8,7.8,0,0,0,.35,2.34,6.018,6.018,0,0,0,1.07,2.01,5.055,5.055,0,0,0,1.8,1.4,5.844,5.844,0,0,0,2.52.51,5.478,5.478,0,0,0,3.36-1.01,4.358,4.358,0,0,0,1.68-2.91h1.54a6.426,6.426,0,0,1-1.04,2.71,5.717,5.717,0,0,1-2.21,1.91A7.329,7.329,0,0,1,325.62,26.34Zm13.56,0a5.705,5.705,0,0,1-2.39-.47,5.219,5.219,0,0,1-1.74-1.26,5.659,5.659,0,0,1-1.45-3.77v-.28a5.568,5.568,0,0,1,.38-2.01,5.483,5.483,0,0,1,1.1-1.77,5.4,5.4,0,0,1,1.75-1.25,6.16,6.16,0,0,1,4.72,0,5.4,5.4,0,0,1,1.75,1.25,5.345,5.345,0,0,1,1.09,1.77,5.7,5.7,0,0,1,.37,2.01v.28a5.758,5.758,0,0,1-.36,2,5.426,5.426,0,0,1-1.07,1.77,5.193,5.193,0,0,1-1.75,1.26A5.774,5.774,0,0,1,339.18,26.34Zm0-1.34a4.014,4.014,0,0,0,2.23-.59,3.876,3.876,0,0,0,1.39-1.56,5.053,5.053,0,0,0-.01-4.32,3.786,3.786,0,0,0-1.41-1.54,4.492,4.492,0,0,0-4.38,0,3.785,3.785,0,0,0-1.41,1.54,5.053,5.053,0,0,0-.01,4.32,3.876,3.876,0,0,0,1.39,1.56A3.976,3.976,0,0,0,339.18,25Zm8.14,1V15.4h1.2v4.46h-.24a6.981,6.981,0,0,1,.41-2.52,3.547,3.547,0,0,1,1.23-1.65A3.473,3.473,0,0,1,352,15.1h.06a3.516,3.516,0,0,1,2.08.58,3.425,3.425,0,0,1,1.22,1.64,7.2,7.2,0,0,1,.4,2.54h-.48a6.981,6.981,0,0,1,.41-2.52,3.311,3.311,0,0,1,3.33-2.24h.06a3.563,3.563,0,0,1,2.09.58,3.459,3.459,0,0,1,1.24,1.64,7.044,7.044,0,0,1,.41,2.54V26h-1.5V19.52a3.371,3.371,0,0,0-.68-2.22,2.4,2.4,0,0,0-1.96-.82,2.679,2.679,0,0,0-2.09.85,3.282,3.282,0,0,0-.77,2.29V26h-1.5V19.52a3.371,3.371,0,0,0-.68-2.22,2.4,2.4,0,0,0-1.96-.82,2.679,2.679,0,0,0-2.09.85,3.282,3.282,0,0,0-.77,2.29V26Zm18.74,0V15.4h1.2v4.46h-.24a6.981,6.981,0,0,1,.41-2.52,3.547,3.547,0,0,1,1.23-1.65,3.473,3.473,0,0,1,2.08-.59h.06a3.516,3.516,0,0,1,2.08.58,3.425,3.425,0,0,1,1.22,1.64,7.2,7.2,0,0,1,.4,2.54h-.48a6.981,6.981,0,0,1,.41-2.52,3.311,3.311,0,0,1,3.33-2.24h.06a3.563,3.563,0,0,1,2.09.58,3.459,3.459,0,0,1,1.24,1.64,7.044,7.044,0,0,1,.41,2.54V26h-1.5V19.52a3.371,3.371,0,0,0-.68-2.22,2.4,2.4,0,0,0-1.96-.82,2.679,2.679,0,0,0-2.09.85,3.282,3.282,0,0,0-.77,2.29V26h-1.5V19.52a3.371,3.371,0,0,0-.68-2.22,2.4,2.4,0,0,0-1.96-.82,2.679,2.679,0,0,0-2.09.85,3.282,3.282,0,0,0-.77,2.29V26Zm23.16.34a5.5,5.5,0,0,1-2.36-.47,4.578,4.578,0,0,1-1.64-1.26,5.349,5.349,0,0,1-.95-1.77,6.658,6.658,0,0,1-.31-2.02v-.28a6.594,6.594,0,0,1,.31-2,5.238,5.238,0,0,1,.95-1.76,4.7,4.7,0,0,1,1.61-1.25,5.151,5.151,0,0,1,2.27-.47,4.888,4.888,0,0,1,2.77.74,4.737,4.737,0,0,1,1.67,1.89,5.567,5.567,0,0,1,.56,2.47v.78h-9.46V19.78h8.42l-.38.58a4.9,4.9,0,0,0-.41-2.07,3.239,3.239,0,0,0-1.2-1.4,3.562,3.562,0,0,0-1.97-.51,3.48,3.48,0,0,0-2.06.58,3.553,3.553,0,0,0-1.23,1.54,5.5,5.5,0,0,0-.41,2.18,5.67,5.67,0,0,0,.41,2.19,3.453,3.453,0,0,0,1.26,1.57,4.286,4.286,0,0,0,4.39-.05,2.568,2.568,0,0,0,1.06-1.49h1.4a3.956,3.956,0,0,1-.84,1.83,4.239,4.239,0,0,1-1.62,1.19A5.64,5.64,0,0,1,389.22,26.34Zm7.26-.34V15.42h1.2v4.42h-.12a4.94,4.94,0,0,1,1.02-3.43,4.15,4.15,0,0,1,3.2-1.11h.34v1.36h-.62a3.573,3.573,0,0,0-2.62.89,3.514,3.514,0,0,0-.9,2.61V26Zm11.88.34a5.382,5.382,0,0,1-2.33-.47,4.688,4.688,0,0,1-1.65-1.28,5.685,5.685,0,0,1-.99-1.79,6.168,6.168,0,0,1-.33-1.98v-.28a6.138,6.138,0,0,1,.33-1.99,5.471,5.471,0,0,1,.99-1.76,4.8,4.8,0,0,1,1.65-1.26,5.283,5.283,0,0,1,2.29-.47,5.5,5.5,0,0,1,2.35.48,4.237,4.237,0,0,1,1.67,1.36,4.171,4.171,0,0,1,.76,2.08h-1.44a2.977,2.977,0,0,0-1.03-1.83,3.428,3.428,0,0,0-2.31-.73,3.609,3.609,0,0,0-2.09.57,3.519,3.519,0,0,0-1.25,1.54,5.355,5.355,0,0,0-.42,2.15,5.448,5.448,0,0,0,.42,2.15A3.427,3.427,0,0,0,408.36,25a3.916,3.916,0,0,0,1.71-.35,3.144,3.144,0,0,0,1.18-.95,2.655,2.655,0,0,0,.53-1.32h1.44a3.816,3.816,0,0,1-.75,2.09,4.474,4.474,0,0,1-1.73,1.38A5.607,5.607,0,0,1,408.36,26.34Zm11.54,0a5.5,5.5,0,0,1-2.36-.47,4.578,4.578,0,0,1-1.64-1.26,5.349,5.349,0,0,1-.95-1.77,6.658,6.658,0,0,1-.31-2.02v-.28a6.594,6.594,0,0,1,.31-2,5.238,5.238,0,0,1,.95-1.76,4.7,4.7,0,0,1,1.61-1.25,5.151,5.151,0,0,1,2.27-.47,4.888,4.888,0,0,1,2.77.74,4.737,4.737,0,0,1,1.67,1.89,5.567,5.567,0,0,1,.56,2.47v.78h-9.46V19.78h8.42l-.38.58a4.9,4.9,0,0,0-.41-2.07,3.239,3.239,0,0,0-1.2-1.4,3.562,3.562,0,0,0-1.97-.51,3.48,3.48,0,0,0-2.06.58,3.553,3.553,0,0,0-1.23,1.54,5.5,5.5,0,0,0-.41,2.18,5.67,5.67,0,0,0,.41,2.19,3.453,3.453,0,0,0,1.26,1.57,4.286,4.286,0,0,0,4.39-.05,2.568,2.568,0,0,0,1.06-1.49h1.4a3.956,3.956,0,0,1-.84,1.83,4.239,4.239,0,0,1-1.62,1.19A5.64,5.64,0,0,1,419.9,26.34Z" transform="translate(-813.181 747.148)" fill="#5abfa3"/>
  </g>
</svg>
