<svg xmlns="http://www.w3.org/2000/svg" width="198.33" height="21.076" viewBox="0 0 198.33 21.076">
  <path id="mail_wa" d="M5.786,4A18.888,18.888,0,0,1,3.707,1.089,13.812,13.812,0,0,1,2.3-2.387a16.825,16.825,0,0,1-.5-4.235,16.256,16.256,0,0,1,.506-4.2,13.817,13.817,0,0,1,1.408-3.432,16.583,16.583,0,0,1,2.068-2.816H7.678A19.436,19.436,0,0,0,5.368-14a13.655,13.655,0,0,0-1.452,3.388A14.84,14.84,0,0,0,3.41-6.622a15.492,15.492,0,0,0,.5,4.037A13.608,13.608,0,0,0,5.357.858,20.874,20.874,0,0,0,7.678,4ZM13.31-2.442V-12.716h1.452V-2.442ZM9.174-6.908v-1.32H18.9v1.32ZM26.84.374a5.866,5.866,0,0,1-3.058-.737,4.913,4.913,0,0,1-1.87-1.947,5.484,5.484,0,0,1-.638-2.6H22.88a3.988,3.988,0,0,0,.473,1.958,3.5,3.5,0,0,0,1.353,1.364,4.216,4.216,0,0,0,2.134.506,4.291,4.291,0,0,0,2.134-.5,3.41,3.41,0,0,0,1.353-1.364A4.051,4.051,0,0,0,30.8-4.906a4.147,4.147,0,0,0-.462-1.958,3.443,3.443,0,0,0-1.353-1.4,4.2,4.2,0,0,0-2.145-.517,5.28,5.28,0,0,0-1.738.3,3.7,3.7,0,0,0-1.43.869H22.154l.836-8.448h7.986v1.43H23.892l.462-.572-.66,6.6-.506-.11A5.07,5.07,0,0,1,24.794-9.79a5.318,5.318,0,0,1,2.112-.4,5.752,5.752,0,0,1,3.036.748A4.973,4.973,0,0,1,31.8-7.513a5.192,5.192,0,0,1,.627,2.475v.286a5.121,5.121,0,0,1-.638,2.475A4.957,4.957,0,0,1,29.909-.363,5.926,5.926,0,0,1,26.84.374ZM39.776-16.478a6.051,6.051,0,0,1,2.728.561,4.716,4.716,0,0,1,1.815,1.573,7.117,7.117,0,0,1,1.023,2.409,13.246,13.246,0,0,1,.33,3.047v.924a8.814,8.814,0,0,1-1.826,6A6.878,6.878,0,0,1,38.39.11q-.748,0-1.342-.044T35.772-.066V-1.5q.682.11,1.32.154t1.386.044A6.087,6.087,0,0,0,41.8-2.1a4.522,4.522,0,0,0,1.815-2.321A10.636,10.636,0,0,0,44.176-8.1V-9.658l.44-1.3a6.1,6.1,0,0,1-.649,2.838A4.278,4.278,0,0,1,42.2-6.336a5.579,5.579,0,0,1-2.684.616,5.6,5.6,0,0,1-2.9-.7,4.555,4.555,0,0,1-1.793-1.914,5.966,5.966,0,0,1-.605-2.706,5.975,5.975,0,0,1,.627-2.75A4.728,4.728,0,0,1,36.7-15.752,5.984,5.984,0,0,1,39.776-16.478Zm0,1.452a4.273,4.273,0,0,0-2.211.528,3.335,3.335,0,0,0-1.331,1.43,4.556,4.556,0,0,0-.44,2.024,4.582,4.582,0,0,0,.429,2.013,3.25,3.25,0,0,0,1.3,1.408,4.13,4.13,0,0,0,2.145.517,4.7,4.7,0,0,0,2.189-.484,3.5,3.5,0,0,0,1.452-1.375,4.113,4.113,0,0,0,.517-2.1A4.357,4.357,0,0,0,43.384-13a3.522,3.522,0,0,0-1.342-1.463A4.22,4.22,0,0,0,39.776-15.026ZM53.35.374a6.033,6.033,0,0,1-2.981-.682A4.648,4.648,0,0,1,48.51-2.156a5.23,5.23,0,0,1-.638-2.552h1.606a3.477,3.477,0,0,0,1.034,2.651,3.961,3.961,0,0,0,2.838.979,4.45,4.45,0,0,0,2.035-.44,3.17,3.17,0,0,0,1.342-1.254A3.7,3.7,0,0,0,57.2-4.664a3.557,3.557,0,0,0-1.034-2.662,3.822,3.822,0,0,0-2.794-1.012,3.924,3.924,0,0,0-1.21.165,4.251,4.251,0,0,0-.9.407l-.9-1.54,6.4-4.972-.176-.352H48.51v-1.43h9.614v2.376L52.448-9.262,51.37-9.24a5.2,5.2,0,0,1,.9-.3,5.042,5.042,0,0,1,1.166-.121A5.918,5.918,0,0,1,56.331-9a4.671,4.671,0,0,1,1.837,1.76,4.737,4.737,0,0,1,.638,2.42v.308a4.774,4.774,0,0,1-.638,2.4,4.755,4.755,0,0,1-1.848,1.8A5.97,5.97,0,0,1,53.35.374ZM62,4a18.888,18.888,0,0,0,2.079-2.915,13.812,13.812,0,0,0,1.408-3.476,16.825,16.825,0,0,0,.5-4.235,16.256,16.256,0,0,0-.506-4.2,13.817,13.817,0,0,0-1.408-3.432A16.583,16.583,0,0,0,62-17.072H60.1A19.436,19.436,0,0,1,62.414-14a13.656,13.656,0,0,1,1.452,3.388,14.84,14.84,0,0,1,.506,3.993,15.492,15.492,0,0,1-.495,4.037A13.608,13.608,0,0,1,62.425.858,20.874,20.874,0,0,1,60.1,4ZM78.76-16.5a6.6,6.6,0,0,1,2.97.605,5,5,0,0,1,1.936,1.672,7.336,7.336,0,0,1,1.056,2.453,12.6,12.6,0,0,1,.33,2.926v1.012A8.261,8.261,0,0,1,83.1-1.914,7.454,7.454,0,0,1,77.44.132q-.836,0-1.5-.044T74.558-.044v-2.2q.726.066,1.419.121t1.573.055a5.744,5.744,0,0,0,3.036-.693,3.784,3.784,0,0,0,1.6-2.013,9.574,9.574,0,0,0,.473-3.212V-9.218l.616-1.474A5.821,5.821,0,0,1,82.6-7.843a4.134,4.134,0,0,1-1.782,1.694,5.854,5.854,0,0,1-2.629.561,5.825,5.825,0,0,1-2.9-.682,4.453,4.453,0,0,1-1.826-1.892,6.076,6.076,0,0,1-.616-2.794,5.936,5.936,0,0,1,.682-2.882A4.761,4.761,0,0,1,75.537-15.8,6.816,6.816,0,0,1,78.76-16.5Zm.022,2.222a3.839,3.839,0,0,0-1.892.429,2.808,2.808,0,0,0-1.155,1.166,3.63,3.63,0,0,0-.385,1.7,3.769,3.769,0,0,0,.374,1.727A2.72,2.72,0,0,0,76.835-8.1a3.631,3.631,0,0,0,1.815.418,4.53,4.53,0,0,0,1.87-.374,2.944,2.944,0,0,0,1.309-1.111A3.336,3.336,0,0,0,82.3-11a3.637,3.637,0,0,0-.374-1.65,2.772,2.772,0,0,0-1.155-1.188A4.022,4.022,0,0,0,78.782-14.278ZM89.122,0l6.4-13.64-.176-.242H86.9V-16.06H98.142V-13.6L91.85,0ZM86.9-11.308V-16.06h2.156v4.752ZM109.56-16.5a6.6,6.6,0,0,1,2.97.605,5,5,0,0,1,1.936,1.672,7.336,7.336,0,0,1,1.056,2.453,12.6,12.6,0,0,1,.33,2.926v1.012A8.261,8.261,0,0,1,113.9-1.914,7.454,7.454,0,0,1,108.24.132q-.836,0-1.5-.044t-1.386-.132v-2.2q.726.066,1.419.121t1.573.055a5.744,5.744,0,0,0,3.036-.693,3.784,3.784,0,0,0,1.6-2.013,9.574,9.574,0,0,0,.473-3.212V-9.218l.616-1.474a5.821,5.821,0,0,1-.671,2.849,4.134,4.134,0,0,1-1.782,1.694,5.854,5.854,0,0,1-2.629.561,5.825,5.825,0,0,1-2.9-.682,4.453,4.453,0,0,1-1.826-1.892,6.076,6.076,0,0,1-.616-2.794,5.936,5.936,0,0,1,.682-2.882,4.761,4.761,0,0,1,2.013-1.958A6.816,6.816,0,0,1,109.56-16.5Zm.022,2.222a3.839,3.839,0,0,0-1.892.429,2.808,2.808,0,0,0-1.155,1.166,3.63,3.63,0,0,0-.385,1.7,3.769,3.769,0,0,0,.374,1.727A2.72,2.72,0,0,0,107.635-8.1a3.631,3.631,0,0,0,1.815.418,4.53,4.53,0,0,0,1.87-.374,2.944,2.944,0,0,0,1.309-1.111A3.336,3.336,0,0,0,113.1-11a3.637,3.637,0,0,0-.374-1.65,2.772,2.772,0,0,0-1.155-1.188A4.022,4.022,0,0,0,109.582-14.278ZM121.044,0V-14.564l.968.748h-4.4V-16.06h6.028V0Zm11.484.4a6.313,6.313,0,0,1-3.179-.748,5.094,5.094,0,0,1-1.991-1.991,5.47,5.47,0,0,1-.682-2.673h2.53a3.187,3.187,0,0,0,.418,1.639,3.039,3.039,0,0,0,1.166,1.133,3.55,3.55,0,0,0,1.76.418,3.613,3.613,0,0,0,1.771-.418A2.952,2.952,0,0,0,135.5-3.41a3.413,3.413,0,0,0,.418-1.694,3.486,3.486,0,0,0-.407-1.694A3.1,3.1,0,0,0,134.343-8a3.445,3.445,0,0,0-1.793-.451,4.309,4.309,0,0,0-1.562.3,2.993,2.993,0,0,0-1.21.8h-2.42l.814-8.712h8.866v2.222H129.47l.814-.792-.572,5.9-.66-.2a4.815,4.815,0,0,1,1.562-1.133,5.187,5.187,0,0,1,2.2-.429,5.856,5.856,0,0,1,3.069.748,5.152,5.152,0,0,1,1.9,1.947,5.233,5.233,0,0,1,.66,2.563v.286a5.222,5.222,0,0,1-.682,2.585,5.272,5.272,0,0,1-2,1.991A6.321,6.321,0,0,1,132.528.4ZM151.4.4a7.127,7.127,0,0,1-3.124-.627,5.61,5.61,0,0,1-2.1-1.705A7.206,7.206,0,0,1,145-4.433a11.739,11.739,0,0,1-.374-3v-1.21a10.608,10.608,0,0,1,.715-3.982,6.2,6.2,0,0,1,2.222-2.838,6.537,6.537,0,0,1,3.839-1.056,6.474,6.474,0,0,1,3.839,1.056,6.322,6.322,0,0,1,2.211,2.838,10.466,10.466,0,0,1,.726,3.982v1.21a11.74,11.74,0,0,1-.374,3,7.206,7.206,0,0,1-1.177,2.5,5.631,5.631,0,0,1-2.09,1.705A7.111,7.111,0,0,1,151.4.4Zm0-2.4a3.551,3.551,0,0,0,3.135-1.441,8.145,8.145,0,0,0,1-4.565,8.237,8.237,0,0,0-1.023-4.7,3.583,3.583,0,0,0-3.113-1.419,3.583,3.583,0,0,0-3.113,1.419,8.137,8.137,0,0,0-1.023,4.653,8.181,8.181,0,0,0,1.012,4.6A3.546,3.546,0,0,0,151.4-2ZM166.21.418a7.771,7.771,0,0,1-3.157-.605,5.005,5.005,0,0,1-2.145-1.705,4.412,4.412,0,0,1-.77-2.6,4.1,4.1,0,0,1,.363-1.749,4.144,4.144,0,0,1,1-1.353,4.531,4.531,0,0,1,1.474-.88v-.242a3.985,3.985,0,0,1-1.188-.737,3.477,3.477,0,0,1-.836-1.133,3.552,3.552,0,0,1-.308-1.518,3.767,3.767,0,0,1,.759-2.4,4.75,4.75,0,0,1,2.024-1.474,7.428,7.428,0,0,1,2.783-.506,7.467,7.467,0,0,1,2.816.506,4.679,4.679,0,0,1,2,1.474,3.8,3.8,0,0,1,.748,2.4,3.665,3.665,0,0,1-.3,1.518,3.346,3.346,0,0,1-.825,1.133,3.913,3.913,0,0,1-1.21.737v.242a4.483,4.483,0,0,1,1.5.88,4.144,4.144,0,0,1,1,1.353,4.1,4.1,0,0,1,.363,1.749,4.412,4.412,0,0,1-.77,2.6,5.005,5.005,0,0,1-2.145,1.705A7.83,7.83,0,0,1,166.21.418Zm0-2.2a4.766,4.766,0,0,0,1.892-.341,2.741,2.741,0,0,0,1.232-1,2.75,2.75,0,0,0,.44-1.562,2.7,2.7,0,0,0-.429-1.54,2.794,2.794,0,0,0-1.221-.99,4.7,4.7,0,0,0-1.914-.352,4.635,4.635,0,0,0-1.892.352,2.722,2.722,0,0,0-1.21.99,2.748,2.748,0,0,0-.418,1.54,2.857,2.857,0,0,0,.418,1.562,2.605,2.605,0,0,0,1.21,1A4.766,4.766,0,0,0,166.21-1.782Zm0-7.788a3.709,3.709,0,0,0,2.2-.583,2.057,2.057,0,0,0,.814-1.793,2.018,2.018,0,0,0-.825-1.782,3.773,3.773,0,0,0-2.189-.572,3.719,3.719,0,0,0-2.189.583,2.023,2.023,0,0,0-.825,1.771,2.046,2.046,0,0,0,.825,1.793A3.719,3.719,0,0,0,166.21-9.57ZM175.956,0l6.4-13.64-.176-.242h-8.448V-16.06h11.242V-13.6L178.684,0Zm-2.222-11.308V-16.06h2.156v4.752ZM193.358.4a7.127,7.127,0,0,1-3.124-.627,5.61,5.61,0,0,1-2.1-1.705,7.206,7.206,0,0,1-1.177-2.5,11.739,11.739,0,0,1-.374-3v-1.21a10.608,10.608,0,0,1,.715-3.982,6.2,6.2,0,0,1,2.222-2.838,6.537,6.537,0,0,1,3.839-1.056,6.474,6.474,0,0,1,3.839,1.056,6.322,6.322,0,0,1,2.211,2.838,10.466,10.466,0,0,1,.726,3.982v1.21a11.74,11.74,0,0,1-.374,3,7.206,7.206,0,0,1-1.177,2.5,5.631,5.631,0,0,1-2.09,1.705A7.111,7.111,0,0,1,193.358.4Zm0-2.4a3.551,3.551,0,0,0,3.135-1.441,8.145,8.145,0,0,0,1-4.565,8.237,8.237,0,0,0-1.023-4.7,3.583,3.583,0,0,0-3.113-1.419,3.583,3.583,0,0,0-3.113,1.419,8.137,8.137,0,0,0-1.023,4.653,8.181,8.181,0,0,0,1.012,4.6A3.546,3.546,0,0,0,193.358-2Z" transform="translate(-1.804 17.072)" fill="#324359"/>
</svg>
