<svg xmlns="http://www.w3.org/2000/svg" width="515.858" height="214.152" viewBox="0 0 515.858 214.152">
  <g id="f_logo" transform="translate(-939.894 -154.956)">
    <g id="Grupo_11" data-name="Grupo 11" transform="translate(1142.39 209.5)">
      <path id="Trazado_10" data-name="Trazado 10" d="M3.954-34.148H28.413v2.513H6.914v15.747h16.25v2.513H6.914V2.372h21.5V4.885H3.954Zm30.881,36.8L58.847-31.635h-23.4v-2.513H62.365v2.29L38.353,2.428H63.091V4.885H34.835Zm36.074-36.8H95.368v2.513h-21.5v15.747h16.25v2.513H73.869V2.372h21.5V4.885H70.909Zm48.75,39.034a23.844,23.844,0,0,1-10.861-2.4,17.724,17.724,0,0,1-7.427-6.841A19.592,19.592,0,0,1,98.718-14.6a20.978,20.978,0,0,1,2.652-10.61,18.748,18.748,0,0,1,7.259-7.2,20.9,20.9,0,0,1,10.359-2.569,20.9,20.9,0,0,1,10.359,2.569,18.748,18.748,0,0,1,7.259,7.2,20.978,20.978,0,0,1,2.652,10.61A18.371,18.371,0,0,1,136.272-4.05a17.041,17.041,0,0,1-8.181,6.422H139.65V4.885Zm-.67-2.68a19.278,19.278,0,0,0,8.8-1.982,15.214,15.214,0,0,0,6.254-5.78,17.031,17.031,0,0,0,2.317-9.046,18.518,18.518,0,0,0-2.29-9.326,15.892,15.892,0,0,0-6.254-6.2,18.019,18.019,0,0,0-8.823-2.178,18.019,18.019,0,0,0-8.823,2.178,15.892,15.892,0,0,0-6.254,6.2,18.518,18.518,0,0,0-2.29,9.326,17.3,17.3,0,0,0,2.29,9.1A14.845,14.845,0,0,0,110.138.25,19.633,19.633,0,0,0,118.989,2.2Zm42.663,3.518q-7.427,0-11.224-3.713t-3.8-10.47V-34.148h2.96V-8.014q0,5.64,3.239,8.376T161.652,3.1q5.584,0,8.851-2.736t3.267-8.376V-34.148h2.96V-8.461q0,6.757-3.825,10.47T161.652,5.723Zm23.733-39.871h2.96V4.885h-2.96Zm11.95,0h24.459v2.513h-21.5v15.747h16.25v2.513h-16.25V2.372h21.5V4.885H197.335Zm32,0h2.96V2.372h21.5V4.885H229.333ZM23.055,17.611H36.34l21.3,53.372H43.823l-4.276-11h-19.7l-4.276,11H1.675ZM36.188,49.6,29.7,31.661,23.131,49.6Zm26.8-31.993H76.5v42H99.715V70.984H62.988Zm65.055,54.518a30.363,30.363,0,0,1-14.622-3.512,26.362,26.362,0,0,1-10.308-9.812,27.573,27.573,0,0,1-3.78-14.469,27.774,27.774,0,0,1,3.78-14.508,26.278,26.278,0,0,1,10.308-9.85,32.033,32.033,0,0,1,29.168,0,26.011,26.011,0,0,1,10.27,9.85A27.994,27.994,0,0,1,156.6,44.336a27.79,27.79,0,0,1-3.741,14.469,26.091,26.091,0,0,1-10.27,9.812A30.2,30.2,0,0,1,128.043,72.129Zm0-12.675a15.213,15.213,0,0,0,7.406-1.833,13.629,13.629,0,0,0,5.345-5.269,15.741,15.741,0,0,0,1.985-8.017,15.773,15.773,0,0,0-1.947-7.979,13.708,13.708,0,0,0-5.307-5.269,15.118,15.118,0,0,0-7.483-1.871,15.271,15.271,0,0,0-7.559,1.871,13.708,13.708,0,0,0-5.307,5.269,15.773,15.773,0,0,0-1.947,7.979,15.986,15.986,0,0,0,1.947,8.017,13.305,13.305,0,0,0,5.345,5.269A15.588,15.588,0,0,0,128.043,59.454Zm33.9-41.843h13.362l19.623,31.764V17.611h13.515V70.984H195.16l-19.7-31.84v31.84H161.945Zm51.845,44.21,24.281-32.833H214.4V17.611h40.545V26.85L230.818,59.607h25.808V70.984H213.79Zm72.69,10.308a30.363,30.363,0,0,1-14.622-3.512,26.362,26.362,0,0,1-10.308-9.812,27.573,27.573,0,0,1-3.78-14.469,27.775,27.775,0,0,1,3.78-14.508,26.279,26.279,0,0,1,10.308-9.85,32.033,32.033,0,0,1,29.168,0,26.01,26.01,0,0,1,10.27,9.85,27.994,27.994,0,0,1,3.741,14.508A27.79,27.79,0,0,1,311.3,58.805a26.091,26.091,0,0,1-10.27,9.812A30.2,30.2,0,0,1,286.481,72.129Zm0-12.675a15.213,15.213,0,0,0,7.406-1.833,13.63,13.63,0,0,0,5.345-5.269,15.741,15.741,0,0,0,1.985-8.017,15.773,15.773,0,0,0-1.947-7.979,13.707,13.707,0,0,0-5.307-5.269,15.118,15.118,0,0,0-7.483-1.871,15.272,15.272,0,0,0-7.559,1.871,13.708,13.708,0,0,0-5.307,5.269,15.774,15.774,0,0,0-1.947,7.979,15.986,15.986,0,0,0,1.947,8.017,13.305,13.305,0,0,0,5.345,5.269A15.588,15.588,0,0,0,286.481,59.454Z" transform="translate(-1.675 34.986)" fill="#2c2d2a"/>
    </g>
    <g id="Grupo_17" data-name="Grupo 17" transform="translate(939.894 154.956)">
      <path id="Trazado_26" data-name="Trazado 26" d="M-295,3497.635l.023-107.077L-202.213,3337l92.742,53.518-.023,107.077-30.286,17.486-21.99-38.09-40.453-70.067-31.691,54.891h45.043l9.777,16.935h-84.152l9.777-16.935,34.4-59.582,7.068-12.24h19.556l58.865,101.955,7.155-4.131.018-87.52-75.8-43.744-75.835,43.783-.018,87.52,75.8,43.744,40.26-23.244,8.467,14.665-48.725,28.13Z" transform="translate(295 -3337.001)" fill="#ed9347"/>
      <path id="Trazado_23" data-name="Trazado 23" d="M0,5.607,9.733,0,.008,25.157Z" transform="translate(95.588 74.778) rotate(150)" fill="#cf8140"/>
    </g>
  </g>
</svg>
