<?xml version="1.0" standalone="no"?>
<!DOCTYPE svg PUBLIC "-//W3C//DTD SVG 1.1//EN" "http://www.w3.org/Graphics/SVG/1.1/DTD/svg11.dtd" >
<svg xmlns="http://www.w3.org/2000/svg" xmlns:xlink="http://www.w3.org/1999/xlink" version="1.1">
<metadata>
Created by FontForge 20170731 at Sun Feb 12 23:32:54 2023
 By Aleksey,,,
Generated in 2013 by FontLab Studio. Copyright info pending.
</metadata>
<defs>
<font id="CircularStd-Black" horiz-adv-x="1202" >
  <font-face 
    font-family="Circular Std Black"
    font-weight="900"
    font-stretch="normal"
    units-per-em="2048"
    panose-1="2 11 10 4 2 1 1 1 1 2"
    ascent="1657"
    descent="-391"
    x-height="1018"
    cap-height="1452"
    bbox="-123 -549 3232 2083"
    underline-thickness="163"
    underline-position="-562"
    unicode-range="U+000D-FEFF"
  />
<missing-glyph horiz-adv-x="1218" 
d="M137 0v1452h944v-1452h-944zM391 254h436v944h-436v-944z" />
    <glyph glyph-name="f_f" unicode="ff" horiz-adv-x="1413" 
d="M1386 756h-221v-756h-311v756h-358v-756h-312v756h-161v262h161v88q0 178 103 285.5t286 107.5q102 0 148 -22v-254q-40 10 -92 10q-51 0 -92 -29.5t-41 -97.5v-88h358v88q0 178 102.5 285.5t284.5 107.5q109 0 150 -20v-256q-40 10 -93 10q-23 0 -44.5 -6t-42.5 -19
t-33.5 -39.5t-12.5 -62.5v-88h221v-262z" />
    <glyph glyph-name="f_f_i" unicode="ffi" horiz-adv-x="1992" 
d="M573 1499q98 0 148 -24v-252q-40 10 -92 10q-54 0 -93.5 -29t-39.5 -98v-88h358v88q0 178 102.5 285.5t284.5 107.5q104 0 150 -22v-254q-40 10 -93 10q-23 0 -44.5 -6t-42.5 -19t-33.5 -39.5t-12.5 -62.5v-88h695v-1018h-314v756h-381v-756h-311v756h-358v-756h-312v756
h-161v262h161v88q0 178 103 285.5t286 107.5zM1520 1329q0 76 53.5 129t128.5 53q76 0 129 -52.5t53 -129.5q0 -75 -53 -128.5t-129 -53.5q-75 0 -128.5 53.5t-53.5 128.5z" />
    <glyph glyph-name="f_f_l" unicode="ffl" horiz-adv-x="1996" 
d="M629 1233q-51 0 -92 -29.5t-41 -97.5v-88h358v88q0 178 102.5 285.5t284.5 107.5q104 0 150 -22v-254q-40 10 -93 10q-23 0 -44.5 -6t-42.5 -19t-33.5 -39.5t-12.5 -62.5v-88h383v465h312v-1483h-312v756h-383v-756h-311v756h-358v-756h-312v756h-161v262h161v88
q0 178 103 285.5t286 107.5q102 0 148 -22v-254q-40 10 -92 10z" />
    <glyph glyph-name="f_i" unicode="fi" horiz-adv-x="1316" 
d="M870 756h-374v-756h-312v756h-161v262h161v88q0 178 103 285.5t286 107.5q98 0 144 -22v-254q-35 10 -88 10q-51 0 -92 -29.5t-41 -97.5v-88h686v-1018h-312v756zM844 1329q0 76 53 129t127 53q77 0 130.5 -53t53.5 -129q0 -75 -54 -128.5t-130 -53.5q-74 0 -127 53.5
t-53 128.5z" />
    <glyph glyph-name="f_l" unicode="fl" horiz-adv-x="1318" 
d="M629 1233q-51 0 -92 -29.5t-41 -97.5v-88h372v465h314v-1483h-314v756h-372v-756h-312v756h-161v262h161v88q0 178 103 285.5t286 107.5q98 0 144 -22v-254q-35 10 -88 10z" />
    <glyph glyph-name=".notdef" horiz-adv-x="1218" 
d="M137 0v1452h944v-1452h-944zM391 254h436v944h-436v-944z" />
    <glyph glyph-name=".null" horiz-adv-x="0" 
 />
    <glyph glyph-name=".null" horiz-adv-x="0" 
 />
    <glyph glyph-name="uni000D" unicode="&#xd;" horiz-adv-x="503" 
 />
    <glyph glyph-name="space" unicode=" " horiz-adv-x="503" 
 />
    <glyph glyph-name="exclam" unicode="!" horiz-adv-x="706" 
d="M541 1452l-72 -997h-229l-72 997h373zM176 156q0 74 51.5 126t124.5 52q74 0 126 -52t52 -126q0 -72 -52.5 -124t-125.5 -52t-124.5 52t-51.5 124z" />
    <glyph glyph-name="quotedbl" unicode="&#x22;" horiz-adv-x="851" 
d="M63 1182q0 72 48 121t120 49q70 0 118 -49t48 -121q0 -34 -8 -62l-102 -370h-111l-102 370q-1 3 -4 15t-5 24.5t-2 22.5zM455 1182q0 72 48 121t120 49q70 0 117.5 -49t47.5 -121q0 -34 -8 -62l-102 -370h-111l-102 370q0 3 -3 15t-5 24.5t-2 22.5z" />
    <glyph glyph-name="numbersign" unicode="#" horiz-adv-x="1523" 
d="M176 803v215h295l68 311h233l-67 -311h258l67 311h236l-68 -311h252v-215h-297l-57 -266h250v-218h-297l-68 -319h-236l68 319h-258l-68 -319h-233l68 319h-246v218h293l57 266h-250zM659 803l-57 -266h258l58 266h-259z" />
    <glyph glyph-name="dollar" unicode="$" horiz-adv-x="1220" 
d="M754 -240h-236v220q-104 17 -187 62.5t-134 106.5t-79.5 127t-33.5 132l283 63q8 -97 76 -161t192 -64q78 0 127 35t49 94q0 89 -127 117l-182 43q-174 42 -272.5 143.5t-98.5 245.5q0 166 110 280.5t277 143.5v221h236v-228q155 -34 243 -132t113 -218l-285 -76
q-32 170 -209 170q-81 0 -126.5 -39.5t-45.5 -93.5q0 -42 31 -72.5t90 -43.5l178 -39q196 -44 289.5 -151.5t93.5 -254.5q0 -146 -99.5 -261t-272.5 -146v-224z" />
    <glyph glyph-name="percent" unicode="%" horiz-adv-x="1785" 
d="M301 1014q0 -61 35 -98t90 -37q54 0 88.5 37.5t34.5 97.5q0 58 -34.5 94.5t-88.5 36.5t-89.5 -36.5t-35.5 -94.5zM80 1014q0 142 102 241t244 99t244 -99t102 -241q0 -146 -101.5 -243t-246.5 -97q-143 0 -243.5 99t-100.5 241zM1237 313q0 -61 35 -98t90 -37
q54 0 88.5 37.5t34.5 97.5q0 58 -34.5 94.5t-88.5 36.5t-89.5 -36.5t-35.5 -94.5zM1016 313q0 142 102 241t244 99t244 -99t102 -241q0 -146 -101.5 -243t-246.5 -97q-143 0 -243.5 99t-100.5 241zM561 0h-262l930 1329h264z" />
    <glyph glyph-name="ampersand" unicode="&#x26;" horiz-adv-x="1488" 
d="M1096 0l-131 141q-167 -170 -381 -170q-104 0 -190.5 34t-142 90.5t-86 128t-30.5 147.5q0 126 60.5 214.5t187.5 180.5l-21 22q-151 164 -151 312q0 90 35.5 164.5t94.5 121.5t132 73t150 26q181 0 298 -104.5t117 -268.5q0 -186 -204 -336l-48 -35l195 -204l387 395
v-381l-205 -207l326 -344h-393zM592 238q99 0 192 96l-225 241l-10 -8q-56 -40 -84.5 -82t-28.5 -98q0 -59 44 -104t112 -45zM500 1110q0 -64 73 -141l35 -37l58 41q84 61 84 139q0 52 -36.5 87.5t-90.5 35.5q-50 0 -86.5 -32t-36.5 -93z" />
    <glyph glyph-name="quotesingle" unicode="'" horiz-adv-x="460" 
d="M63 1182q0 72 48 121t120 49q70 0 118 -49t48 -121q0 -34 -8 -62l-102 -370h-111l-102 370q-1 3 -4 15t-5 24.5t-2 22.5z" />
    <glyph glyph-name="parenleft" unicode="(" horiz-adv-x="702" 
d="M76 664q0 174 34 328.5t97.5 282t141 229.5t177.5 198l176 -166q-179 -187 -272.5 -396t-93.5 -476q0 -266 94 -476.5t272 -396.5l-176 -166q-100 96 -177.5 198.5t-141 230t-97.5 282t-34 328.5z" />
    <glyph glyph-name="parenright" unicode=")" horiz-adv-x="702" 
d="M627 664q0 -174 -34 -328.5t-98 -282t-140.5 -229.5t-176.5 -199l-178 166q179 187 274 397t95 476q0 267 -94.5 475.5t-274.5 396.5l178 166q100 -96 177 -198t140.5 -229.5t97.5 -282t34 -328.5z" />
    <glyph glyph-name="asterisk" unicode="*" horiz-adv-x="948" 
d="M596 1452v-252l233 76l78 -225l-235 -78l143 -199l-192 -141l-150 201l-147 -201l-193 141l143 199l-235 78l76 225l233 -76v252h246z" />
    <glyph glyph-name="plus" unicode="+" horiz-adv-x="1226" 
d="M94 737h389v400h262v-400h388v-254h-388v-399h-262v399h-389v254z" />
    <glyph glyph-name="comma" unicode="," horiz-adv-x="657" 
d="M117 180q0 82 58.5 136.5t146.5 54.5q103 0 162 -74.5t59 -181.5q0 -91 -25 -168.5t-64.5 -129.5t-92 -90.5t-104 -57.5t-103.5 -25v145q74 13 137.5 74t66.5 147q-18 -14 -57 -14q-83 0 -133.5 53t-50.5 131z" />
    <glyph glyph-name="hyphen" unicode="-" horiz-adv-x="798" 
d="M707 477h-615v281h615v-281z" />
    <glyph glyph-name="period" unicode="." horiz-adv-x="669" 
d="M125 193q0 86 61.5 147t147.5 61q87 0 149 -61t62 -147q0 -85 -62.5 -148t-148.5 -63t-147.5 63t-61.5 148z" />
    <glyph glyph-name="slash" unicode="/" horiz-adv-x="1013" 
d="M1014 1481l-738 -1510h-276l735 1510h279z" />
    <glyph glyph-name="zero" unicode="0" horiz-adv-x="1286" 
d="M399 664q0 -184 50 -289q61 -123 194 -123t195 123q51 102 51 289q0 186 -51 288q-62 123 -195 123t-194 -123q-50 -105 -50 -288zM76 664q0 292 117 469q70 106 183 166.5t267 60.5q156 0 269.5 -60.5t183.5 -166.5q116 -175 116 -469t-116 -469q-70 -105 -184 -166.5
t-269 -61.5q-153 0 -266.5 61.5t-183.5 166.5q-117 177 -117 469z" />
    <glyph glyph-name="one" unicode="1" horiz-adv-x="854" 
d="M709 0h-322v864h-317v215q145 1 244.5 73t117.5 177h277v-1329z" />
    <glyph glyph-name="two" unicode="2" horiz-adv-x="1128" 
d="M387 797l-303 2q-12 32 -12 110q0 90 33.5 171t95 143.5t157 99.5t211.5 37q112 0 205.5 -34.5t156 -94t97.5 -139t35 -168.5q0 -260 -262 -414l-252 -150q-69 -44 -90 -90h614v-270h-1010q0 197 70.5 341.5t243.5 244.5l217 127q78 46 111.5 92.5t33.5 112.5
q0 67 -46.5 112t-131.5 45q-90 0 -138 -54.5t-48 -141.5q0 -41 12 -82z" />
    <glyph glyph-name="three" unicode="3" horiz-adv-x="1120" 
d="M428 578l-139 213l327 268h-555v270h959v-250l-328 -254q157 -11 265 -124.5t108 -280.5q0 -89 -36 -170t-101.5 -143t-165.5 -99t-219 -37q-113 0 -209.5 34.5t-163 93.5t-106.5 135.5t-48 162.5l312 58q3 -90 62 -149.5t151 -59.5q91 0 144.5 52.5t53.5 129.5
q0 89 -56.5 134.5t-135.5 45.5q-61 0 -119 -30z" />
    <glyph glyph-name="four" unicode="4" horiz-adv-x="1245" 
d="M63 276v328l553 725h385v-782h213v-271h-213v-276h-323v276h-615zM678 547v438l-334 -438h334z" />
    <glyph glyph-name="five" unicode="5" horiz-adv-x="1140" 
d="M53 379l299 61q5 -81 63 -139.5t152 -58.5q85 0 142 52t57 140q0 94 -60.5 145.5t-146.5 51.5q-62 0 -109.5 -25t-76.5 -61q-1 0 -47 15t-98 31.5t-97 31.5t-47 16l149 690h773v-270h-549l-54 -250q37 33 101.5 52.5t124.5 19.5q208 0 333 -117t125 -328q0 -94 -35 -178
t-99.5 -149t-164.5 -103.5t-221 -38.5q-107 0 -202 35t-160.5 92.5t-105.5 131.5t-46 153z" />
    <glyph glyph-name="six" unicode="6" horiz-adv-x="1196" 
d="M1116 1305l-86 -263q-114 43 -209 43q-171 0 -286.5 -85.5t-143.5 -251.5q37 60 120.5 99.5t195.5 39.5q200 0 322 -123.5t122 -319.5q0 -205 -147 -340t-377 -135q-241 0 -396 165.5t-155 445.5q0 353 209 566.5t555 213.5q182 0 276 -55zM416 432q0 -84 60 -138
t147 -54q88 0 148 53t60 139q0 87 -60 141t-148 54t-147.5 -54t-59.5 -141z" />
    <glyph glyph-name="seven" unicode="7" horiz-adv-x="1052" 
d="M1042 1329v-258q-29 -25 -55.5 -50t-77.5 -82.5t-93 -116.5t-93.5 -150.5t-89.5 -187t-68.5 -223t-42.5 -261.5h-336q11 140 43.5 274.5t75 237t91.5 193.5t96 154.5t85 109.5t61 68l24 22h-652v270h1032z" />
    <glyph glyph-name="eight" unicode="8" horiz-adv-x="1173" 
d="M586 795q83 1 126.5 45.5t43.5 109.5q0 57 -45.5 100.5t-124.5 43.5t-124.5 -43.5t-45.5 -100.5q0 -64 44 -109t126 -46zM586 231q92 0 145 50t53 116q0 68 -51 119t-147 51q-95 0 -146 -51t-51 -119q0 -65 53 -115.5t144 -50.5zM586 -31q-226 0 -369 108.5t-143 282.5
q0 104 61 193.5t164 130.5q-65 23 -112 74t-68 106.5t-21 110.5q0 168 137 276.5t351 108.5q216 0 352.5 -108.5t136.5 -276.5q0 -86 -53.5 -171.5t-149.5 -119.5q103 -41 165.5 -130.5t62.5 -193.5q0 -174 -143 -282.5t-371 -108.5z" />
    <glyph glyph-name="nine" unicode="9" horiz-adv-x="1198" 
d="M104 39l70 260q37 -20 103 -36.5t131 -16.5q63 0 118.5 11t105.5 36t87 62.5t61.5 93t30.5 124.5q-41 -60 -119.5 -94.5t-169.5 -34.5q-195 0 -327 125t-132 322q0 204 145 336.5t376 132.5q115 0 212 -41t170 -119t114.5 -201t41.5 -278q0 -356 -184 -554t-524 -198
q-88 0 -172.5 19.5t-137.5 50.5zM768 901q0 83 -57 136t-142 53t-141.5 -53t-56.5 -136t56.5 -135.5t141.5 -52.5t142 53.5t57 134.5z" />
    <glyph glyph-name="colon" unicode=":" horiz-adv-x="659" 
d="M125 186q0 85 60 145t145 60q84 0 144.5 -60.5t60.5 -144.5q0 -82 -61 -143t-144 -61q-84 0 -144.5 61t-60.5 143zM125 831q0 85 60 145t145 60q84 0 144.5 -60.5t60.5 -144.5q0 -82 -61 -143t-144 -61q-84 0 -144.5 61t-60.5 143z" />
    <glyph glyph-name="semicolon" unicode=";" horiz-adv-x="661" 
d="M131 168q0 77 56 128.5t139 51.5q98 0 154.5 -71t56.5 -173q0 -107 -35.5 -193.5t-92.5 -137.5t-118.5 -80t-124.5 -35v137q71 13 131 71t63 140q-18 -14 -53 -14q-80 0 -128 50.5t-48 125.5zM125 831q0 85 60 145t145 60q84 0 144.5 -60.5t60.5 -144.5q0 -82 -61 -143
t-144 -61q-84 0 -144.5 61t-60.5 143z" />
    <glyph glyph-name="less" unicode="&#x3c;" horiz-adv-x="1034" 
d="M72 500v221l899 459v-283l-590 -281l590 -284v-287z" />
    <glyph glyph-name="equal" unicode="=" horiz-adv-x="1243" 
d="M1128 694h-1013v250h1013v-250zM1128 283h-1013v249h1013v-249z" />
    <glyph glyph-name="greater" unicode="&#x3e;" horiz-adv-x="1034" 
d="M963 723v-221l-900 -457v281l590 282l-590 285v287z" />
    <glyph glyph-name="question" unicode="?" horiz-adv-x="1101" 
d="M641 455h-244q-8 39 -8 90q0 172 156 289l104 77q74 55 74 144q0 65 -47.5 111t-134.5 46q-85 0 -137 -57.5t-52 -134.5q0 -52 6 -76l-286 10q-9 43 -9 86q0 187 130.5 315t347.5 128q120 0 217 -34t157 -91.5t91.5 -129t31.5 -149.5q0 -118 -50.5 -206.5t-147.5 -161.5
l-78 -58q-61 -45 -91 -89.5t-30 -108.5zM350 156q0 74 51.5 126t124.5 52q74 0 126.5 -52.5t52.5 -125.5q0 -72 -53 -124t-126 -52t-124.5 52t-51.5 124z" />
    <glyph glyph-name="at" unicode="@" horiz-adv-x="1693" 
d="M1194 289h-8q-78 0 -126.5 35t-62.5 84q-34 -59 -98 -91t-137 -32q-131 0 -220 99.5t-89 252.5q0 196 118.5 326.5t282.5 130.5q58 0 111 -28.5t75 -80.5l17 82h211l-107 -498q-2 -8 -2 -24q0 -24 16.5 -42t41.5 -18q75 0 133.5 91.5t58.5 232.5q0 211 -146.5 342
t-375.5 131q-124 0 -232 -43.5t-186 -121t-123 -190t-45 -245.5q0 -167 70.5 -298t208 -207.5t321.5 -76.5q202 0 354 107l105 -150q-78 -69 -209 -112t-250 -43q-178 0 -331 56t-262.5 156t-171.5 245t-62 317q0 176 64.5 328t174.5 257t258.5 164.5t313.5 59.5
q157 0 294.5 -51.5t234.5 -141t152.5 -214.5t55.5 -267q0 -113 -37 -212t-98 -165.5t-137.5 -104.5t-155.5 -40zM995 748q0 66 -31.5 104.5t-89.5 38.5q-83 0 -135.5 -68t-52.5 -168q0 -79 32 -124.5t97 -45.5q76 0 127.5 74t52.5 189z" />
    <glyph glyph-name="A" unicode="A" horiz-adv-x="1503" 
d="M1130 0l-104 295h-561l-105 -295h-340l547 1452h375l541 -1452h-353zM750 1092l-179 -502h353z" />
    <glyph glyph-name="B" unicode="B" horiz-adv-x="1263" 
d="M158 1452h542q210 0 331.5 -108.5t121.5 -280.5q0 -110 -60.5 -195.5t-152.5 -115.5q106 -25 182 -116t76 -224q0 -180 -125.5 -296t-329.5 -116h-585v1452zM473 870h176q85 0 136 42.5t51 115.5q0 72 -49 114t-142 42h-172v-314zM473 264h203q93 0 147 46t54 124
q0 76 -53.5 123t-147.5 47h-203v-340z" />
    <glyph glyph-name="C" unicode="C" horiz-adv-x="1581" 
d="M827 -31q-156 0 -294 54.5t-239.5 152t-160.5 239.5t-59 308q0 133 38.5 252.5t108.5 211t163 159t205.5 102.5t233.5 35q125 0 232.5 -31t181 -80.5t129.5 -116t87 -131t46 -131.5l-305 -96q-8 34 -22.5 67t-44.5 71t-69 66t-100.5 47t-134.5 19q-60 0 -118 -16.5
t-111.5 -52.5t-94 -87t-65 -125.5t-24.5 -162.5q0 -131 59.5 -231t153.5 -149.5t204 -49.5q72 0 133.5 18.5t101.5 47t71.5 66.5t48 71.5t26.5 68.5l310 -88q-15 -65 -46 -130.5t-88 -135t-131.5 -122t-185.5 -86.5t-240 -34z" />
    <glyph glyph-name="D" unicode="D" horiz-adv-x="1486" 
d="M481 305h189q85 0 157.5 25t128.5 75t87.5 132t31.5 188t-31.5 188t-87.5 132.5t-128.5 76t-157.5 25.5h-189v-842zM682 0h-524v1452h526q330 0 529.5 -196.5t199.5 -530.5t-200 -529.5t-531 -195.5z" />
    <glyph glyph-name="E" unicode="E" horiz-adv-x="1193" 
d="M1079 0h-921v1452h919v-305h-596v-277h541v-284h-541v-279h598v-307z" />
    <glyph glyph-name="F" unicode="F" horiz-adv-x="1163" 
d="M483 0h-325v1452h936v-307h-613v-307h539v-295h-537v-543z" />
    <glyph glyph-name="G" unicode="G" horiz-adv-x="1613" 
d="M1499 0h-262l-20 147q-52 -76 -157.5 -127t-250.5 -51q-151 0 -285 54t-233.5 151t-158 240t-58.5 311q0 222 103.5 397t275 268t376.5 93q120 0 223 -27.5t175.5 -71.5t129.5 -104.5t90.5 -120.5t53.5 -125l-311 -108q-8 30 -23 61t-44.5 67t-68 63t-97.5 45t-128 18
q-61 0 -120 -16t-115.5 -51.5t-99 -87t-68 -129t-25.5 -171.5q0 -110 35 -199t95 -145.5t138.5 -86.5t168.5 -30q85 0 154 25t109.5 64t63.5 76.5t31 72.5h-436v274h739v-776z" />
    <glyph glyph-name="H" unicode="H" horiz-adv-x="1542" 
d="M1386 0h-325v578h-580v-578h-323v1452h323v-569h580v569h325v-1452z" />
    <glyph glyph-name="I" unicode="I" horiz-adv-x="641" 
d="M485 0h-327v1452h327v-1452z" />
    <glyph glyph-name="J" unicode="J" horiz-adv-x="1163" 
d="M41 449v96l307 53v-133q0 -92 50.5 -140.5t125.5 -48.5q78 0 124 52t46 135v989h324v-997q0 -132 -62 -242.5t-175.5 -177t-254.5 -66.5q-216 0 -350.5 132t-134.5 348z" />
    <glyph glyph-name="K" unicode="K" horiz-adv-x="1460" 
d="M1036 0l-391 571l-164 -182v-389h-323v1452h323v-610l531 610h426l-566 -629l568 -823h-404z" />
    <glyph glyph-name="L" unicode="L" horiz-adv-x="1159" 
d="M1108 0h-950v1452h323v-1143h627v-309z" />
    <glyph glyph-name="M" unicode="M" horiz-adv-x="1959" 
d="M1802 0h-317v963l-379 -963h-262l-379 950v-950h-307v1452h422l399 -981l379 981h444v-1452z" />
    <glyph glyph-name="N" unicode="N" horiz-adv-x="1574" 
d="M1419 0h-342l-598 954v-954h-321v1452h393l545 -883v883h323v-1452z" />
    <glyph glyph-name="O" unicode="O" horiz-adv-x="1656" 
d="M410 727q0 -109 36.5 -195.5t97.5 -138t133.5 -78t151.5 -26.5q78 0 150.5 26.5t133.5 78t97.5 138t36.5 195.5q0 88 -24 162t-65 124.5t-95 85.5t-113 51.5t-121 16.5q-79 0 -151.5 -27t-133.5 -78.5t-97.5 -138.5t-36.5 -196zM74 725q0 169 60.5 312.5t163.5 240
t240.5 151t290.5 54.5t290 -54.5t240 -151t163.5 -240t60.5 -312.5q0 -168 -60.5 -311t-163.5 -239.5t-240 -151t-290 -54.5t-290.5 54.5t-240.5 151t-163.5 239.5t-60.5 311z" />
    <glyph glyph-name="P" unicode="P" horiz-adv-x="1255" 
d="M483 801h189q93 0 150 50t57 134q0 87 -56.5 136.5t-150.5 49.5h-189v-370zM705 522h-224v-522h-323v1452h547q220 0 358.5 -130.5t138.5 -334.5q0 -206 -138 -335.5t-359 -129.5z" />
    <glyph glyph-name="Q" unicode="Q" horiz-adv-x="1656" 
d="M74 725q0 169 60.5 312.5t163.5 240t240.5 151t290.5 54.5t290 -54.5t240 -151t163.5 -240t60.5 -312.5q0 -282 -164 -483l178 -195l-213 -180l-178 196q-171 -94 -377 -94q-153 0 -290.5 54.5t-240.5 151t-163.5 239.5t-60.5 311zM410 727q0 -109 36.5 -195.5t97.5 -138
t133.5 -78t151.5 -26.5q75 0 148 24l-213 234l215 180l213 -233q55 99 55 233q0 88 -24 162t-65 124.5t-95 85.5t-113 51.5t-121 16.5q-79 0 -151.5 -27t-133.5 -78.5t-97.5 -138.5t-36.5 -196z" />
    <glyph glyph-name="R" unicode="R" horiz-adv-x="1286" 
d="M856 0l-260 541h-115v-541h-323v1452h575q212 0 341.5 -129t129.5 -326q0 -147 -76 -254t-210 -155l294 -588h-356zM481 819h191q97 0 151 48.5t54 127.5q0 83 -53 129.5t-152 46.5h-191v-352z" />
    <glyph glyph-name="S" unicode="S" horiz-adv-x="1247" 
d="M1157 1096l-291 -82q-4 29 -17.5 57.5t-40 58t-74 48t-109.5 18.5q-88 0 -143.5 -46.5t-55.5 -109.5q0 -113 143 -139l195 -37q201 -37 310.5 -156t109.5 -280q0 -86 -36 -167.5t-102 -147t-170 -105t-229 -39.5q-116 0 -213.5 29t-163.5 75.5t-114 108.5t-72.5 125
t-30.5 127l297 72q10 -109 85 -179.5t216 -70.5q94 0 149.5 42t55.5 110q0 55 -41.5 93t-114.5 52l-198 37q-184 35 -290 149.5t-106 276.5q0 133 72 241t191 167t258 59q104 0 190.5 -24.5t144 -62.5t99.5 -90.5t64 -103.5t32 -106z" />
    <glyph glyph-name="T" unicode="T" horiz-adv-x="1296" 
d="M1257 1143h-448v-1143h-324v1143h-446v309h1218v-309z" />
    <glyph glyph-name="U" unicode="U" horiz-adv-x="1441" 
d="M721 -33q-121 0 -225 36.5t-182.5 105t-123.5 175.5t-45 240v928h324v-901q0 -129 67 -196.5t185 -67.5t185 67.5t67 196.5v901h323v-928q0 -177 -78 -305t-206.5 -190t-290.5 -62z" />
    <glyph glyph-name="V" unicode="V" horiz-adv-x="1437" 
d="M727 430l346 1022h344l-530 -1452h-334l-533 1452h357z" />
    <glyph glyph-name="W" unicode="W" horiz-adv-x="2127" 
d="M1540 520l236 932h331l-395 -1452h-334l-309 963l-311 -963h-340l-395 1452h344l239 -930l301 930h332z" />
    <glyph glyph-name="X" unicode="X" horiz-adv-x="1423" 
d="M1380 1452l-467 -729l471 -723h-393l-286 471l-285 -471h-381l469 727l-469 725h389l287 -471l286 471h379z" />
    <glyph glyph-name="Y" unicode="Y" horiz-adv-x="1378" 
d="M524 606l-504 846h379l297 -539l301 539h361l-510 -846v-606h-324v606z" />
    <glyph glyph-name="Z" unicode="Z" horiz-adv-x="1318" 
d="M1227 0h-1153v311l700 832h-670v309h1115v-299l-717 -844h725v-309z" />
    <glyph glyph-name="bracketleft" unicode="[" horiz-adv-x="677" 
d="M668 -350h-510v2036h510v-234h-252v-1565h252v-237z" />
    <glyph glyph-name="backslash" unicode="\" horiz-adv-x="1017" 
d="M737 -29l-737 1510h283l735 -1510h-281z" />
    <glyph glyph-name="bracketright" unicode="]" horiz-adv-x="677" 
d="M522 -350h-512v237h254v1565h-254v234h512v-2036z" />
    <glyph glyph-name="asciicircum" unicode="^" horiz-adv-x="1095" 
d="M1071 717h-283l-237 444l-240 -444h-286l407 735h230z" />
    <glyph glyph-name="underscore" unicode="_" horiz-adv-x="1050" 
d="M1049 -254h-1045v254h1045v-254z" />
    <glyph glyph-name="grave" unicode="`" horiz-adv-x="630" 
d="M334 1139l-291 309h354l191 -309h-254z" />
    <glyph glyph-name="a" unicode="a" horiz-adv-x="1118" 
d="M76 281q0 129 84 208t217 99l239 37q74 11 74 69q0 47 -39.5 79t-109.5 32q-77 0 -123 -44t-51 -106l-271 56q5 57 34 114.5t81 108.5t138.5 83t193.5 32q120 0 209 -31.5t140.5 -87.5t76 -124.5t24.5 -150.5v-497q0 -93 13 -158h-281q-10 40 -10 115
q-41 -67 -115 -105.5t-172 -38.5q-161 0 -256.5 91t-95.5 219zM504 197q80 0 133 46.5t53 155.5v45l-192 -30q-115 -17 -115 -113q0 -44 30.5 -74t90.5 -30z" />
    <glyph glyph-name="b" unicode="b" horiz-adv-x="1273" 
d="M438 0h-301v1483h305v-561q34 50 114.5 85t180.5 35q217 0 345 -148.5t128 -381.5q0 -234 -136 -384.5t-349 -150.5q-98 0 -174 38.5t-113 99.5v-115zM899 510q0 122 -66 187t-163 65q-98 0 -165 -65t-67 -187q0 -120 67.5 -187t164.5 -67t163 66.5t66 187.5z" />
    <glyph glyph-name="c" unicode="c" horiz-adv-x="1148" 
d="M606 762q-101 0 -167 -67.5t-66 -186.5q0 -117 68 -184.5t169 -67.5q84 0 138 44t73 108l275 -84q-17 -69 -57 -131t-100 -113t-145.5 -81t-183.5 -30q-150 0 -275 68.5t-198.5 192.5t-73.5 278q0 155 71.5 279.5t194.5 193t271 68.5q102 0 188 -29.5t146 -80t99.5 -113
t56.5 -132.5l-279 -84q-19 66 -70 109t-135 43z" />
    <glyph glyph-name="d" unicode="d" horiz-adv-x="1282" 
d="M1139 1483v-1301q0 -90 8 -182h-299q-8 48 -8 98q-36 -54 -109.5 -87.5t-163.5 -33.5q-217 0 -360.5 151t-143.5 384q0 228 139 379t355 151q116 0 182.5 -32t91.5 -72v545h308zM377 510q0 -120 66.5 -187t162.5 -67q97 0 163.5 67t66.5 187q0 121 -66.5 186.5
t-163.5 65.5t-163 -65.5t-66 -186.5z" />
    <glyph glyph-name="e" unicode="e" horiz-adv-x="1144" 
d="M373 631h407q-4 69 -54 120.5t-151 51.5q-91 0 -144 -53.5t-58 -118.5zM803 367l260 -74q-39 -140 -161.5 -232t-307.5 -92q-106 0 -201.5 37.5t-169 105.5t-117 171.5t-43.5 228.5q0 158 72.5 283t187.5 189.5t248 64.5q237 0 373.5 -139t136.5 -384q0 -78 -6 -96h-708
q4 -85 71.5 -141t159.5 -56q156 0 205 134z" />
    <glyph glyph-name="f" unicode="f" horiz-adv-x="743" 
d="M717 756h-221v-756h-312v756h-161v262h161v88q0 178 103 285.5t286 107.5q102 0 148 -22v-254q-40 10 -92 10q-32 0 -59.5 -9.5t-50.5 -42t-23 -85.5v-78h221v-262z" />
    <glyph glyph-name="g" unicode="g" horiz-adv-x="1243" 
d="M66 -57l274 77q15 -75 74 -122.5t145 -47.5q252 0 252 261v47q-32 -48 -101.5 -81.5t-170.5 -33.5q-202 0 -337.5 142t-135.5 354q0 134 59 247t168.5 181.5t245.5 68.5q112 0 183.5 -39t98.5 -88v109h297v-891q0 -113 -32.5 -209.5t-96.5 -173t-171 -120.5t-245 -44
q-106 0 -198 31t-155 82.5t-103 116t-51 133.5zM596 313q96 0 156.5 61.5t60.5 164.5q0 101 -63 163t-154 62t-155 -62t-64 -163q0 -103 61.5 -164.5t157.5 -61.5z" />
    <glyph glyph-name="h" unicode="h" horiz-adv-x="1218" 
d="M449 598v-598h-312v1483h312v-531q45 45 116.5 68.5t143.5 23.5q190 0 287.5 -113.5t97.5 -291.5v-639h-312v586q0 79 -42.5 127.5t-123.5 48.5q-72 0 -117 -46t-50 -118z" />
    <glyph glyph-name="i" unicode="i" horiz-adv-x="583" 
d="M449 0h-312v1018h312v-1018zM111 1329q0 75 53 128.5t127 53.5q76 0 130 -53.5t54 -128.5t-54 -128.5t-130 -53.5q-74 0 -127 53.5t-53 128.5z" />
    <glyph glyph-name="j" unicode="j" horiz-adv-x="585" 
d="M137 -41v1059h312v-1092q0 -155 -91 -250.5t-245 -95.5q-104 0 -172 29v258q42 -12 92 -12q52 0 78 27.5t26 76.5zM111 1329q0 76 53 129t127 53q77 0 130.5 -53t53.5 -129q0 -75 -54 -128.5t-130 -53.5q-74 0 -127 53.5t-53 128.5z" />
    <glyph glyph-name="k" unicode="k" horiz-adv-x="1179" 
d="M1161 1018l-397 -428l405 -590h-381l-239 358l-100 -108v-250h-312v1483h312v-807l309 342h403z" />
    <glyph glyph-name="l" unicode="l" horiz-adv-x="585" 
d="M449 0h-312v1483h312v-1483z" />
    <glyph glyph-name="m" unicode="m" horiz-adv-x="1845" 
d="M449 0h-312v1018h297v-117q37 66 122 107t171 41q107 0 184.5 -42t116.5 -118q59 85 134.5 122.5t180.5 37.5q75 0 141 -22.5t119.5 -68t85 -122.5t31.5 -177v-659h-301v590q0 76 -41 124t-121 48q-79 0 -124.5 -51t-45.5 -123v-588h-307v590q0 76 -41.5 124t-122.5 48
q-78 0 -122.5 -51.5t-44.5 -124.5v-586z" />
    <glyph glyph-name="n" unicode="n" horiz-adv-x="1218" 
d="M449 584v-584h-312v1018h301v-117q39 68 120 105.5t165 37.5q93 0 165.5 -31.5t116.5 -87.5t66.5 -128.5t22.5 -157.5v-639h-312v586q0 79 -42.5 127.5t-123.5 48.5q-75 0 -121 -50t-46 -128z" />
    <glyph glyph-name="o" unicode="o" horiz-adv-x="1208" 
d="M604 256q96 0 163 66t67 188t-67 187t-163 65q-95 0 -162 -65t-67 -187q0 -121 67 -187.5t162 -66.5zM604 1049q231 0 386 -152.5t155 -386.5q0 -155 -71.5 -279t-195 -193t-274.5 -69q-229 0 -385 153.5t-156 387.5q0 154 72 278t195.5 192.5t273.5 68.5z" />
    <glyph glyph-name="p" unicode="p" horiz-adv-x="1273" 
d="M449 -389h-312v1407h301v-105q35 53 115.5 91t183.5 38q217 0 345 -148.5t128 -381.5q0 -234 -136 -384.5t-349 -150.5q-94 0 -166.5 29t-109.5 74v-469zM905 510q0 121 -66.5 186.5t-164.5 65.5q-97 0 -163.5 -65.5t-66.5 -186.5q0 -120 66.5 -187t163.5 -67
q98 0 164.5 66t66.5 188z" />
    <glyph glyph-name="q" unicode="q" horiz-adv-x="1273" 
d="M1139 -389h-305v471q-35 -48 -104.5 -76.5t-162.5 -28.5q-219 0 -361.5 151t-142.5 384q0 150 62 271t174.5 190t255.5 69q119 0 191 -39.5t96 -84.5v100h297v-1407zM379 510q0 -120 66.5 -187t162.5 -67q97 0 163.5 66.5t66.5 187.5t-66.5 186.5t-163.5 65.5t-163 -65.5
t-66 -186.5z" />
    <glyph glyph-name="r" unicode="r" horiz-adv-x="825" 
d="M784 1018v-307q-44 10 -98 10q-103 0 -170 -67t-67 -210v-444h-312v1018h301v-137q19 41 51.5 71t70.5 46t73 23t69 7q49 0 82 -10z" />
    <glyph glyph-name="s" unicode="s" horiz-adv-x="954" 
d="M53 289l264 47q3 -57 44 -97t116 -40q57 0 88 26t31 62q0 63 -100 84l-117 26q-155 34 -229 117t-74 197q0 141 111.5 239.5t279.5 98.5q85 0 154.5 -20.5t114 -52t75.5 -73t45.5 -81t17.5 -77.5l-258 -47q-7 55 -42.5 90t-102.5 35q-46 0 -78.5 -24.5t-32.5 -63.5
q0 -31 22 -50.5t58 -25.5l135 -26q153 -31 233.5 -117t80.5 -203q0 -67 -26 -127.5t-74.5 -109.5t-128 -78t-177.5 -29q-91 0 -166 22.5t-121.5 57t-79 79t-46.5 84.5t-17 77z" />
    <glyph glyph-name="t" unicode="t" horiz-adv-x="782" 
d="M510 1315v-297h199v-273h-199v-380q0 -59 29 -83t84 -24q37 0 82 10v-258q-56 -28 -162 -28q-158 0 -249 87.5t-91 239.5v436h-180v273h51q77 0 117 46t40 120v131h279z" />
    <glyph glyph-name="u" unicode="u" horiz-adv-x="1220" 
d="M795 0q-9 40 -9 102q-37 -62 -112.5 -93.5t-159.5 -31.5q-120 0 -209.5 54.5t-133.5 144t-44 199.5v643h311v-578q0 -77 42 -126.5t122 -49.5q77 0 123.5 48.5t46.5 125.5v580h311v-836q0 -94 11 -182h-299z" />
    <glyph glyph-name="v" unicode="v" horiz-adv-x="1159" 
d="M1139 1018l-387 -1018h-314l-418 1018h338l236 -633l217 633h328z" />
    <glyph glyph-name="w" unicode="w" horiz-adv-x="1742" 
d="M717 1018h330l198 -604l170 604h305l-315 -1018h-309l-222 657l-217 -657h-315l-319 1018h323l170 -602z" />
    <glyph glyph-name="x" unicode="x" horiz-adv-x="1130" 
d="M29 0l350 508l-356 510h366l182 -279l179 279h348l-353 -498q344 -490 365 -520h-365l-188 287q-31 -47 -99 -152.5t-87 -134.5h-342z" />
    <glyph glyph-name="y" unicode="y" horiz-adv-x="1183" 
d="M537 -391h-328l231 528l-428 881h348l248 -545l226 545h329z" />
    <glyph glyph-name="z" unicode="z" horiz-adv-x="1001" 
d="M928 0h-854v274l448 478h-436v266h834v-256l-469 -494h477v-268z" />
    <glyph glyph-name="braceleft" unicode="{" horiz-adv-x="788" 
d="M92 551v254q197 0 197 180v297q0 200 108.5 302t298.5 102h82v-234h-76q-66 0 -110.5 -39t-44.5 -127v-348q0 -94 -52.5 -162.5t-150.5 -97.5q97 -29 150 -98t53 -164v-348q0 -88 45 -128t110 -40h76v-232h-82q-190 0 -298.5 101t-108.5 301v299q0 94 -53 138t-144 44z
" />
    <glyph glyph-name="bar" unicode="|" horiz-adv-x="571" 
d="M416 -332h-258v2018h258v-2018z" />
    <glyph glyph-name="braceright" unicode="}" horiz-adv-x="788" 
d="M696 805v-254q-194 0 -194 -182v-299q0 -200 -109 -301t-301 -101h-82v232h76q66 0 112 40t46 128v348q0 96 52 164.5t148 97.5q-97 29 -148.5 97t-51.5 163v348q0 87 -46 126.5t-112 39.5h-76v234h82q192 0 301 -102t109 -302v-297q0 -180 194 -180z" />
    <glyph glyph-name="asciitilde" unicode="~" horiz-adv-x="1206" 
d="M584 471l-97 53q-49 27 -100 27q-107 0 -174 -102l-168 133q57 108 149 166.5t203 58.5q115 0 224 -59l98 -54q54 -28 104 -28q107 0 174 102l164 -133q-57 -108 -148.5 -166.5t-201.5 -58.5q-114 0 -227 61z" />
    <glyph glyph-name="uni00A0" unicode="&#xa0;" horiz-adv-x="503" 
 />
    <glyph glyph-name="exclamdown" unicode="&#xa1;" horiz-adv-x="645" 
d="M436 575l72 -997h-373l72 997h229zM145 872q0 74 51.5 125.5t125.5 51.5t126 -52t52 -125q0 -72 -52.5 -124t-125.5 -52t-125 52t-52 124z" />
    <glyph glyph-name="cent" unicode="&#xa2;" horiz-adv-x="1132" 
d="M698 0h-235v172q-171 41 -279 171t-108 310q0 183 108 315t279 171v190h235v-186q142 -26 233.5 -114.5t121.5 -203.5l-265 -77q-20 62 -67.5 101.5t-128.5 39.5q-95 0 -158 -63t-63 -173q0 -107 64.5 -169t160.5 -62q82 0 133 40t68 99l262 -76q-30 -114 -124.5 -203.5
t-236.5 -115.5v-166z" />
    <glyph glyph-name="sterling" unicode="&#xa3;" horiz-adv-x="1212" 
d="M121 784h117q-27 83 -27 172q0 76 30.5 148t86.5 129.5t143 92t191 34.5q94 0 170 -25t124.5 -65t81.5 -93t47 -105.5t15 -106.5l-271 -39q-2 84 -43.5 132t-119.5 48q-66 0 -112 -41.5t-46 -118.5q0 -69 35 -162h360v-225h-289q2 -12 2 -37q0 -172 -127 -256h269
q65 0 108 42t43 110l271 -17q0 -175 -106 -288t-275 -113h-684v242q100 35 156.5 98.5t56.5 151.5q0 15 -9 67h-198v225z" />
    <glyph glyph-name="currency" unicode="&#xa4;" horiz-adv-x="1206" 
d="M158 508q0 113 51 207l-146 147l187 185l151 -152q92 47 203 47q118 0 201 -47l151 152l187 -185l-146 -147q54 -90 54 -207q0 -109 -54 -209l146 -143l-187 -187l-149 152q-92 -47 -203 -47t-203 47l-151 -152l-187 187l148 145q-53 88 -53 207zM414 508q0 -82 53 -134
t137 -52q85 0 138 52t53 134t-53 134t-138 52q-84 0 -137 -52t-53 -134z" />
    <glyph glyph-name="yen" unicode="&#xa5;" horiz-adv-x="1292" 
d="M1165 256h-372v-256h-299v256h-353v217h353v129h-353v217h201l-299 510h346l264 -483l265 483h331l-305 -510h221v-217h-372v-129h372v-217z" />
    <glyph glyph-name="brokenbar" unicode="&#xa6;" horiz-adv-x="571" 
d="M158 1686h258v-816h-258v816zM158 481h258v-815h-258v815z" />
    <glyph glyph-name="section" unicode="&#xa7;" horiz-adv-x="1136" 
d="M1012 526q0 -166 -150 -258q148 -115 148 -286q0 -90 -38 -167t-100 -128.5t-141.5 -80t-163.5 -28.5q-199 0 -319 105t-129 280l293 45q0 -84 42.5 -124t112.5 -40q58 0 93.5 33t35.5 84q0 32 -19.5 61t-53.5 44l-207 104q-65 33 -111.5 64t-90.5 74.5t-66.5 99.5
t-22.5 124q0 174 149 259q-145 115 -145 290q0 119 64 212.5t164 141.5t214 48q198 0 318.5 -106t128.5 -279l-293 -45q0 86 -42 125t-112 39q-59 0 -95 -33.5t-36 -83.5q0 -32 20 -60t54 -43l207 -106q67 -35 112 -65t89.5 -74t67 -100.5t22.5 -125.5zM664 578l-209 110
q-49 -46 -49 -92q0 -40 14.5 -66t52.5 -47l209 -110q51 47 51 92q0 75 -69 113z" />
    <glyph glyph-name="dieresis" unicode="&#xa8;" horiz-adv-x="856" 
d="M45 1294q0 66 45 112t111 46t111.5 -46t45.5 -112t-45.5 -110.5t-111.5 -44.5t-111 44.5t-45 110.5zM498 1294q0 66 44.5 112t110.5 46t112 -46t46 -112t-46 -110.5t-112 -44.5t-110.5 44.5t-44.5 110.5z" />
    <glyph glyph-name="copyright" unicode="&#xa9;" horiz-adv-x="1665" 
d="M256 725q0 -122 44.5 -231t120.5 -188t183 -125t227 -46q160 0 293 78t209 213.5t76 298.5t-76 299t-209 214.5t-293 78.5q-120 0 -227 -46.5t-183 -125.5t-120.5 -188.5t-44.5 -231.5zM74 725q0 154 60 294.5t161.5 242.5t241.5 162.5t294 60.5t294.5 -60.5
t242.5 -162.5t162.5 -242.5t60.5 -294.5t-60.5 -294.5t-162.5 -242t-242.5 -161.5t-294.5 -60t-294 60t-241.5 161.5t-161.5 242t-60 294.5zM842 905q-74 0 -122 -49t-48 -137q0 -86 49.5 -135t124.5 -49q61 0 100.5 32t52.5 78l203 -61q-29 -108 -122.5 -184t-233.5 -76
q-169 0 -285.5 112t-116.5 283q0 173 114 285t280 112q146 0 238.5 -75.5t119.5 -184.5l-203 -61q-13 48 -50.5 79t-100.5 31z" />
    <glyph glyph-name="ordfeminine" unicode="&#xaa;" horiz-adv-x="864" 
d="M102 813q0 89 60 145t153 70l166 25q51 8 51 49q0 31 -26.5 51.5t-73.5 20.5q-52 0 -84 -30.5t-35 -70.5l-196 41q3 30 15.5 61.5t38 63.5t60.5 57t88 40.5t115 15.5q164 0 242 -79t78 -200v-348q0 -55 8 -111h-205q-6 30 -6 78q-63 -98 -199 -98q-114 0 -182 64t-68 155
zM410 756q51 0 86.5 32t35.5 105v31l-126 -21q-78 -10 -78 -76q0 -31 20 -51t62 -20z" />
    <glyph glyph-name="guillemotleft" unicode="&#xab;" horiz-adv-x="1126" 
d="M627 209h-291l-283 399l287 410h289l-285 -412zM1094 209h-293l-283 399l287 410h291l-285 -412z" />
    <glyph glyph-name="logicalnot" unicode="&#xac;" horiz-adv-x="1226" 
d="M1122 264h-266v400h-764v256h1030v-656z" />
    <glyph glyph-name="uni00AD" unicode="&#xad;" horiz-adv-x="798" 
d="M707 477h-615v281h615v-281z" />
    <glyph glyph-name="registered" unicode="&#xae;" horiz-adv-x="1665" 
d="M74 725q0 154 60 294.5t161.5 242.5t241.5 162.5t294 60.5t294.5 -60.5t242.5 -162.5t162.5 -242.5t60.5 -294.5t-60.5 -294.5t-162.5 -242t-242.5 -161.5t-294.5 -60t-294 60t-241.5 161.5t-161.5 242t-60 294.5zM256 725q0 -122 44.5 -231t120.5 -188t183 -125t227 -46
q160 0 293 78t209 213.5t76 298.5t-76 299t-209 214.5t-293 78.5q-120 0 -227 -46.5t-183 -125.5t-120.5 -188.5t-44.5 -231.5zM948 322l-125 274h-61v-274h-213v815h342q118 0 199 -78t81 -191q0 -77 -39.5 -139.5t-105.5 -95.5l156 -311h-234zM762 768h88q49 0 77.5 26.5
t28.5 71.5q0 46 -28.5 72.5t-77.5 26.5h-88v-197z" />
    <glyph glyph-name="macron" unicode="&#xaf;" horiz-adv-x="675" 
d="M631 1182h-586v215h586v-215z" />
    <glyph glyph-name="degree" unicode="&#xb0;" horiz-adv-x="765" 
d="M258 1020q0 -61 35 -98t90 -37q54 0 88.5 37.5t34.5 97.5q0 58 -34.5 94.5t-88.5 36.5t-89.5 -36.5t-35.5 -94.5zM37 1020q0 142 102 241t244 99t244 -99t102 -241q0 -146 -101.5 -243t-246.5 -97q-143 0 -243.5 99t-100.5 241z" />
    <glyph glyph-name="plusminus" unicode="&#xb1;" horiz-adv-x="1239" 
d="M125 897h362v240h263v-240h364v-254h-364v-237h-263v237h-362v254zM125 336h989v-254h-989v254z" />
    <glyph glyph-name="twosuperior" unicode="&#xb2;" horiz-adv-x="811" 
d="M315 1153h-204q-9 36 -9 55q0 111 80 186.5t226 75.5q140 0 221.5 -73.5t81.5 -182.5q0 -134 -172 -233l-138 -80q-10 -7 -10 -10h326v-195h-619v27q0 111 43 193t144 139l123 69q73 42 73 93q0 25 -19.5 47t-60.5 22q-44 0 -68 -28t-24 -70q0 -23 6 -35z" />
    <glyph glyph-name="threesuperior" unicode="&#xb3;" horiz-adv-x="841" 
d="M96 926l211 37q2 -40 31.5 -67.5t75.5 -27.5q43 0 69.5 21.5t26.5 54.5q0 40 -27 61t-67 21q-33 0 -60 -12l-71 153l161 97h-323v188h596v-190l-174 -105q96 -15 148 -72.5t52 -146.5q0 -107 -90.5 -183.5t-240.5 -76.5q-136 0 -223 74t-95 174z" />
    <glyph glyph-name="acute" unicode="&#xb4;" horiz-adv-x="626" 
d="M582 1448l-289 -309h-248l188 309h349z" />
    <glyph glyph-name="mu" unicode="&#xb5;" horiz-adv-x="1241" 
d="M807 0q-8 36 -8 102q-37 -62 -113 -93.5t-160 -31.5q-31 0 -75 7v-373h-312v1407h312v-578q0 -78 41.5 -127t121.5 -49q77 0 123.5 48.5t46.5 125.5v580h312v-836q0 -92 10 -182h-299z" />
    <glyph glyph-name="paragraph" unicode="&#xb6;" horiz-adv-x="1404" 
d="M743 1223v-1614h-235v987h-37q-114 0 -212 55t-156 152t-58 213q0 137 69 237.5t180.5 149.5t248.5 49h839v-229h-198v-1614h-240v1614h-201z" />
    <glyph glyph-name="periodcentered" unicode="&#xb7;" horiz-adv-x="600" 
d="M117 659q0 78 56 132.5t136 54.5t136.5 -54.5t56.5 -132.5q0 -81 -56 -134.5t-137 -53.5q-80 0 -136 53.5t-56 134.5z" />
    <glyph glyph-name="cedilla" unicode="&#xb8;" horiz-adv-x="612" 
d="M246 -229l-76 100l98 154h185l-82 -125q90 -3 144 -53.5t54 -127.5q0 -37 -14.5 -70.5t-45 -63.5t-85 -48t-127.5 -18q-82 0 -152 35t-102 77l96 121q78 -78 156 -78t78 54q0 21 -19.5 36t-52.5 15q-34 0 -55 -8z" />
    <glyph glyph-name="onesuperior" unicode="&#xb9;" horiz-adv-x="628" 
d="M494 698h-236v435h-192v151q97 0 152.5 51.5t68.5 116.5h207v-754z" />
    <glyph glyph-name="ordmasculine" unicode="&#xba;" horiz-adv-x="987" 
d="M494 803q65 0 110 43.5t45 126.5t-45 126.5t-110 43.5q-64 0 -109 -43.5t-45 -126.5q0 -81 45.5 -125.5t108.5 -44.5zM494 1352q161 0 270.5 -107.5t109.5 -271.5q0 -165 -109 -272t-271 -107t-271.5 107t-109.5 272q0 164 110 271.5t271 107.5z" />
    <glyph glyph-name="guillemotright" unicode="&#xbb;" horiz-adv-x="1126" 
d="M791 209h-291l282 397l-284 412h290l287 -410zM326 209h-293l284 397l-284 412h289l286 -410z" />
    <glyph glyph-name="onequarter" unicode="&#xbc;" horiz-adv-x="1683" 
d="M514 575h-235v435h-193v151q97 0 152.5 51.5t68.5 116.5h207v-754zM903 145v230l336 381h248v-437h121v-174h-121v-145h-227v145h-357zM1260 319v209l-187 -209h187zM477 0h-262l930 1329h264z" />
    <glyph glyph-name="onehalf" unicode="&#xbd;" horiz-adv-x="1738" 
d="M514 575h-235v435h-193v151q97 0 152.5 51.5t68.5 116.5h207v-754zM475 0h-262l930 1329h264zM1245 457h-205q-8 32 -8 55q0 111 79.5 186.5t225.5 75.5q140 0 221.5 -73.5t81.5 -182.5q0 -134 -172 -233l-137 -80q-10 -7 -10 -10h326v-195h-619v27q0 111 42.5 192.5
t143.5 138.5l123 70q74 43 74 92q0 26 -19.5 48t-60.5 22q-44 0 -68 -28t-24 -70q0 -23 6 -35z" />
    <glyph glyph-name="threequarters" unicode="&#xbe;" horiz-adv-x="1845" 
d="M96 803l211 37q2 -40 31.5 -67.5t75.5 -27.5q43 0 69.5 21.5t26.5 54.5q0 40 -27 61t-67 21q-33 0 -60 -12l-71 153l161 97h-323v188h596v-190l-174 -105q96 -15 148 -72.5t52 -146.5q0 -107 -90.5 -183.5t-240.5 -76.5q-136 0 -223 74t-95 174zM1065 145v230l336 381
h248v-437h120v-174h-120v-145h-228v145h-356zM1421 319v209l-186 -209h186zM643 0h-262l930 1329h264z" />
    <glyph glyph-name="questiondown" unicode="&#xbf;" horiz-adv-x="1021" 
d="M416 578h243q9 -65 9 -91q0 -174 -152 -288l-102 -78q-76 -59 -76 -144q0 -64 47 -108.5t135 -44.5q90 0 139.5 55.5t49.5 136.5q0 32 -11 78l293 -24q8 -39 8 -88q0 -188 -134.5 -311.5t-344.5 -123.5q-121 0 -218 34.5t-156.5 92t-91 129t-31.5 150.5q0 222 194 369
l78 57q60 45 90.5 91t30.5 108zM358 874q0 73 52.5 125t124.5 52q73 0 124.5 -51.5t51.5 -125.5q0 -72 -51.5 -124t-124.5 -52q-72 0 -124.5 52t-52.5 124z" />
    <glyph glyph-name="Agrave" unicode="&#xc0;" horiz-adv-x="1503" 
d="M1130 0l-104 295h-561l-105 -295h-340l547 1452h375l541 -1452h-353zM750 1092l-179 -502h353zM643 1554l-307 271h371l213 -271h-277z" />
    <glyph glyph-name="Aacute" unicode="&#xc1;" horiz-adv-x="1503" 
d="M1130 0l-104 295h-561l-105 -295h-340l547 1452h375l541 -1452h-353zM750 1092l-179 -502h353zM1180 1825l-308 -271h-276l213 271h371z" />
    <glyph glyph-name="Acircumflex" unicode="&#xc2;" horiz-adv-x="1503" 
d="M1130 0l-104 295h-561l-105 -295h-340l547 1452h375l541 -1452h-353zM750 1092l-179 -502h353zM625 1554h-277l250 271h297l254 -271h-289l-119 134z" />
    <glyph glyph-name="Atilde" unicode="&#xc3;" horiz-adv-x="1503" 
d="M1130 0l-104 295h-561l-105 -295h-340l547 1452h375l541 -1452h-353zM750 1092l-179 -502h353zM1096 1833v-70q0 -107 -61.5 -166t-151.5 -59q-77 0 -162 51l-10 6q-66 41 -97 41q-22 0 -37.5 -15t-15.5 -44v-27h-178v68q0 107 61 164t150 57q80 0 162 -49q5 -3 17 -9.5
t17 -9.5t15 -8t15.5 -7.5t13.5 -5.5t15 -4t13 -1q25 0 40.5 15t15.5 44v29h178z" />
    <glyph glyph-name="Adieresis" unicode="&#xc4;" horiz-adv-x="1503" 
d="M246 1688q0 69 46 116t114 47q69 0 116 -47t47 -116q0 -67 -47 -112.5t-116 -45.5q-68 0 -114 45.5t-46 112.5zM928 1688q0 69 45 116t114 47q68 0 115 -47t47 -116q0 -67 -47 -112.5t-115 -45.5q-69 0 -114 45t-45 113zM1130 0l-104 295h-561l-105 -295h-340l547 1452
h375l541 -1452h-353zM750 1092l-179 -502h353z" />
    <glyph glyph-name="Aring" unicode="&#xc5;" horiz-adv-x="1503" 
d="M846 1550q0 46 -28 73.5t-68 27.5q-43 0 -72 -27.5t-29 -73.5t29 -72t72 -26q40 0 68 26.5t28 71.5zM750 1087l-179 -497h353zM1130 0l-104 295h-561l-105 -295h-340l512 1360q-75 78 -75 190q0 122 86.5 202.5t204.5 80.5t204 -80.5t86 -202.5q0 -105 -65 -180
l510 -1370h-353z" />
    <glyph glyph-name="AE" unicode="&#xc6;" horiz-adv-x="2203" 
d="M2091 0h-924v313h-561l-198 -313h-388l959 1452h1110v-305h-598v-277h543v-284h-543v-279h600v-307zM776 578h391v612z" />
    <glyph glyph-name="Ccedilla" unicode="&#xc7;" horiz-adv-x="1581" 
d="M756 -229l-76 100l65 102q-142 14 -265 74t-213 155.5t-141.5 230t-51.5 290.5q0 133 38.5 252.5t108.5 211t163 159t205.5 102.5t233.5 35q125 0 232.5 -31t181 -80.5t129.5 -116t87 -131t46 -131.5l-305 -96q-8 34 -22.5 67t-44.5 71t-69 66t-100.5 47t-134.5 19
q-60 0 -118 -16.5t-111.5 -52.5t-94 -87t-65 -125.5t-24.5 -162.5q0 -131 59.5 -231t153.5 -149.5t204 -49.5q72 0 133.5 18.5t101.5 47t71.5 66.5t48 71.5t26.5 68.5l310 -88q-14 -59 -41 -119t-76.5 -125t-113 -117t-156.5 -90.5t-201 -50.5l-49 -75q90 -3 144 -53.5
t54 -127.5q0 -37 -14.5 -70.5t-45 -63.5t-85 -48t-127.5 -18q-82 0 -152 35t-102 77l96 121q78 -78 156 -78t78 54q0 21 -19.5 36t-52.5 15q-34 0 -55 -8z" />
    <glyph glyph-name="Egrave" unicode="&#xc8;" horiz-adv-x="1193" 
d="M547 1554l-307 271h370l213 -271h-276zM1079 0h-921v1452h919v-305h-596v-277h541v-284h-541v-279h598v-307z" />
    <glyph glyph-name="Eacute" unicode="&#xc9;" horiz-adv-x="1193" 
d="M1001 1825l-307 -271h-276l213 271h370zM1079 0h-921v1452h919v-305h-596v-277h541v-284h-541v-279h598v-307z" />
    <glyph glyph-name="Ecircumflex" unicode="&#xca;" horiz-adv-x="1193" 
d="M489 1554h-276l250 271h297l254 -271h-289l-119 134zM1079 0h-921v1452h919v-305h-596v-277h541v-284h-541v-279h598v-307z" />
    <glyph glyph-name="Edieresis" unicode="&#xcb;" horiz-adv-x="1193" 
d="M233 1688q0 69 46 116t114 47q69 0 116.5 -47t47.5 -116q0 -67 -47.5 -112.5t-116.5 -45.5q-68 0 -114 45.5t-46 112.5zM676 1688q0 69 46 116t114 47q69 0 116 -47t47 -116q0 -67 -47 -112.5t-116 -45.5q-68 0 -114 45.5t-46 112.5zM1079 0h-921v1452h919v-305h-596
v-277h541v-284h-541v-279h598v-307z" />
    <glyph glyph-name="Igrave" unicode="&#xcc;" horiz-adv-x="641" 
d="M485 0h-327v1452h327v-1452zM205 1554l-307 271h370l213 -271h-276z" />
    <glyph glyph-name="Iacute" unicode="&#xcd;" horiz-adv-x="641" 
d="M485 0h-327v1452h327v-1452zM743 1825l-307 -271h-276l213 271h370z" />
    <glyph glyph-name="Icircumflex" unicode="&#xce;" horiz-adv-x="641" 
d="M485 0h-327v1452h327v-1452zM201 1554h-277l250 271h297l254 -271h-289l-119 134z" />
    <glyph glyph-name="Idieresis" unicode="&#xcf;" horiz-adv-x="641" 
d="M-49 1688q0 69 45.5 116t112.5 47q69 0 115 -47t46 -116q0 -68 -46 -113t-115 -45q-67 0 -112.5 45t-45.5 113zM375 1688q0 69 45 116t112 47q69 0 115.5 -47t46.5 -116q0 -67 -46.5 -112.5t-115.5 -45.5q-67 0 -112 45t-45 113zM485 0h-327v1452h327v-1452z" />
    <glyph glyph-name="Eth" unicode="&#xd0;" horiz-adv-x="1554" 
d="M748 0h-525v635h-192v227h192v590h527q330 0 529.5 -196.5t199.5 -530.5t-200 -529.5t-531 -195.5zM547 305h188q85 0 157.5 25t128.5 75t88 132t32 188t-32 188t-88 132.5t-128.5 76t-157.5 25.5h-188v-285h295v-227h-295v-330z" />
    <glyph glyph-name="Ntilde" unicode="&#xd1;" horiz-adv-x="1574" 
d="M1151 1833v-70q0 -107 -61.5 -166t-151.5 -59q-77 0 -162 51l-10 6q-66 41 -96 41q-22 0 -38 -15t-16 -44v-27h-178v68q0 107 61 164t150 57q80 0 162 -49q3 -2 16.5 -9.5t17.5 -9.5t15 -8t16 -8t13.5 -5t15.5 -4t13 -1q25 0 40 15t15 44v29h178zM1419 0h-342l-598 954
v-954h-321v1452h393l545 -883v883h323v-1452z" />
    <glyph glyph-name="Ograve" unicode="&#xd2;" horiz-adv-x="1656" 
d="M692 1554l-307 271h371l213 -271h-277zM410 727q0 -109 36.5 -195.5t97.5 -138t133.5 -78t151.5 -26.5q78 0 150.5 26.5t133.5 78t97.5 138t36.5 195.5q0 88 -24 162t-65 124.5t-95 85.5t-113 51.5t-121 16.5q-79 0 -151.5 -27t-133.5 -78.5t-97.5 -138.5t-36.5 -196z
M74 725q0 169 60.5 312.5t163.5 240t240.5 151t290.5 54.5t290 -54.5t240 -151t163.5 -240t60.5 -312.5q0 -168 -60.5 -311t-163.5 -239.5t-240 -151t-290 -54.5t-290.5 54.5t-240.5 151t-163.5 239.5t-60.5 311z" />
    <glyph glyph-name="Oacute" unicode="&#xd3;" horiz-adv-x="1656" 
d="M1249 1825l-307 -271h-276l213 271h370zM410 727q0 -109 36.5 -195.5t97.5 -138t133.5 -78t151.5 -26.5q78 0 150.5 26.5t133.5 78t97.5 138t36.5 195.5q0 88 -24 162t-65 124.5t-95 85.5t-113 51.5t-121 16.5q-79 0 -151.5 -27t-133.5 -78.5t-97.5 -138.5t-36.5 -196z
M74 725q0 169 60.5 312.5t163.5 240t240.5 151t290.5 54.5t290 -54.5t240 -151t163.5 -240t60.5 -312.5q0 -168 -60.5 -311t-163.5 -239.5t-240 -151t-290 -54.5t-290.5 54.5t-240.5 151t-163.5 239.5t-60.5 311z" />
    <glyph glyph-name="Ocircumflex" unicode="&#xd4;" horiz-adv-x="1656" 
d="M705 1554h-277l250 271h297l254 -271h-289l-119 134zM410 727q0 -109 36.5 -195.5t97.5 -138t133.5 -78t151.5 -26.5q78 0 150.5 26.5t133.5 78t97.5 138t36.5 195.5q0 88 -24 162t-65 124.5t-95 85.5t-113 51.5t-121 16.5q-79 0 -151.5 -27t-133.5 -78.5t-97.5 -138.5
t-36.5 -196zM74 725q0 169 60.5 312.5t163.5 240t240.5 151t290.5 54.5t290 -54.5t240 -151t163.5 -240t60.5 -312.5q0 -168 -60.5 -311t-163.5 -239.5t-240 -151t-290 -54.5t-290.5 54.5t-240.5 151t-163.5 239.5t-60.5 311z" />
    <glyph glyph-name="Otilde" unicode="&#xd5;" horiz-adv-x="1656" 
d="M1174 1833v-70q0 -107 -61.5 -166t-151.5 -59q-77 0 -162 51l-11 6q-66 41 -96 41q-22 0 -37.5 -15t-15.5 -44v-27h-178v68q0 107 61 164t150 57q80 0 162 -49q5 -3 17 -9.5t17 -9.5t15 -8t15.5 -7.5t13.5 -5.5t15 -4t13 -1q25 0 40 15t15 44v29h179zM410 727
q0 -109 36.5 -195.5t97.5 -138t133.5 -78t151.5 -26.5q78 0 150.5 26.5t133.5 78t97.5 138t36.5 195.5q0 88 -24 162t-65 124.5t-95 85.5t-113 51.5t-121 16.5q-79 0 -151.5 -27t-133.5 -78.5t-97.5 -138.5t-36.5 -196zM74 725q0 169 60.5 312.5t163.5 240t240.5 151
t290.5 54.5t290 -54.5t240 -151t163.5 -240t60.5 -312.5q0 -168 -60.5 -311t-163.5 -239.5t-240 -151t-290 -54.5t-290.5 54.5t-240.5 151t-163.5 239.5t-60.5 311z" />
    <glyph glyph-name="Odieresis" unicode="&#xd6;" horiz-adv-x="1656" 
d="M307 1688q0 69 45.5 116t114.5 47q68 0 115 -47t47 -116q0 -67 -47 -112.5t-115 -45.5q-69 0 -114.5 45t-45.5 113zM1030 1688q0 69 45.5 116t114.5 47t116.5 -47t47.5 -116q0 -67 -47.5 -112.5t-116.5 -45.5t-114.5 45t-45.5 113zM410 727q0 -109 36.5 -195.5t97.5 -138
t133.5 -78t151.5 -26.5q78 0 150.5 26.5t133.5 78t97.5 138t36.5 195.5q0 88 -24 162t-65 124.5t-95 85.5t-113 51.5t-121 16.5q-79 0 -151.5 -27t-133.5 -78.5t-97.5 -138.5t-36.5 -196zM74 725q0 169 60.5 312.5t163.5 240t240.5 151t290.5 54.5t290 -54.5t240 -151
t163.5 -240t60.5 -312.5q0 -168 -60.5 -311t-163.5 -239.5t-240 -151t-290 -54.5t-290.5 54.5t-240.5 151t-163.5 239.5t-60.5 311z" />
    <glyph glyph-name="multiply" unicode="&#xd7;" horiz-adv-x="1187" 
d="M930 88l-336 338l-336 -338l-184 188l334 336l-334 338l184 185l336 -338l336 338l184 -185l-336 -338l336 -336z" />
    <glyph glyph-name="Oslash" unicode="&#xd8;" horiz-adv-x="1656" 
d="M74 725q0 169 60.5 312.5t163.5 240t240.5 151t290.5 54.5q193 0 359 -86l143 184l197 -151l-142 -183q93 -99 145 -232.5t52 -289.5q0 -168 -60.5 -311t-163.5 -239.5t-240 -151t-290 -54.5q-194 0 -364 86l-141 -182l-201 150l143 184q-192 208 -192 518zM1247 727
q0 151 -67 254l-512 -664q71 -28 161 -28q78 0 150.5 26.5t133.5 78t97.5 138t36.5 195.5zM410 727q0 -145 65 -250l512 660q-77 30 -158 30q-79 0 -151.5 -27t-133.5 -78.5t-97.5 -138.5t-36.5 -196z" />
    <glyph glyph-name="Ugrave" unicode="&#xd9;" horiz-adv-x="1441" 
d="M614 1554l-307 271h371l213 -271h-277zM721 -33q-121 0 -225 36.5t-182.5 105t-123.5 175.5t-45 240v928h324v-901q0 -129 67 -196.5t185 -67.5t185 67.5t67 196.5v901h323v-928q0 -177 -78 -305t-206.5 -190t-290.5 -62z" />
    <glyph glyph-name="Uacute" unicode="&#xda;" horiz-adv-x="1441" 
d="M1116 1825l-307 -271h-277l213 271h371zM721 -33q-121 0 -225 36.5t-182.5 105t-123.5 175.5t-45 240v928h324v-901q0 -129 67 -196.5t185 -67.5t185 67.5t67 196.5v901h323v-928q0 -177 -78 -305t-206.5 -190t-290.5 -62z" />
    <glyph glyph-name="Ucircumflex" unicode="&#xdb;" horiz-adv-x="1441" 
d="M598 1554h-276l249 271h297l254 -271h-288l-119 134zM721 -33q-121 0 -225 36.5t-182.5 105t-123.5 175.5t-45 240v928h324v-901q0 -129 67 -196.5t185 -67.5t185 67.5t67 196.5v901h323v-928q0 -177 -78 -305t-206.5 -190t-290.5 -62z" />
    <glyph glyph-name="Udieresis" unicode="&#xdc;" horiz-adv-x="1441" 
d="M311 1688q0 69 45.5 116t114.5 47t116.5 -47t47.5 -116q0 -67 -47.5 -112.5t-116.5 -45.5t-114.5 45t-45.5 113zM813 1688q0 69 45.5 116t112.5 47q69 0 116.5 -47t47.5 -116q0 -67 -47.5 -112.5t-116.5 -45.5q-67 0 -112.5 45t-45.5 113zM721 -33q-121 0 -225 36.5
t-182.5 105t-123.5 175.5t-45 240v928h324v-901q0 -129 67 -196.5t185 -67.5t185 67.5t67 196.5v901h323v-928q0 -177 -78 -305t-206.5 -190t-290.5 -62z" />
    <glyph glyph-name="Yacute" unicode="&#xdd;" horiz-adv-x="1378" 
d="M524 606l-504 846h379l297 -539l301 539h361l-510 -846v-606h-324v606zM1106 1825l-307 -271h-277l213 271h371z" />
    <glyph glyph-name="Thorn" unicode="&#xde;" horiz-adv-x="1249" 
d="M483 541h189q92 0 147 51.5t55 136.5q0 88 -55 139.5t-147 51.5h-189v-379zM696 266h-215v-266h-323v1452h323v-256h215q214 0 358 -133.5t144 -331.5q0 -199 -144 -332t-358 -133z" />
    <glyph glyph-name="germandbls" unicode="&#xdf;" horiz-adv-x="1251" 
d="M868 702q1 -22 15.5 -34t48.5 -25l57 -22q111 -44 175.5 -128t64.5 -194q0 -55 -22 -110.5t-65.5 -106t-120 -82t-173.5 -31.5q-89 0 -159 29t-109.5 75t-60 95.5t-21.5 97.5l243 41q2 -41 28.5 -73.5t80.5 -32.5q40 0 65 23.5t25 56.5t-21.5 55.5t-74.5 42.5l-53 20
q-232 85 -232 277q0 51 13 92.5t37 71.5t44 47.5t47 36.5l31 20q90 59 90 133q0 54 -44 92.5t-134 38.5q-86 0 -144.5 -58.5t-58.5 -182.5v-967h-303v989q0 101 28 184t75.5 139.5t112.5 95.5t137.5 57t152.5 18q220 0 352.5 -112.5t132.5 -276.5q0 -197 -180 -308l-33 -20
q-25 -16 -36 -30t-11 -34z" />
    <glyph glyph-name="agrave" unicode="&#xe0;" horiz-adv-x="1118" 
d="M76 281q0 129 84 208t217 99l239 37q74 11 74 69q0 47 -39.5 79t-109.5 32q-77 0 -123 -44t-51 -106l-271 56q5 57 34 114.5t81 108.5t138.5 83t193.5 32q120 0 209 -31.5t140.5 -87.5t76 -124.5t24.5 -150.5v-497q0 -93 13 -158h-281q-10 40 -10 115
q-41 -67 -115 -105.5t-172 -38.5q-161 0 -256.5 91t-95.5 219zM504 197q80 0 133 46.5t53 155.5v45l-192 -30q-115 -17 -115 -113q0 -44 30.5 -74t90.5 -30zM457 1139l-291 309h354l191 -309h-254z" />
    <glyph glyph-name="aacute" unicode="&#xe1;" horiz-adv-x="1118" 
d="M76 281q0 129 84 208t217 99l239 37q74 11 74 69q0 47 -39.5 79t-109.5 32q-77 0 -123 -44t-51 -106l-271 56q5 57 34 114.5t81 108.5t138.5 83t193.5 32q120 0 209 -31.5t140.5 -87.5t76 -124.5t24.5 -150.5v-497q0 -93 13 -158h-281q-10 40 -10 115
q-41 -67 -115 -105.5t-172 -38.5q-161 0 -256.5 91t-95.5 219zM504 197q80 0 133 46.5t53 155.5v45l-192 -30q-115 -17 -115 -113q0 -44 30.5 -74t90.5 -30zM926 1448l-289 -309h-248l189 309h348z" />
    <glyph glyph-name="acircumflex" unicode="&#xe2;" horiz-adv-x="1118" 
d="M76 281q0 129 84 208t217 99l239 37q74 11 74 69q0 47 -39.5 79t-109.5 32q-77 0 -123 -44t-51 -106l-271 56q5 57 34 114.5t81 108.5t138.5 83t193.5 32q120 0 209 -31.5t140.5 -87.5t76 -124.5t24.5 -150.5v-497q0 -93 13 -158h-281q-10 40 -10 115
q-41 -67 -115 -105.5t-172 -38.5q-161 0 -256.5 91t-95.5 219zM504 197q80 0 133 46.5t53 155.5v45l-192 -30q-115 -17 -115 -113q0 -44 30.5 -74t90.5 -30zM397 1139h-231l231 309h293l234 -309h-238l-145 145z" />
    <glyph glyph-name="atilde" unicode="&#xe3;" horiz-adv-x="1118" 
d="M76 281q0 129 84 208t217 99l239 37q74 11 74 69q0 47 -39.5 79t-109.5 32q-77 0 -123 -44t-51 -106l-271 56q5 57 34 114.5t81 108.5t138.5 83t193.5 32q120 0 209 -31.5t140.5 -87.5t76 -124.5t24.5 -150.5v-497q0 -93 13 -158h-281q-10 40 -10 115
q-41 -67 -115 -105.5t-172 -38.5q-161 0 -256.5 91t-95.5 219zM504 197q80 0 133 46.5t53 155.5v45l-192 -30q-115 -17 -115 -113q0 -44 30.5 -74t90.5 -30zM930 1446v-41q0 -130 -63 -198t-167 -68q-67 0 -155 47q-8 4 -23.5 12t-24 12t-21 9t-24 7.5t-22.5 2.5
q-67 0 -70 -88h-176v47q0 127 65 193.5t167 66.5q70 0 155 -47q74 -45 113 -45q69 0 72 90h174z" />
    <glyph glyph-name="adieresis" unicode="&#xe4;" horiz-adv-x="1118" 
d="M76 281q0 129 84 208t217 99l239 37q74 11 74 69q0 47 -39.5 79t-109.5 32q-77 0 -123 -44t-51 -106l-271 56q5 57 34 114.5t81 108.5t138.5 83t193.5 32q120 0 209 -31.5t140.5 -87.5t76 -124.5t24.5 -150.5v-497q0 -93 13 -158h-281q-10 40 -10 115
q-41 -67 -115 -105.5t-172 -38.5q-161 0 -256.5 91t-95.5 219zM504 197q80 0 133 46.5t53 155.5v45l-192 -30q-115 -17 -115 -113q0 -44 30.5 -74t90.5 -30zM166 1294q0 66 45 112t111 46t111.5 -46t45.5 -112t-45.5 -110.5t-111.5 -44.5t-111 44.5t-45 110.5zM618 1294
q0 66 45 112t111 46t112 -46t46 -112t-46 -110.5t-112 -44.5t-111 44.5t-45 110.5z" />
    <glyph glyph-name="aring" unicode="&#xe5;" horiz-adv-x="1118" 
d="M76 281q0 129 84 208t217 99l239 37q74 11 74 69q0 47 -39.5 79t-109.5 32q-77 0 -123 -44t-51 -106l-271 56q5 57 34 114.5t81 108.5t138.5 83t193.5 32q120 0 209 -31.5t140.5 -87.5t76 -124.5t24.5 -150.5v-497q0 -93 13 -158h-281q-10 40 -10 115
q-41 -67 -115 -105.5t-172 -38.5q-161 0 -256.5 91t-95.5 219zM504 197q80 0 133 46.5t53 155.5v45l-192 -30q-115 -17 -115 -113q0 -44 30.5 -74t90.5 -30zM772 1352q0 -99 -69.5 -163.5t-167.5 -64.5t-168 64.5t-70 163.5t70.5 165t167.5 66t167 -66t70 -165zM610 1352
q0 35 -21 56.5t-54 21.5t-54.5 -21.5t-21.5 -56.5t21.5 -56.5t54.5 -21.5t54 21.5t21 56.5z" />
    <glyph glyph-name="ae" unicode="&#xe6;" horiz-adv-x="1781" 
d="M1432 371l258 -78q-41 -140 -165.5 -232t-307.5 -92q-112 0 -210 42t-169 120q-62 -72 -155.5 -117t-213.5 -45q-186 0 -289.5 90t-103.5 222q0 129 84 208t217 99l246 37q75 11 75 69q0 47 -39.5 79t-111.5 32q-81 0 -128 -44t-54 -106l-269 56q5 57 34.5 114.5
t82.5 108.5t141 83t195 32q231 0 338 -117q142 117 321 117q234 0 367 -138.5t133 -384.5q0 -78 -6 -96h-715q6 -90 73 -144.5t161 -54.5q158 0 211 140zM508 197q36 0 68 10t60.5 31.5t45 62.5t16.5 98v45l-200 -30q-117 -18 -117 -115q0 -41 33.5 -71.5t93.5 -30.5z
M993 631h414q-4 69 -54.5 120.5t-154.5 51.5q-92 0 -146 -53.5t-59 -118.5z" />
    <glyph glyph-name="ccedilla" unicode="&#xe7;" horiz-adv-x="1148" 
d="M606 762q-101 0 -167 -67.5t-66 -186.5q0 -117 68 -184.5t169 -67.5q84 0 138 44t73 108l275 -84q-33 -126 -134.5 -224t-254.5 -123l-52 -77q90 -3 144.5 -53.5t54.5 -127.5q0 -37 -14.5 -70.5t-45 -63.5t-85 -48t-127.5 -18q-82 0 -152 35t-102 77l96 121
q78 -78 156 -78q77 0 77 54q0 21 -19.5 36t-51.5 15q-35 0 -56 -8l-75 100l67 104q-199 30 -329 176.5t-130 356.5q0 155 71.5 279.5t194.5 193t271 68.5q102 0 188 -29.5t146 -80t99.5 -113t56.5 -132.5l-279 -84q-19 66 -70 109t-135 43z" />
    <glyph glyph-name="egrave" unicode="&#xe8;" horiz-adv-x="1144" 
d="M373 631h407q-4 69 -54 120.5t-151 51.5q-91 0 -144 -53.5t-58 -118.5zM803 367l260 -74q-39 -140 -161.5 -232t-307.5 -92q-106 0 -201.5 37.5t-169 105.5t-117 171.5t-43.5 228.5q0 158 72.5 283t187.5 189.5t248 64.5q237 0 373.5 -139t136.5 -384q0 -78 -6 -96h-708
q4 -85 71.5 -141t159.5 -56q156 0 205 134zM481 1139l-291 309h355l190 -309h-254z" />
    <glyph glyph-name="eacute" unicode="&#xe9;" horiz-adv-x="1144" 
d="M963 1448l-289 -309h-248l188 309h349zM373 631h407q-4 69 -54 120.5t-151 51.5q-91 0 -144 -53.5t-58 -118.5zM803 367l260 -74q-39 -140 -161.5 -232t-307.5 -92q-106 0 -201.5 37.5t-169 105.5t-117 171.5t-43.5 228.5q0 158 72.5 283t187.5 189.5t248 64.5
q237 0 373.5 -139t136.5 -384q0 -78 -6 -96h-708q4 -85 71.5 -141t159.5 -56q156 0 205 134z" />
    <glyph glyph-name="ecircumflex" unicode="&#xea;" horiz-adv-x="1144" 
d="M432 1139h-231l231 309h293l233 -309h-237l-146 145zM373 631h407q-4 69 -54 120.5t-151 51.5q-91 0 -144 -53.5t-58 -118.5zM803 367l260 -74q-39 -140 -161.5 -232t-307.5 -92q-106 0 -201.5 37.5t-169 105.5t-117 171.5t-43.5 228.5q0 158 72.5 283t187.5 189.5
t248 64.5q237 0 373.5 -139t136.5 -384q0 -78 -6 -96h-708q4 -85 71.5 -141t159.5 -56q156 0 205 134z" />
    <glyph glyph-name="edieresis" unicode="&#xeb;" horiz-adv-x="1144" 
d="M199 1294q0 66 44.5 112t110.5 46t112 -46t46 -112t-46 -110.5t-112 -44.5t-110.5 44.5t-44.5 110.5zM651 1294q0 66 45 112t111 46t112 -46t46 -112t-46 -110.5t-112 -44.5t-111 44.5t-45 110.5zM373 631h407q-4 69 -54 120.5t-151 51.5q-91 0 -144 -53.5t-58 -118.5z
M803 367l260 -74q-39 -140 -161.5 -232t-307.5 -92q-106 0 -201.5 37.5t-169 105.5t-117 171.5t-43.5 228.5q0 158 72.5 283t187.5 189.5t248 64.5q237 0 373.5 -139t136.5 -384q0 -78 -6 -96h-708q4 -85 71.5 -141t159.5 -56q156 0 205 134z" />
    <glyph glyph-name="igrave" unicode="&#xec;" horiz-adv-x="583" 
d="M449 0h-312v1018h312v-1018zM182 1139l-291 309h355l190 -309h-254z" />
    <glyph glyph-name="iacute" unicode="&#xed;" horiz-adv-x="583" 
d="M678 1448l-289 -309h-248l189 309h348zM449 0h-312v1018h312v-1018z" />
    <glyph glyph-name="icircumflex" unicode="&#xee;" horiz-adv-x="583" 
d="M145 1139h-231l231 309h293l234 -309h-238l-145 145zM449 0h-312v1018h312v-1018z" />
    <glyph glyph-name="idieresis" unicode="&#xef;" horiz-adv-x="583" 
d="M-68 1294q0 65 45 110.5t111 45.5q64 0 110 -46t46 -110q0 -66 -45.5 -110.5t-110.5 -44.5q-66 0 -111 44.5t-45 110.5zM340 1294q0 65 45 110.5t109 45.5q66 0 111.5 -45.5t45.5 -110.5q0 -66 -45.5 -110.5t-111.5 -44.5q-65 0 -109.5 44.5t-44.5 110.5zM449 0h-312
v1018h312v-1018z" />
    <glyph glyph-name="eth" unicode="&#xf0;" 
d="M1085 1255l-153 -59q207 -250 207 -612q0 -123 -33.5 -232t-98.5 -195.5t-170 -137t-237 -50.5q-111 0 -210.5 38t-171 104.5t-113.5 160.5t-42 201q0 92 29 170t78 132.5t114 93t137 57t146 18.5q62 0 124.5 -18t90.5 -49q-34 116 -125 213l-284 -109l-70 180l170 68
q-102 56 -223 90l94 229q255 -64 432 -200l238 92zM600 250q95 0 162 60.5t67 164.5q0 110 -66.5 170t-162.5 60q-92 0 -159.5 -61.5t-67.5 -166.5q0 -103 68 -165t159 -62z" />
    <glyph glyph-name="ntilde" unicode="&#xf1;" horiz-adv-x="1218" 
d="M449 584v-584h-312v1018h301v-117q39 68 120 105.5t165 37.5q93 0 165.5 -31.5t116.5 -87.5t66.5 -128.5t22.5 -157.5v-639h-312v586q0 79 -42.5 127.5t-123.5 48.5q-75 0 -121 -50t-46 -128zM995 1446v-41q0 -131 -62.5 -198.5t-166.5 -67.5q-68 0 -156 47
q-7 4 -28 14.5t-30.5 15t-25.5 9t-30 4.5q-67 0 -70 -88h-176v47q0 127 64.5 193.5t166.5 66.5q71 0 156 -47q74 -45 113 -45q68 0 71 90h174z" />
    <glyph glyph-name="ograve" unicode="&#xf2;" horiz-adv-x="1208" 
d="M604 256q96 0 163 66t67 188t-67 187t-163 65q-95 0 -162 -65t-67 -187q0 -121 67 -187.5t162 -66.5zM604 1049q231 0 386 -152.5t155 -386.5q0 -155 -71.5 -279t-195 -193t-274.5 -69q-229 0 -385 153.5t-156 387.5q0 154 72 278t195.5 192.5t273.5 68.5zM494 1139
l-291 309h354l191 -309h-254z" />
    <glyph glyph-name="oacute" unicode="&#xf3;" horiz-adv-x="1208" 
d="M991 1448l-289 -309h-247l188 309h348zM604 256q96 0 163 66t67 188t-67 187t-163 65q-95 0 -162 -65t-67 -187q0 -121 67 -187.5t162 -66.5zM604 1049q231 0 386 -152.5t155 -386.5q0 -155 -71.5 -279t-195 -193t-274.5 -69q-229 0 -385 153.5t-156 387.5q0 154 72 278
t195.5 192.5t273.5 68.5z" />
    <glyph glyph-name="ocircumflex" unicode="&#xf4;" horiz-adv-x="1208" 
d="M461 1139h-232l232 309h293l233 -309h-237l-146 145zM604 256q96 0 163 66t67 188t-67 187t-163 65q-95 0 -162 -65t-67 -187q0 -121 67 -187.5t162 -66.5zM604 1049q231 0 386 -152.5t155 -386.5q0 -155 -71.5 -279t-195 -193t-274.5 -69q-229 0 -385 153.5t-156 387.5
q0 154 72 278t195.5 192.5t273.5 68.5z" />
    <glyph glyph-name="otilde" unicode="&#xf5;" horiz-adv-x="1208" 
d="M604 256q96 0 163 66t67 188t-67 187t-163 65q-95 0 -162 -65t-67 -187q0 -121 67 -187.5t162 -66.5zM604 1049q231 0 386 -152.5t155 -386.5q0 -155 -71.5 -279t-195 -193t-274.5 -69q-229 0 -385 153.5t-156 387.5q0 154 72 278t195.5 192.5t273.5 68.5zM981 1446v-41
q0 -131 -62.5 -198.5t-166.5 -67.5q-68 0 -156 47q-8 4 -23.5 12t-24 12t-21 9t-24 7.5t-22.5 2.5q-66 0 -69 -88h-176v47q0 127 64.5 193.5t166.5 66.5q71 0 156 -47q74 -45 112 -45q69 0 72 90h174z" />
    <glyph glyph-name="odieresis" unicode="&#xf6;" horiz-adv-x="1208" 
d="M221 1294q0 66 45 112t111 46t112 -46t46 -112t-46 -110.5t-112 -44.5t-111 44.5t-45 110.5zM674 1294q0 66 44.5 112t110.5 46t112 -46t46 -112t-46 -110.5t-112 -44.5t-110.5 44.5t-44.5 110.5zM604 256q96 0 163 66t67 188t-67 187t-163 65q-95 0 -162 -65t-67 -187
q0 -121 67 -187.5t162 -66.5zM604 1049q231 0 386 -152.5t155 -386.5q0 -155 -71.5 -279t-195 -193t-274.5 -69q-229 0 -385 153.5t-156 387.5q0 154 72 278t195.5 192.5t273.5 68.5z" />
    <glyph glyph-name="divide" unicode="&#xf7;" horiz-adv-x="1222" 
d="M430 231q0 71 51 121.5t123 50.5q70 0 121 -50.5t51 -121.5t-51 -122.5t-121 -51.5q-72 0 -123 51.5t-51 122.5zM430 993q0 71 51 121.5t123 50.5q70 0 121 -50.5t51 -121.5t-51 -122.5t-121 -51.5q-72 0 -123 51.5t-51 122.5zM94 483v256h1034v-256h-1034z" />
    <glyph glyph-name="oslash" unicode="&#xf8;" horiz-adv-x="1208" 
d="M604 1049q153 0 277 -70l110 133l139 -117l-108 -131q123 -145 123 -354q0 -155 -71.5 -279t-195 -193t-274.5 -69q-140 0 -266 66l-105 -127l-141 117l103 122q-132 151 -132 363q0 154 72 278t195.5 192.5t273.5 68.5zM375 510q0 -62 20 -117l293 352q-46 17 -84 17
q-95 0 -162 -65t-67 -187zM604 256q96 0 163 66t67 188q0 51 -17 104l-287 -346q34 -12 74 -12z" />
    <glyph glyph-name="ugrave" unicode="&#xf9;" horiz-adv-x="1220" 
d="M795 0q-9 40 -9 102q-37 -62 -112.5 -93.5t-159.5 -31.5q-120 0 -209.5 54.5t-133.5 144t-44 199.5v643h311v-578q0 -77 42 -126.5t122 -49.5q77 0 123.5 48.5t46.5 125.5v580h311v-836q0 -94 11 -182h-299zM530 1139l-290 309h354l190 -309h-254z" />
    <glyph glyph-name="uacute" unicode="&#xfa;" horiz-adv-x="1220" 
d="M956 1448l-288 -309h-248l188 309h348zM795 0q-9 40 -9 102q-37 -62 -112.5 -93.5t-159.5 -31.5q-120 0 -209.5 54.5t-133.5 144t-44 199.5v643h311v-578q0 -77 42 -126.5t122 -49.5q77 0 123.5 48.5t46.5 125.5v580h311v-836q0 -94 11 -182h-299z" />
    <glyph glyph-name="ucircumflex" unicode="&#xfb;" horiz-adv-x="1220" 
d="M463 1139h-232l232 309h293l233 -309h-237l-146 145zM795 0q-9 40 -9 102q-37 -62 -112.5 -93.5t-159.5 -31.5q-120 0 -209.5 54.5t-133.5 144t-44 199.5v643h311v-578q0 -77 42 -126.5t122 -49.5q77 0 123.5 48.5t46.5 125.5v580h311v-836q0 -94 11 -182h-299z" />
    <glyph glyph-name="udieresis" unicode="&#xfc;" horiz-adv-x="1220" 
d="M231 1294q0 66 45 112t111 46t112 -46t46 -112t-46 -110.5t-112 -44.5t-111 44.5t-45 110.5zM684 1294q0 66 45 112t111 46t111.5 -46t45.5 -112t-45.5 -110.5t-111.5 -44.5t-111 44.5t-45 110.5zM795 0q-9 40 -9 102q-37 -62 -112.5 -93.5t-159.5 -31.5
q-120 0 -209.5 54.5t-133.5 144t-44 199.5v643h311v-578q0 -77 42 -126.5t122 -49.5q77 0 123.5 48.5t46.5 125.5v580h311v-836q0 -94 11 -182h-299z" />
    <glyph glyph-name="yacute" unicode="&#xfd;" horiz-adv-x="1183" 
d="M537 -391h-328l231 528l-428 881h348l248 -545l226 545h329zM961 1448l-289 -309h-248l188 309h349z" />
    <glyph glyph-name="thorn" unicode="&#xfe;" horiz-adv-x="1273" 
d="M449 -389h-312v1872h312v-557q38 49 115 82.5t173 33.5q217 0 345 -148.5t128 -381.5q0 -234 -136 -384.5t-349 -150.5q-94 0 -166.5 29t-109.5 74v-469zM905 510q0 121 -66.5 186.5t-164.5 65.5q-97 0 -163.5 -65.5t-66.5 -186.5q0 -120 66.5 -187t163.5 -67
q98 0 164.5 66t66.5 188z" />
    <glyph glyph-name="ydieresis" unicode="&#xff;" horiz-adv-x="1183" 
d="M537 -391h-328l231 528l-428 881h348l248 -545l226 545h329zM215 1294q0 66 45 112t111 46t111.5 -46t45.5 -112t-45.5 -110.5t-111.5 -44.5t-111 44.5t-45 110.5zM668 1294q0 66 44.5 112t110.5 46t112 -46t46 -112t-46 -110.5t-112 -44.5t-110.5 44.5t-44.5 110.5z" />
    <glyph glyph-name="dotlessi" unicode="&#x131;" horiz-adv-x="583" 
d="M449 0h-312v1018h312v-1018z" />
    <glyph glyph-name="Lslash" unicode="&#x141;" horiz-adv-x="1216" 
d="M1165 0h-950v500l-186 -86v252l186 86v700h324v-551l329 152v-250l-329 -154v-340h626v-309z" />
    <glyph glyph-name="lslash" unicode="&#x142;" horiz-adv-x="710" 
d="M510 0h-311v512l-170 -78v252l170 78v719h311v-576l172 80v-250l-172 -80v-657z" />
    <glyph glyph-name="OE" unicode="&#x152;" horiz-adv-x="2285" 
d="M410 727q0 -109 36.5 -195.5t97.5 -138t133.5 -78t151.5 -26.5q78 0 150.5 26.5t133.5 78t97.5 138t36.5 195.5q0 88 -24 162t-65 124.5t-95 85.5t-113 51.5t-121 16.5q-79 0 -151.5 -27t-133.5 -78.5t-97.5 -138.5t-36.5 -196zM2171 0h-924v123q-154 -154 -418 -154
q-153 0 -290.5 54.5t-240.5 151t-163.5 239.5t-60.5 311q0 169 60.5 312.5t163.5 240t240.5 151t290.5 54.5q267 0 418 -154v123h922v-305h-596v-277h541v-284h-541v-279h598v-307z" />
    <glyph glyph-name="oe" unicode="&#x153;" horiz-adv-x="1918" 
d="M1147 631h407q-4 69 -53.5 120.5t-150.5 51.5q-91 0 -144.5 -53.5t-58.5 -118.5zM604 256q96 0 163 66t67 188t-67 187t-163 65q-95 0 -162 -65t-67 -187q0 -121 67 -187.5t162 -66.5zM604 1049q113 0 211.5 -39.5t171.5 -110.5q70 72 164 111t195 39q237 0 373 -139
t136 -384q0 -78 -6 -96h-708q4 -85 71.5 -141t159.5 -56q156 0 205 134l260 -74q-39 -140 -161.5 -232t-307.5 -92q-109 0 -208.5 39.5t-172.5 112.5q-73 -72 -172 -112t-211 -40q-229 0 -385 153.5t-156 387.5q0 154 72 278t195.5 192.5t273.5 68.5z" />
    <glyph glyph-name="Scaron" unicode="&#x160;" horiz-adv-x="1247" 
d="M238 1825h286l119 -133l119 133h276l-252 -271h-297zM1157 1096l-291 -82q-4 29 -17.5 57.5t-40 58t-74 48t-109.5 18.5q-88 0 -143.5 -46.5t-55.5 -109.5q0 -113 143 -139l195 -37q201 -37 310.5 -156t109.5 -280q0 -86 -36 -167.5t-102 -147t-170 -105t-229 -39.5
q-116 0 -213.5 29t-163.5 75.5t-114 108.5t-72.5 125t-30.5 127l297 72q10 -109 85 -179.5t216 -70.5q94 0 149.5 42t55.5 110q0 55 -41.5 93t-114.5 52l-198 37q-184 35 -290 149.5t-106 276.5q0 133 72 241t191 167t258 59q104 0 190.5 -24.5t144 -62.5t99.5 -90.5
t64 -103.5t32 -106z" />
    <glyph glyph-name="scaron" unicode="&#x161;" horiz-adv-x="954" 
d="M98 1448h238l145 -148l144 148h231l-229 -309h-297zM53 289l264 47q3 -57 44 -97t116 -40q57 0 88 26t31 62q0 63 -100 84l-117 26q-155 34 -229 117t-74 197q0 141 111.5 239.5t279.5 98.5q85 0 154.5 -20.5t114 -52t75.5 -73t45.5 -81t17.5 -77.5l-258 -47
q-7 55 -42.5 90t-102.5 35q-46 0 -78.5 -24.5t-32.5 -63.5q0 -31 22 -50.5t58 -25.5l135 -26q153 -31 233.5 -117t80.5 -203q0 -67 -26 -127.5t-74.5 -109.5t-128 -78t-177.5 -29q-91 0 -166 22.5t-121.5 57t-79 79t-46.5 84.5t-17 77z" />
    <glyph glyph-name="Ydieresis" unicode="&#x178;" horiz-adv-x="1378" 
d="M285 1688q0 69 45 116t114 47t116.5 -47t47.5 -116q0 -67 -47.5 -112.5t-116.5 -45.5t-114 45t-45 113zM786 1688q0 69 45.5 116t112.5 47q69 0 116.5 -47t47.5 -116q0 -67 -47.5 -112.5t-116.5 -45.5q-68 0 -113 45t-45 113zM524 606l-504 846h379l297 -539l301 539h361
l-510 -846v-606h-324v606z" />
    <glyph glyph-name="Zcaron" unicode="&#x17d;" horiz-adv-x="1318" 
d="M268 1825h287l119 -133l119 133h276l-252 -271h-297zM1227 0h-1153v311l700 832h-670v309h1115v-299l-717 -844h725v-309z" />
    <glyph glyph-name="zcaron" unicode="&#x17e;" horiz-adv-x="1001" 
d="M131 1448h238l145 -148l143 148h232l-230 -309h-297zM928 0h-854v274l448 478h-436v266h834v-256l-469 -494h477v-268z" />
    <glyph glyph-name="florin" unicode="&#x192;" horiz-adv-x="1083" 
d="M242 61l141 697h-190v258h241l35 168q22 111 88 189t147 111.5t170 33.5q71 0 107 -6.5t92 -26.5v-266q-69 16 -137 16q-21 0 -42 -5.5t-45.5 -19t-44 -43t-28.5 -71.5l-16 -80h225v-258h-278l-158 -785q-17 -85 -59 -151t-99 -104.5t-120 -58t-128 -19.5q-71 0 -109 6.5
t-95 23.5v269q70 -17 143 -17q29 0 57.5 9t59.5 42.5t43 87.5z" />
    <glyph glyph-name="circumflex" unicode="&#x2c6;" horiz-adv-x="847" 
d="M276 1139h-231l231 309h293l234 -309h-238l-145 145z" />
    <glyph glyph-name="caron" unicode="&#x2c7;" horiz-adv-x="847" 
d="M45 1448h238l145 -148l143 148h232l-230 -309h-297z" />
    <glyph glyph-name="uni02C9" unicode="&#x2c9;" horiz-adv-x="675" 
d="M631 1182h-586v215h586v-215z" />
    <glyph glyph-name="breve" unicode="&#x2d8;" horiz-adv-x="778" 
d="M389 1128q-108 0 -187 45.5t-117 116.5t-40 158h197q3 -46 40 -80.5t107 -34.5t107.5 34.5t40.5 80.5h198q-5 -135 -94.5 -227.5t-251.5 -92.5z" />
    <glyph glyph-name="dotaccent" unicode="&#x2d9;" horiz-adv-x="411" 
d="M25 1296q0 75 53 127t129 52q75 0 128.5 -52t53.5 -127q0 -74 -53 -125t-129 -51q-77 0 -129.5 50.5t-52.5 125.5z" />
    <glyph glyph-name="ring" unicode="&#x2da;" horiz-adv-x="565" 
d="M520 1335q0 -99 -69.5 -163t-167.5 -64t-168 64t-70 163t70.5 165.5t167.5 66.5t167 -66.5t70 -165.5zM358 1335q0 35 -21 56.5t-54 21.5t-54.5 -21.5t-21.5 -56.5t21.5 -56.5t54.5 -21.5t54 21.5t21 56.5z" />
    <glyph glyph-name="ogonek" unicode="&#x2db;" horiz-adv-x="450" 
d="M297 -463q-116 0 -187 61t-71 162q0 179 211 273l156 -33q-65 -31 -110.5 -81.5t-45.5 -108.5q0 -42 27 -65.5t69 -23.5q25 0 60 5v-172q-46 -17 -109 -17z" />
    <glyph glyph-name="tilde" unicode="&#x2dc;" horiz-adv-x="815" 
d="M780 1446v-41q0 -131 -62.5 -198.5t-166.5 -67.5q-68 0 -156 47q-7 4 -28 14.5t-30.5 15t-25.5 9t-30 4.5q-67 0 -70 -88h-176v47q0 127 64.5 193.5t166.5 66.5q71 0 156 -47q74 -45 113 -45q68 0 71 90h174z" />
    <glyph glyph-name="hungarumlaut" unicode="&#x2dd;" horiz-adv-x="839" 
d="M436 1448l-209 -309h-188l108 309h289zM801 1448l-242 -309h-190l141 309h291z" />
    <glyph glyph-name="uni0394" unicode="&#x394;" horiz-adv-x="1443" 
d="M0 0l545 1452h354l545 -1452h-1444zM721 1104l-279 -801h559z" />
    <glyph glyph-name="uni03A9" unicode="&#x3a9;" horiz-adv-x="1585" 
d="M793 1178q-150 0 -257.5 -99.5t-107.5 -265.5q0 -143 85 -240.5t212 -123.5v-449h-614v297h331q-154 63 -252 206t-98 339q0 190 98 338.5t256.5 226.5t346.5 78q140 0 267 -46t223 -128t153 -204t57 -265q0 -196 -97.5 -339t-252.5 -206h334v-297h-617v449
q128 26 213.5 123.5t85.5 240.5q0 112 -51.5 196.5t-134 126.5t-180.5 42z" />
    <glyph glyph-name="uni03BC" unicode="&#x3bc;" horiz-adv-x="1241" 
d="M807 0q-8 36 -8 102q-37 -62 -113 -93.5t-160 -31.5q-31 0 -75 7v-373h-312v1407h312v-578q0 -78 41.5 -127t121.5 -49q77 0 123.5 48.5t46.5 125.5v580h312v-836q0 -92 10 -182h-299z" />
    <glyph glyph-name="pi" unicode="&#x3c0;" horiz-adv-x="1329" 
d="M1255 10l-7 -3q-7 -3 -20.5 -7t-30.5 -8t-42.5 -7t-52.5 -3q-154 0 -235 84.5t-81 234.5v453h-237v-754h-313v754h-170v264h1185v-264h-153v-410q0 -92 94 -92q36 0 63 6v-248z" />
    <glyph glyph-name="uni2007" unicode="&#x2007;" horiz-adv-x="1286" 
 />
    <glyph glyph-name="uni2008" unicode="&#x2008;" horiz-adv-x="669" 
 />
    <glyph glyph-name="uni200B" unicode="&#x200b;" horiz-adv-x="0" 
 />
    <glyph glyph-name="endash" unicode="&#x2013;" horiz-adv-x="1306" 
d="M1184 483h-1059v271h1059v-271z" />
    <glyph glyph-name="emdash" unicode="&#x2014;" horiz-adv-x="2199" 
d="M2056 483h-1911v271h1911v-271z" />
    <glyph glyph-name="quoteleft" unicode="&#x2018;" horiz-adv-x="493" 
d="M430 1022q0 -65 -50.5 -111.5t-125.5 -46.5q-88 0 -139.5 62t-51.5 145q0 81 22 148t57 110t80.5 73.5t89.5 44.5t87 17v-139q-61 -7 -115.5 -51t-58.5 -109q22 11 45 11q75 0 117.5 -42.5t42.5 -111.5z" />
    <glyph glyph-name="quoteright" unicode="&#x2019;" horiz-adv-x="493" 
d="M63 1305q0 66 50 111.5t127 45.5q88 0 139 -61t51 -146q0 -81 -22 -148t-57 -110t-80.5 -73.5t-89.5 -44.5t-87 -17v139q61 7 114.5 49t59.5 109q0 -1 -7 -3.5t-18 -4.5t-20 -2q-74 0 -117 44t-43 112z" />
    <glyph glyph-name="quotesinglbase" unicode="&#x201a;" horiz-adv-x="493" 
d="M63 150q0 66 50 111.5t127 45.5q88 0 139 -61.5t51 -145.5q0 -82 -22 -149t-57 -110t-80.5 -73t-89.5 -44t-87 -17v137q61 7 114.5 49t59.5 109q-20 -10 -45 -10q-75 0 -117.5 44.5t-42.5 113.5z" />
    <glyph glyph-name="quotedblleft" unicode="&#x201c;" horiz-adv-x="923" 
d="M430 1022q0 -65 -50.5 -111.5t-125.5 -46.5q-88 0 -139.5 62t-51.5 145q0 81 22 148t57 110t80.5 73.5t89.5 44.5t87 17v-139q-61 -7 -115.5 -50t-58.5 -108q22 11 45 11q75 0 117.5 -43.5t42.5 -112.5zM860 1022q0 -65 -50.5 -111.5t-125.5 -46.5q-87 0 -137.5 61.5
t-50.5 145.5q0 81 22 148t56 110t79.5 73.5t89 44.5t86.5 17v-139q-61 -7 -115.5 -50t-58.5 -108q22 11 45 11q75 0 117.5 -43.5t42.5 -112.5z" />
    <glyph glyph-name="quotedblright" unicode="&#x201d;" horiz-adv-x="917" 
d="M63 1305q0 66 50 111.5t127 45.5q87 0 138.5 -61.5t51.5 -145.5q0 -81 -22 -148t-57 -109.5t-80.5 -72.5t-89.5 -44t-87 -17v137q61 7 114.5 49t59.5 109q-20 -10 -45 -10q-74 0 -117 44t-43 112zM489 1305q0 66 50 111.5t127 45.5q87 0 137.5 -61t50.5 -146
q0 -81 -22 -148t-56.5 -109.5t-80 -72.5t-89 -44t-86.5 -17v137q61 7 114.5 49t59.5 109q-20 -10 -45 -10q-74 0 -117 44t-43 112z" />
    <glyph glyph-name="quotedblbase" unicode="&#x201e;" horiz-adv-x="917" 
d="M63 150q0 66 50 111.5t127 45.5q88 0 139 -61.5t51 -145.5q0 -82 -22 -149t-57 -110t-80.5 -73t-89.5 -44t-87 -17v137q61 7 114.5 49t59.5 109q-20 -10 -45 -10q-75 0 -117.5 44.5t-42.5 113.5zM487 150q0 66 50 111.5t127 45.5q88 0 139 -61.5t51 -145.5
q0 -82 -22 -149t-57 -110t-80.5 -73t-89.5 -44t-87 -17v137q61 7 114.5 49t59.5 109q-20 -10 -45 -10q-75 0 -117.5 44.5t-42.5 113.5z" />
    <glyph glyph-name="dagger" unicode="&#x2020;" horiz-adv-x="874" 
d="M565 334h-258v600h-246v233h246v285h258v-285h248v-233h-248v-600z" />
    <glyph glyph-name="daggerdbl" unicode="&#x2021;" horiz-adv-x="956" 
d="M102 522h246v408h-246v233h246v289h258v-289h248v-233h-248v-408h248v-233h-248v-289h-258v289h-246v233z" />
    <glyph glyph-name="bullet" unicode="&#x2022;" horiz-adv-x="1069" 
d="M106 621q0 178 126 304t303 126t302.5 -126t125.5 -304q0 -174 -126 -300t-302 -126t-302.5 126t-126.5 300z" />
    <glyph glyph-name="ellipsis" unicode="&#x2026;" horiz-adv-x="1875" 
d="M1737 154q0 -73 -53.5 -127t-129.5 -54q-73 0 -126.5 54.5t-53.5 126.5q0 76 53 130t127 54q76 0 129.5 -53.5t53.5 -130.5zM1118 154q0 -73 -53 -127t-129 -54q-74 0 -127 54t-53 127q0 77 52.5 130.5t127.5 53.5q76 0 129 -53.5t53 -130.5zM502 154q0 -72 -54 -126.5
t-129 -54.5q-74 0 -127 54t-53 127q0 77 52.5 130.5t127.5 53.5t129 -54t54 -130z" />
    <glyph glyph-name="perthousand" unicode="&#x2030;" horiz-adv-x="2310" 
d="M301 1012q0 -59 35 -96t90 -37q54 0 88.5 37.5t34.5 95.5q0 60 -34.5 96.5t-88.5 36.5q-55 0 -90 -37t-35 -96zM80 1012q0 144 102 243t244 99t244 -99t102 -243t-102 -241t-246 -97q-143 0 -243.5 98.5t-100.5 239.5zM1233 317q0 -60 37 -97.5t92 -37.5t91 38t36 97
q0 58 -36 95t-91 37t-92 -37t-37 -95zM561 0h-262l930 1329h264zM1739 317q0 -60 37 -97.5t92 -37.5t91 38t36 97q0 58 -36 95t-91 37t-92 -37t-37 -95zM1012 317q0 141 104 240.5t246 99.5q157 0 252 -116q45 55 111 85.5t143 30.5q142 0 246 -99.5t104 -240.5
q0 -145 -103.5 -242.5t-248.5 -97.5q-157 0 -252 113q-93 -113 -254 -113q-143 0 -245.5 99t-102.5 241z" />
    <glyph glyph-name="guilsinglleft" unicode="&#x2039;" horiz-adv-x="661" 
d="M627 209h-291l-283 399l287 410h289l-285 -412z" />
    <glyph glyph-name="guilsinglright" unicode="&#x203a;" horiz-adv-x="661" 
d="M326 209h-293l284 397l-284 412h291l284 -410z" />
    <glyph glyph-name="uni2042" unicode="&#x2042;" horiz-adv-x="1718" 
d="M956 1450v-215l199 65l68 -192l-203 -68l123 -170l-164 -120l-127 172l-127 -172l-164 120l121 170l-201 68l66 192l198 -65v215h211zM545 670v-215l198 65l68 -192l-203 -68l123 -170l-164 -121l-127 172l-127 -172l-163 121l120 170l-200 68l65 192l199 -65v215h211z
M1384 670v-215l199 65l68 -192l-203 -68l123 -170l-164 -121l-127 172l-127 -172l-164 121l121 170l-201 68l66 192l199 -65v215h210z" />
    <glyph glyph-name="fraction" unicode="&#x2044;" horiz-adv-x="1193" 
d="M262 0h-262l930 1329h264z" />
    <glyph glyph-name="uni2051" unicode="&#x2051;" horiz-adv-x="880" 
d="M547 1450v-215l198 65l68 -192l-203 -68l123 -170l-164 -120l-127 172l-127 -172l-163 120l120 170l-200 68l65 192l199 -65v215h211zM547 678v-215l198 65l68 -192l-203 -68l123 -170l-164 -121l-127 173l-127 -173l-163 121l120 170l-200 68l65 192l199 -65v215h211z
" />
    <glyph glyph-name="uni2070" unicode="&#x2070;" horiz-adv-x="899" 
d="M334 1075q0 -43 4 -75t15.5 -64t35.5 -49t60 -17t60 17t35 49t15 64t4 75t-4 75t-15 64t-35 49t-60 17t-60 -17t-35.5 -49t-15.5 -64t-4 -75zM96 1075q0 165 74 266q94 129 279 129q186 0 280 -129q74 -101 74 -266t-74 -266q-97 -129 -280 -129t-279 131q-74 99 -74 264
z" />
    <glyph glyph-name="uni2074" unicode="&#x2074;" horiz-adv-x="897" 
d="M96 842v229l336 381h248v-436h121v-174h-121v-146h-227v146h-357zM453 1016v209l-187 -209h187z" />
    <glyph glyph-name="uni2075" unicode="&#x2075;" horiz-adv-x="829" 
d="M96 930l205 37q3 -41 35.5 -67t77.5 -26q42 0 68 22t26 60q0 48 -27.5 71.5t-74.5 23.5q-59 0 -97 -41l-188 53l90 389h473v-184h-338l-24 -107q53 41 145 41q124 0 195 -64.5t71 -179.5q0 -118 -84.5 -196t-234.5 -78q-130 0 -218.5 70.5t-99.5 175.5z" />
    <glyph glyph-name="uni2076" unicode="&#x2076;" horiz-adv-x="858" 
d="M737 1436l-39 -181q-67 23 -137 23q-80 0 -143.5 -34t-89.5 -111q66 57 168 57q116 0 191 -62t75 -176q0 -122 -91.5 -199t-238.5 -77q-145 0 -240.5 95.5t-95.5 252.5q0 203 129 321.5t324 118.5q90 0 188 -28zM338 944q0 -37 27 -61.5t67 -24.5t68 25t28 61
q0 39 -28 64.5t-68 25.5t-67 -25.5t-27 -64.5z" />
    <glyph glyph-name="uni2077" unicode="&#x2077;" horiz-adv-x="829" 
d="M735 1452v-188q-28 -23 -53.5 -49t-65 -79t-69 -111t-55.5 -145.5t-35 -183.5h-246q6 100 34.5 195.5t64.5 159.5t71 114t59 73l23 24h-367v190h639z" />
    <glyph glyph-name="uni2078" unicode="&#x2078;" horiz-adv-x="868" 
d="M434 1153q39 1 60.5 22t21.5 48q0 25 -21.5 45t-60.5 20t-60.5 -20t-21.5 -45q0 -27 21.5 -48t60.5 -22zM434 856q51 0 76 24t25 56q0 30 -25.5 52t-75.5 22t-75 -22t-25 -52q0 -32 24.5 -56t75.5 -24zM434 680q-154 0 -242 61.5t-88 163.5q0 64 44 113t112 67
q-63 18 -98 65t-35 105q0 93 80.5 153t226.5 60q147 0 227 -60t80 -153q0 -58 -34.5 -105t-98.5 -65q66 -18 111 -65.5t45 -106.5q0 -106 -86.5 -169.5t-243.5 -63.5z" />
    <glyph glyph-name="uni2079" unicode="&#x2079;" horiz-adv-x="858" 
d="M135 707l35 180q54 -23 127 -23q203 0 242 148q-67 -58 -172 -58q-69 0 -129.5 25.5t-101 81.5t-40.5 131q0 123 89 200.5t241 77.5q146 0 240 -96.5t94 -253.5q0 -139 -58.5 -241t-157 -152.5t-222.5 -50.5q-82 0 -187 31zM514 1200q0 37 -27 61.5t-67 24.5t-67 -24.5
t-27 -61.5q0 -39 27 -63.5t67 -24.5t67 24.5t27 63.5z" />
    <glyph glyph-name="uni2080" unicode="&#x2080;" horiz-adv-x="899" 
d="M334 225q0 -43 4 -75t15.5 -64t35.5 -49t60 -17t60 17t35 49t15 64t4 75t-4 75t-15 64t-35 49t-60 17t-60 -17t-35.5 -49t-15.5 -64t-4 -75zM96 225q0 166 74 267q94 129 279 129q186 0 280 -129q74 -101 74 -267q0 -165 -74 -266q-97 -129 -280 -129t-279 131
q-74 99 -74 264z" />
    <glyph glyph-name="uni2081" unicode="&#x2081;" horiz-adv-x="630" 
d="M494 -246h-236v434h-192v152q97 0 152.5 51.5t68.5 116.5h207v-754z" />
    <glyph glyph-name="uni2082" unicode="&#x2082;" horiz-adv-x="811" 
d="M315 211h-204q-9 36 -9 55q0 111 80 186.5t226 75.5q140 0 221.5 -73.5t81.5 -182.5q0 -134 -172 -233l-138 -80q-10 -7 -10 -10h326v-195h-619v27q0 111 43 193t144 139l123 69q73 42 73 92q0 26 -19.5 48t-60.5 22q-44 0 -68 -28t-24 -70q0 -23 6 -35z" />
    <glyph glyph-name="uni2083" unicode="&#x2083;" horiz-adv-x="841" 
d="M96 -14l211 37q2 -40 31.5 -67.5t75.5 -27.5q43 0 69.5 21.5t26.5 54.5q0 40 -27 61t-67 21q-33 0 -60 -12l-71 153l161 97h-323v188h596v-190l-174 -105q96 -15 148 -72.5t52 -146.5q0 -107 -90.5 -183.5t-240.5 -76.5q-136 0 -223 74t-95 174z" />
    <glyph glyph-name="uni2084" unicode="&#x2084;" horiz-adv-x="897" 
d="M96 -100v229l336 381h248v-436h121v-174h-121v-146h-227v146h-357zM453 74v209l-187 -209h187z" />
    <glyph glyph-name="uni2085" unicode="&#x2085;" horiz-adv-x="829" 
d="M96 -12l205 37q3 -41 35.5 -67t77.5 -26q42 0 68 22t26 60q0 48 -27.5 71.5t-74.5 23.5q-59 0 -97 -41l-188 53l90 389h473v-184h-338l-24 -107q53 41 145 41q124 0 195 -64.5t71 -179.5q0 -118 -84.5 -196t-234.5 -78q-130 0 -218.5 70.5t-99.5 175.5z" />
    <glyph glyph-name="uni2086" unicode="&#x2086;" horiz-adv-x="858" 
d="M737 498l-39 -181q-67 23 -137 23q-80 0 -143.5 -34t-89.5 -111q66 57 168 57q116 0 191 -62t75 -176q0 -122 -91.5 -199t-238.5 -77q-145 0 -240.5 95.5t-95.5 252.5q0 203 129 321.5t324 118.5q90 0 188 -28zM338 6q0 -37 27 -61.5t67 -24.5t68 25t28 61q0 39 -28 64.5
t-68 25.5t-67 -25.5t-27 -64.5z" />
    <glyph glyph-name="uni2087" unicode="&#x2087;" horiz-adv-x="829" 
d="M735 508v-189q-28 -23 -53.5 -49t-65 -78.5t-69 -111t-55.5 -145.5t-35 -183h-246q6 100 34.5 195t64.5 159.5t71 114t59 73.5l23 23h-367v191h639z" />
    <glyph glyph-name="uni2088" unicode="&#x2088;" horiz-adv-x="868" 
d="M434 211q39 1 60.5 22t21.5 48q0 25 -21.5 45t-60.5 20t-60.5 -20t-21.5 -45q0 -27 21.5 -48t60.5 -22zM434 -86q51 0 76 24t25 56q0 30 -25.5 52t-75.5 22t-75 -22t-25 -52q0 -32 24.5 -56t75.5 -24zM434 -262q-154 0 -242 61.5t-88 163.5q0 64 44 113t112 67
q-63 18 -98 65t-35 105q0 93 80.5 153t226.5 60q147 0 227 -60t80 -153q0 -58 -34.5 -105t-98.5 -65q66 -18 111 -65.5t45 -106.5q0 -106 -86.5 -169.5t-243.5 -63.5z" />
    <glyph glyph-name="uni2089" unicode="&#x2089;" horiz-adv-x="858" 
d="M135 -231l35 180q54 -23 127 -23q203 0 242 148q-67 -58 -172 -58q-69 0 -129.5 25.5t-101 81.5t-40.5 131q0 123 89 200.5t241 77.5q146 0 240 -96.5t94 -253.5q0 -139 -58.5 -241t-157 -152.5t-222.5 -50.5q-82 0 -187 31zM514 262q0 37 -27 61.5t-67 24.5t-67 -24.5
t-27 -61.5q0 -39 27 -63.5t67 -24.5t67 24.5t27 63.5z" />
    <glyph glyph-name="Euro" unicode="&#x20ac;" horiz-adv-x="1380" 
d="M1214 330l142 -234q-72 -58 -173 -93.5t-218 -35.5q-228 0 -403.5 114t-250.5 314h-186v209h143q-2 20 -2 58q0 33 2 53h-143v207h186q75 200 252 319t398 119q204 0 352 -92l-115 -246q-85 59 -237 59q-94 0 -175.5 -39t-132.5 -120h500l-96 -207h-465q-2 -20 -2 -53
q0 -38 2 -58h422l-92 -209h-256q104 -143 299 -143q151 0 249 78z" />
    <glyph glyph-name="uni2113" unicode="&#x2113;" horiz-adv-x="899" 
d="M53 567q69 18 144 45v396q0 161 92 255.5t235 94.5q148 0 235 -88.5t87 -247.5q0 -150 -100 -301.5t-273 -261.5v-43q0 -82 45 -120t96 -38q110 0 189 45v-254q-74 -59 -228 -59q-167 0 -268 91t-110 251q-64 -20 -144 -33v268zM571 1036q0 30 -13.5 47t-33.5 17
q-51 0 -51 -76v-233q98 113 98 245z" />
    <glyph glyph-name="trademark" unicode="&#x2122;" horiz-adv-x="1810" 
d="M688 1266h-203v-561h-209v561h-204v186h616v-186zM1688 705h-205v454l-168 -454h-156l-170 446v-446h-203v747h291l164 -397l156 397h291v-747z" />
    <glyph glyph-name="Omega" unicode="&#x2126;" horiz-adv-x="1585" 
d="M793 1178q-150 0 -257.5 -99.5t-107.5 -265.5q0 -143 85 -240.5t212 -123.5v-449h-614v297h331q-154 63 -252 206t-98 339q0 190 98 338.5t256.5 226.5t346.5 78q140 0 267 -46t223 -128t153 -204t57 -265q0 -196 -97.5 -339t-252.5 -206h334v-297h-617v449
q128 26 213.5 123.5t85.5 240.5q0 112 -51.5 196.5t-134 126.5t-180.5 42z" />
    <glyph glyph-name="uni2160" unicode="&#x2160;" horiz-adv-x="1009" 
d="M926 1329v-268h-258v-793h258v-268h-840v268h260v793h-260v268h840z" />
    <glyph glyph-name="uni2161" unicode="&#x2161;" horiz-adv-x="1624" 
d="M1540 268v-268h-1454v268h276v793h-276v268h1454v-268h-274v-793h274zM684 1061v-793h260v793h-260z" />
    <glyph glyph-name="uni2162" unicode="&#x2162;" horiz-adv-x="2185" 
d="M2101 268v-268h-2015v268h276v793h-276v268h2015v-268h-274v-793h274zM684 1061v-793h250v793h-250zM1255 1061v-793h250v793h-250z" />
    <glyph glyph-name="uni2163" unicode="&#x2163;" horiz-adv-x="2205" 
d="M2122 268v-268h-2036v268h270v793h-270v268h2036v-268h-213l-248 -793h461zM678 1061v-793h409l-253 793h-156zM1378 367l203 694h-410z" />
    <glyph glyph-name="uni2164" unicode="&#x2164;" horiz-adv-x="1658" 
d="M1575 1329v-268h-213l-246 -793h457v-268h-1487v268h457l-254 793h-203v268h1489zM834 367l202 694h-409z" />
    <glyph glyph-name="uni2165" unicode="&#x2165;" horiz-adv-x="2197" 
d="M2111 268v-268h-2025v268h457l-254 793h-203v268h2025v-268h-272v-793h272zM1364 1061l-246 -793h400v793h-154zM834 367l202 694h-409z" />
    <glyph glyph-name="uni2166" unicode="&#x2166;" horiz-adv-x="2760" 
d="M2675 268v-268h-2589v268h457l-254 793h-203v268h2589v-268h-273v-793h273zM2081 268v793h-242v-793h242zM1364 1061l-246 -793h400v793h-154zM834 367l202 694h-409z" />
    <glyph glyph-name="uni2167" unicode="&#x2167;" horiz-adv-x="3315" 
d="M3232 268v-268h-3146v268h457l-254 793h-203v268h3144v-268h-271v-793h273zM1362 1061l-246 -793h402v793h-156zM2398 1061v-793h240v793h-240zM1839 1061v-793h238v793h-238zM834 367l202 694h-409z" />
    <glyph glyph-name="uni2168" unicode="&#x2168;" horiz-adv-x="2154" 
d="M2068 268v-268h-1982v268h270v793h-270v268h1982v-268h-210l-297 -404l292 -389h215zM1137 659l-299 402h-160v-793h164zM1221 1061l129 -182l131 182h-260zM1346 442l-127 -174h251z" />
    <glyph glyph-name="uni2169" unicode="&#x2169;" horiz-adv-x="1611" 
d="M1526 1329v-268h-211l-297 -404l293 -389h215v-268h-1440v268h213l295 391l-299 402h-209v268h1440zM680 1061l129 -182l129 182h-258zM803 442l-125 -174h250z" />
    <glyph glyph-name="uni216C" unicode="&#x216c;" horiz-adv-x="1351" 
d="M1268 608v-608h-1182v268h227v793h-227v268h797v-268h-248v-793h330v340h303z" />
    <glyph glyph-name="uni216D" unicode="&#x216d;" horiz-adv-x="1521" 
d="M1436 516v-516h-312v113q-135 -146 -362 -146q-190 0 -344 87.5t-243 247t-89 360.5q0 151 52.5 281.5t142.5 221.5t213.5 143t261.5 52q226 0 356 -141v110h313v-506h-313q-6 31 -18.5 61.5t-39.5 67t-63 63.5t-93 45.5t-126 18.5t-134.5 -25.5t-120.5 -74.5
t-88.5 -131.5t-33.5 -185.5q0 -185 112 -295.5t271 -110.5q68 0 125 18.5t93.5 46t64 64.5t41.5 68t22 63h312z" />
    <glyph glyph-name="uni216E" unicode="&#x216e;" horiz-adv-x="1529" 
d="M782 1329q305 0 483.5 -180t178.5 -485q0 -306 -179 -485t-485 -179h-694v268h240v793h-240v268h696zM647 268h109q160 2 261 104t101 292q0 191 -101.5 294t-262.5 103h-107v-793z" />
    <glyph glyph-name="uni216F" unicode="&#x216f;" horiz-adv-x="2134" 
d="M764 268v-268h-678v268h227v793h-227v268h664l317 -801l299 801h684v-268h-225v-793h225v-268h-698v268h153v578l-323 -828h-234l-323 820v-570h139z" />
    <glyph glyph-name="arrowleft" unicode="&#x2190;" horiz-adv-x="2211" 
d="M555 117l-584 499l584 504v-368h1542v-269h-1542v-366z" />
    <glyph glyph-name="arrowup" unicode="&#x2191;" horiz-adv-x="1032" 
d="M559 1638l498 -567h-363v-1370h-268v1370h-371z" />
    <glyph glyph-name="arrowright" unicode="&#x2192;" horiz-adv-x="2281" 
d="M2220 616l-643 -505v372h-1534v269h1534v372z" />
    <glyph glyph-name="arrowdown" unicode="&#x2193;" horiz-adv-x="1007" 
d="M981 268l-502 -571l-508 571h375v1368h268v-1368h367z" />
    <glyph glyph-name="uni2196" unicode="&#x2196;" horiz-adv-x="1796" 
d="M141 1450h721l-266 -268l1022 -1020l-188 -189l-1022 1020l-267 -268v725z" />
    <glyph glyph-name="uni2197" unicode="&#x2197;" horiz-adv-x="1533" 
d="M635 1450h721v-725l-266 268l-1022 -1020l-191 189l1022 1022z" />
    <glyph glyph-name="uni2198" unicode="&#x2198;" horiz-adv-x="1740" 
d="M1563 2h-721l264 266l-1020 1022l188 189l1022 -1020l267 268v-725z" />
    <glyph glyph-name="uni2199" unicode="&#x2199;" horiz-adv-x="1515" 
d="M786 2h-720v725l266 -268l1022 1020l188 -189l-1022 -1020z" />
    <glyph glyph-name="uni21A9" unicode="&#x21a9;" horiz-adv-x="1789" 
d="M516 49l-582 500l582 504v-373h735q107 0 171.5 55t64.5 133q0 83 -63.5 135t-172.5 52h-417v268h430q222 0 362.5 -129t140.5 -326q0 -200 -138.5 -329t-364.5 -129h-748v-361z" />
    <glyph glyph-name="uni21B0" unicode="&#x21b0;" horiz-adv-x="1677" 
d="M647 481l-581 502l581 502v-369h875v-1116h-269v848h-606v-367z" />
    <glyph glyph-name="uni21B1" unicode="&#x21b1;" horiz-adv-x="1564" 
d="M340 0h-268v1116h884v369l582 -502l-582 -502v367h-616v-848z" />
    <glyph glyph-name="uni21B2" unicode="&#x21b2;" horiz-adv-x="1591" 
d="M1167 1452h269v-1116h-883v-369l-584 504l584 500v-367h614v848z" />
    <glyph glyph-name="uni21B3" unicode="&#x21b3;" horiz-adv-x="1755" 
d="M1022 971l582 -500l-582 -504v369h-885v1116h269v-848h616v367z" />
    <glyph glyph-name="uni21B4" unicode="&#x21b4;" horiz-adv-x="1622" 
d="M131 1184v268h1143v-920h368l-495 -563l-504 563h363v652h-875z" />
    <glyph glyph-name="uni21C6" unicode="&#x21c6;" horiz-adv-x="2451" 
d="M2339 324l-582 -500v366h-1550v269h1550v368zM723 655l-582 500l582 504v-375h1548v-268h-1548v-361z" />
    <glyph glyph-name="partialdiff" unicode="&#x2202;" horiz-adv-x="1282" 
d="M522 1188q-156 0 -303 -72l-110 252q199 107 430 107q62 0 121.5 -8.5t127.5 -31.5t126.5 -59t113.5 -96t94 -137t62.5 -187.5t23.5 -242.5q0 -124 -22.5 -234t-70.5 -204.5t-118.5 -162.5t-171.5 -106.5t-225 -38.5q-105 0 -200 33t-170 94.5t-119.5 160t-44.5 220.5
q0 89 29.5 166.5t78.5 132.5t113 94.5t134 58.5t140 19q224 0 320 -112q-9 97 -40.5 167.5t-81.5 110.5t-108 58t-129 18zM637 686q-125 0 -190.5 -62t-65.5 -161q0 -93 70 -151t159 -58q71 0 125 28.5t85 78t47.5 105.5t21.5 122q-98 98 -252 98z" />
    <glyph glyph-name="Delta" unicode="&#x2206;" horiz-adv-x="1443" 
d="M0 0l545 1452h354l545 -1452h-1444zM721 1104l-279 -801h559z" />
    <glyph glyph-name="product" unicode="&#x220f;" horiz-adv-x="1402" 
d="M1247 0h-325v1153h-441v-1153h-323v1452h1089v-1452z" />
    <glyph glyph-name="summation" unicode="&#x2211;" horiz-adv-x="1169" 
d="M66 0v297l503 426l-503 434v295h1071v-301h-625l496 -428l-514 -422h643v-301h-1071z" />
    <glyph glyph-name="minus" unicode="&#x2212;" horiz-adv-x="1214" 
d="M1120 485h-1026v254h1026v-254z" />
    <glyph glyph-name="uni2215" unicode="&#x2215;" horiz-adv-x="950" 
d="M950 1356l-674 -1385h-276l672 1385h278z" />
    <glyph glyph-name="uni2219" unicode="&#x2219;" horiz-adv-x="600" 
d="M117 659q0 78 56 132.5t136 54.5t136.5 -54.5t56.5 -132.5q0 -81 -56 -134.5t-137 -53.5q-80 0 -136 53.5t-56 134.5z" />
    <glyph glyph-name="radical" unicode="&#x221a;" horiz-adv-x="1462" 
d="M1524 1561h-283l-518 -1561h-270l-390 1110h287l240 -709l461 1411h473v-251z" />
    <glyph glyph-name="infinity" unicode="&#x221e;" horiz-adv-x="1732" 
d="M864 385q-92 -95 -180.5 -141.5t-187.5 -46.5q-179 0 -295.5 113t-116.5 284t116.5 285t295.5 114q196 0 374 -194q187 194 369 194q178 0 295 -114t117 -285t-117 -284t-295 -113q-104 0 -195 46.5t-180 141.5zM500 723q-60 0 -97.5 -37.5t-37.5 -93.5t37 -92.5
t98 -36.5q93 0 196 125q-56 66 -102.5 100.5t-93.5 34.5zM1235 463q60 0 97.5 36.5t37.5 92.5t-38 93.5t-97 37.5q-49 0 -96.5 -33.5t-102.5 -97.5q110 -129 199 -129z" />
    <glyph glyph-name="integral" unicode="&#x222b;" horiz-adv-x="757" 
d="M223 -18v1065q0 188 108.5 297.5t297.5 109.5h119v-272h-109q-47 0 -74.5 -31.5t-27.5 -87.5v-1065q0 -188 -109 -298t-297 -110h-121v273h111q45 0 73.5 31.5t28.5 87.5z" />
    <glyph glyph-name="approxequal" unicode="&#x2248;" horiz-adv-x="1243" 
d="M1018 981l162 -133q-55 -106 -146 -163.5t-200 -59.5q-118 0 -232 63l-98 53q-50 27 -103 27q-49 0 -94.5 -26.5t-77.5 -73.5l-166 133q55 106 147 164.5t200 58.5q122 0 229 -59l96 -54q51 -28 105 -28q110 0 178 98zM1018 563l162 -135q-56 -106 -148 -163.5
t-201 -57.5q-118 0 -229 61l-98 54q-54 26 -101 26q-104 0 -174 -98l-166 133q56 106 148.5 163.5t202.5 57.5q116 0 225 -59l96 -53q56 -29 105 -29q111 0 178 100z" />
    <glyph glyph-name="notequal" unicode="&#x2260;" horiz-adv-x="1243" 
d="M1128 283h-563l-121 -197h-270l121 197h-180v249h334l98 162h-432v250h585l111 180h270l-110 -180h157v-250h-311l-98 -162h409v-249z" />
    <glyph glyph-name="lessequal" unicode="&#x2264;" horiz-adv-x="1120" 
d="M106 336h900v-254h-900v254zM106 659v246l900 266v-251l-545 -134l545 -135v-258z" />
    <glyph glyph-name="greaterequal" unicode="&#x2265;" horiz-adv-x="1120" 
d="M115 336h899v-254h-899v254zM1014 905v-246l-899 -266v252l544 133l-544 137v256z" />
    <glyph glyph-name="dotmath" unicode="&#x22c5;" horiz-adv-x="600" 
d="M117 659q0 78 56 132.5t136 54.5t136.5 -54.5t56.5 -132.5q0 -81 -56 -134.5t-137 -53.5q-80 0 -136 53.5t-56 134.5z" />
    <glyph glyph-name="uni24C5" unicode="&#x24c5;" horiz-adv-x="1665" 
d="M256 725q0 -122 44.5 -231t120.5 -188t183 -125t227 -46q160 0 293 78t209 213.5t76 298.5t-76 299t-209 214.5t-293 78.5q-120 0 -227 -46.5t-183 -125.5t-120.5 -188.5t-44.5 -231.5zM74 725q0 154 60 294.5t161.5 242.5t241.5 162.5t294 60.5t294.5 -60.5
t242.5 -162.5t162.5 -242.5t60.5 -294.5t-60.5 -294.5t-162.5 -242t-242.5 -161.5t-294.5 -60t-294 60t-241.5 161.5t-161.5 242t-60 294.5zM788 762h91q50 0 79 26t29 72t-29.5 73.5t-78.5 27.5h-91v-199zM922 590h-134v-275h-213v818h347q118 0 199 -80t81 -193
t-81 -191.5t-199 -78.5z" />
    <glyph glyph-name="filledbox" unicode="&#x25a0;" horiz-adv-x="1845" 
d="M199 0v1452h1450v-1452h-1450z" />
    <glyph glyph-name="H22073" unicode="&#x25a1;" horiz-adv-x="1845" 
d="M1649 0h-1450v1452h1450v-1452zM465 1186v-922h909v922h-909z" />
    <glyph glyph-name="triagup" unicode="&#x25b2;" horiz-adv-x="1718" 
d="M862 1485l856 -1485h-1718z" />
    <glyph glyph-name="uni25B3" unicode="&#x25b3;" horiz-adv-x="1716" 
d="M858 1485l858 -1485h-1716zM1251 266l-393 682l-393 -682h786z" />
    <glyph glyph-name="lozenge" unicode="&#x25ca;" horiz-adv-x="1327" 
d="M412 725l252 -434l251 434l-251 436zM53 725l430 727h361l430 -727l-430 -725h-361z" />
    <glyph glyph-name="circle" unicode="&#x25cb;" horiz-adv-x="1646" 
d="M66 725q0 155 59.5 295.5t161 242.5t241.5 162t295 60t295.5 -60t242.5 -162t162 -242.5t60 -295.5t-60 -295.5t-162 -241.5t-242.5 -161t-295.5 -60t-295 60t-241.5 161t-161 241.5t-59.5 295.5zM332 725q0 -133 66 -247t179 -180.5t246 -66.5q99 0 189.5 39.5t156 106
t104 157.5t38.5 191q0 133 -65 247t-178 181.5t-245 67.5q-133 0 -246 -67t-179 -181.5t-66 -247.5z" />
    <glyph glyph-name="H18533" unicode="&#x25cf;" horiz-adv-x="1646" 
d="M66 725q0 155 59.5 295.5t161 242.5t241.5 162t295 60t295.5 -60t242.5 -162t162 -242.5t60 -295.5t-60 -295.5t-162 -241.5t-242.5 -161t-295.5 -60t-295 60t-241.5 161t-161 241.5t-59.5 295.5z" />
    <glyph glyph-name="uni262E" unicode="&#x262e;" horiz-adv-x="1662" 
d="M1589 725q0 -155 -60 -295.5t-161 -241.5t-241.5 -161t-295.5 -60q-154 0 -294 60t-241.5 161t-161.5 241.5t-60 295.5t60 295.5t161.5 242.5t241.5 162t294 60q155 0 295.5 -60t241.5 -162t161 -242.5t60 -295.5zM1323 725q0 171 -104 305.5t-263 177.5v-348l347 -270
q20 61 20 135zM336 725q0 -69 18 -131l342 266v346q-157 -45 -258.5 -178.5t-101.5 -302.5zM956 242q117 29 218 123l-218 178v-301zM481 371q97 -94 215 -127v299z" />
    <glyph glyph-name="uni2713" unicode="&#x2713;" horiz-adv-x="1900" 
d="M1876 1296l-1241 -1329l-610 674l194 182l424 -463l1045 1125z" />
    <glyph glyph-name="uni2715" unicode="&#x2715;" horiz-adv-x="1546" 
d="M1329 -10l-559 553l-551 -553l-186 186l549 551l-549 545l186 184l549 -543l541 543l186 -184l-541 -543l559 -553z" />
    <glyph glyph-name="uni2780" unicode="&#x2780;" horiz-adv-x="1683" 
d="M264 725q0 -163 76 -298.5t209 -213.5t293 -78q119 0 226 46t183.5 125t121 188t44.5 231t-44.5 231.5t-121 188.5t-183.5 125.5t-226 46.5q-160 0 -293 -78.5t-209 -214.5t-76 -299zM84 725q0 154 60 294.5t161 242.5t241.5 162.5t295.5 60.5q154 0 294 -60.5
t241.5 -162.5t161.5 -242.5t60 -294.5t-60 -294.5t-161.5 -242t-241.5 -161.5t-294 -60q-155 0 -295.5 60t-241.5 161.5t-161 242t-60 294.5zM999 352h-235v434h-193v152q97 0 153 51.5t69 116.5h206v-754z" />
    <glyph glyph-name="uni2781" unicode="&#x2781;" horiz-adv-x="1683" 
d="M264 725q0 -163 76 -298.5t209 -213.5t293 -78q119 0 226 46t183.5 125t121 188t44.5 231t-44.5 231.5t-121 188.5t-183.5 125.5t-226 46.5q-160 0 -293 -78.5t-209 -214.5t-76 -299zM84 725q0 154 60 294.5t161 242.5t241.5 162.5t295.5 60.5q154 0 294 -60.5
t241.5 -162.5t161.5 -242.5t60 -294.5t-60 -294.5t-161.5 -242t-241.5 -161.5t-294 -60q-155 0 -295.5 60t-241.5 161.5t-161 242t-60 294.5zM743 834h-204q-9 36 -9 55q0 111 80 186.5t226 75.5q140 0 221.5 -73.5t81.5 -182.5q0 -134 -172 -233l-138 -80q-10 -7 -10 -11
h326v-194h-619v26q0 111 43 193t144 139l123 70q73 42 73 92q0 26 -19.5 48t-60.5 22q-44 0 -68 -28.5t-24 -70.5q0 -22 6 -34z" />
    <glyph glyph-name="uni2782" unicode="&#x2782;" horiz-adv-x="1683" 
d="M264 725q0 -163 76 -298.5t209 -213.5t293 -78q119 0 226 46t183.5 125t121 188t44.5 231t-44.5 231.5t-121 188.5t-183.5 125.5t-226 46.5q-160 0 -293 -78.5t-209 -214.5t-76 -299zM84 725q0 154 60 294.5t161 242.5t241.5 162.5t295.5 60.5q154 0 294 -60.5
t241.5 -162.5t161.5 -242.5t60 -294.5t-60 -294.5t-161.5 -242t-241.5 -161.5t-294 -60q-155 0 -295.5 60t-241.5 161.5t-161 242t-60 294.5zM520 567l211 37q2 -39 31.5 -66.5t75.5 -27.5q43 0 69.5 21.5t26.5 54.5q0 40 -27 61t-67 21q-31 0 -60 -13l-71 154l161 96h-323
v189h596v-191l-174 -104q96 -15 148 -72.5t52 -146.5q0 -107 -90.5 -184t-240.5 -77q-136 0 -223 74t-95 174z" />
    <glyph glyph-name="uni2783" unicode="&#x2783;" horiz-adv-x="1683" 
d="M264 725q0 -163 76 -298.5t209 -213.5t293 -78q119 0 226 46t183.5 125t121 188t44.5 231t-44.5 231.5t-121 188.5t-183.5 125.5t-226 46.5q-160 0 -293 -78.5t-209 -214.5t-76 -299zM84 725q0 154 60 294.5t161 242.5t241.5 162.5t295.5 60.5q154 0 294 -60.5
t241.5 -162.5t161.5 -242.5t60 -294.5t-60 -294.5t-161.5 -242t-241.5 -161.5t-294 -60q-155 0 -295.5 60t-241.5 161.5t-161 242t-60 294.5zM471 510v229l336 381h248v-436h121v-174h-121v-145h-228v145h-356zM827 684v209l-186 -209h186z" />
    <glyph glyph-name="uni2784" unicode="&#x2784;" horiz-adv-x="1683" 
d="M264 725q0 -163 76 -298.5t209 -213.5t293 -78q119 0 226 46t183.5 125t121 188t44.5 231t-44.5 231.5t-121 188.5t-183.5 125.5t-226 46.5q-160 0 -293 -78.5t-209 -214.5t-76 -299zM84 725q0 154 60 294.5t161 242.5t241.5 162.5t295.5 60.5q154 0 294 -60.5
t241.5 -162.5t161.5 -242.5t60 -294.5t-60 -294.5t-161.5 -242t-241.5 -161.5t-294 -60q-155 0 -295.5 60t-241.5 161.5t-161 242t-60 294.5zM510 565l205 37q3 -41 35 -66.5t77 -25.5q42 0 68.5 22t26.5 60q0 47 -28 70.5t-75 23.5q-58 0 -96 -41l-188 53l90 389h473v-184
h-338l-25 -106q53 41 146 41q124 0 195 -64.5t71 -179.5q0 -118 -85 -196.5t-235 -78.5q-130 0 -218 70.5t-99 175.5z" />
    <glyph glyph-name="uni2785" unicode="&#x2785;" horiz-adv-x="1683" 
d="M264 725q0 -163 76 -298.5t209 -213.5t293 -78q119 0 226 46t183.5 125t121 188t44.5 231t-44.5 231.5t-121 188.5t-183.5 125.5t-226 46.5q-160 0 -293 -78.5t-209 -214.5t-76 -299zM84 725q0 154 60 294.5t161 242.5t241.5 162.5t295.5 60.5q154 0 294 -60.5
t241.5 -162.5t161.5 -242.5t60 -294.5t-60 -294.5t-161.5 -242t-241.5 -161.5t-294 -60q-155 0 -295.5 60t-241.5 161.5t-161 242t-60 294.5zM1124 1094l-39 -181q-67 23 -137 23q-80 0 -143.5 -34t-89.5 -111q66 57 168 57q116 0 191 -62t75 -176q0 -122 -91.5 -199
t-238.5 -77q-145 0 -240.5 95.5t-95.5 252.5q0 203 129 321.5t324 118.5q90 0 188 -28zM725 602q0 -37 27 -61.5t67 -24.5t68 25t28 61q0 39 -28 64.5t-68 25.5t-67 -25.5t-27 -64.5z" />
    <glyph glyph-name="uni2786" unicode="&#x2786;" horiz-adv-x="1683" 
d="M264 725q0 -163 76 -298.5t209 -213.5t293 -78q119 0 226 46t183.5 125t121 188t44.5 231t-44.5 231.5t-121 188.5t-183.5 125.5t-226 46.5q-160 0 -293 -78.5t-209 -214.5t-76 -299zM84 725q0 154 60 294.5t161 242.5t241.5 162.5t295.5 60.5q154 0 294 -60.5
t241.5 -162.5t161.5 -242.5t60 -294.5t-60 -294.5t-161.5 -242t-241.5 -161.5t-294 -60q-155 0 -295.5 60t-241.5 161.5t-161 242t-60 294.5zM1155 1083v-188q-28 -23 -53.5 -49t-65 -78.5t-69 -111t-55.5 -145.5t-35 -183h-246q6 100 34.5 195t64.5 159.5t71 114t59 73.5
l23 23h-367v190h639z" />
    <glyph glyph-name="uni2787" unicode="&#x2787;" horiz-adv-x="1683" 
d="M264 725q0 -163 76 -298.5t209 -213.5t293 -78q119 0 226 46t183.5 125t121 188t44.5 231t-44.5 231.5t-121 188.5t-183.5 125.5t-226 46.5q-160 0 -293 -78.5t-209 -214.5t-76 -299zM84 725q0 154 60 294.5t161 242.5t241.5 162.5t295.5 60.5q154 0 294 -60.5
t241.5 -162.5t161.5 -242.5t60 -294.5t-60 -294.5t-161.5 -242t-241.5 -161.5t-294 -60q-155 0 -295.5 60t-241.5 161.5t-161 242t-60 294.5zM842 811q39 1 60.5 22t21.5 48q0 25 -21.5 45t-60.5 20t-60.5 -20t-21.5 -45q0 -27 21.5 -48t60.5 -22zM842 514q51 0 75.5 24
t24.5 56q0 30 -25 52t-75 22t-75.5 -22t-25.5 -52q0 -32 25 -56t76 -24zM842 338q-154 0 -242 61.5t-88 163.5q0 64 44 113t112 67q-63 18 -98 65t-35 105q0 93 80.5 153t226.5 60q147 0 227 -60t80 -153q0 -58 -34.5 -105t-98.5 -65q66 -18 110.5 -65.5t44.5 -106.5
q0 -106 -86 -169.5t-243 -63.5z" />
    <glyph glyph-name="uni2788" unicode="&#x2788;" horiz-adv-x="1683" 
d="M264 725q0 -163 76 -298.5t209 -213.5t293 -78q119 0 226 46t183.5 125t121 188t44.5 231t-44.5 231.5t-121 188.5t-183.5 125.5t-226 46.5q-160 0 -293 -78.5t-209 -214.5t-76 -299zM84 725q0 154 60 294.5t161 242.5t241.5 162.5t295.5 60.5q154 0 294 -60.5
t241.5 -162.5t161.5 -242.5t60 -294.5t-60 -294.5t-161.5 -242t-241.5 -161.5t-294 -60q-155 0 -295.5 60t-241.5 161.5t-161 242t-60 294.5zM565 365l35 180q54 -23 127 -23q203 0 242 148q-67 -58 -172 -58q-69 0 -129.5 25.5t-101 81.5t-40.5 131q0 123 89 200.5
t241 77.5q146 0 240 -96.5t94 -253.5q0 -139 -58.5 -241t-157 -152.5t-222.5 -50.5q-82 0 -187 31zM944 858q0 37 -27 61.5t-67 24.5t-67 -24.5t-27 -61.5q0 -39 27 -63.5t67 -24.5t67 24.5t27 63.5z" />
    <glyph glyph-name="uniE000" unicode="&#xe000;" horiz-adv-x="1456" 
d="M457 -31l-496 563h369v920h1143v-268h-875v-652h360z" />
    <glyph glyph-name="uni21B5" unicode="&#xe001;" horiz-adv-x="2304" 
d="M543 170l-477 555h335q0 155 60 295.5t162 242.5t242.5 162t295.5 60q190 0 346 -84l-123 -238q-103 56 -223 56q-133 0 -246 -66.5t-179 -180.5t-66 -247h348zM1909 725q0 -155 -60 -295.5t-161 -241.5t-241.5 -161t-295.5 -60q-181 0 -346 84l123 236q109 -56 223 -56
q200 0 342.5 145.5t142.5 348.5h-346l475 555l478 -555h-334z" />
    <glyph glyph-name="uniE002" unicode="&#xe002;" horiz-adv-x="1966" 
d="M979 725l475 555l477 -555h-329q0 -155 -60 -295.5t-161 -241.5t-241.5 -161t-295.5 -60t-295.5 60t-242.5 161t-162 241.5t-60 295.5t60 295.5t162 242.5t242.5 162t295.5 60t297 -60l-105 -247q-87 41 -192 41q-99 0 -190.5 -39.5t-157.5 -106t-105 -158t-39 -190.5
t39 -190.5t105 -158t157.5 -106t190.5 -39.5q200 0 342.5 145.5t142.5 348.5h-350z" />
    <glyph glyph-name="uniFB00" unicode="&#xfb00;" horiz-adv-x="1413" 
d="M1386 756h-221v-756h-311v756h-358v-756h-312v756h-161v262h161v88q0 178 103 285.5t286 107.5q102 0 148 -22v-254q-40 10 -92 10q-51 0 -92 -29.5t-41 -97.5v-88h358v88q0 178 102.5 285.5t284.5 107.5q109 0 150 -20v-256q-40 10 -93 10q-23 0 -44.5 -6t-42.5 -19
t-33.5 -39.5t-12.5 -62.5v-88h221v-262z" />
    <glyph glyph-name="fi" unicode="&#xfb01;" horiz-adv-x="1316" 
d="M870 756h-374v-756h-312v756h-161v262h161v88q0 178 103 285.5t286 107.5q98 0 144 -22v-254q-35 10 -88 10q-51 0 -92 -29.5t-41 -97.5v-88h686v-1018h-312v756zM844 1329q0 76 53 129t127 53q77 0 130.5 -53t53.5 -129q0 -75 -54 -128.5t-130 -53.5q-74 0 -127 53.5
t-53 128.5z" />
    <glyph glyph-name="fl" unicode="&#xfb02;" horiz-adv-x="1318" 
d="M629 1233q-51 0 -92 -29.5t-41 -97.5v-88h372v465h314v-1483h-314v756h-372v-756h-312v756h-161v262h161v88q0 178 103 285.5t286 107.5q98 0 144 -22v-254q-35 10 -88 10z" />
    <glyph glyph-name="uniFB03" unicode="&#xfb03;" horiz-adv-x="1992" 
d="M573 1499q98 0 148 -24v-252q-40 10 -92 10q-54 0 -93.5 -29t-39.5 -98v-88h358v88q0 178 102.5 285.5t284.5 107.5q104 0 150 -22v-254q-40 10 -93 10q-23 0 -44.5 -6t-42.5 -19t-33.5 -39.5t-12.5 -62.5v-88h695v-1018h-314v756h-381v-756h-311v756h-358v-756h-312v756
h-161v262h161v88q0 178 103 285.5t286 107.5zM1520 1329q0 76 53.5 129t128.5 53q76 0 129 -52.5t53 -129.5q0 -75 -53 -128.5t-129 -53.5q-75 0 -128.5 53.5t-53.5 128.5z" />
    <glyph glyph-name="uniFB04" unicode="&#xfb04;" horiz-adv-x="1996" 
d="M629 1233q-51 0 -92 -29.5t-41 -97.5v-88h358v88q0 178 102.5 285.5t284.5 107.5q104 0 150 -22v-254q-40 10 -93 10q-23 0 -44.5 -6t-42.5 -19t-33.5 -39.5t-12.5 -62.5v-88h383v465h312v-1483h-312v756h-383v-756h-311v756h-358v-756h-312v756h-161v262h161v88
q0 178 103 285.5t286 107.5q102 0 148 -22v-254q-40 10 -92 10z" />
    <glyph glyph-name="uniFEFF" unicode="&#xfeff;" horiz-adv-x="0" 
 />
    <glyph glyph-name="zero.numr" horiz-adv-x="899" 
d="M334 952q0 -43 4 -75t15.5 -63.5t35.5 -48.5t60 -17t60 17t35 48.5t15 63.5t4 75t-4 75t-15 64t-35 49t-60 17t-60 -17t-35.5 -49t-15.5 -64t-4 -75zM96 952q0 166 74 267q94 129 279 129q186 0 280 -129q74 -101 74 -267q0 -165 -74 -266q-97 -129 -280 -129t-279 131
q-74 99 -74 264z" />
    <glyph glyph-name="one.numr" horiz-adv-x="649" 
d="M494 575h-236v435h-192v151q97 0 152.5 51.5t68.5 116.5h207v-754z" />
    <glyph glyph-name="two.numr" horiz-adv-x="811" 
d="M315 1030h-204q-9 36 -9 55q0 111 80 187t226 76q140 0 221.5 -73.5t81.5 -182.5q0 -135 -172 -234l-138 -80q-10 -7 -10 -10h326v-195h-619v27q0 111 43 193t144 139l123 69q73 42 73 93q0 25 -19.5 47t-60.5 22q-44 0 -68 -28t-24 -70q0 -23 6 -35z" />
    <glyph glyph-name="three.numr" horiz-adv-x="841" 
d="M96 803l211 37q2 -40 31.5 -67.5t75.5 -27.5q43 0 69.5 21.5t26.5 54.5q0 40 -27 61t-67 21q-33 0 -60 -12l-71 153l161 97h-323v188h596v-190l-174 -105q96 -15 148 -72.5t52 -146.5q0 -107 -90.5 -183.5t-240.5 -76.5q-136 0 -223 74t-95 174z" />
    <glyph glyph-name="four.numr" horiz-adv-x="897" 
d="M96 719v229l336 381h248v-436h121v-174h-121v-146h-227v146h-357zM453 893v209l-187 -209h187z" />
    <glyph glyph-name="five.numr" horiz-adv-x="823" 
d="M96 807l205 37q3 -41 35.5 -66.5t77.5 -25.5q42 0 68 22t26 60q0 47 -27.5 70.5t-74.5 23.5q-59 0 -97 -41l-188 53l90 389h473v-184h-338l-24 -107q53 41 145 41q124 0 195 -64t71 -179q0 -118 -84.5 -196.5t-234.5 -78.5q-130 0 -218.5 70.5t-99.5 175.5z" />
    <glyph glyph-name="six.numr" horiz-adv-x="858" 
d="M737 1313l-39 -180q-64 22 -137 22q-80 0 -143.5 -34t-89.5 -111q66 57 168 57q116 0 191 -62t75 -176q0 -122 -91.5 -199t-238.5 -77q-145 0 -240.5 95.5t-95.5 252.5q0 203 129 321.5t324 118.5q90 0 188 -28zM338 821q0 -37 27 -61.5t67 -24.5t68 25t28 61
q0 39 -28 64.5t-68 25.5t-67 -25.5t-27 -64.5z" />
    <glyph glyph-name="seven.numr" horiz-adv-x="829" 
d="M735 1329v-188q-28 -23 -53.5 -49t-65 -79t-69 -111t-55.5 -145.5t-35 -183.5h-246q6 100 34.5 195.5t64.5 159.5t71 114t59 74l23 23h-367v190h639z" />
    <glyph glyph-name="eight.numr" horiz-adv-x="868" 
d="M434 1030q39 1 60.5 22t21.5 48q0 25 -21.5 45t-60.5 20t-60.5 -20t-21.5 -45q0 -27 21.5 -48t60.5 -22zM434 733q51 0 76 24t25 56q0 30 -25.5 52t-75.5 22t-75 -22t-25 -52q0 -32 24.5 -56t75.5 -24zM434 557q-154 0 -242 61.5t-88 163.5q0 64 44 113.5t112 67.5
q-63 18 -98 65t-35 105q0 93 80.5 153t226.5 60q147 0 227 -60t80 -153q0 -58 -34.5 -105t-98.5 -65q66 -18 111 -65.5t45 -106.5q0 -106 -86.5 -170t-243.5 -64z" />
    <glyph glyph-name="nine.numr" horiz-adv-x="858" 
d="M135 584l35 180q54 -23 127 -23q203 0 242 148q-67 -58 -172 -58q-69 0 -129.5 25.5t-101 81.5t-40.5 131q0 124 89.5 201.5t240.5 77.5q146 0 240 -97t94 -254q0 -139 -58.5 -241t-157 -152.5t-222.5 -50.5q-82 0 -187 31zM514 1077q0 37 -27 61.5t-67 24.5t-67 -24.5
t-27 -61.5q0 -39 27 -63.5t67 -24.5t67 24.5t27 63.5z" />
    <glyph glyph-name="zero.dnom" horiz-adv-x="899" 
d="M334 377q0 -43 4 -75t15.5 -64t35.5 -49t60 -17t60 17t35 49t15 64t4 75t-4 75t-15 64t-35 49t-60 17t-60 -17t-35.5 -49t-15.5 -64t-4 -75zM96 377q0 165 74 266q94 129 279 129q186 0 280 -129q74 -101 74 -266t-74 -266q-97 -129 -280 -129t-279 131q-74 99 -74 264z
" />
    <glyph glyph-name="one.dnom" horiz-adv-x="630" 
d="M494 0h-236v434h-192v152q97 0 152.5 51.5t68.5 116.5h207v-754z" />
    <glyph glyph-name="two.dnom" horiz-adv-x="811" 
d="M315 457h-204q-9 36 -9 55q0 111 80 186.5t226 75.5q140 0 221.5 -73.5t81.5 -182.5q0 -134 -172 -233l-138 -80q-10 -7 -10 -10h326v-195h-619v27q0 110 43 192t144 139l123 70q73 42 73 92q0 26 -19.5 48t-60.5 22q-44 0 -68 -28t-24 -70q0 -23 6 -35z" />
    <glyph glyph-name="three.dnom" horiz-adv-x="841" 
d="M96 229l211 37q2 -39 31.5 -66.5t75.5 -27.5q43 0 69.5 21.5t26.5 54.5q0 40 -27 61t-67 21q-31 0 -60 -13l-71 154l161 96h-323v189h596v-191l-174 -104q96 -15 148 -72.5t52 -146.5q0 -107 -90.5 -183.5t-240.5 -76.5q-136 0 -223 73.5t-95 173.5z" />
    <glyph glyph-name="four.dnom" horiz-adv-x="897" 
d="M96 145v230l336 381h248v-437h121v-174h-121v-145h-227v145h-357zM453 319v209l-187 -209h187z" />
    <glyph glyph-name="five.dnom" horiz-adv-x="829" 
d="M96 231l205 37q3 -41 35.5 -66.5t77.5 -25.5q42 0 68 22t26 60q0 47 -27.5 70.5t-74.5 23.5q-59 0 -97 -41l-188 54l90 389h473v-185h-338l-24 -106q53 41 145 41q124 0 195 -64.5t71 -179.5q0 -118 -84.5 -196t-234.5 -78q-130 0 -218.5 70t-99.5 175z" />
    <glyph glyph-name="six.dnom" horiz-adv-x="858" 
d="M737 741l-39 -180q-67 23 -137 23q-80 0 -143.5 -34.5t-89.5 -111.5q67 58 168 58q116 0 191 -62t75 -176q0 -122 -91.5 -199t-238.5 -77q-145 0 -240.5 95.5t-95.5 252.5q0 203 129 321.5t324 118.5q87 0 188 -29zM338 250q0 -37 27 -61.5t67 -24.5t68 25t28 61
q0 39 -28 64.5t-68 25.5t-67 -25.5t-27 -64.5z" />
    <glyph glyph-name="seven.dnom" horiz-adv-x="829" 
d="M735 756v-189q-28 -23 -53.5 -49t-65 -78.5t-69 -111t-55.5 -145.5t-35 -183h-246q6 100 34.5 195t64.5 159.5t71 114t59 73.5l23 23h-367v191h639z" />
    <glyph glyph-name="eight.dnom" horiz-adv-x="868" 
d="M434 457q39 1 60.5 21.5t21.5 47.5q0 25 -21.5 45.5t-60.5 20.5t-60.5 -20.5t-21.5 -45.5q0 -27 21.5 -47.5t60.5 -21.5zM434 160q51 0 76 24t25 56q0 30 -25.5 51.5t-75.5 21.5t-75 -21.5t-25 -51.5q0 -32 24.5 -56t75.5 -24zM434 -16q-154 0 -242 61.5t-88 163.5
q0 64 44 113t112 67q-63 18 -98 65t-35 105q0 93 80.5 153t226.5 60q147 0 227 -60t80 -153q0 -58 -34.5 -105t-98.5 -65q66 -18 111 -65.5t45 -106.5q0 -106 -86.5 -169.5t-243.5 -63.5z" />
    <glyph glyph-name="nine.dnom" horiz-adv-x="858" 
d="M135 10l35 180q52 -22 127 -22q203 0 242 147q-66 -57 -172 -57q-69 0 -129.5 25.5t-101 81.5t-40.5 131q0 123 89 200.5t241 77.5q146 0 240 -96.5t94 -253.5q0 -139 -58.5 -241t-157 -152.5t-222.5 -50.5q-85 0 -187 30zM514 504q0 37 -27 61.5t-67 24.5t-67 -24.5
t-27 -61.5q0 -39 27 -63.5t67 -24.5t67 24.5t27 63.5z" />
    <glyph glyph-name="space.frac" horiz-adv-x="100" 
 />
    <glyph glyph-name="a.ordn" horiz-adv-x="864" 
d="M102 813q0 89 60 145t153 70l166 25q51 8 51 49q0 31 -26.5 51.5t-73.5 20.5q-52 0 -84 -30.5t-35 -70.5l-196 41q3 30 15.5 61.5t38 63.5t60.5 57t88 40.5t115 15.5q164 0 242 -79t78 -200v-348q0 -55 8 -111h-205q-6 30 -6 78q-63 -98 -199 -98q-114 0 -182 64t-68 155
zM410 756q51 0 86.5 32t35.5 105v31l-126 -21q-78 -10 -78 -76q0 -31 20 -51t62 -20z" />
    <glyph glyph-name="b.ordn" horiz-adv-x="1036" 
d="M385 614h-221v1039h225v-387q23 34 78.5 58t124.5 24q153 0 242.5 -104.5t89.5 -268.5t-96 -270.5t-244 -106.5q-67 0 -120 26.5t-79 67.5v-78zM698 973q0 83 -45 126.5t-110 43.5q-67 0 -112.5 -43.5t-45.5 -126.5q0 -82 46 -126t112 -44q65 0 110 43.5t45 126.5z" />
    <glyph glyph-name="c.ordn" horiz-adv-x="944" 
d="M498 1143q-70 0 -115 -46t-45 -126q0 -79 46.5 -123.5t115.5 -44.5q56 0 93 28.5t48 71.5l201 -57q-25 -105 -115 -178.5t-227 -73.5q-162 0 -274.5 107t-112.5 270q0 165 109.5 273t269.5 108q139 0 230 -73.5t116 -178.5l-203 -60q-14 45 -47.5 74t-89.5 29z" />
    <glyph glyph-name="d.ordn" horiz-adv-x="1042" 
d="M874 1653v-912q0 -49 5 -127h-217q-7 21 -7 64q-26 -35 -76 -57.5t-110 -22.5q-152 0 -254 106.5t-102 270.5q0 160 98 266.5t248 106.5q81 0 127 -22t63 -48v375h225zM340 973q0 -82 46 -126t112 -44q65 0 110 43.5t45 126.5t-45 126.5t-110 43.5q-67 0 -112.5 -43.5
t-45.5 -126.5z" />
    <glyph glyph-name="e.ordn" horiz-adv-x="923" 
d="M326 1059h276q-4 45 -37 80t-102 35q-61 0 -97.5 -36t-39.5 -79zM616 872l191 -51q-28 -98 -114 -162.5t-216 -64.5q-156 0 -265.5 103t-109.5 278q0 166 107 271.5t252 105.5q167 0 263.5 -97.5t96.5 -269.5q0 -14 -1 -30.5t-2 -28t-1 -13.5h-495q4 -55 49.5 -92
t107.5 -37q104 0 137 88z" />
    <glyph glyph-name="f.ordn" horiz-adv-x="698" 
d="M594 1139h-154v-525h-225v525h-113v190h113v57q0 125 73.5 202t203.5 77q76 0 104 -14v-187q-32 9 -64 9q-36 0 -64 -20.5t-28 -66.5v-57h154v-190z" />
    <glyph glyph-name="g.ordn" horiz-adv-x="956" 
d="M113 573l198 58q12 -50 52.5 -79.5t99.5 -29.5q172 0 172 178v21q-23 -32 -71 -54t-118 -22q-143 0 -238 99t-95 249q0 143 94.5 246.5t238.5 103.5q79 0 128.5 -27.5t66.5 -60.5v74h217v-622q0 -80 -23 -148t-68.5 -122t-121 -84.5t-172.5 -30.5q-148 0 -246 75
t-114 176zM487 842q66 0 107 41t41 110q0 67 -43.5 108.5t-104.5 41.5q-60 0 -103.5 -41.5t-43.5 -108.5q0 -69 42 -110t105 -41z" />
    <glyph glyph-name="h.ordn" horiz-adv-x="1007" 
d="M393 1034v-420h-229v1039h229v-367q30 30 79.5 46t98.5 16q134 0 203.5 -80t69.5 -205v-449h-228v410q0 53 -28 86t-82 33q-48 0 -79 -31t-34 -78z" />
    <glyph glyph-name="i.ordn" horiz-adv-x="589" 
d="M410 614h-230v715h230v-715zM164 1542q0 55 38.5 93t92.5 38t92.5 -38t38.5 -93q0 -54 -38.5 -92.5t-92.5 -38.5t-92.5 38.5t-38.5 92.5z" />
    <glyph glyph-name="j.ordn" horiz-adv-x="690" 
d="M281 592v737h229v-764q0 -108 -66.5 -175.5t-175.5 -67.5q-71 0 -125 18v190q32 -8 68 -8q70 0 70 70zM264 1542q0 55 38.5 93t92.5 38t92.5 -38t38.5 -93q0 -54 -38.5 -92.5t-92.5 -38.5t-92.5 38.5t-38.5 92.5z" />
    <glyph glyph-name="k.ordn" horiz-adv-x="970" 
d="M893 1329l-277 -299l283 -416h-276l-164 246l-66 -72v-174h-229v1039h229v-555l207 231h293z" />
    <glyph glyph-name="l.ordn" horiz-adv-x="557" 
d="M393 614h-229v1039h229v-1039z" />
    <glyph glyph-name="m.ordn" horiz-adv-x="1447" 
d="M393 614h-229v715h219v-82q26 46 85 75.5t118 29.5q153 0 213 -111q41 58 93 84.5t126 26.5q52 0 98.5 -16t84.5 -48t60.5 -86.5t22.5 -124.5v-463h-219v410q0 52 -28 84.5t-83 32.5q-53 0 -82.5 -34t-29.5 -83v-410h-226v410q0 52 -27.5 84.5t-82.5 32.5q-53 0 -83 -34
t-30 -83v-410z" />
    <glyph glyph-name="n.ordn" horiz-adv-x="1007" 
d="M393 1024v-410h-229v715h221v-80q26 47 82.5 73t116.5 26q129 0 194.5 -80t65.5 -205v-449h-228v410q0 53 -28 86t-82 33q-52 0 -82.5 -33.5t-30.5 -85.5z" />
    <glyph glyph-name="o.ordn" horiz-adv-x="987" 
d="M494 803q65 0 110 43.5t45 126.5t-45 126.5t-110 43.5q-64 0 -109 -43.5t-45 -126.5q0 -81 45.5 -125.5t108.5 -44.5zM494 1352q161 0 270.5 -107.5t109.5 -271.5q0 -165 -109 -272t-271 -107t-271.5 107t-109.5 272q0 164 110 271.5t271 107.5z" />
    <glyph glyph-name="p.ordn" horiz-adv-x="1036" 
d="M393 342h-229v987h221v-69q23 36 79.5 62t127.5 26q153 0 242.5 -104.5t89.5 -268.5t-96 -270.5t-244 -106.5q-64 0 -114.5 19t-76.5 49v-324zM702 973q0 83 -45 126.5t-110 43.5q-67 0 -112.5 -43.5t-45.5 -126.5q0 -82 46 -126t112 -44q65 0 110 43.5t45 126.5z" />
    <glyph glyph-name="q.ordn" horiz-adv-x="1038" 
d="M874 342h-223v326q-24 -32 -71.5 -51t-110.5 -19q-154 0 -255 106t-101 271q0 161 97 267t249 106q84 0 133.5 -27.5t64.5 -56.5v65h217v-987zM342 973q0 -82 45.5 -126t110.5 -44t111 43.5t46 126.5t-46 126.5t-111 43.5t-110.5 -43.5t-45.5 -126.5z" />
    <glyph glyph-name="r.ordn" horiz-adv-x="636" 
d="M627 1329v-223q-31 8 -64 8q-75 0 -122.5 -45t-47.5 -147v-308h-229v715h221v-92q22 48 70.5 73t99.5 25q37 0 72 -6z" />
    <glyph glyph-name="s.ordn" horiz-adv-x="817" 
d="M113 819l192 31q2 -37 29 -63.5t78 -26.5q39 0 59.5 16t20.5 41q0 39 -68 55l-78 17q-113 25 -165 84t-52 139q0 100 78.5 170t198.5 70q60 0 109 -14.5t80.5 -37t53.5 -52t31.5 -57t11.5 -54.5l-186 -33q-5 38 -29 61t-67 23q-30 0 -52 -16.5t-22 -41.5q0 -41 53 -51
l92 -18q109 -21 166.5 -82t57.5 -143q0 -100 -75.5 -171t-213.5 -71q-64 0 -117 16t-85.5 40t-55.5 55.5t-33 59.5t-12 54z" />
    <glyph glyph-name="t.ordn" horiz-adv-x="671" 
d="M422 1536v-207h137v-199h-137v-256q0 -40 19.5 -55.5t56.5 -15.5q29 0 61 4v-186q-47 -19 -119 -19q-114 0 -178.5 62t-64.5 170v296h-125v199h34q55 0 83 32.5t28 84.5v90h205z" />
    <glyph glyph-name="u.ordn" horiz-adv-x="962" 
d="M582 614q-7 25 -7 72q-26 -43 -78.5 -65.5t-109.5 -22.5q-127 0 -200.5 80.5t-73.5 198.5v452h227v-401q0 -53 28.5 -86t82.5 -33q52 0 82 31.5t30 83.5v405h230v-588q0 -67 6 -127h-217z" />
    <glyph glyph-name="v.ordn" horiz-adv-x="874" 
d="M834 1329l-271 -715h-229l-293 715h246l162 -432l147 432h238z" />
    <glyph glyph-name="w.ordn" horiz-adv-x="1302" 
d="M539 1329h241l133 -409l115 409h223l-221 -715h-225l-152 453l-149 -453h-230l-223 715h236l114 -407z" />
    <glyph glyph-name="x.ordn" horiz-adv-x="874" 
d="M57 614l244 357l-250 358h268l121 -186l121 186h254l-246 -350l254 -365h-264l-129 193l-123 -193h-250z" />
    <glyph glyph-name="y.ordn" horiz-adv-x="897" 
d="M422 342h-240l162 371l-301 616h254l170 -371l151 371h242z" />
    <glyph glyph-name="z.ordn" horiz-adv-x="829" 
d="M717 614h-604v201l309 322h-299v192h588v-186l-324 -334h330v-195z" />
    <glyph glyph-name="space.tf" 
 />
    <glyph glyph-name="numbersign.tf" 
d="M1079 1329l-67 -311h170v-217h-215l-58 -262h168v-220h-215l-67 -319h-236l68 319h-207l-68 -319h-235l67 319h-164v220h211l58 262h-166v217h211l67 311h236l-68 -311h207l68 311h235zM524 801l-57 -262h207l57 262h-207z" />
    <glyph glyph-name="dollar.tf" 
d="M748 -238h-236v220q-103 17 -186 62.5t-133.5 106.5t-78.5 126.5t-34 130.5l280 63q8 -97 76 -160t193 -63q78 0 127 34.5t49 92.5q0 89 -127 117l-182 43q-173 42 -271 143.5t-98 245.5q0 165 109.5 279t275.5 143v221h236v-228q81 -18 145.5 -55.5t105.5 -86.5t66 -100
t37 -106l-283 -76q-32 168 -209 168q-82 0 -127 -38.5t-45 -92.5q0 -42 31 -72.5t90 -43.5l178 -39q196 -44 288.5 -151.5t92.5 -254.5q0 -145 -98.5 -259.5t-271.5 -145.5v-224z" />
    <glyph glyph-name="percent.tf" 
d="M1075 1098v-207l-987 -672v205zM240 1059q0 -50 29 -80.5t75 -30.5q45 0 73.5 31t28.5 80q0 52 -28.5 82t-73.5 30q-46 0 -75 -30t-29 -82zM47 1059q0 122 87.5 206.5t209.5 84.5q121 0 207 -84.5t86 -206.5t-86 -204.5t-209 -82.5t-209 83.5t-86 203.5zM754 272
q0 -50 29 -80t75 -30q45 0 74 30.5t29 79.5q0 52 -29 82.5t-74 30.5q-46 0 -75 -30.5t-29 -82.5zM561 272q0 122 87.5 206.5t209.5 84.5q121 0 207 -84.5t86 -206.5t-86 -204t-209 -82t-209 83t-86 203z" />
    <glyph glyph-name="plus.tf" 
d="M80 737h389v400h262v-400h387v-254h-387v-399h-262v399h-389v254z" />
    <glyph glyph-name="comma.tf" 
d="M367 199q0 90 64.5 150.5t160.5 60.5q115 0 180.5 -82t65.5 -201q0 -101 -27.5 -186t-71.5 -142.5t-102 -100t-115 -64t-114 -27.5v160q82 15 152 82.5t73 162.5q-16 -16 -64 -16q-90 0 -146 58t-56 145z" />
    <glyph glyph-name="period.tf" 
d="M369 213q0 95 68 163t163 68q96 0 165 -68t69 -163q0 -94 -69.5 -163.5t-164.5 -69.5t-163 69.5t-68 163.5z" />
    <glyph glyph-name="zero.tf" 
d="M385 664q0 -52 1 -87t5.5 -82.5t13 -78.5t24.5 -65.5t38.5 -54.5t56.5 -33t78 -13q38 0 68.5 9t52.5 28t38 40.5t26 54.5t16.5 62t9 71t3.5 73t1 76q0 53 -1 87.5t-5.5 82t-13 78.5t-24 64.5t-38 53t-56.5 32.5t-77 13q-44 0 -78 -13t-56.5 -32.5t-38.5 -53t-24.5 -64.5
t-13 -78.5t-5.5 -82t-1 -87.5zM59 664q0 316 107 477q68 102 180.5 160.5t255.5 58.5q142 0 253.5 -57t180.5 -160q107 -164 107 -479q0 -318 -107 -480q-69 -103 -180.5 -160t-253.5 -57q-144 0 -255.5 57t-180.5 160q-107 162 -107 480z" />
    <glyph glyph-name="one.tf" 
d="M152 268h333v596h-299v215q143 1 234.5 72.5t109.5 177.5h279v-1061h303v-268h-960v268z" />
    <glyph glyph-name="two.tf" 
d="M420 797l-303 2q-13 35 -13 110q0 90 33.5 171t95 143.5t157.5 99.5t212 37q112 0 205.5 -34.5t156 -94t97.5 -139t35 -168.5q0 -260 -262 -414l-252 -150q-69 -44 -90 -90h614v-270h-1010q0 197 70.5 341.5t243.5 244.5l217 127q78 46 111.5 92.5t33.5 112.5
q0 67 -46.5 112t-131.5 45q-90 0 -138 -54.5t-48 -141.5q0 -41 12 -82z" />
    <glyph glyph-name="three.tf" 
d="M463 578l-139 213l327 268h-555v270h959v-250l-328 -254q157 -11 265 -124.5t108 -280.5q0 -89 -36 -170t-101.5 -143t-165.5 -99t-219 -37q-113 0 -209.5 34.5t-163 93.5t-106.5 135.5t-48 162.5l311 58q3 -90 62 -149.5t151 -59.5q91 0 145 53t54 129q0 89 -56.5 134.5
t-135.5 45.5q-61 0 -119 -30z" />
    <glyph glyph-name="four.tf" 
d="M59 276v328l545 725h383v-782h187v-271h-187v-276h-321v276h-607zM666 547v438l-324 -438h324z" />
    <glyph glyph-name="five.tf" 
d="M100 379l299 61q5 -81 63 -139.5t152 -58.5q85 0 142 52t57 140q0 94 -60.5 145.5t-146.5 51.5q-62 0 -109.5 -25t-76.5 -61q-1 0 -47 15t-98 31.5t-97 31.5t-47 16l150 690h772v-270h-549l-53 -250q37 33 101.5 52.5t123.5 19.5q208 0 333.5 -117t125.5 -328
q0 -94 -35.5 -178t-100 -149t-164.5 -103.5t-221 -38.5q-107 0 -202 35t-160.5 92.5t-105.5 131.5t-46 153z" />
    <glyph glyph-name="six.tf" 
d="M1114 1305l-84 -263q-103 41 -219 41q-162 0 -280.5 -86.5t-143.5 -257.5q37 63 116.5 104.5t190.5 41.5q194 0 316.5 -123.5t122.5 -317.5q0 -205 -145.5 -340t-371.5 -135q-115 0 -214 42t-172 118.5t-114.5 191.5t-41.5 254q0 355 209.5 570t556.5 215q184 0 274 -55z
M414 432q0 -83 58.5 -137.5t139.5 -54.5q84 0 141.5 53t57.5 139q0 87 -57.5 141t-141.5 54q-82 0 -140 -54t-58 -141z" />
    <glyph glyph-name="seven.tf" 
d="M1130 1329v-258q-34 -29 -57 -50.5t-79 -81.5t-98 -117t-97 -150t-93.5 -188t-70.5 -222.5t-43 -261.5h-336q11 140 44 274.5t77.5 237t96 193.5t100.5 154.5t89 109.5t65 68l24 22h-703v270h1081z" />
    <glyph glyph-name="eight.tf" 
d="M600 795q83 1 126.5 45.5t43.5 109.5q0 57 -45.5 100.5t-124.5 43.5t-124.5 -43.5t-45.5 -100.5q0 -64 44 -109t126 -46zM600 231q92 0 145.5 50.5t53.5 115.5q0 68 -51.5 119t-147.5 51q-95 0 -146 -51t-51 -119q0 -65 53 -115.5t144 -50.5zM600 -31q-226 0 -369 108.5
t-143 282.5q0 104 61 193.5t164 130.5q-65 23 -112 74t-67.5 106.5t-20.5 110.5q0 168 136.5 276.5t350.5 108.5q216 0 353 -108.5t137 -276.5q0 -86 -53.5 -171.5t-149.5 -119.5q103 -41 165 -130.5t62 -193.5q0 -174 -143 -282.5t-371 -108.5z" />
    <glyph glyph-name="nine.tf" 
d="M88 39l72 260q37 -20 102.5 -36.5t128.5 -16.5q79 0 146.5 18.5t123.5 56t91.5 102t42.5 150.5q-40 -60 -117.5 -94.5t-165.5 -34.5q-125 0 -227 55.5t-162 158.5t-60 233q0 204 142 336.5t368 132.5q112 0 208 -41.5t168 -120t113.5 -201t41.5 -276.5q0 -352 -184 -552
t-523 -200q-87 0 -170.5 19.5t-138.5 50.5zM752 901q0 82 -55.5 134t-135.5 52t-135 -52t-55 -134t55 -134t135 -52q79 0 135 53t56 133z" />
    <glyph glyph-name="colon.tf" 
d="M379 176q0 91 65 156t156 65t157 -65t66 -156q0 -89 -66 -155t-157 -66q-90 0 -155.5 65.5t-65.5 155.5zM379 829q0 91 65 156.5t156 65.5t157 -65.5t66 -156.5q0 -89 -66 -155t-157 -66q-90 0 -155.5 65.5t-65.5 155.5z" />
    <glyph glyph-name="semicolon.tf" 
d="M379 193q0 85 60 140.5t151 55.5q106 0 167.5 -77t61.5 -187q0 -94 -26 -174t-67 -133.5t-95 -93t-107.5 -60t-107.5 -26.5v151q78 13 144 76t69 151q-17 -14 -60 -14q-86 0 -138 54.5t-52 136.5zM379 827q0 91 65 156.5t156 65.5t157 -65.5t66 -156.5q0 -89 -66 -155
t-157 -66q-90 0 -155.5 65.5t-65.5 155.5z" />
    <glyph glyph-name="less.tf" 
d="M145 500v221l899 459v-283l-589 -281l589 -284v-287z" />
    <glyph glyph-name="equal.tf" 
d="M1106 694h-1014v250h1014v-250zM1106 283h-1014v249h1014v-249z" />
    <glyph glyph-name="greater.tf" 
d="M1057 723v-221l-899 -457v281l590 282l-590 285v287z" />
    <glyph glyph-name="cent.tf" 
d="M750 0h-236v172q-173 41 -281 170.5t-108 310.5q0 184 108.5 316.5t280.5 169.5v190h236v-188q140 -28 231 -115.5t121 -200.5l-266 -77q-17 61 -65 101t-128 40q-95 0 -158 -63.5t-63 -172.5t63.5 -170t161.5 -61q79 0 130.5 40.5t68.5 98.5l262 -78
q-29 -114 -123 -202.5t-235 -114.5v-166z" />
    <glyph glyph-name="sterling.tf" 
d="M131 784h117q-29 89 -29 172q0 77 29.5 148.5t84 129t140.5 92t191 34.5q92 0 166.5 -24t122 -63t79 -90.5t45 -103t13.5 -104.5v-10l-269 -39v10q0 78 -38 124t-115 46q-67 0 -109.5 -41t-42.5 -119q0 -69 35 -162h360v-225h-288q2 -12 2 -37q0 -172 -127 -256h229
q66 0 109 42t43 110l270 -17q0 -175 -106 -288t-275 -113h-645v242q100 35 156.5 98.5t56.5 151.5q0 32 -6 67h-199v225z" />
    <glyph glyph-name="currency.tf" 
d="M156 508q0 113 51 207l-146 147l187 185l151 -152q92 47 203 47q118 0 201 -47l151 152l187 -185l-146 -147q54 -90 54 -207q0 -109 -54 -209l146 -143l-187 -187l-149 152q-92 -47 -203 -47t-203 47l-151 -152l-187 187l148 145q-53 88 -53 207zM412 508q0 -82 53 -134
t137 -52q85 0 138 52t53 134t-53 134t-138 52q-84 0 -137 -52t-53 -134z" />
    <glyph glyph-name="yen.tf" 
d="M1092 256h-342v-256h-301v256h-322v217h322v129h-322v217h174l-276 510h348l235 -483l236 483h334l-283 -510h197v-217h-342v-129h342v-217z" />
    <glyph glyph-name="section.tf" horiz-adv-x="1208" 
d="M1047 528q0 -166 -150 -258q147 -114 147 -286q0 -90 -37.5 -167t-99 -128.5t-140.5 -80t-163 -28.5q-199 0 -319 105t-129 280l293 45q0 -84 42.5 -124t112.5 -40q58 0 93.5 33t35.5 84q0 32 -20 61t-54 44l-206 104q-51 26 -90 50t-78.5 57.5t-65 69t-41.5 83.5
t-16 103q0 173 149 258q-145 115 -145 288q0 119 64 212.5t164 141.5t214 48q196 0 316.5 -106t128.5 -279l-291 -45q0 86 -42 125t-112 39q-59 0 -95 -33.5t-36 -83.5q0 -32 20 -60t54 -43l207 -106q66 -34 111 -64t89 -73.5t66.5 -100t22.5 -125.5zM700 580l-208 110
q-50 -47 -50 -92q0 -40 15 -66t53 -47l209 -110q51 47 51 92q0 75 -70 113z" />
    <glyph glyph-name="logicalnot.tf" 
d="M1096 264h-267v400h-763v256h1030v-656z" />
    <glyph glyph-name="plusminus.tf" 
d="M106 897h363v240h262v-240h365v-254h-365v-237h-262v237h-363v254zM106 336h990v-254h-990v254z" />
    <glyph glyph-name="multiply.tf" 
d="M936 88l-336 338l-336 -338l-184 188l334 336l-334 338l184 185l336 -338l336 338l184 -185l-336 -338l336 -336z" />
    <glyph glyph-name="divide.tf" 
d="M420 995q0 71 51 121.5t123 50.5t123 -50.5t51 -121.5t-51 -122.5t-123 -51.5t-123 51.5t-51 122.5zM84 485v254h1034v-254h-1034zM420 233q0 69 51 119.5t123 50.5t123 -50.5t51 -119.5q0 -71 -51 -122.5t-123 -51.5t-123 51.5t-51 122.5z" />
    <glyph glyph-name="florin.tf" 
d="M309 61l142 697h-191v258h242l35 168q22 111 88 189t147 111.5t170 33.5q71 0 107 -6.5t92 -26.5v-266q-69 16 -137 16q-21 0 -42 -5.5t-45.5 -19t-44 -43t-28.5 -71.5l-17 -80h226v-258h-279l-158 -785q-17 -85 -59 -151t-98.5 -104.5t-119.5 -58t-128 -19.5
q-71 0 -109.5 6.5t-95.5 23.5v269q70 -17 144 -17q21 0 42 5.5t45 19.5t43.5 43.5t28.5 70.5z" />
    <glyph glyph-name="uni2007.tf" 
 />
    <glyph glyph-name="uni2008.tf" 
 />
    <glyph glyph-name="perthousand.tf" 
d="M1096 1241v-207l-1010 -690v205zM215 1098q0 -44 26 -72.5t66 -28.5t66 28.5t26 72.5q0 43 -26 70.5t-66 27.5t-66 -27.5t-26 -70.5zM47 1098q0 107 77 181.5t183 74.5t183 -74.5t77 -181.5q0 -108 -76.5 -181t-183.5 -73q-109 0 -184.5 73.5t-75.5 180.5zM268 238
q0 106 76.5 181t181.5 75q106 0 183 -74q77 74 182 74q106 0 183 -74.5t77 -181.5q0 -108 -76.5 -181t-183.5 -73q-108 0 -182 71q-74 -71 -183 -71q-108 0 -183 73.5t-75 180.5zM891 336q-40 0 -66 -27t-26 -71t26 -72.5t66 -28.5t66 28.5t26 72.5q0 43 -26 70.5t-66 27.5z
M526 336q-39 0 -65.5 -28t-26.5 -70q0 -44 26.5 -72.5t65.5 -28.5q41 0 66.5 28.5t25.5 72.5q0 43 -25.5 70.5t-66.5 27.5z" />
    <glyph glyph-name="Euro.tf" 
d="M219 662q0 26 2 53h-127v207h170q75 200 252 319t397 119q149 0 261 -45l-78 -264q-73 30 -183 30q-93 0 -174.5 -39t-132.5 -120h455l-57 -207h-461q-2 -27 -2 -53q0 -29 2 -58h430l-55 -209h-302q51 -70 129 -105.5t170 -35.5q109 0 185 31l74 -262q-44 -23 -116 -39.5
t-143 -16.5q-227 0 -401.5 114t-249.5 314h-170v209h127q-2 27 -2 58z" />
    <glyph glyph-name="minus.tf" 
d="M1114 485h-1026v254h1026v-254z" />
    <glyph glyph-name="approxequal.tf" 
d="M995 981l164 -133q-57 -106 -147.5 -163.5t-200.5 -59.5q-115 0 -229 63l-99 53q-53 27 -102 27q-104 0 -172 -100l-168 133q57 107 149 165t201 58q116 0 225 -59l99 -54q54 -28 104 -28q113 0 176 98zM995 563l164 -135q-56 -106 -148 -163.5t-202 -57.5
q-114 0 -227 61l-99 54q-51 26 -104 26q-100 0 -170 -98l-168 133q56 103 146.5 162t197.5 59q119 0 231 -59l99 -53q56 -29 104 -29q109 0 176 100z" />
    <glyph glyph-name="notequal.tf" 
d="M1106 283h-563l-121 -197h-270l120 197h-180v249h334l98 162h-432v250h586l110 180h271l-111 -180h158v-250h-311l-99 -162h410v-249z" />
    <glyph glyph-name="lessequal.tf" 
d="M154 336h899v-254h-899v254zM154 659v246l899 266v-251l-545 -134l545 -135v-258z" />
    <glyph glyph-name="greaterequal.tf" 
d="M152 336h899v-254h-899v254zM1051 905v-246l-899 -266v252l544 133l-544 137v256z" />
    <glyph glyph-name="parenleft.case" horiz-adv-x="663" 
d="M76 727q0 165 31 311t89.5 266t126 215t156.5 187l185 -154q-82 -97 -138.5 -182.5t-102 -185.5t-67.5 -213.5t-22 -243.5q0 -172 42 -320.5t110 -261.5t178 -243l-185 -154q-89 93 -156.5 188t-126 214.5t-89.5 265.5t-31 311z" />
    <glyph glyph-name="parenright.case" horiz-adv-x="663" 
d="M588 727q0 -133 -21.5 -255t-57 -220.5t-88.5 -191.5t-109.5 -166t-127.5 -146l-184 154q110 130 178 243t110 261.5t42 320.5q0 130 -22 243.5t-67.5 213.5t-102 185.5t-138.5 182.5l184 154q89 -92 157.5 -187t126.5 -215t89 -266t31 -311z" />
    <glyph glyph-name="hyphen.case" horiz-adv-x="798" 
d="M707 580h-615v280h615v-280z" />
    <glyph glyph-name="bracketleft.case" horiz-adv-x="677" 
d="M668 -242h-510v1930h510v-232h-252v-1460h252v-238z" />
    <glyph glyph-name="bracketright.case" horiz-adv-x="677" 
d="M522 -242h-512v238h254v1460h-254v232h512v-1930z" />
    <glyph glyph-name="braceleft.case" horiz-adv-x="788" 
d="M92 600v254q197 0 197 180v252q0 199 108.5 300.5t298.5 101.5h82v-232h-76q-65 0 -110 -40t-45 -128v-301q0 -94 -52.5 -162.5t-150.5 -97.5q96 -28 149.5 -97t53.5 -165v-301q0 -88 45 -128t110 -40h76v-232h-82q-190 0 -298.5 102t-108.5 302v252q0 180 -197 180z" />
    <glyph glyph-name="braceright.case" horiz-adv-x="788" 
d="M696 854v-254q-194 0 -194 -180v-252q0 -200 -109 -302t-301 -102h-82v232h76q66 0 112 40t46 128v301q0 96 52 165.5t148 96.5q-97 29 -148.5 97t-51.5 163v301q0 88 -46 128t-112 40h-76v232h82q192 0 301 -101.5t109 -300.5v-252q0 -180 194 -180z" />
    <glyph glyph-name="exclamdown.case" horiz-adv-x="651" 
d="M440 997l72 -997h-373l72 997h229zM150 1294q0 74 51 125t125 51t126 -51.5t52 -124.5q0 -72 -52.5 -124t-125.5 -52t-124.5 52t-51.5 124z" />
    <glyph glyph-name="guillemotleft.case" horiz-adv-x="1126" 
d="M627 311h-291l-283 400l287 409h289l-285 -411zM1094 311h-293l-283 400l287 409h291l-285 -411z" />
    <glyph glyph-name="uni00AD.case" horiz-adv-x="798" 
d="M707 584h-615v280h615v-280z" />
    <glyph glyph-name="guillemotright.case" horiz-adv-x="1126" 
d="M791 311h-291l282 398l-284 411h290l287 -409zM326 311h-293l284 398l-284 411h289l286 -409z" />
    <glyph glyph-name="questiondown.case" horiz-adv-x="1064" 
d="M438 999h244q8 -58 8 -90q0 -174 -151 -288l-103 -78q-76 -59 -76 -144q0 -64 47.5 -108.5t135.5 -44.5q89 0 138.5 55.5t49.5 136.5q0 36 -10 78l293 -24q8 -39 8 -89q0 -188 -134.5 -311t-344.5 -123q-121 0 -218 34.5t-157 92t-91.5 129t-31.5 150.5q0 221 195 368
l77 58q61 45 91 90.5t30 107.5zM381 1296q0 73 52 125t124 52q73 0 124.5 -51.5t51.5 -125.5q0 -72 -51.5 -124t-124.5 -52q-72 0 -124 52t-52 124z" />
    <glyph glyph-name="endash.case" horiz-adv-x="1302" 
d="M1182 586h-1059v270h1059v-270z" />
    <glyph glyph-name="emdash.case" horiz-adv-x="2195" 
d="M2054 586h-1911v270h1911v-270z" />
    <glyph glyph-name="guilsinglleft.case" horiz-adv-x="661" 
d="M627 311h-291l-283 400l287 409h289l-285 -411z" />
    <glyph glyph-name="guilsinglright.case" horiz-adv-x="661" 
d="M326 311h-293l284 398l-284 411h291l284 -409z" />
    <glyph glyph-name="G.ss01" horiz-adv-x="1591" 
d="M834 -31q-159 0 -299 56t-241.5 154.5t-160.5 240t-59 305.5q0 163 59.5 305t161 241t239.5 155.5t291 56.5q122 0 227.5 -29.5t179.5 -77t132 -111t91 -127.5t50 -130l-319 -86q-7 29 -21 60t-42.5 67.5t-67 64.5t-98.5 47t-132 19q-79 0 -151 -26.5t-133.5 -79
t-98 -142.5t-36.5 -207q0 -144 58.5 -249t154 -155.5t215.5 -50.5q125 0 224 58.5t124 167.5h-477v280h817q6 -43 6 -133q-1 -139 -51 -262t-138.5 -214.5t-219 -144.5t-285.5 -53z" />
    <glyph glyph-name="a.ss02" horiz-adv-x="1284" 
d="M377 510q0 -123 66.5 -196.5t166.5 -73.5q98 0 165 73t67 197q0 127 -66 197.5t-166 70.5q-103 0 -168 -70t-65 -198zM844 121v10q-34 -74 -107 -117t-168 -43q-223 0 -364.5 152.5t-141.5 388.5q0 231 137 384t359 153q64 0 117.5 -16t86 -41t51.5 -47.5t28 -43.5v117
h301v-836q0 -90 8 -182h-299q-8 46 -8 121z" />
    <glyph glyph-name="agrave.ss02" horiz-adv-x="1284" 
d="M377 510q0 -123 66.5 -196.5t166.5 -73.5q98 0 165 73t67 197q0 127 -66 197.5t-166 70.5q-103 0 -168 -70t-65 -198zM844 121v10q-34 -74 -107 -117t-168 -43q-223 0 -364.5 152.5t-141.5 388.5q0 231 137 384t359 153q64 0 117.5 -16t86 -41t51.5 -47.5t28 -43.5v117
h301v-836q0 -90 8 -182h-299q-8 46 -8 121zM537 1139l-291 309h354l191 -309h-254z" />
    <glyph glyph-name="aacute.ss02" horiz-adv-x="1284" 
d="M961 1448l-289 -309h-248l188 309h349zM377 510q0 -123 66.5 -196.5t166.5 -73.5q98 0 165 73t67 197q0 127 -66 197.5t-166 70.5q-103 0 -168 -70t-65 -198zM844 121v10q-34 -74 -107 -117t-168 -43q-223 0 -364.5 152.5t-141.5 388.5q0 231 137 384t359 153
q64 0 117.5 -16t86 -41t51.5 -47.5t28 -43.5v117h301v-836q0 -90 8 -182h-299q-8 46 -8 121z" />
    <glyph glyph-name="acircumflex.ss02" horiz-adv-x="1284" 
d="M481 1139h-231l231 309h293l234 -309h-238l-145 145zM377 510q0 -123 66.5 -196.5t166.5 -73.5q98 0 165 73t67 197q0 127 -66 197.5t-166 70.5q-103 0 -168 -70t-65 -198zM844 121v10q-34 -74 -107 -117t-168 -43q-223 0 -364.5 152.5t-141.5 388.5q0 231 137 384
t359 153q64 0 117.5 -16t86 -41t51.5 -47.5t28 -43.5v117h301v-836q0 -90 8 -182h-299q-8 46 -8 121z" />
    <glyph glyph-name="atilde.ss02" horiz-adv-x="1284" 
d="M377 510q0 -123 66.5 -196.5t166.5 -73.5q98 0 165 73t67 197q0 127 -66 197.5t-166 70.5q-103 0 -168 -70t-65 -198zM844 121v10q-34 -74 -107 -117t-168 -43q-223 0 -364.5 152.5t-141.5 388.5q0 231 137 384t359 153q64 0 117.5 -16t86 -41t51.5 -47.5t28 -43.5v117
h301v-836q0 -90 8 -182h-299q-8 46 -8 121zM1012 1446v-41q0 -130 -63 -198t-167 -68q-67 0 -155 47q-8 4 -23.5 12t-24 12t-21 9t-24 7.5t-22.5 2.5q-67 0 -70 -88h-176v47q0 127 65 193.5t167 66.5q70 0 155 -47q74 -45 113 -45q69 0 72 90h174z" />
    <glyph glyph-name="adieresis.ss02" horiz-adv-x="1284" 
d="M240 1294q0 66 44.5 112t110.5 46t112 -46t46 -112t-46 -110.5t-112 -44.5t-110.5 44.5t-44.5 110.5zM692 1294q0 66 45 112t111 46t112 -46t46 -112t-46 -110.5t-112 -44.5t-111 44.5t-45 110.5zM377 510q0 -123 66.5 -196.5t166.5 -73.5q98 0 165 73t67 197
q0 127 -66 197.5t-166 70.5q-103 0 -168 -70t-65 -198zM844 121v10q-34 -74 -107 -117t-168 -43q-223 0 -364.5 152.5t-141.5 388.5q0 231 137 384t359 153q64 0 117.5 -16t86 -41t51.5 -47.5t28 -43.5v117h301v-836q0 -90 8 -182h-299q-8 46 -8 121z" />
    <glyph glyph-name="aring.ss02" horiz-adv-x="1284" 
d="M846 1335q0 -99 -70 -163t-168 -64t-167.5 64t-69.5 163t70 165.5t167 66.5t167.5 -66.5t70.5 -165.5zM684 1335q0 35 -21.5 56.5t-54.5 21.5t-54.5 -21.5t-21.5 -56.5t21.5 -56.5t54.5 -21.5t54.5 21.5t21.5 56.5zM377 510q0 -123 66.5 -196.5t166.5 -73.5q98 0 165 73
t67 197q0 127 -66 197.5t-166 70.5q-103 0 -168 -70t-65 -198zM844 121v10q-34 -74 -107 -117t-168 -43q-223 0 -364.5 152.5t-141.5 388.5q0 231 137 384t359 153q64 0 117.5 -16t86 -41t51.5 -47.5t28 -43.5v117h301v-836q0 -90 8 -182h-299q-8 46 -8 121z" />
    <glyph glyph-name="r.ss03" horiz-adv-x="882" 
d="M449 1018v-1018h-312v1018h312zM451 834q0 86 57.5 144t142.5 58q86 0 144.5 -58t58.5 -144q0 -85 -58.5 -143t-144.5 -58q-85 0 -142.5 58t-57.5 143z" />
    <glyph glyph-name="ampersand.ss04" horiz-adv-x="1478" 
d="M784 467v260h609v-260h-136q-5 -102 -45 -191t-111.5 -158t-181 -109t-243.5 -40q-263 0 -416.5 126t-153.5 321q0 140 89 241.5t206 130.5q-95 30 -159 116.5t-64 189.5q0 168 132.5 278.5t338.5 110.5q99 0 181 -22.5t137 -60.5t94 -90.5t57.5 -109.5t22.5 -121
l-310 -32q-2 80 -47 130t-133 50q-63 0 -112.5 -40.5t-49.5 -105.5q0 -41 17.5 -73.5t44.5 -50t55.5 -26.5t55.5 -9h22v-260h-8q-44 0 -85.5 -12.5t-78 -37t-58.5 -68t-22 -100.5q0 -83 64.5 -144.5t187.5 -61.5q110 0 177 59.5t73 169.5h-150z" />
    <glyph glyph-name="one.ss05" horiz-adv-x="1019" 
d="M74 268h301v596h-299v215q143 1 233.5 72t110.5 178h276v-1061h295v-268h-917v268z" />
    <glyph glyph-name="registered.ss06" horiz-adv-x="878" 
d="M45 1077q0 163 115 278t278 115t279.5 -115.5t116.5 -277.5t-116.5 -277.5t-279.5 -115.5t-278 115t-115 278zM158 1077q0 -120 81 -202t199 -82q119 0 200 82t81 202t-81.5 202.5t-199.5 82.5t-199 -82.5t-81 -202.5zM483 883l-53 133h-22v-133h-119v401h176
q60 0 100.5 -38.5t40.5 -96.5q0 -76 -69 -113l73 -153h-127zM408 1110h28q23 0 37 11t14 28q0 39 -51 39h-28v-78z" />
    <glyph glyph-name="caron.alt" horiz-adv-x="444" 
d="M401 1452l-153 -424h-203l59 424h297z" />
    <glyph glyph-name="commaaccent" horiz-adv-x="436" 
d="M45 1430q0 60 45.5 101.5t116.5 41.5q81 0 132.5 -56t51.5 -135q0 -66 -20 -117t-50.5 -80.5t-72.5 -48t-80 -24.5t-78 -6h-16v106q84 0 129.5 24.5t50.5 68.5q0 -1 -7.5 -4.5t-23 -7t-33.5 -3.5q-69 0 -107 39.5t-38 100.5z" />
    <glyph glyph-name="commaturn" horiz-adv-x="395" 
d="M371 1257q0 -59 -45.5 -100t-116.5 -41q-80 0 -132 55t-52 134q0 73 29.5 128.5t76.5 86t96.5 45t98.5 14.5h16v-104q-80 0 -127.5 -28.5t-52.5 -64.5q30 15 63 15q69 0 107.5 -40t38.5 -100z" />
    <glyph glyph-name="dieresis.narrow" horiz-adv-x="720" 
d="M23 1296q0 64 44 108t109 44q63 0 107.5 -44.5t44.5 -107.5q0 -65 -44 -109t-108 -44q-66 0 -109.5 43.5t-43.5 109.5zM393 1296q0 63 43.5 107.5t106.5 44.5q64 0 108.5 -44.5t44.5 -107.5q0 -66 -44 -109.5t-109 -43.5q-63 0 -106.5 43.5t-43.5 109.5z" />
    <glyph glyph-name="dieresis.uc.narrow" horiz-adv-x="768" 
d="M25 1688q0 68 43.5 113.5t109.5 45.5q67 0 112.5 -45.5t45.5 -113.5q0 -66 -45 -110t-113 -44q-66 0 -109.5 44t-43.5 110zM430 1688q0 67 45 113t111 46q67 0 112 -45.5t45 -113.5q0 -66 -45 -110t-112 -44q-66 0 -111 44t-45 110z" />
    <glyph glyph-name="grave.uc" horiz-adv-x="616" 
d="M317 1554l-307 271h371l213 -271h-277z" />
    <glyph glyph-name="dieresis.uc" horiz-adv-x="948" 
d="M33 1688q0 69 46 116t114 47q69 0 116 -47t47 -116q0 -67 -47 -112.5t-116 -45.5q-68 0 -114 45.5t-46 112.5zM592 1688q0 69 45.5 116t114.5 47q68 0 114.5 -47t46.5 -116q0 -67 -46.5 -112.5t-114.5 -45.5q-69 0 -114.5 45t-45.5 113z" />
    <glyph glyph-name="macron.uc" horiz-adv-x="684" 
d="M662 1579h-637v223h637v-223z" />
    <glyph glyph-name="acute.uc" horiz-adv-x="616" 
d="M606 1825l-307 -271h-276l213 271h370z" />
    <glyph glyph-name="circumflex.uc" horiz-adv-x="851" 
d="M307 1554h-276l250 271h297l253 -271h-288l-119 134z" />
    <glyph glyph-name="caron.uc" horiz-adv-x="851" 
d="M31 1825h286l119 -133l119 133h276l-251 -271h-297z" />
    <glyph glyph-name="breve.uc" horiz-adv-x="751" 
d="M375 1542q-160 0 -248.5 84.5t-93.5 198.5h231q2 -46 31 -74.5t80 -28.5q52 0 81 28.5t31 74.5h230q-2 -53 -23.5 -102.5t-62 -90.5t-107 -65.5t-149.5 -24.5z" />
    <glyph glyph-name="dotaccent.uc" horiz-adv-x="411" 
d="M25 1722q0 75 53 127t129 52q75 0 128.5 -52t53.5 -127q0 -76 -53 -127t-129 -51q-77 0 -129.5 51t-52.5 127z" />
    <glyph glyph-name="ring.uc" horiz-adv-x="624" 
d="M600 1802q0 -119 -85.5 -198.5t-203.5 -79.5q-117 0 -201.5 79.5t-84.5 198.5q0 121 84.5 201t201.5 80q118 0 203.5 -80t85.5 -201zM410 1802q0 45 -28.5 72t-68.5 27q-43 0 -71.5 -26.5t-28.5 -72.5q0 -44 28.5 -70t71.5 -26q40 0 68.5 26t28.5 70z" />
    <glyph glyph-name="tilde.uc" horiz-adv-x="759" 
d="M737 1833v-70q0 -107 -61.5 -166t-151.5 -59q-77 0 -162 51l-10 6q-66 41 -96 41q-22 0 -37.5 -15t-15.5 -44v-27h-178v68q0 107 61 164t150 57q79 0 161 -49q3 -2 16.5 -9.5t17.5 -9.5t15 -8t16 -8t13.5 -5t15.5 -4t13 -1q25 0 40 15t15 44v29h178z" />
    <glyph glyph-name="hungarumlaut.uc" horiz-adv-x="800" 
d="M408 1825l-191 -271h-192l98 271h285zM778 1825l-225 -271h-197l133 271h289z" />
    <glyph glyph-name="caron.alt.uc" horiz-adv-x="444" 
d="M420 1452l-162 -444h-213l64 444h311z" />
    <glyph glyph-name="undercommaaccent" horiz-adv-x="395" 
d="M25 -223q0 60 45 100.5t116 40.5q80 0 132.5 -55t52.5 -133q0 -77 -28 -134.5t-73.5 -87t-93.5 -43.5t-98 -14q-13 0 -25 2v107q84 0 129.5 25t50.5 69q-28 -14 -63 -14q-69 0 -107 38.5t-38 98.5z" />
    </font>
</defs>
</svg>
